<svg width="76" height="76" viewBox="0 0 76 76" fill="none" xmlns="http://www.w3.org/2000/svg">
<path fill-rule="evenodd" clip-rule="evenodd" d="M38 6.33337C20.52 6.33337 6.33337 20.52 6.33337 38C6.33337 55.48 20.52 69.6667 38 69.6667C55.48 69.6667 69.6667 55.48 69.6667 38C69.6667 20.52 55.48 6.33337 38 6.33337ZM34.8334 63.1117C22.325 61.56 12.6667 50.92 12.6667 38C12.6667 36.0367 12.92 34.1684 13.3317 32.3317L28.5 47.5V50.6667C28.5 54.15 31.35 57 34.8334 57V63.1117ZM50.6667 50.6667C53.5167 50.6667 55.86 52.5034 56.6834 55.0684C60.8 50.5717 63.3334 44.5867 63.3334 38C63.3334 27.3917 56.7784 18.3034 47.5 14.535V15.8334C47.5 19.3167 44.65 22.1667 41.1667 22.1667H34.8334V28.5C34.8334 30.2417 33.4084 31.6667 31.6667 31.6667H25.3334V38H44.3334C46.075 38 47.5 39.425 47.5 41.1667V50.6667H50.6667Z" fill="#F2F2F2"/>
</svg>
