<svg width="76" height="76" viewBox="0 0 76 76" fill="none" xmlns="http://www.w3.org/2000/svg">
<path fill-rule="evenodd" clip-rule="evenodd" d="M34.8016 25.3334C34.8016 30.59 30.59 34.8334 25.3333 34.8334C20.0766 34.8334 15.8333 30.59 15.8333 25.3334C15.8333 20.0767 20.0766 15.8334 25.3333 15.8334C30.59 15.8334 34.8016 20.0767 34.8016 25.3334ZM60.135 25.3334C60.135 30.59 55.9233 34.8334 50.6666 34.8334C45.41 34.8334 41.1666 30.59 41.1666 25.3334C41.1666 20.0767 45.41 15.8334 50.6666 15.8334C55.9233 15.8334 60.135 20.0767 60.135 25.3334ZM25.3333 41.1667C17.955 41.1667 3.16663 44.8717 3.16663 52.25V57C3.16663 58.7417 4.59163 60.1667 6.33329 60.1667H44.3333C46.075 60.1667 47.5 58.7417 47.5 57V52.25C47.5 44.8717 32.7116 41.1667 25.3333 41.1667ZM47.595 41.325C48.7033 41.23 49.7483 41.1667 50.6666 41.1667C58.045 41.1667 72.8333 44.8717 72.8333 52.25V57C72.8333 58.7417 71.4083 60.1667 69.6666 60.1667H53.2633C53.6116 59.185 53.8333 58.1084 53.8333 57V52.25C53.8333 47.595 51.3316 44.08 47.7216 41.4517C47.712 41.4421 47.7024 41.4296 47.692 41.416C47.6679 41.3846 47.6391 41.3471 47.595 41.325Z" fill="#F2F2F2"/>
</svg>
