<svg width="76" height="76" viewBox="0 0 76 76" fill="none" xmlns="http://www.w3.org/2000/svg">
<path fill-rule="evenodd" clip-rule="evenodd" d="M69.6667 12.6667H44.3333L39.8683 8.20171C38.665 6.99837 37.05 6.33337 35.3717 6.33337H19C15.5167 6.33337 12.6983 9.18337 12.6983 12.6667L12.6667 50.6667C12.6667 54.15 15.5167 57 19 57H69.6667C73.15 57 76 54.15 76 50.6667V19C76 15.5167 73.15 12.6667 69.6667 12.6667ZM3.16667 19C1.425 19 0 20.425 0 22.1667V34.8334H0.0316667L0 63.3334C0 66.8167 2.85 69.6667 6.33333 69.6667H60.1667C61.9083 69.6667 63.3333 68.2417 63.3333 66.5C63.3333 64.7584 61.9083 63.3334 60.1667 63.3334H9.5C7.75833 63.3334 6.33333 61.9084 6.33333 60.1667V22.1667C6.33333 20.425 4.90833 19 3.16667 19ZM35.1817 30.1467L24.0667 44.9667C23.275 46.0117 24.035 47.5 25.3333 47.4684H63.3017C64.6 47.4684 65.36 45.9484 64.5367 44.9034L56.6517 34.77C56.0183 33.9784 54.815 33.9467 54.1817 34.7384L47.5317 42.75L37.715 30.115C37.05 29.2917 35.815 29.3234 35.1817 30.1467Z" fill="#F2F2F2"/>
</svg>
