<svg width="76" height="76" viewBox="0 0 76 76" fill="none" xmlns="http://www.w3.org/2000/svg">
<path fill-rule="evenodd" clip-rule="evenodd" d="M63.3334 12.6666H12.6667C9.18337 12.6666 6.33337 15.5166 6.33337 19V57C6.33337 60.4833 9.18337 63.3333 12.6667 63.3333H63.3334C66.8167 63.3333 69.6667 60.4833 69.6667 57V19C69.6667 15.5166 66.8167 12.6666 63.3334 12.6666ZM36.4167 28.5C32.0467 28.5 28.5 32.0466 28.5 36.4166C28.5 40.7866 32.0467 44.3333 36.4167 44.3333C40.7867 44.3333 44.3334 40.7866 44.3334 36.4166C44.3334 32.0466 40.7867 28.5 36.4167 28.5ZM43.9534 48.45L50.92 55.4166C52.155 56.6516 54.1817 56.6516 55.4484 55.385C56.6834 54.15 56.6834 52.1233 55.4484 50.8883L48.4817 43.9533C50.255 41.135 51.11 37.7466 50.5084 34.0733C49.5267 28.1516 44.745 23.275 38.7917 22.325C29.1967 20.805 21.09 28.7533 22.2934 38.285C23.0534 44.3016 27.8034 49.305 33.7567 50.4133C37.525 51.11 41.1034 50.2866 43.9534 48.45Z" fill="#F2F2F2"/>
</svg>
