<svg width="76" height="76" viewBox="0 0 76 76" fill="none" xmlns="http://www.w3.org/2000/svg">
<path fill-rule="evenodd" clip-rule="evenodd" d="M66.5 15.8333V60.1667C66.5 63.65 63.65 66.5 60.1667 66.5H15.8333C12.35 66.5 9.5 63.65 9.5 60.1667V15.8333C9.5 12.35 12.35 9.5 15.8333 9.5H60.1667C63.65 9.5 66.5 12.35 66.5 15.8333ZM34.8333 52.2817L28.1833 44.27C27.5183 43.4783 26.315 43.51 25.7133 44.3333L17.8283 54.4667C17.005 55.5117 17.7333 57.0317 19.0633 57.0317H57.0317C58.33 57.0317 59.09 55.5433 58.2983 54.4983L47.1833 39.6783C46.55 38.8233 45.2833 38.8233 44.65 39.6467L34.8333 52.2817Z" fill="#F2F2F2"/>
</svg>
