<?xml version="1.0" encoding="UTF-8" standalone="no"?>
<svg
   width="375"
   height="459"
   viewBox="0 0 375 459"
   fill="none"
   version="1.1"
   id="svg50"
   sodipodi:docname="SEO_drawing.svg"
   inkscape:version="1.1.2 (b8e25be833, 2022-02-05)"
   xmlns:inkscape="http://www.inkscape.org/namespaces/inkscape"
   xmlns:sodipodi="http://sodipodi.sourceforge.net/DTD/sodipodi-0.dtd"
   xmlns="http://www.w3.org/2000/svg"
   xmlns:svg="http://www.w3.org/2000/svg">
  <defs
     id="defs54" />
  <sodipodi:namedview
     id="namedview52"
     pagecolor="#ffffff"
     bordercolor="#666666"
     borderopacity="1.0"
     inkscape:pageshadow="2"
     inkscape:pageopacity="0.0"
     inkscape:pagecheckerboard="0"
     showgrid="false"
     inkscape:zoom="2.0000001"
     inkscape:cx="100.75"
     inkscape:cy="105"
     inkscape:window-width="3440"
     inkscape:window-height="1377"
     inkscape:window-x="-8"
     inkscape:window-y="-8"
     inkscape:window-maximized="1"
     inkscape:current-layer="svg50" />
  <path
     d="m 185.58213,66.977984 c -9.678,0 -17.55,7.866 -17.55,17.534 v 27.444986 c 0,9.669 7.872,17.535 17.55,17.535 h 27.47 c 9.678,0 17.55,-7.866 17.55,-17.535 V 84.511984 c 0,-9.668 -7.872,-17.534 -17.55,-17.534 z"
     fill="#f2f2f2"
     id="path4" />
  <path
     d="m 133.25623,135.04658 c -9.678,0 -17.55,7.866 -17.55,17.535 v 27.445 c 0,9.668 7.872,17.534 17.55,17.534 h 27.47 c 9.678,0 17.55,-7.866 17.55,-17.534 v -27.445 c 0,-9.669 -7.872,-17.535 -17.55,-17.535 z"
     fill="#f2f2f2"
     id="path6" />
  <path
     d="m 95.072464,231.40046 c -9.678,0 -17.55,7.865 -17.55,17.534 v 27.445 c 0,9.669 7.872,17.534 17.55,17.534 h 27.470006 c 9.678,0 17.55,-7.865 17.55,-17.534 v -27.445 c 0,-9.669 -7.872,-17.534 -17.55,-17.534 z"
     fill="#f2f2f2"
     id="path8" />
  <path
     d="m 203.79813,0.01836255 c -12.194,0 -22.114,9.91080215 -22.114,22.09370245 V 56.69397 c 0,12.183014 9.92,22.093014 22.114,22.093014 h 34.61404 c 12.194,0 22.114,-9.91 22.114,-22.093014 V 22.112065 c 0,-12.1829003 -9.92,-22.09370245 -22.114,-22.09370245 z"
     fill="#ed455d"
     id="path10" />
  <path
     d="m 317.75417,96.658984 c -12.194,0 -22.114,9.910986 -22.114,22.093986 v 34.582 c 0,12.182 9.92,22.093 22.114,22.093 h 34.613 c 12.194,0 22.114,-9.911 22.114,-22.093 v -34.582 c 0,-12.183 -9.92,-22.093986 -22.114,-22.093986 z"
     fill="#ed455d"
     id="path12" />
  <path
     d="m 268.21217,444.73597 -7.032,-0.059 -3.113,-27.73 10.378,0.088 z"
     fill="#a0616a"
     id="path14" />
  <path
     d="m 245.68817,455.90697 c -0.015,1.73 1.38,3.153 3.117,3.169 l 13.981,0.116 2.447,-4.956 0.899,4.982 5.276,0.047 -1.333,-17.768 -1.835,-0.122 -7.486,-0.516 -2.415,-0.161 -0.042,5.027 -11.231,7.611 c -0.855,0.58 -1.369,1.54 -1.378,2.571 z"
     fill="#496075"
     id="path16" />
  <path
     d="m 303.98817,444.73597 -7.031,-0.059 -3.113,-27.73 10.378,0.088 z"
     fill="#a0616a"
     id="path18" />
  <path
     d="m 281.46517,455.90697 c -0.015,1.73 1.38,3.153 3.117,3.169 l 13.981,0.116 2.447,-4.956 0.899,4.982 5.275,0.047 -1.332,-17.768 -1.835,-0.122 -7.486,-0.516 -2.415,-0.161 -0.043,5.027 -11.23,7.611 c -0.855,0.58 -1.369,1.54 -1.378,2.571 z"
     fill="#496075"
     id="path20" />
  <path
     d="m 240.61817,220.54497 28.503,0.899 27.003,5.995 c 0,0 -2.7,3.298 6.301,12.29 0,0 12.001,20.983 3.6,41.367 l -3.6,81.534 c 0,0 10.497,57.476 2.477,75.768 l -10.601,0.662 -17.937,-75.767 -8.743,-81.598 -4.2,80.335 c 0,0 16.069,55.141 5.922,77.03 l -11.481,-0.662 -19.644,-76.368 c 0,0 -8.40104,-88.128 -7.20104,-104.915 1.201,-16.786 9.60104,-36.57 9.60104,-36.57 z"
     fill="#496075"
     id="path22" />
  <path
     d="m 336.33817,91.708984 c -3.896,1.008 -6.237,4.98 -5.228,8.872986 0.462,1.784 1.551,3.235 2.967,4.194 l -0.001,0.01 -0.553,13.376 10.246,4.737 0.818,-20.584 -0.071,0.003 c 0.888,-1.582 1.195,-3.491986 0.704,-5.385986 -1.009,-3.893 -4.985,-6.231 -8.882,-5.223 z"
     fill="#a0616a"
     id="path24" />
  <path
     d="m 279.07517,139.44797 c -2.152,-2.132 -3.401,-5.021 -3.448,-8.164 -0.063,-4.216 2.052,-8.042 5.656,-10.235 4.151,-2.526 9.342,-2.27 13.224,0.65 l 32.173,24.202 5.733,-34.864 12.308,3.958 -2.937,45.399 c -0.205,3.175 -2.002,5.973 -4.805,7.483 -2.804,1.51 -6.13,1.472 -8.899,-0.101 l -46.495,-26.429 c -0.934,-0.531 -1.775,-1.171 -2.51,-1.899 z"
     fill="#b8cde1"
     id="path26" />
  <path
     d="m 230.01713,72.206984 c 2.057,3.457 0.919,7.924 -2.541,9.979 -1.585,0.942 -3.381,1.206 -5.062,0.891 l -0.007,0.008 -9.033,9.888 -10.614,-3.843 13.924,-15.193 0.049,0.052 c 0.484,-1.748 1.612,-3.321 3.295,-4.32 3.46,-2.055 7.932,-0.919 9.989,2.538 z"
     fill="#a0616a"
     id="path28" />
  <path
     d="m 233.91917,145.97097 -51.64304,-13.937 c -3.075,-0.83 -5.463,-3.142 -6.39,-6.187 -0.927,-3.045 -0.231,-6.295 1.861,-8.695 l 29.907,-34.304986 11.53,5.846 -20.498,28.791986 39.90204,5.444 c 4.815,0.657 8.681,4.127 9.849,8.84 1.014,4.093 -0.18,8.297 -3.196,11.247 -2.247,2.199 -5.171,3.373 -8.201,3.372 -1.035,0 -2.084,-0.137 -3.121,-0.417 z"
     fill="#b8cde1"
     id="path30" />
  <path
     d="m 307.54517,232.53997 -72.216,3.31 c -1.984,-3.01 -1.447,-7.534 1.331,-13.201 10.487,-21.393 2.523,-61.865 -2.835,-82.939 -1.50403,-5.913 2.532,-11.791 8.608,-12.398 l 6.809,-0.68 6.294,-19.196 h 22.043 l 9.145,10.438 15.52,9.42 c -2.825,29.071 -14.862,70.123 2.286,90.71 3.751,4.502 4.814,9.372 3.015,14.536 z"
     fill="#b8cde1"
     id="path32" />
  <path
     d="m 263.75417,107.87897 c 11.858,0 21.471,-9.603986 21.471,-21.450986 0,-11.847 -9.613,-21.451 -21.471,-21.451 -11.858,0 -21.471,9.604 -21.471,21.451 0,11.847 9.613,21.450986 21.471,21.450986 z"
     fill="#a0616a"
     id="path34" />
  <path
     d="m 288.05017,72.696984 c 2.987,-10.881 -29.571,-20.212044 -35.898,-11.45 -0.88,-1.245 -4.131,-2.002014 -5.623,-1.62001 -1.492,0.38201 -2.746,1.33801 -3.97,2.26301 -1.684,1.291 -3.428,2.629 -4.46,4.486 -1.041,1.85 -1.202,4.372 0.198,5.977 1.11,1.276 3.059,8.059 4.727,8.396 1.162,0.237 2.142,0.428 2.983,0.565 0.75,-1.093 2.662,-2.466 2.524,-3.788 1.132,0.749 0.719,2.067 0.49,3.414 -0.76,4.485 -17.88504,39.201986 -8.077,28.971986 0.972,0.573 2.173,1.108 3.558,1.597 2.348,-3.539 4.276,-7.712 5.546,-12.075986 l 0.009,0.081 c 0.437,3.791986 3.212,6.903986 6.882,7.966986 14.723,4.261 26.633,-1.992 30.73,-13.268984 -1.5,-3.042 -2.153,-2.711 -2.019,-2.802 1.872,-1.26 4.445,-0.436 5.25,1.672 0.237,0.621 0.453,1.151 0.64,1.551 2.134,-7.628 4.673,-6.527 -3.49,-21.936 z"
     fill="#496075"
     id="path36" />
  <path
     d="m 277.89317,64.801984 -1.504,-7.682014 c -0.127,-0.645 -0.247,-1.346 0.045,-1.936 0.374,-0.758 1.337,-1.072 2.174,-0.951 0.838,0.12 1.464,0.885 2.298,1.032 2.897,0.512 6.726,-2.34702 7.764,4.885014 0.433,3.016 5.249,3.334 6.858,5.922 1.608,2.588 1.806,6.324 -0.389,8.439 -1.754,1.688 -4.569,1.883 -6.846,1.02 -2.277,-0.862 -4.105,-2.605 -5.701,-4.442 -1.596,-1.837 -3.042,-3.826 -4.883,-5.418"
     fill="#496075"
     id="path38" />
  <path
     d="m 289.19717,76.485984 c -5.875,-0.82 -9.88,-2.954 -11.903,-6.344 -2.647,-4.438 -0.874,-9.323 -0.797,-9.529 l 1.242,0.461 c -0.017,0.045 -1.626,4.517 0.7,8.401 1.81,3.022 5.491,4.939 10.941,5.7 z"
     fill="#ed455d"
     id="path40" />
  <path
     d="m 104.19149,71.282255 c -17.272006,0 -31.325006,-14.0409 -31.325006,-31.2971 0,-17.2563 14.053,-31.2971979 31.325006,-31.2971979 17.273,0 31.326,14.0408979 31.326,31.2971979 0,17.2562 -14.053,31.2971 -31.326,31.2971 z m 0,-50.0754 c -10.364006,0 -18.795006,8.4233 -18.795006,18.7783 0,10.3549 8.431,18.7782 18.795006,18.7782 10.365,0 18.796,-8.4233 18.796,-18.7782 0,-10.355 -8.431,-18.7783 -18.796,-18.7783 z"
     fill="#ed455d"
     id="path42" />
  <path
     d="m 152.38949,92.551547 c -1.536,0 -3.075,-0.55939 -4.283,-1.6933 l -29.402,-27.528592 c -2.527,-2.3626 -2.655,-6.3237 -0.287,-8.8452 2.361,-2.5306 6.326,-2.6559 8.853,-0.2873 l 29.401,27.528705 c 2.527,2.3626 2.656,6.3236 0.288,8.845087 -1.233,1.31731 -2.9,1.98061 -4.57,1.9806 z"
     fill="#ed455d"
     id="path44" />
  <path
     d="m 21.075264,96.415684 c -11.5373156,0 -20.92166762,9.289576 -20.92166762,20.708446 v 32.41196 c 0,11.41771 9.38435202,20.7073 20.92166762,20.7073 h 32.74747 c 11.53731,0 20.92166,-9.28959 20.92166,-20.7073 v -32.41196 c 0,-11.41888 -9.38435,-20.708446 -20.92166,-20.708446 z"
     fill="#f2f2f2"
     id="path6-6-9"
     style="stroke-width:1.18654" />
</svg>
