<?xml version="1.0" encoding="UTF-8" standalone="no"?>
<svg
   width="430"
   height="430"
   viewBox="0 0 430 430"
   fill="none"
   version="1.1"
   id="svg52"
   sodipodi:docname="design_drawing.svg"
   inkscape:version="1.1.2 (b8e25be833, 2022-02-05)"
   xmlns:inkscape="http://www.inkscape.org/namespaces/inkscape"
   xmlns:sodipodi="http://sodipodi.sourceforge.net/DTD/sodipodi-0.dtd"
   xmlns="http://www.w3.org/2000/svg"
   xmlns:svg="http://www.w3.org/2000/svg">
  <defs
     id="defs56" />
  <sodipodi:namedview
     id="namedview54"
     pagecolor="#ffffff"
     bordercolor="#666666"
     borderopacity="1.0"
     inkscape:pageshadow="2"
     inkscape:pageopacity="0.0"
     inkscape:pagecheckerboard="0"
     showgrid="false"
     inkscape:zoom="1.2807141"
     inkscape:cx="36.307869"
     inkscape:cy="238.14839"
     inkscape:window-width="3440"
     inkscape:window-height="1377"
     inkscape:window-x="-8"
     inkscape:window-y="-8"
     inkscape:window-maximized="1"
     inkscape:current-layer="svg52" />
  <path
     d="m 279.06604,40.00014 v 67.70589 c -0.003,1.836 -0.733,3.596 -2.029,4.895 -1.296,1.298 -3.053,2.029 -4.886,2.032 h -51.851 l 0.477,-0.611 c 27.279,-18.240998 46.609,-42.57789 57.679,-73.24689 z"
     fill="#f2f2f2"
     id="path2" />
  <path
     d="M 311.60704,0.0145203 H 17.763225 c -4.7059,0.0057 -9.2174492,1.880601 -12.545019,5.213601 C 1.890626,8.5610217 0.0187115,13.079828 0.0130369,17.793328 V 194.57787 c 0.00567,4.714 1.8775891,9.233 5.2051691,12.566 3.3275698,3.333 7.839119,5.208 12.545019,5.213 H 311.60704 c 4.706,-0.005 9.218,-1.88 12.545,-5.213 3.328,-3.333 5.2,-7.852 5.205,-12.566 V 17.793328 c -0.005,-4.7135 -1.877,-9.2323063 -5.205,-12.5652067 -3.327,-3.333 -7.839,-5.207901 -12.545,-5.213601 z m 16.186,194.5633497 c 0,2.129 -0.418,4.238 -1.231,6.205 -0.814,1.967 -2.006,3.754 -3.509,5.26 -1.503,1.505 -3.287,2.699 -5.251,3.514 -1.964,0.815 -4.069,1.234 -6.195,1.233 H 17.763225 c -2.1257,0.001 -4.2306,-0.418 -6.1945,-1.233 -1.9638921,-0.815 -3.7483492,-2.009 -5.251409,-3.514 -1.50305,-1.506 -2.69526,-3.293 -3.50851,-5.26 -0.81325,-1.967 -1.23161,-4.076 -1.23119,-6.205 v -71.013 c 0,-4.137 0.20078,-8.225 0.60236,-12.263 3.02028,-30.082948 17.093349,-57.96984 39.487249,-78.245242 22.3938,-20.2754 51.5105,-31.4930067 81.697815,-31.4750067 h 188.242 c 4.293,5e-4 8.409,1.7086 11.445,4.7488004 3.035,3.0402 4.74,7.1634063 4.741,11.4629063 z"
     fill="#e6e6e6"
     id="path4" />
  <path
     d="M 197.76404,79.004032 H 44.927525 c -1.2521,0 -2.453,0.498 -3.3384,1.385 -0.8853,0.887 -1.3827,2.09 -1.3827,3.344 0,1.254 0.4974,2.457 1.3827,3.344 0.8854,0.886 2.0863,1.385 3.3384,1.385 H 197.76404 c 1.252,0 2.453,-0.499 3.338,-1.385 0.885,-0.887 1.383,-2.09 1.383,-3.344 0,-1.254 -0.498,-2.457 -1.383,-3.344 -0.885,-0.887 -2.086,-1.385 -3.338,-1.385 z"
     fill="#e6e6e6"
     id="path6" />
  <path
     d="m 92.311025,54.48114 h -47.3835 c -1.2532,0 -2.455,0.498 -3.3411,1.386 -0.8861,0.888 -1.3839,2.091 -1.3839,3.346 0,1.255961 0.4978,2.458892 1.3839,3.346892 0.8861,0.888 2.0879,1.386 3.3411,1.386 h 47.3835 c 1.253,0 2.455,-0.498 3.341,-1.386 0.886,-0.888 1.384,-2.090931 1.384,-3.346892 0,-1.255 -0.498,-2.458 -1.384,-3.346 -0.886,-0.888 -2.088,-1.386 -3.341,-1.386 z"
     fill="#e6e6e6"
     id="path8" />
  <path
     d="m 44.927525,79.004032 h 23.4296 c -2.9571,3.393 -6.1686,6.555 -9.6065,9.458 h -13.8231 c -1.2521,0 -2.453,-0.499 -3.3384,-1.385 -0.8853,-0.887 -1.3827,-2.09 -1.3827,-3.344 0,-1.254 0.4974,-2.457 1.3827,-3.344 0.8854,-0.887 2.0863,-1.385 3.3384,-1.385 z"
     fill="#ed455d"
     id="path10" />
  <path
     d="m 44.927525,54.48114 h 39.5445 c -1.262,3.239 -2.717,6.399925 -4.357,9.464892 h -35.1875 c -1.2532,0 -2.455,-0.498 -3.3411,-1.386 -0.8861,-0.888 -1.3839,-2.090931 -1.3839,-3.346892 0,-1.255 0.4978,-2.458 1.3839,-3.346 0.8861,-0.888 2.0879,-1.386 3.3411,-1.386 z"
     fill="#ed455d"
     id="path12" />
  <path
     d="M 108.26604,2.5140213 C 80.901525,5.9456213 55.508425,18.574128 36.238225,38.335128 16.968125,58.09603 4.961056,83.819922 2.179976,111.30187 c -0.72753,-0.141 -1.4472315,-0.305 -2.1669391,-0.477 V 17.793328 c 0.00567,-4.7135 1.8775891,-9.2323063 5.2051691,-12.5652067 3.3275698,-3.333 7.839119,-5.207901 12.545019,-5.213601 h 89.877815 c 0.226,0.8227 0.43,1.661101 0.625,2.499501 z"
     fill="#ed455d"
     id="path14" />
  <path
     d="m 272.56504,117.94294 c 0.418,-1.149 1.082,-2.192 1.946,-3.055 0.863,-0.864 1.905,-1.527 3.053,-1.944 1.147,-0.416 2.371,-0.576 3.587,-0.467 1.215,0.108 2.392,0.483 3.448,1.096 l 73.795,-19.368969 1.211,15.226969 -72.208,16.13089 c -1.147,1.708 -2.879,2.935 -4.869,3.449 -1.989,0.514 -4.098,0.279 -5.926,-0.66 -1.828,-0.94 -3.249,-2.518 -3.993,-4.436 -0.744,-1.91794 -0.759,-4.04289 -0.044,-5.97189 z"
     fill="#a0616a"
     id="path16" />
  <path
     d="m 373.82204,95.127971 c -1.756,-2.532 -4.209,-4.499 -7.061,-5.66 -2.852,-1.162 -5.979,-1.467 -9.002,-0.88 l -27.135,5.273 c 0,0 9.341,31.321859 21.171,30.629859 4.986,-0.291 11.296,-3.22489 16.928,-6.52189 1.898,-1.103 3.549,-2.588 4.847,-4.361 1.297,-1.773 2.215,-3.796 2.694,-5.941 0.479,-2.146 0.509,-4.367 0.089,-6.52499 -0.42,-2.157979 -1.282,-4.205979 -2.531,-6.013979 z"
     fill="#b8cde1"
     id="path18" />
  <path
     d="m 346.64304,415.06583 -7.19,-0.06 -3.183,-28.427 10.611,0.09 z"
     fill="#a0616a"
     id="path20" />
  <path
     d="m 349.89004,429.63683 -1.338,-17.889 -1.877,-0.125 -7.659,-0.525 -2.464,-0.165 -0.047,5.148 -11.484,7.804 c -0.503,0.343 -0.899,0.821 -1.142,1.381 -0.242,0.559 -0.322,1.175 -0.228,1.777 0.093,0.603 0.355,1.166 0.756,1.625 0.4,0.459 0.922,0.795 1.506,0.969 0.289,0.088 0.589,0.133 0.892,0.133 l 14.292,0.117 0.125,-0.25 2.378,-4.827 0.869,4.827 0.047,0.282 5.397,0.047 z"
     fill="#496075"
     id="path22" />
  <path
     d="m 422.34604,409.80483 -6.873,2.115 -11.602,-26.137 10.144,-3.123 z"
     fill="#a0616a"
     id="path24" />
  <path
     d="m 423.16704,406.06683 -1.83,0.447 -7.456,1.81 h -0.007 l -2.394,0.588 1.51,4.928 -8.598,10.907 c -0.37,0.476 -0.6,1.047 -0.663,1.647 -0.064,0.601 0.042,1.207 0.305,1.75 0.263,0.543 0.673,1.002 1.183,1.324 0.51,0.322 1.099,0.494 1.702,0.498 0.318,-10e-4 0.634,-0.049 0.939,-0.141 l 0.61,-0.188 13.056,-4.02 0.853,-5.602 2.417,4.591 5.156,-1.59 z"
     fill="#496075"
     id="path26" />
  <path
     d="m 332.18004,176.04083 -13.722,39.941 -0.453,3.196 c -3.457,3.288 0.886,4.372 -0.742,5.239 -1.629,0.867 -2.724,3.297 -0.529,3.732 2.194,0.434 9.27,156.219 18.603,162.268 9.333,6.049 15.013,10.424 13.299,1.567 -0.691,-3.569 0.286,-22.701 1.699,-44.277 0.16,-2.445 2.69,-5.033 0.495,-7.411 -2.194,-2.377 0.271,-3.942 0.409,-5.915 1.968,-28.174 4.241,-55.989 4.241,-55.989 0,0 14.546,50.035 18.323,46.162 3.778,-3.873 2.283,5.663 3.437,8.513 0.964,2.381 -3.151,7.059 2.897,7.131 6.049,0.071 20.254,48.707 21.695,48.652 2.855,-0.109 10.88,0.199 15.645,-0.784 2.354,-0.485 -8.093,-37.307 -16.816,-69.104 -0.696,-2.535 -4.482,-2.594 -2.047,-7.49 -0.39037,-6.68539 -6.65037,-42.23622 -9.20736,-42.4897 -2.722,-0.255 -1.86964,-0.1393 -2.01664,-3.9113 -0.147,-3.772 -0.617,-13.074 -0.617,-13.074 0,0 -1.971,-36.787 -15.775,-57.111 l -1.178,-12.076 z"
     fill="#496075"
     id="path28"
     sodipodi:nodetypes="cccccsccscccscsccccscccc" />
  <path
     d="m 332.80504,176.89583 c -11.891,1.73 -31.338,12.291 -17.817,-10.969 l 14.217,-35.517 c -10.418,-8.10096 -1.665,-23.07089 7.065,-38.031859 l 20.27,-20.304 h 17.61 l 4.656,17.741 c 5.756,12.414969 6.491,26.579969 2.05,39.525859 -2.897,8.433 4.224,26.736 2.798,28.102 -3.129,2.999 -8.605,-0.654 -3.129,5.09 5.476,5.744 6.573,7.582 4.46,9.797 -2.113,2.216 -6.807,9.268 -6.807,9.268 l -7.18,13.288 z"
     fill="#b8cde1"
     id="path30" />
  <path
     d="m 369.56704,67.906971 c 10.33,-4.023 15.448,-15.673 11.431,-26.0196 -4.018,-10.346714 -15.648,-15.472515 -25.978,-11.448815 -10.331,4.023715 -15.448,15.673215 -11.431,26.020415 4.017,10.346 15.648,15.472 25.978,11.448 z"
     fill="#a0616a"
     id="path32" />
  <path
     d="m 389.29504,75.289971 c 2.729,3.911 4.555,8.383 5.344,13.089 -2.199,1.409 -4.759,2.149 -7.37,2.131 -0.088,-0.343 -0.177,-0.685 -0.278,-1.028 -0.757,-2.651 -1.882,-5.183 -3.343,-7.521 0.2,2.521 -0.141,5.055 -1.001,7.433 -1.379,-0.628 -2.858,-1.01 -4.368,-1.129 -1.231,0 -2.445,0.286 -3.546,0.837 -1.279,-4.249 -2.457,-8.156 -3.292,-10.959 -0.026,7.027 -10.308,13.153 -21.527,12.265 -0.406,-0.253 3.659,-11.808 3.267,-12.074 -0.899,-0.596 -1.773,-1.243 -2.647,-1.877 3.672,-5.683 7.661,-11.771 6.977,-12.684 0.051,1.129 -3.976,6.557 -8.357,11.682 -2.431,-1.789 11.384,-30.8845 4.559,-33.2436 -0.114,1.0274 -1.621,1.0274 -3.457,0.8118 -0.485,-1.6951 -1.205,-3.3134 -2.14,-4.8071 0.121,1.5047 -0.06,3.0185 -0.532,4.4519 -1.813,5e-4 -3.621,0.1918 -5.395,0.5708 -0.41,-0.6466 -0.863,-1.2652 -1.355,-1.8518 0.049,0.7149 0.028,1.4327 -0.063,2.1435 -1.811,0.3932 -3.305,0.8498 -3.52,1.2176 -1.418,-0.52 1,-2.8664 0.114,-4.0841 -2.254,-3.0439 1.089,-7.4831 3.203,-10.628615 4.344,-6.4431 13.879,-8.675401 20.628,-4.807 0.304,-1.0528 1.862,-1.7503 3.863,-2.219601 0.847,-0.1872 1.715,-0.2682 2.583,-0.241 8.611,0.1522 20.565,7.267601 21.033,15.879616 0.038,0.8625 0.101,1.801 0.165,2.803 0.608,9.6396 -0.14,18.5306 6.432,25.5826 2.381,2.549 2.406,14.624 1.495,20.839 -2.368,-2.499 -4.053,-12.215 -7.472,-12.582 z"
     fill="#496075"
     id="path34" />
  <path
     d="m 374.84104,173.38483 -41.031,38.134 -53.488,-16.524 -12.455,-54.658 41.031,-38.134 53.488,16.524 z"
     fill="#f2f2f2"
     id="path40" />
  <path
     d="m 306.62604,201.08383 c -0.602,-1.064 -0.963,-2.247 -1.059,-3.465 -0.095,-1.219 0.077,-2.443 0.505,-3.588 0.428,-1.145 1.102,-2.181 1.973,-3.037 0.871,-0.856 1.919,-1.51 3.07,-1.916 l 33.174,-68.80689 12.352,8.95789 -34.603,65.497 c 0.553,1.981 0.361,4.098 -0.54,5.947 -0.9,1.85 -2.447,3.305 -4.347,4.088 -1.899,0.784 -4.02,0.843 -5.96,0.165 -1.94,-0.678 -3.564,-2.045 -4.565,-3.842 z"
     fill="#a0616a"
     id="path42" />
  <path
     d="m 358.45404,98.896971 c -3.064,-0.306 -6.15,0.288 -8.883,1.706989 -2.732,1.41998 -4.994,3.60498 -6.509,6.28998 l -13.604,24.10089 c 0,0 29.856,13.206 37.007,3.742 3.014,-3.989 4.88,-10.701 6.03,-17.13189 0.394,-2.163 0.337,-4.384 -0.167,-6.524 -0.505,-2.139 -1.447,-4.151 -2.766,-5.909 -1.319,-1.757 -2.986,-3.222 -4.898,-4.30199 -1.912,-1.079979 -4.027,-1.751979 -6.21,-1.972979 z"
     fill="#b8cde1"
     id="path44" />
  <path
     d="m 282.97704,56.45414 v 67.70689 c -0.003,1.836 -0.732,3.596 -2.029,4.894 -1.296,1.299 -3.053,2.029 -4.886,2.033 h -51.85 l 0.477,-0.612 c 27.278,-18.241 46.609,-42.577998 57.678,-73.24589 z"
     fill="#ed455d"
     id="path46" />
  <path
     d="m 44.327425,134.01403 -14.2275,24.682 h 28.4543 l -14.2268,-24.682 -14.2275,24.682 h 28.4543 z"
     fill="#f2f2f2"
     id="path48" />
  <path
     d="m 152.00604,250.29303 c 26.065,0 47.194,-21.163 47.194,-47.269 0,-26.107 -21.129,-47.27 -47.194,-47.27 -26.064,0 -47.193,21.163 -47.193,47.27 0,26.106 21.129,47.269 47.193,47.269 z"
     fill="#f2f2f2"
     id="path50" />
</svg>
