<?xml version="1.0" encoding="UTF-8" standalone="no"?>
<svg
   width="470"
   height="482"
   viewBox="0 0 470 482"
   fill="none"
   version="1.1"
   id="svg145"
   sodipodi:docname="undraw_real_time_analytics_re_yliv 1.svg"
   inkscape:version="1.1.1 (3bf5ae0d25, 2021-09-20)"
   xmlns:inkscape="http://www.inkscape.org/namespaces/inkscape"
   xmlns:sodipodi="http://sodipodi.sourceforge.net/DTD/sodipodi-0.dtd"
   xmlns="http://www.w3.org/2000/svg"
   xmlns:svg="http://www.w3.org/2000/svg">
  <sodipodi:namedview
     id="namedview147"
     pagecolor="#505050"
     bordercolor="#eeeeee"
     borderopacity="1"
     inkscape:pageshadow="0"
     inkscape:pageopacity="0"
     inkscape:pagecheckerboard="0"
     showgrid="false"
     inkscape:zoom="1.7185039"
     inkscape:cx="291.2417"
     inkscape:cy="254"
     inkscape:window-width="3440"
     inkscape:window-height="1369"
     inkscape:window-x="2552"
     inkscape:window-y="-8"
     inkscape:window-maximized="1"
     inkscape:current-layer="svg145" />
  <g
     clip-path="url(#clip0_2647_686)"
     id="g138"
     transform="translate(0,-24.909505)">
    <path
       d="m 193.787,66.167 c 1.631,-3.2842 4.239,-6.011 5.834,-9.3131 1.596,-3.3021 1.906,-7.7218 -0.752,-10.2492 -2.256,-2.1461 -5.791,-2.1762 -8.489,-3.7307 -6.875,-3.9603 -6.867,-16.5391 -14.726,-17.626 -3.822,-0.5285 -7.28,2.337 -9.59,5.4266 -2.31,3.0896 -4.151,6.6949 -7.354,8.8444 -3.627,2.4333 -8.316,2.5392 -12.343,4.2293 -7.721,3.2405 -11.769,11.5732 -15.153,19.2309 -2.181,4.9331 -4.411,10.2539 -3.399,15.5516 -2.199,1.368 -1.219,5.0474 0.976,6.4218 2.195,1.3743 4.951,1.3438 7.472,1.939 5.297,1.2512 9.635,5.4673 11.691,10.5061 1.603,3.9273 1.931,8.2393 2.24,12.4693 0.536,7.341 1.073,14.682 1.61,22.022 0.238,3.266 0.552,6.736 2.54,9.339 1.988,2.602 6.294,3.692 8.529,1.299 2.136,-2.288 1.174,-5.909 1.13,-9.038 -0.043,-3.129 2.786,-7.026 5.454,-5.389 l 0.941,-2.134 c 6.093,-2.181 11.428,-6.072 15.367,-11.206 3.939,-5.134 6.315,-11.295 6.843,-17.7439 0.682,-10.3877 -3.453,-21.5257 1.179,-30.8491 z"
       fill="#b8cde1"
       id="path2" />
    <path
       d="m 200.013,132.037 c 0.589,-0.554 1.006,-1.266 1.204,-2.05 0.197,-0.784 0.166,-1.608 -0.089,-2.375 -0.256,-0.767 -0.726,-1.445 -1.354,-1.954 -0.629,-0.509 -1.39,-0.828 -2.193,-0.919 l 0.01,0.353 c -1.147,0.669 -2.455,1.013 -3.783,0.994 -1.323,-0.021 -2.64,0.187 -3.892,0.616 -0.622,0.227 -1.162,0.636 -1.547,1.175 -0.385,0.538 -0.598,1.181 -0.611,1.843 0.072,0.507 0.267,0.99 0.566,1.406 0.299,0.416 0.694,0.755 1.152,0.986 0.919,0.452 1.905,0.752 2.921,0.887 2.616,0.492 5.679,0.864 7.616,-0.962 z"
       fill="#b8cde1"
       id="path4" />
    <path
       d="m 251.04,66.3409 c 1.096,-0.7452 2.026,-1.7085 2.733,-2.8296 0.342,-0.5672 0.505,-1.2248 0.467,-1.8862 -0.038,-0.6615 -0.275,-1.296 -0.68,-1.8203 -0.825,-0.7157 -1.887,-1.0992 -2.979,-1.0759 -2.966,-0.2214 -5.946,0.13 -8.779,1.035 2.909,2.5765 5.817,5.153 8.726,7.7295 z"
       fill="#b8cde1"
       id="path6" />
    <path
       d="m 236.493,73.0419 c 1.176,1.2974 0.801,3.3099 0.468,5.0287 -0.332,1.7188 -0.375,3.8666 1.104,4.8043 1.282,0.8127 3.08,0.1495 4.018,-1.0438 0.838,-1.2727 1.348,-2.7328 1.486,-4.2503 0.461,-2.2056 0.669,-4.4564 0.62,-6.709 -0.055,-2.2694 -0.856,-4.4576 -2.278,-6.227 -1.01,-1.1507 -2.354,-1.9567 -3.845,-2.3049 -1.491,-0.3483 -3.054,-0.2213 -4.469,0.3631 l 1.352,-0.0667 c -0.983,1.2612 -1.728,2.6904 -2.199,4.218 -0.225,0.7674 -0.241,1.5813 -0.046,2.3569 0.195,0.7757 0.595,1.4849 1.157,2.054 0.802,0.6976 1.919,0.9892 2.632,1.7767 z"
       fill="#b8cde1"
       id="path8" />
    <path
       d="m 302.802,51.2823 0.239,-0.7398 c -1.004,0.5812 -1.779,1.4899 -2.194,2.5739 -0.415,1.0841 -0.444,2.2777 -0.084,3.3811 0.773,-0.6095 1.369,-1.4141 1.727,-2.3308 0.359,-0.9167 0.466,-1.9124 0.312,-2.8844 z"
       fill="#b8cde1"
       id="path10" />
    <path
       d="m 289.739,61.8715 c 1.279,-0.7244 2.371,-1.7385 3.188,-2.9609 0.817,-1.2225 1.336,-2.6193 1.516,-4.0784 0.139,-0.9073 0.033,-1.8351 -0.305,-2.6884 -0.173,-0.4236 -0.449,-0.7978 -0.802,-1.0893 -0.353,-0.2915 -0.772,-0.4912 -1.221,-0.5815 l -0.548,0.8612 c -0.785,-0.6753 -2.103,0.0192 -2.433,1.0006 -0.213,1.0188 -0.124,2.0777 0.255,3.0471 0.378,0.9752 0.361,2.0596 -0.048,3.0224 -0.441,0.5662 -0.937,1.0873 -1.481,1.5558 -0.266,0.2418 -0.44,0.5684 -0.491,0.924 -0.052,0.3555 0.022,0.718 0.208,1.0254 0.515,0.5882 1.478,0.3413 2.162,-0.038 z"
       fill="#b8cde1"
       id="path12" />
    <path
       d="m 284.17,57.0604 c 0.469,-0.8428 0.69,-1.8007 0.638,-2.7635 l -1.197,-0.3753 c -0.765,0.3101 -1.444,0.8008 -1.978,1.43 -0.162,0.1626 -0.286,0.359 -0.363,0.5752 -0.078,0.2162 -0.106,0.4468 -0.084,0.6753 0.022,0.2286 0.095,0.4493 0.212,0.6465 0.118,0.1973 0.278,0.3661 0.468,0.4944 0.191,0.1282 0.407,0.2128 0.634,0.2477 0.227,0.0349 0.459,0.0191 0.679,-0.0461 0.22,-0.0652 0.423,-0.1783 0.595,-0.3312 0.171,-0.1528 0.306,-0.3417 0.396,-0.553 z"
       fill="#b8cde1"
       id="path14" />
    <path
       d="m 342.668,51.0049 c 0.109,0.0906 0.216,0.1837 0.325,0.2752 0.095,-0.02 0.186,-0.056 0.283,-0.0679 z"
       fill="#b8cde1"
       id="path16" />
    <path
       d="m 340.75,61.5064 c 1.099,-0.8887 2.198,-1.7774 3.297,-2.6662 0.584,-0.4129 1.081,-0.9358 1.465,-1.5393 0.262,-0.5714 0.375,-1.1998 0.328,-1.8267 -0.046,-0.6268 -0.25,-1.2317 -0.594,-1.7583 -0.608,-0.9334 -1.37,-1.7569 -2.253,-2.4357 -0.971,0.2296 -1.823,0.8071 -2.396,1.623 -0.574,0.816 -0.828,1.8138 -0.714,2.8044 0.198,1.26 0.99,2.6075 0.344,3.7075 -0.252,0.4283 -0.685,0.7198 -0.975,1.1232 -0.29,0.4032 -0.384,1.0455 0.015,1.3421 0.442,0.3292 1.055,-0.0272 1.483,-0.374 z"
       fill="#b8cde1"
       id="path18" />
    <path
       d="m 343.154,66.9466 c 0.408,0.0219 0.817,-0.0443 1.197,-0.1942 0.381,-0.1498 0.725,-0.3798 1.009,-0.6742 1.469,-1.2034 2.754,-2.6149 3.815,-4.1899 -2.473,0.783 -4.945,1.566 -7.418,2.3489 l 0.771,0.9013 c -0.685,0.4467 -0.177,1.6543 0.626,1.8081 z"
       fill="#b8cde1"
       id="path20" />
    <path
       d="m 350.083,72.0346 c 0.151,0.3855 0.424,0.711 0.777,0.9267 0.354,0.2158 0.768,0.3099 1.18,0.2679 0.41,-0.0547 0.804,-0.1986 1.152,-0.4217 0.349,-0.2231 0.644,-0.5199 0.866,-0.8695 0.375,-0.554 0.596,-1.1984 0.64,-1.8665 0.043,-0.6681 -0.093,-1.3356 -0.395,-1.9335 -0.301,-0.5978 -0.756,-1.1044 -1.319,-1.4672 -0.563,-0.3628 -1.212,-0.5687 -1.882,-0.5965 l 0.683,1.0427 c 0.174,1.7799 -2.246,3.2141 -1.702,4.9176 z"
       fill="#b8cde1"
       id="path22" />
    <path
       d="m 398.101,91.5277 c 0.668,0.4989 1.481,0.7675 2.315,0.7655 0.834,-0.002 1.645,-0.2744 2.312,-0.7765 0.432,-0.3689 0.783,-0.8231 1.031,-1.334 0.249,-0.5109 0.389,-1.0676 0.412,-1.6352 0.023,-0.5675 -0.071,-1.1338 -0.277,-1.6632 -0.206,-0.5295 -0.519,-1.0107 -0.92,-1.4136 l -1.262,0.7049 c -0.701,-0.45 -1.548,-0.6109 -2.365,-0.4487 -0.817,0.1621 -1.538,0.6347 -2.014,1.3182 -0.426,0.7163 -0.583,1.5611 -0.442,2.3826 0.141,0.8216 0.57,1.5661 1.21,2.1 z"
       fill="#b8cde1"
       id="path24" />
    <path
       d="m 412.784,93.1897 c 0.615,-0.1785 1.174,-0.5118 1.623,-0.9681 0.45,-0.4563 0.774,-1.0202 0.943,-1.6378 l -2.455,-0.3226 c -0.683,-0.5156 -1.478,-0.8628 -2.32,-1.0132 -0.422,-0.0633 -0.854,0.0205 -1.222,0.2373 -0.368,0.2167 -0.65,0.5534 -0.799,0.9534 -0.053,0.3404 -0.017,0.6884 0.104,1.011 0.12,0.3226 0.321,0.609 0.584,0.8318 0.463,0.4419 1.032,0.7575 1.653,0.9165 0.62,0.159 1.271,0.1562 1.889,-0.0083 z"
       fill="#b8cde1"
       id="path26" />
    <path
       d="m 402.647,98.0968 c 0.043,0.3993 0.199,0.778 0.45,1.0919 0.25,0.3139 0.585,0.5501 0.965,0.6808 0.415,0.1965 0.879,0.2645 1.333,0.1945 0.454,-0.0706 0.876,-0.2755 1.212,-0.5886 0.148,-0.1673 0.255,-0.3675 0.31,-0.5841 0.055,-0.2166 0.058,-0.4432 0.008,-0.661 -0.05,-0.2179 -0.151,-0.4207 -0.295,-0.5917 -0.144,-0.1709 -0.327,-0.305 -0.533,-0.3912 l -1.841,-0.3347 c -0.711,-0.3683 -1.62,0.3833 -1.609,1.1841 z"
       fill="#b8cde1"
       id="path28" />
    <path
       d="m 295.827,111.039 -1.425,-1.301 c 0.379,0.528 0.865,0.971 1.425,1.301 z"
       fill="#b8cde1"
       id="path30" />
    <path
       d="m 284.944,103.379 c 0.877,4.073 5.265,7.391 9.248,6.167 l 0.21,0.192 c -1.268,-1.735 -1.483,-4.303 -1.187,-6.536 0.55,-3.8265 2.055,-7.4528 4.376,-10.5446 2.32,-3.0917 5.383,-5.5492 8.904,-7.1458 0.965,-0.301 1.827,-0.8628 2.492,-1.6233 0.568,-0.83 0.356,-2.2533 -0.622,-2.4877 -0.531,-0.0608 -1.068,0.0633 -1.518,0.3514 l -7.403,3.6426 c -3.739,1.8397 -7.552,3.7322 -10.489,6.6881 -2.937,2.9559 -4.888,7.2232 -4.011,11.2963 z"
       fill="#b8cde1"
       id="path32" />
    <path
       d="m 165.451,243.432 c -6.897,-4.936 -14.451,-8.883 -22.443,-11.726 -4.912,-1.746 -10.19,-3.077 -15.308,-2.086 -2.806,0.58 -5.436,1.814 -7.676,3.602 -2.24,1.788 -4.026,4.078 -5.214,6.686 -1.145,2.627 -1.683,5.477 -1.575,8.34 0.108,2.863 0.859,5.665 2.198,8.198 2.36,4.421 6.447,7.943 7.814,12.765 0.921,3.251 0.484,6.712 0.041,10.062 -0.906,6.845 -1.812,13.69 -2.718,20.535 -0.825,6.232 -1.629,12.718 0.345,18.687 1.973,5.968 7.605,11.23 13.861,10.596 l 1.239,-0.093 c -4.138,-2.814 -5.298,-8.638 -4.066,-13.487 1.233,-4.85 4.36,-8.962 7.413,-12.926 9.061,-11.763 18.122,-23.526 27.183,-35.29 3.666,-4.759 7.544,-10.642 5.589,-16.322 -1.111,-3.229 -3.906,-5.552 -6.683,-7.541 z"
       fill="#b8cde1"
       id="path34" />
    <path
       d="m 103.701,213.695 c -0.918,-0.311 -1.887,0.38 -2.427,1.185 -0.436,0.864 -0.948,1.687 -1.5308,2.46 -1.4115,1.455 -3.9838,1.166 -5.5061,-0.172 -1.5223,-1.339 -2.1819,-3.408 -2.4774,-5.413 -0.3545,-2.406 -0.2014,-5.09 1.3867,-6.932 1.6349,-1.896 4.322,-2.405 6.7947,-2.799 2.5539,-0.407 5.4159,-0.746 7.5079,0.774 1.318,0.957 2.087,2.502 3.308,3.58 1.22,1.079 3.392,1.487 4.311,0.142 0.241,-0.477 0.362,-1.004 0.355,-1.538 -0.008,-0.534 -0.145,-1.058 -0.399,-1.528 -0.516,-0.935 -0.827,-1.97 -0.911,-3.035 0.061,-1.479 1.249,-2.654 2.464,-3.499 1.214,-0.845 2.587,-1.574 3.384,-2.821 0.98,-1.533 0.876,-3.509 1.484,-5.224 1.472,-4.152 6.726,-5.999 8.256,-10.13 0.369,-0.869 0.41,-1.842 0.117,-2.739 -0.641,-1.646 -2.372,-1.323 -2.478,-3.334 -0.102,-1.924 1.503,-3.81 3.134,-4.614 2.248,-1.107 4.87,-1.018 7.376,-1.085 2.505,-0.067 5.205,-0.4 7.044,-2.103 0.595,-0.614 1.054,-1.346 1.347,-2.149 0.292,-0.803 0.412,-1.659 0.351,-2.511 -0.061,-0.852 -0.301,-1.682 -0.705,-2.436 -0.404,-0.753 -0.962,-1.412 -1.639,-1.935 -1.37,-0.946 -3.102,-1.275 -4.436,-2.272 -1.66,-1.243 -2.446,-3.312 -3.74,-4.933 -1.076,-1.235 -2.307,-2.325 -3.663,-3.243 -1.11,-0.823 -2.22,-1.647 -3.329,-2.47 -2.007,-1.489 -4.095,-3.015 -6.536,-3.545 -2.441,-0.53 -5.349,0.22 -6.572,2.398 -0.482,0.971 -0.745,2.036 -0.771,3.119 -0.111,2.552 -0.005,5.108 0.318,7.641 0.202,2.04 0.403,4.079 0.605,6.118 0.18,1.828 -0.014,4.238 -1.789,4.713 -3.937,1.052 -2.608,-4.769 -3.482,-6.552 -1.337,-2.73 -7.478,-4.04 -10.104,-5.178 -1.6394,-0.71 -3.3699,-1.495 -4.36,-2.982 -1.2324,-1.851 -0.9794,-4.371 -0.013,-6.374 0.9663,-2.003 2.5408,-3.633 3.971,-5.336 1.458,-1.736 2.786,-3.576 4.112,-5.415 1.538,-2.132 3.076,-4.265 4.614,-6.397 1.973,-2.735 4.047,-6.073 2.926,-9.253 -0.243,-0.426 -0.606,-0.77 -1.043,-0.99 -0.438,-0.22 -0.931,-0.307 -1.417,-0.248 -0.487,0.059 -0.945,0.26 -1.318,0.577 -0.373,0.318 -0.644,0.739 -0.778,1.21 -0.491,1.717 0.819,3.909 -0.435,5.182 -0.429,0.345 -0.966,0.529 -1.517,0.519 -0.552,-0.011 -1.082,-0.214 -1.498,-0.576 -0.811,-0.749 -1.43,-1.684 -1.802,-2.724 -1.518,-3.374 -2.9975,-6.769 -4.5562,-10.124 -0.4927,-1.061 -1.007,-2.877 -2.5002,-2.698 -1.2963,0.155 -1.9964,2.044 -1.9513,3.14 0.0655,1.596 0.9475,3.021 1.6216,4.469 0.674,1.447 1.1454,3.186 0.4053,4.601 -0.9371,1.791 -3.3105,2.193 -5.3318,2.134 -3.8099,-0.115 -7.543,-1.1 -10.9138,-2.879 -0.088,1.872 -0.1761,3.745 -0.2642,5.617 -2.6829,-1.123 -5.3657,-2.246 -8.0486,-3.368 -0.5211,-0.218 -1.0421,-0.437 -1.5632,-0.655 -2.2631,-0.947 -4.529,-1.895 -6.8588,-2.664 -1.3226,-0.436 -2.6637,-0.814 -4.0042,-1.192 -0.8149,-0.229 -1.6298,-0.459 -2.4447,-0.689 -1.608,-0.569 -3.3136,-0.813 -5.0168,-0.715 -1.7894,0.224 -3.3855,1.185 -5.0404,1.904 -3.6923,1.602 -8.4679,-0.01 -12.4246,-0.039 -1.5695,-2.29 -3.6884,-4.151 -6.1629,-5.412 -2.4746,-1.261 -5.2258,-1.881 -8.002,-1.804 -2.7762,0.077 -5.4889,0.849 -7.8898,2.244 -2.40093,1.396 -4.41353,3.371 -5.85373,5.746 -0.69565,1.202 -1.31517,2.448 -1.85489,3.728 -0.53685,1.203 -1.07372,2.406 -1.61059,3.609 -0.78757,1.764 -1.592508,3.623 -1.437708,5.55 0.154799,1.926 1.631638,3.893 3.564208,3.876 -4.557171,2.063 -5.50546,9.281 -1.63567,12.45 1.07156,0.878 2.38557,1.452 3.34986,2.446 0.72882,0.751 1.2164,1.703 1.40019,2.734 0.18378,1.03 0.05538,2.092 -0.36874,3.049 -0.42411,0.957 -1.1246,1.766 -2.01154,2.322 -0.88694,0.556 -1.91987,0.835 -2.96624,0.8 2.69983,1.043 5.67369,1.14 8.43585,0.275 2.7621,-0.865 5.1492,-2.641 6.7713,-5.038 1.6545,-2.59 2.3735,-5.825 4.6242,-7.918 2.9807,-2.772 7.9041,-2.557 11.3419,-0.377 3.4378,2.179 5.6125,5.89 7.1085,9.675 1.9603,4.96 3.2149,10.628 7.3914,13.946 2.0194,1.604 4.5768,2.506 6.3617,4.368 2.5419,2.651 2.9817,6.652 2.9243,10.324 -0.0573,3.672 -0.4528,7.482 0.885,10.902 1.3379,3.42 5.1733,6.233 8.6127,4.944 -0.9853,2.922 -0.9551,6.092 0.0857,8.995 1.0408,2.903 3.0313,5.371 5.6492,7.002 -0.6266,-3.886 -1.2532,-7.771 -1.8798,-11.657 3.1231,0.879 5.1472,3.908 6.3162,6.933 1.169,3.026 1.7867,6.299 3.4811,9.065 2.6683,4.356 7.5002,6.233 12.4156,6.216 5.3099,-0.018 7.3259,-2.549 10.8256,-6.277 0.703,-0.636 1.236,-1.437 1.552,-2.33 0.143,-0.451 0.118,-0.938 -0.069,-1.372 -0.188,-0.433 -0.526,-0.785 -0.952,-0.989 z"
       fill="#b8cde1"
       id="path36" />
    <path
       d="m 118.736,213.501 c -2.968,-0.466 -5.935,-0.932 -8.903,-1.399 1.555,0.936 3.111,1.871 4.667,2.806 1.298,0.863 2.708,1.543 4.192,2.019 0.744,0.234 1.529,0.313 2.304,0.231 0.776,-0.082 1.527,-0.322 2.206,-0.706 l -0.38,-0.726 c -0.598,-1.513 -2.478,-1.972 -4.086,-2.225 z"
       fill="#b8cde1"
       id="path38" />
    <path
       d="m 116.719,229.996 0.021,-0.052 c -0.18,-0.297 -0.444,-0.534 -0.759,-0.681 -0.316,-0.146 -0.668,-0.194 -1.011,-0.139 -0.683,0.122 -1.382,0.134 -2.07,0.034 -0.436,-0.171 -0.826,-0.444 -1.135,-0.795 -0.31,-0.352 -0.531,-0.773 -0.644,-1.228 -0.295,-0.887 -0.383,-1.837 -0.719,-2.709 -0.242,-0.691 -0.671,-1.301 -1.238,-1.763 -0.567,-0.463 -1.251,-0.76 -1.976,-0.859 -0.728,-0.058 -1.449,0.172 -2.008,0.641 -0.559,0.47 -0.911,1.14 -0.98,1.866 0.057,0.749 0.295,1.472 0.693,2.108 0.32,0.615 0.64,1.231 0.96,1.847 0.27,0.551 0.581,1.082 0.929,1.588 0.567,0.781 1.308,1.419 2.164,1.863 0.856,0.444 1.805,0.682 2.769,0.696 0.965,0.014 1.919,-0.197 2.788,-0.617 0.869,-0.42 1.628,-1.036 2.216,-1.8 z"
       fill="#b8cde1"
       id="path40" />
    <path
       d="m 99.3858,72.0855 c 2.2602,1.3321 5.0902,2.2501 6.1642,4.6433 l 0.619,0.2001 c -0.676,0.8395 -1.351,1.6789 -2.027,2.5184 -0.835,1.0374 -1.713,2.1933 -1.694,3.5248 0.027,1.8337 1.792,3.2171 3.574,3.6494 1.903,0.3913 3.882,0.0621 5.556,-0.9239 1.673,-0.986 2.92,-2.5583 3.499,-4.4118 0.212,-0.773 0.299,-1.5748 0.485,-2.3544 0.542,-1.8492 1.36,-3.606 2.426,-5.2111 6.001,-10.0941 12.003,-20.1883 18.004,-30.2824 0.747,-1.2571 1.518,-2.7609 0.956,-4.111 -0.3,-0.5711 -0.765,-1.0393 -1.333,-1.3443 -0.568,-0.305 -1.215,-0.4328 -1.857,-0.367 -1.281,0.1555 -2.516,0.571 -3.631,1.2208 -0.495,-0.8695 -1.194,-1.6059 -2.036,-2.146 -0.843,-0.54 -1.804,-0.8675 -2.801,-0.9544 -1.994,-0.1538 -3.999,0.0208 -5.936,0.5169 -4.376,0.6602 -8.596,2.1095 -12.454,4.2775 -2.111,1.0668 -4.433,2.3842 -5.046,4.6681 -0.753,2.8094 1.674,5.6726 4.469,6.48 2.795,0.8074 5.778,0.1294 8.607,-0.5503 0.32,1.371 0.186,2.8086 -0.38,4.0975 -0.566,1.2889 -1.535,2.3595 -2.761,3.0515 -1.226,0.692 -2.644,0.9681 -4.04,0.7868 -1.396,-0.1812 -2.696,-0.81 -3.705,-1.7921 -2.028,-1.974 -3.021,-5.4006 -5.8046,-5.91 -2.7749,-0.5078 -4.9806,2.4513 -5.5931,5.2046 -0.599,2.9654 -0.2741,6.0431 0.931,8.8181 1.2051,2.775 3.2324,5.1138 5.8085,6.7009 z"
       fill="#b8cde1"
       id="path42" />
    <path
       d="m 134.192,120.657 c -1.337,-3.766 -3.093,-7.37 -5.236,-10.742 -1.625,-2.667 -3.629,-5.083 -5.952,-7.171 -2.122,-1.832 -4.561,-3.2608 -7.198,-4.2155 -2.559,-0.9253 -5.408,-1.3823 -7.995,-0.5387 -2.587,0.8437 -4.788,3.2482 -4.735,5.9692 0.058,3.007 2.69,5.359 5.433,6.595 2.743,1.236 5.795,1.774 8.383,3.308 1.759,1.067 3.23,2.55 4.282,4.318 1.053,1.769 1.654,3.768 1.752,5.824 l 0.652,1.077 c -1.476,0.49 -2.854,1.239 -4.066,2.214 -0.6,0.495 -1.059,1.14 -1.331,1.87 -0.271,0.729 -0.344,1.517 -0.213,2.285 0.452,1.821 2.312,2.866 3.994,3.699 3.108,1.539 6.215,3.078 9.323,4.617 -1.582,-4.718 3.599,-9.108 3.885,-14.075 0.011,-1.727 -0.321,-3.438 -0.978,-5.034 z"
       fill="#b8cde1"
       id="path44" />
    <path
       d="m 56.0466,107.92 c 1.8852,1.463 4.7838,0.779 6.5109,-0.869 1.7271,-1.647 2.5683,-3.991 3.3527,-6.245 -0.2865,2.231 -0.2593,4.491 0.0807,6.714 0.177,1.112 0.583,2.175 1.1923,3.122 0.6092,0.947 1.4084,1.757 2.347,2.379 0.8522,0.467 1.7709,0.802 2.7242,0.991 4.4315,1.009 9.0627,0.678 13.3058,-0.95 l 0.0381,-1.451 c -2.1316,0.243 -3.7446,-2.094 -3.8853,-4.234 -0.1408,-2.141 0.6362,-4.24 0.7045,-6.383 0.0683,-2.1443 -0.9652,-4.6492 -3.0764,-5.0306 0.3695,0.742 0.5043,1.5788 0.3863,2.3993 -0.1179,0.8204 -0.483,1.5854 -1.0465,2.1933 -0.5636,0.608 -1.299,1.03 -2.1083,1.21 -0.8092,0.179 -1.6541,0.108 -2.4221,-0.204 -2.4437,-0.993 -3.3314,-3.9696 -5.2199,-5.8111 -1.1669,-1.0378 -2.6145,-1.7075 -4.161,-1.9249 -1.5464,-0.2175 -3.1227,0.027 -4.5306,0.7026 -1.39,0.7092 -2.6095,1.7116 -3.5741,2.938 -0.9646,1.2264 -1.6514,2.6474 -2.0128,4.1654 -0.5736,2.202 -0.4033,4.892 1.3945,6.288 z"
       fill="#b8cde1"
       id="path46" />
    <path
       d="m 114.23,92.6438 0.088,-0.1419 c -0.526,-1.5195 -2.158,-2.4104 -3.75,-2.6366 -1.605,-0.1059 -3.217,-0.0526 -4.812,0.1591 -1.609,0.2081 -3.241,-0.1512 -4.614,-1.0161 -1.096,-0.8192 -1.7203,-2.1082 -2.5965,-3.1592 -0.8763,-1.051 -2.2945,-1.9153 -3.5674,-1.4127 -1.378,0.5441 -1.7457,2.4753 -1.0769,3.7971 0.7878,1.2687 1.9763,2.2385 3.3773,2.756 5.3055,2.4349 11.2755,3.0175 16.9515,1.6543 z"
       fill="#b8cde1"
       id="path48" />
    <path
       d="m 96.1201,97.1983 c -0.4407,0.3228 -0.7395,0.8035 -0.8339,1.3416 -0.0944,0.538 0.0231,1.0917 0.3277,1.5451 0.3046,0.453 0.7728,0.772 1.3066,0.888 0.5339,0.116 1.092,0.021 1.5576,-0.264 l 0.4649,0.458 c 0.6184,-1.107 0.8734,-2.5898 0.0827,-3.5811 -0.3516,-0.411 -0.8425,-0.6778 -1.3787,-0.7493 -0.5361,-0.0716 -1.0798,0.0573 -1.5269,0.3617 z"
       fill="#b8cde1"
       id="path50" />
    <path
       d="m 90.6793,101.17 c 0.0067,-0.396 -0.1064,-0.784 -0.3246,-1.114 -0.2181,-0.3299 -0.5311,-0.5861 -0.8977,-0.7349 -0.2496,-0.0428 -0.5052,-0.0347 -0.7516,0.0239 -0.2463,0.0586 -0.4782,0.1664 -0.6818,0.317 -0.2035,0.1506 -0.3744,0.341 -0.5025,0.559 -0.128,0.219 -0.2106,0.461 -0.2426,0.712 -0.0383,0.511 0.0289,1.025 0.1976,1.51 0.1687,0.484 0.4352,0.929 0.783,1.306 0.2023,0.304 0.4668,0.562 0.7759,0.756 0.3092,0.194 0.656,0.321 1.0176,0.371 0.7286,0.024 1.4715,-0.738 1.176,-1.404 l -1.1125,-0.022 c 0.3428,-0.713 0.5345,-1.489 0.5632,-2.28 z"
       fill="#b8cde1"
       id="path52" />
    <path
       d="m 68.9226,89.7785 c 0.4086,0.331 0.8172,0.6621 1.2258,0.9933 0.7078,0.6117 1.4723,1.1544 2.2832,1.6208 1.4184,0.7855 3.0865,0.9897 4.6526,0.5694 0.7731,-0.2204 1.4783,-0.6319 2.0506,-1.1965 0.5722,-0.5646 0.9931,-1.2641 1.2238,-2.0341 0.4886,-1.8405 -0.3083,-3.7516 -1.0882,-5.4888 -0.178,-0.4971 -0.4717,-0.9448 -0.8568,-1.3061 -0.1973,-0.1748 -0.449,-0.2759 -0.7124,-0.2862 -0.2634,-0.0104 -0.5222,0.0707 -0.7327,0.2294 -0.1526,0.19 -0.2541,0.4159 -0.2948,0.6561 -0.0407,0.2403 -0.0193,0.4869 0.0622,0.7166 0.1677,0.4577 0.2443,0.9436 0.2256,1.4307 -0.0777,0.4804 -0.582,0.9344 -1.0263,0.7357 l -0.0707,1.6353 C 73.743,86.9804 72.621,84.1244 70.26,83.8428 c -0.5299,-0.0632 -1.067,0.0203 -1.5527,0.2414 -0.4856,0.2211 -0.9013,0.5713 -1.2015,1.0124 -0.3002,0.4411 -0.4735,0.9562 -0.501,1.489 -0.0274,0.5329 0.092,1.063 0.3453,1.5326 0.4099,0.6514 0.9443,1.2156 1.5725,1.6603 z"
       fill="#b8cde1"
       id="path54" />
    <path
       d="m 63.8697,82.7192 c 0.4908,-0.3364 0.879,-0.8018 1.1221,-1.3448 0.243,-0.543 0.3314,-1.1426 0.2553,-1.7326 -0.0588,-0.2858 -0.1798,-0.5551 -0.3544,-0.7888 -0.1747,-0.2337 -0.3987,-0.4261 -0.6561,-0.5635 -0.2575,-0.1373 -0.542,-0.2163 -0.8334,-0.2312 -0.2914,-0.015 -0.5826,0.0345 -0.8527,0.1447 -0.6061,0.4531 -1.032,1.1064 -1.2017,1.8438 -0.5591,1.5768 -1.1183,3.1537 -1.6774,4.7306 l 0.9397,-0.6837 c 1.1627,-0.2503 2.268,-0.7166 3.2586,-1.3745 z"
       fill="#b8cde1"
       id="path56" />
    <path
       d="m 74.7594,73.0421 c 0.1679,-0.2117 0.2873,-0.4576 0.3499,-0.7204 0.0626,-0.2628 0.0668,-0.5361 0.0124,-0.8007 -0.0545,-0.2646 -0.1663,-0.5141 -0.3275,-0.7308 -0.1613,-0.2168 -0.3682,-0.3955 -0.606,-0.5238 l -1.175,-0.1098 c -0.2672,0.0676 -0.5148,0.1969 -0.7229,0.3775 -0.2082,0.1806 -0.3711,0.4075 -0.4757,0.6624 -0.1046,0.2549 -0.148,0.5308 -0.1267,0.8055 0.0213,0.2747 0.1067,0.5406 0.2494,0.7763 0.1427,0.2358 0.3386,0.4348 0.5721,0.5812 0.2335,0.1463 0.4981,0.2359 0.7725,0.2616 0.2744,0.0256 0.551,-0.0134 0.8075,-0.114 0.2566,-0.1005 0.4861,-0.2598 0.67,-0.465 z"
       fill="#b8cde1"
       id="path58" />
    <path
       d="m 85.5697,74.8554 c 1.0965,0.5245 2.4845,1.0243 3.4384,0.2711 0.2826,-0.2557 0.4927,-0.5813 0.6093,-0.944 0.1166,-0.3627 0.1355,-0.7498 0.0548,-1.1222 -0.1712,-0.7428 -0.502,-1.4395 -0.9696,-2.0417 -1.4587,-2.094 -3.3121,-3.8832 -5.4562,-5.2675 l -0.5302,0.6886 c -0.7405,1.9224 -1.4554,4.1666 -0.4226,5.9492 0.6964,1.2016 2.0231,1.8671 3.2761,2.4665 z"
       fill="#b8cde1"
       id="path60" />
    <path
       d="m 93.7383,76.5663 2.0503,0.9272 c -0.201,-0.3503 -0.5072,-0.6284 -0.8753,-0.7948 -0.368,-0.1665 -0.7792,-0.2128 -1.175,-0.1324 z"
       fill="#b8cde1"
       id="path62" />
    <path
       d="m 88.2129,83.0162 -0.9689,0.3191 c -0.8238,1.3536 -0.4664,3.0844 -0.0832,4.6219 0.2423,0.972 0.7648,2.1679 1.7657,2.1237 0.9739,-0.043 1.4049,-1.2237 1.5918,-2.1803 0.2918,-1.0392 0.3234,-2.1342 0.0921,-3.1884 -0.132,-0.522 -0.446,-0.9796 -0.8856,-1.2905 -0.4396,-0.311 -0.9757,-0.4548 -1.5119,-0.4055 z"
       fill="#b8cde1"
       id="path64" />
    <path
       d="m 72.7623,78.4605 0.7169,0.2886 c 0.1681,-0.0239 0.3235,-0.1027 0.4423,-0.224 0.1188,-0.1213 0.1942,-0.2783 0.2146,-0.4468 0.0205,-0.1686 -0.0153,-0.3391 -0.1017,-0.4852 -0.0863,-0.1462 -0.2185,-0.2598 -0.376,-0.3232 -0.1575,-0.0634 -0.3315,-0.0731 -0.4951,-0.0275 -0.1636,0.0455 -0.3075,0.1437 -0.4096,0.2793 -0.1021,0.1356 -0.1566,0.3011 -0.155,0.4709 0.0015,0.1697 0.059,0.3342 0.1636,0.4679 z"
       fill="#b8cde1"
       id="path66" />
    <path
       d="m 108.904,133.266 c -0.348,0.008 -0.688,0.099 -0.993,0.265 -0.305,0.166 -0.566,0.402 -0.761,0.69 -0.195,0.287 -0.319,0.617 -0.361,0.961 -0.042,0.345 0,0.695 0.121,1.021 0.704,1.515 3.128,1.522 4.206,0.244 0.276,-0.363 0.474,-0.779 0.581,-1.222 0.107,-0.443 0.121,-0.904 0.041,-1.353 -0.08,-0.449 -0.253,-0.876 -0.506,-1.255 -0.253,-0.379 -0.583,-0.701 -0.967,-0.947 z"
       fill="#b8cde1"
       id="path68" />
    <path
       d="m 143.824,169.169 c -0.282,0.075 -0.546,0.206 -0.776,0.385 -0.23,0.179 -0.422,0.402 -0.565,0.656 -0.142,0.255 -0.233,0.535 -0.265,0.825 -0.032,0.29 -0.006,0.583 0.077,0.862 l 2.013,0.14 c 0.681,-0.342 1.363,-0.684 2.044,-1.026 -0.041,-0.289 -0.139,-0.566 -0.29,-0.816 -0.15,-0.25 -0.349,-0.467 -0.585,-0.639 -0.235,-0.172 -0.503,-0.294 -0.787,-0.361 -0.284,-0.066 -0.578,-0.075 -0.866,-0.026 z"
       fill="#b8cde1"
       id="path70" />
    <path
       d="m 135.642,171.658 c -0.576,0.409 -1.038,0.958 -1.343,1.595 -0.305,0.637 -0.443,1.341 -0.4,2.046 0.065,0.703 0.353,1.367 0.821,1.896 0.468,0.529 1.092,0.895 1.783,1.046 0.696,0.109 1.408,-0.05 1.992,-0.446 0.584,-0.396 0.995,-0.999 1.151,-1.686 0.341,-2.082 -1.897,-3.606 -2.701,-5.556 z"
       fill="#b8cde1"
       id="path72" />
    <path
       d="m 213.82,157.911 c 0.212,1.563 -1.196,2.932 -1.248,4.508 -0.063,1.87 1.973,3.325 3.836,3.141 0.924,-0.16 1.799,-0.532 2.555,-1.087 0.756,-0.556 1.373,-1.279 1.803,-2.113 l 0.04,-0.175 c -0.907,-1.025 -1.814,-2.05 -2.721,-3.076 -1.115,-1.259 -2.296,-2.692 -2.252,-4.372 0.022,-0.828 0.348,-1.631 0.33,-2.459 -0.044,-0.596 -0.177,-1.182 -0.395,-1.739 -0.245,-0.733 -0.58,-1.559 -1.312,-1.806 -0.917,-0.31 -1.842,0.503 -2.28,1.366 -0.394,0.796 -0.585,1.676 -0.557,2.564 0.028,0.887 0.274,1.754 0.717,2.524 0.529,0.899 1.343,1.69 1.484,2.724 z"
       fill="#b8cde1"
       id="path74" />
    <path
       d="m 205.264,163.409 c 0.199,0.107 0.418,0.17 0.643,0.185 0.225,0.014 0.45,-0.02 0.661,-0.101 0.808,-0.138 1.585,-0.42 2.293,-0.834 0.352,-0.211 0.641,-0.512 0.838,-0.872 0.197,-0.36 0.295,-0.765 0.284,-1.175 -0.122,-0.516 -0.395,-0.984 -0.784,-1.344 -0.388,-0.361 -0.875,-0.598 -1.398,-0.682 -0.363,-0.128 -0.753,-0.165 -1.133,-0.106 -0.381,0.058 -0.742,0.209 -1.05,0.439 -0.676,0.634 -0.596,1.71 -0.463,2.627 l -0.143,0.239 c -0.127,0.567 -0.208,1.271 0.252,1.624 z"
       fill="#b8cde1"
       id="path76" />
    <path
       d="m 348.055,230.19 c -0.196,-0.488 -0.393,-0.976 -0.589,-1.463 -0.269,0.662 -0.169,1.34 0.589,1.463 z"
       fill="#b8cde1"
       id="path78" />
    <path
       d="m 465.841,127.579 c -2.518,-2.731 -4.06,-4.306 -5.65,-7.692 -0.866,-1.867 -2.18,-3.491 -3.826,-4.726 -1.645,-1.236 -3.572,-2.045 -5.607,-2.355 -5.223,-0.861 -10.561,0.502 -15.848,0.229 -8.469,-0.438 -16.106,-4.979 -24.216,-7.456 -4.541,-1.272 -9.165,-2.226 -13.839,-2.854 -2.693,-0.425 -5.386,-0.851 -8.079,-1.277 -8.827,-1.396 -17.711,-2.7956 -26.647,-2.6103 -2.576,0.0535 -6.166,-0.7208 -5.959,-3.2891 0.256,-3.1899 5.996,-2.7711 7.101,-5.7749 0.683,-1.8582 -0.952,-3.8091 -2.745,-4.6492 -1.793,-0.8403 -3.863,-1.0929 -5.49,-2.221 -1.627,-1.128 -2.518,-3.7429 -1.023,-5.0405 -4.145,2.1245 -8.29,4.249 -12.435,6.3736 -3.446,1.7663 -7.297,4.0643 -7.906,7.8881 -2.076,0.5486 -3.893,1.8108 -5.132,3.5651 -2.332,0.0121 -4.164,2.2502 -4.549,4.5492 -0.384,2.299 0.315,4.626 1.006,6.853 -0.846,-1.62 -1.744,-3.301 -3.235,-4.358 -1.491,-1.057 -3.76,-1.258 -5.031,0.055 -1.304,1.347 -0.999,3.607 -0.076,5.24 0.922,1.632 2.339,2.949 3.21,4.61 2.719,5.186 -2.208,12.489 -8.036,11.911 0.391,-5.356 0.782,-10.712 1.173,-16.067 0.247,-1.648 0.109,-3.33 -0.405,-4.915 -0.636,-1.533 -2.264,-2.792 -3.884,-2.43 -2.913,0.651 -2.664,4.917 -1.452,7.644 1.212,2.728 2.42,6.52 -0.054,8.19 -1.597,1.079 -3.763,0.413 -5.488,-0.448 -1.724,-0.861 -3.569,-1.922 -5.454,-1.52 -1.885,0.402 -3.071,3.283 -1.405,4.254 -2.762,-0.48 -5.524,-0.96 -8.286,-1.44 -0.137,0.813 -0.443,1.588 -0.898,2.275 -0.455,0.688 -1.05,1.272 -1.745,1.715 -0.695,0.444 -1.475,0.736 -2.29,0.859 -0.816,0.123 -1.648,0.074 -2.443,-0.145 -0.271,-1.123 -0.542,-2.247 -0.813,-3.37 -0.404,-0.113 -0.808,-0.225 -1.212,-0.338 1.268,0.353 -0.717,5.703 -2.496,9.789 -2.393,-0.28 -5.889,-0.334 -6.288,-1.02 -1.91,-3.282 -1.683,-11.099 -5.002,-12.946 -1.665,-0.926 -3.371,-1.77 -5.12,-2.531 -0.919,-0.438 -1.89,-0.756 -2.889,-0.949 -2.039,-0.321 -4.094,0.311 -6.06,0.936 -2.324,0.738 -4.702,1.503 -6.627,3.001 -1.643,1.425 -3.051,3.099 -4.174,4.962 -3.799,5.622 -7.598,11.244 -11.397,16.865 -1.132,1.502 -2.023,3.17 -2.64,4.946 -0.291,0.883 -0.388,1.819 -0.284,2.743 0.104,0.924 0.406,1.814 0.885,2.611 0.506,0.781 1.259,1.369 2.139,1.669 0.881,0.301 1.836,0.297 2.714,-0.011 1.101,-0.477 2.204,-1.557 3.295,-1.058 0.827,0.378 1.033,1.464 0.947,2.368 -0.21,0.885 -0.227,1.806 -0.049,2.698 0.497,1.408 2.408,1.898 3.771,1.289 1.326,-0.723 2.319,-1.932 2.771,-3.373 1.313,-3.367 1.179,-7.094 1.506,-10.694 0.327,-3.6 1.312,-7.451 4.151,-9.689 0.849,-0.671 2.098,-1.154 2.973,-0.516 0.327,0.297 0.554,0.69 0.647,1.122 0.094,0.433 0.05,0.884 -0.125,1.29 -0.365,0.804 -0.842,1.553 -1.416,2.225 -0.97,1.364 -1.649,2.914 -1.994,4.552 -0.346,1.638 -0.35,3.329 -0.013,4.969 l 0.58,0.359 c 2.213,-0.574 5.176,0.454 8.115,1.439 -2.133,0.635 -4.012,1.926 -5.367,3.691 -3.397,4.765 -5.856,9.275 -12.576,9.218 -1.594,-0.013 -3.175,-0.328 -4.769,-0.332 -1.609,-0.099 -3.194,0.429 -4.423,1.473 -1.208,1.183 -1.582,2.984 -2.616,4.323 -1.359,1.76 -3.632,2.475 -5.707,3.275 -1.517,0.584 -3.116,1.372 -3.813,2.84 -0.438,1.204 -0.539,2.504 -0.292,3.761 0.234,2.224 0.647,4.752 2.534,5.952 0.705,0.368 1.477,0.592 2.27,0.659 0.793,0.067 1.591,-0.024 2.348,-0.268 1.962,-0.477 3.881,-1.376 5.896,-1.242 3.164,0.211 5.77,3.247 5.802,6.418 0.016,1.604 -0.452,3.445 0.612,4.647 0.999,1.129 2.982,0.927 4.018,-0.169 0.481,-0.583 0.812,-1.275 0.965,-2.016 0.152,-0.741 0.12,-1.507 -0.093,-2.233 -0.44,-1.445 -1.116,-2.808 -2.002,-4.032 1.053,-0.273 2.169,-0.173 3.156,0.284 0.987,0.456 1.786,1.241 2.26,2.219 0.703,1.561 0.476,3.362 0.7,5.06 0.225,1.697 1.258,3.583 2.967,3.681 0.559,0.015 1.106,-0.165 1.546,-0.51 0.44,-0.345 0.745,-0.834 0.863,-1.38 0.017,-0.861 -0.03,-1.723 -0.141,-2.577 0.059,-0.841 0.436,-1.628 1.056,-2.199 0.62,-0.571 1.436,-0.883 2.279,-0.873 -0.52,0.961 -0.69,2.072 -0.479,3.144 0.21,1.072 0.787,2.038 1.632,2.731 1.301,1.006 3.02,1.231 4.641,1.512 1.62,0.282 3.349,0.726 4.395,1.996 1.742,2.114 -0.39,3.066 -0.721,4.856 -0.408,2.198 1.429,5.444 2.134,7.547 3.241,4.534 6.483,9.067 9.724,13.601 0.724,1.102 1.577,2.114 2.542,3.013 3.2,2.747 8.475,2.476 11.543,-0.417 1.488,-1.505 2.454,-3.447 2.756,-5.541 0.303,-2.094 -0.074,-4.23 -1.075,-6.095 -1.897,-3.451 -5.654,-5.588 -7.509,-9.061 3.088,2.556 6.879,4.115 10.873,4.47 7.065,1.436 13.778,4.25 19.753,8.283 0.281,6.242 2.677,12.203 6.793,16.904 0.741,-5.327 3.225,-10.259 7.065,-14.026 2.497,-2.434 5.909,-4.397 9.335,-3.743 3.426,0.655 6.025,5.023 3.953,7.828 1.736,0.129 3.473,0.258 5.209,0.388 0.779,1.935 1.557,3.871 2.336,5.807 0.139,-0.407 0.404,-0.759 0.757,-1.004 0.353,-0.245 0.776,-0.371 1.205,-0.358 1.626,0.245 2.766,1.757 4.312,2.316 2.915,1.052 6.03,-1.863 6.407,-4.938 0.377,-3.076 -1.086,-6.045 -2.508,-8.798 3.141,0.582 6.382,0.235 9.329,-0.997 2.946,-1.232 5.469,-3.297 7.26,-5.941 1.791,-2.643 2.772,-5.752 2.823,-8.945 0.051,-3.192 -0.831,-6.33 -2.536,-9.03 3.379,-3.548 7.355,-6.475 11.748,-8.648 4.065,-2.007 8.511,-3.386 12.064,-6.202 3.553,-2.817 6.044,-7.707 4.336,-11.906 -1.208,-2.966 -4.235,-4.979 -5.142,-8.051 -1.311,-4.446 2.673,-9.045 7.175,-10.156 4.501,-1.111 9.202,0.255 13.637,1.609 -0.682,-4.561 4.607,-8.838 8.926,-7.218 1.809,-0.732 3.618,-1.465 5.428,-2.197 -2.098,4.622 -6.642,7.563 -9.983,11.385 -3.341,3.821 -5.331,10.044 -1.841,13.73 5.003,-4.533 10.006,-9.067 15.009,-13.601 5.233,-4.742 10.466,-9.484 15.699,-14.226 -0.249,-0.734 -0.499,-1.468 -0.749,-2.202 4.951,-1.88 10.283,-3.435 15.019,-5.77 z"
       fill="#b8cde1"
       id="path80" />
    <path
       d="m 205.982,188.595 c -0.202,0.291 -0.309,0.637 -0.308,0.991 0.002,0.354 0.113,0.7 0.318,0.989 0.269,0.228 0.609,0.355 0.961,0.36 0.353,0.005 0.696,-0.114 0.971,-0.335 0.537,-0.458 0.957,-1.039 1.223,-1.693 0.26,0.503 0.669,0.913 1.17,1.176 0.501,0.262 1.071,0.364 1.633,0.291 1.121,-0.169 2.183,-0.611 3.091,-1.289 0.721,-0.422 1.358,-0.974 1.878,-1.628 0.257,-0.33 0.434,-0.715 0.516,-1.124 0.082,-0.41 0.067,-0.833 -0.044,-1.236 -0.27,-0.618 -0.689,-1.159 -1.22,-1.575 -1.324,-1.223 -2.648,-2.445 -3.972,-3.668 l -0.448,-0.134 c -0.234,-0.249 -0.515,-0.447 -0.827,-0.584 -0.312,-0.137 -0.649,-0.21 -0.99,-0.213 -0.341,-0.004 -0.679,0.061 -0.994,0.192 -0.315,0.13 -0.6,0.323 -0.839,0.566 -0.822,0.92 -0.826,2.294 -0.7,3.522 0.125,1.227 0.321,2.534 -0.226,3.641 -0.313,0.634 -0.844,1.136 -1.193,1.751 z"
       fill="#b8cde1"
       id="path82" />
    <path
       d="m 282.789,230.357 c -5.144,-1.145 -9.853,-3.739 -13.57,-7.474 -3.718,-3.736 -6.288,-8.457 -7.406,-13.606 -0.488,-2.43 -0.709,-5.085 -2.326,-6.964 -1.566,-1.819 -4.123,-2.475 -6.523,-2.475 -2.4,0 -4.765,0.552 -7.161,0.702 -4.187,0.261 -8.625,-0.845 -11.619,-3.784 -1.418,-1.391 -2.492,-3.158 -4.148,-4.256 -2.226,-1.475 -5.177,-1.474 -7.714,-0.638 -2.825,0.931 -5.086,3.478 -8.175,3.128 -3.212,-0.365 -6.936,-1.5 -8.195,2.729 -0.363,1.218 -0.239,2.553 -0.699,3.738 -0.707,1.826 -2.586,2.855 -4.073,4.131 -2.993,2.569 -4.584,6.472 -5.12,10.379 -0.536,3.908 -0.122,7.877 0.293,11.799 0.224,2.116 0.519,4.393 1.972,5.946 2.027,2.167 5.427,2.083 8.383,1.839 3.434,-0.284 6.869,-0.567 10.303,-0.851 1.852,-0.153 3.961,-0.218 5.279,1.091 0.79,0.785 1.124,1.919 1.819,2.789 0.623,0.74 1.479,1.247 2.428,1.438 0.949,0.191 1.934,0.056 2.796,-0.385 -0.697,1.244 -1.076,2.64 -1.104,4.066 -0.028,1.425 0.296,2.835 0.943,4.106 0.647,1.27 1.597,2.361 2.766,3.177 1.17,0.816 2.522,1.33 3.938,1.499 l 0.265,0.167 c -2.199,3.764 -4.48,7.991 -3.569,12.254 0.782,3.656 3.81,6.586 4.305,10.291 0.455,3.399 -1.319,6.876 -0.535,10.214 0.795,3.381 4.21,5.738 7.675,5.99 3.464,0.251 6.868,-1.285 9.552,-3.49 2.683,-2.206 4.758,-5.046 6.803,-7.853 1.263,-1.734 2.557,-3.538 2.991,-5.638 0.461,-2.235 -0.074,-4.712 1.013,-6.718 1.254,-2.314 4.229,-3.181 5.731,-5.342 1.945,-2.799 0.799,-6.61 1.229,-9.99 1.064,-8.366 11.695,-13.58 11.453,-22.009 z"
       fill="#b8cde1"
       id="path84" />
    <path
       d="m 281.254,258.917 c -0.291,1.306 -1.514,2.166 -2.68,2.823 -1.165,0.658 -2.447,1.321 -3.041,2.52 -0.609,1.229 -0.331,2.692 -0.012,4.025 0.662,2.774 1.441,5.515 2.339,8.225 1.739,-3.286 3.258,-6.684 4.546,-10.173 0.546,-1.298 0.882,-2.675 0.998,-4.078 0.053,-0.703 -0.041,-1.409 -0.278,-2.073 -0.236,-0.663 -0.609,-1.27 -1.094,-1.781 z"
       fill="#b8cde1"
       id="path86" />
    <path
       d="m 352.797,244.367 c -1.461,-1.686 -2.922,-3.372 -4.383,-5.058 -0.999,-1.153 -2.138,-2.384 -3.652,-2.577 l -0.623,0.398 c 1.267,3.015 2.533,6.031 3.8,9.046 0.448,1.377 1.238,2.618 2.295,3.608 1.133,0.891 2.972,1.062 3.917,-0.026 0.305,-0.408 0.497,-0.889 0.558,-1.395 0.06,-0.506 -0.014,-1.018 -0.214,-1.487 -0.412,-0.93 -0.987,-1.78 -1.698,-2.509 z"
       fill="#b8cde1"
       id="path88" />
    <path
       d="m 366.952,247.596 c 0.552,-0.192 1.058,-0.497 1.486,-0.895 0.427,-0.399 0.767,-0.882 0.997,-1.419 0.453,-1.076 0.752,-2.211 0.888,-3.371 0.25,-1.509 0.499,-3.019 0.749,-4.529 l -0.326,-0.084 c -0.318,-0.152 -0.679,-0.184 -1.018,-0.09 -0.34,0.094 -0.633,0.308 -0.826,0.602 -0.368,0.599 -0.647,1.249 -0.827,1.929 -0.092,0.34 -0.261,0.655 -0.492,0.92 -0.231,0.266 -0.519,0.476 -0.843,0.615 -1.172,0.353 -2.283,-0.889 -3.507,-0.84 -0.494,0.062 -0.953,0.291 -1.301,0.648 -0.348,0.357 -0.564,0.821 -0.614,1.317 -0.071,1.001 0.213,1.995 0.801,2.808 1.044,1.62 2.981,2.922 4.833,2.389 z"
       fill="#b8cde1"
       id="path90" />
    <path
       d="m 375.029,250.458 3.367,-8.865 c -1.364,0.989 -2.41,2.355 -3.008,3.93 -0.598,1.575 -0.723,3.29 -0.359,4.935 z"
       fill="#b8cde1"
       id="path92" />
    <path
       d="m 392.21,243.312 -0.681,0.029 c -0.304,0.601 -0.466,1.265 -0.472,1.939 -0.007,0.674 0.142,1.341 0.435,1.948 0.597,1.211 1.467,2.268 2.54,3.087 1.663,1.373 3.561,2.432 5.603,3.128 2.994,0.873 6.089,1.35 9.206,1.418 1.783,0.116 3.565,0.233 5.347,0.349 0.849,0.056 1.947,-0.052 2.183,-0.869 0.195,-0.675 -0.38,-1.309 -0.917,-1.762 -4.715,-3.967 -10.431,-6.561 -16.523,-7.498 -2.31,-0.351 -4.762,-0.496 -6.721,-1.769 z"
       fill="#b8cde1"
       id="path94" />
    <path
       d="m 411.233,266.839 c -1.281,-1.243 -2.563,-2.486 -3.845,-3.728 -1.246,-1.209 -3.114,-2.49 -4.542,-1.503 -0.821,0.567 -1.075,1.674 -1.77,2.389 -0.424,0.379 -0.936,0.647 -1.49,0.779 -0.554,0.132 -1.131,0.123 -1.681,-0.025 -1.095,-0.307 -2.129,-0.798 -3.061,-1.45 l -3.18,-1.973 c -1.098,-0.681 -2.195,-1.362 -3.293,-2.043 l -2.476,2.407 c 0.107,-1.185 -1.472,-1.954 -2.565,-1.486 -0.52,0.292 -0.967,0.696 -1.309,1.185 -0.341,0.488 -0.568,1.047 -0.664,1.635 -0.182,1.175 -0.5,2.325 -0.947,3.428 -1.257,2.407 -4.311,3.119 -6.997,3.523 -2.686,0.403 -5.729,0.971 -7.166,3.275 -1.198,1.919 -0.839,4.383 -0.439,6.609 l 1.514,8.422 c 0.071,1.021 0.481,1.988 1.163,2.75 1.33,1.174 3.39,0.46 5.013,-0.255 3.393,-1.632 7.034,-2.687 10.774,-3.122 3.773,-0.422 7.569,0.55 10.674,2.733 1.925,1.466 3.394,3.494 5.433,4.796 1.405,0.845 2.984,1.358 4.617,1.501 1.634,0.142 3.278,-0.09 4.808,-0.679 3.067,-1.221 5.605,-3.484 7.168,-6.391 1.388,-2.563 2.085,-5.444 2.022,-8.358 -0.064,-2.914 -0.885,-5.762 -2.383,-8.262 -1.53,-2.268 -3.336,-4.336 -5.378,-6.157 z"
       fill="#b8cde1"
       id="path96" />
    <path
       d="m 407.454,301.153 c -0.307,0.373 -0.487,0.835 -0.513,1.318 -0.026,0.483 0.103,0.962 0.369,1.366 0.559,0.8 1.41,1.348 2.37,1.525 0.951,0.17 1.919,0.215 2.882,0.132 l 0.029,-0.719 c -0.257,-1.261 -0.838,-2.433 -1.688,-3.4 -0.928,-0.882 -2.569,-1.153 -3.449,-0.222 z"
       fill="#b8cde1"
       id="path98" />
    <path
       d="m 440.46,301.921 -0.459,-0.168 c -1.094,1.648 -2.188,3.296 -3.281,4.944 -0.589,0.887 -1.203,1.952 -0.844,2.954 0.425,1.186 1.996,1.533 3.216,1.22 0.931,-0.253 1.771,-0.766 2.421,-1.479 0.65,-0.713 1.083,-1.597 1.248,-2.547 0.135,-0.956 -0.011,-1.929 -0.42,-2.803 -0.408,-0.874 -1.062,-1.611 -1.881,-2.121 z"
       fill="#b8cde1"
       id="path100" />
    <path
       d="m 448.798,296.691 -3.02,-2.4 c -0.04,1.114 -0.08,2.227 -0.121,3.34 l -0.113,0.002 c 0.696,0.611 1.354,1.264 1.968,1.957 0.707,0.601 1.893,0.875 2.497,0.172 0.18,-0.252 0.283,-0.552 0.295,-0.862 0.011,-0.31 -0.069,-0.616 -0.23,-0.881 -0.332,-0.524 -0.766,-0.975 -1.276,-1.328 z"
       fill="#b8cde1"
       id="path102" />
    <path
       d="m 394.25,192.283 c -1.267,-0.039 -2.669,-0.116 -3.651,0.685 -0.323,0.289 -0.607,0.619 -0.843,0.982 l -0.346,0.485 c -0.518,0.678 -0.97,1.404 -1.349,2.168 -0.198,0.359 -0.317,0.755 -0.348,1.163 -0.032,0.408 0.024,0.819 0.165,1.203 0.081,0.184 0.202,0.348 0.353,0.48 0.151,0.132 0.33,0.229 0.523,0.284 0.193,0.056 0.396,0.068 0.595,0.036 0.198,-0.031 0.387,-0.106 0.554,-0.219 0.541,-0.501 0.415,-1.411 0.824,-2.025 0.18,-0.231 0.412,-0.418 0.676,-0.544 0.265,-0.127 0.555,-0.19 0.848,-0.185 0.585,0.015 1.168,0.081 1.741,0.197 1.588,0.217 3.206,-0.024 4.661,-0.696 1.456,-0.672 2.688,-1.746 3.553,-3.096 0.864,-1.35 1.324,-2.919 1.325,-4.522 10e-4,-1.603 -0.457,-3.172 -1.319,-4.523 l -0.102,-0.311 c -0.877,-0.034 -1.738,0.241 -2.434,0.777 -0.695,0.536 -1.18,1.298 -1.371,2.155 -0.284,1.476 0.317,3.191 -0.578,4.398 -0.754,1.018 -2.21,1.148 -3.477,1.108 z"
       fill="#b8cde1"
       id="path104" />
    <path
       d="m 405.591,176.637 -0.193,-0.017 c -1.133,0.207 -2.221,0.612 -3.213,1.197 -0.325,0.151 -0.585,0.415 -0.732,0.742 -0.043,0.174 -0.042,0.356 0.002,0.529 0.045,0.174 0.132,0.333 0.254,0.465 0.246,0.26 0.534,0.477 0.852,0.641 0.473,0.316 0.997,0.55 1.548,0.692 0.277,0.069 0.566,0.067 0.842,-0.004 0.276,-0.072 0.53,-0.21 0.739,-0.404 0.196,-0.269 0.33,-0.578 0.395,-0.905 0.064,-0.327 0.055,-0.664 -0.025,-0.987 -0.09,-0.664 -0.247,-1.317 -0.469,-1.949 z"
       fill="#b8cde1"
       id="path106" />
    <path
       d="m 386.063,192.659 c 0.303,-0.485 0.518,-1.02 0.636,-1.579 0.118,-0.435 0.236,-0.869 0.354,-1.304 l -1.263,-0.767 c -0.603,0.314 -1.159,0.711 -1.653,1.179 -0.245,0.235 -0.439,0.519 -0.57,0.833 -0.131,0.315 -0.195,0.653 -0.188,0.993 0.017,0.34 0.149,0.664 0.374,0.919 0.225,0.256 0.53,0.428 0.866,0.488 0.286,0.008 0.569,-0.057 0.822,-0.191 0.253,-0.133 0.468,-0.33 0.622,-0.571 z"
       fill="#b8cde1"
       id="path108" />
    <path
       d="m 248.483,75.2426 c -0.5,0.3112 -0.359,1.0636 -0.156,1.616 0.233,0.6343 0.465,1.2684 0.698,1.9026 l 0.325,-1.2311 c 0.286,-0.4775 0.412,-1.0336 0.36,-1.5877 -0.112,-0.5411 -0.758,-0.9921 -1.227,-0.6998 z"
       fill="#b8cde1"
       id="path110" />
    <path
       d="m 230.743,144.544 c 2.767,0 5.01,-2.242 5.01,-5.008 0,-2.766 -2.243,-5.009 -5.01,-5.009 -2.766,0 -5.009,2.243 -5.009,5.009 0,2.766 2.243,5.008 5.009,5.008 z"
       fill="#ed455d"
       id="path112" />
    <path
       d="m 120.419,498.725 7.556,-0.001 3.594,-29.138 -11.152,10e-4 z"
       fill="#ffb6b6"
       id="path114" />
    <path
       d="m 120.153,506.605 23.235,-0.001 v -0.294 c 0,-2.398 -0.953,-4.697 -2.649,-6.393 -1.696,-1.696 -3.996,-2.648 -6.395,-2.648 v 0 l -4.244,-3.219 -7.919,3.219 h -2.028 z"
       fill="#25313c"
       id="path116" />
    <path
       d="m 177.193,498.725 7.555,-0.001 3.595,-29.138 -11.152,10e-4 z"
       fill="#ffb6b6"
       id="path118" />
    <path
       d="m 176.927,506.605 23.235,-0.001 v -0.294 c -0.001,-2.398 -0.953,-4.697 -2.649,-6.393 -1.696,-1.696 -3.997,-2.648 -6.395,-2.648 h -0.001 l -4.244,-3.219 -7.918,3.219 h -2.029 z"
       fill="#25313c"
       id="path120" />
    <path
       d="m 120.125,261.693 13.41,-1.92 c 4.535,7.582 6.146,27.762 6.146,27.762 l 13.123,31.184 c 0.869,0.59 1.568,1.399 2.025,2.345 0.457,0.945 0.657,1.995 0.579,3.042 -0.077,1.048 -0.429,2.057 -1.021,2.925 -0.591,0.868 -1.401,1.565 -2.347,2.021 -0.947,0.456 -1.997,0.655 -3.044,0.576 -1.048,-0.079 -2.056,-0.432 -2.924,-1.025 -0.868,-0.592 -1.564,-1.402 -2.019,-2.349 -0.455,-0.947 -0.652,-1.997 -0.572,-3.044 l -21.547,-36.297 z"
       fill="#ffb6b6"
       id="path122" />
    <path
       d="m 127.393,224.474 c -2.075,0.322 -4.054,1.096 -5.796,2.269 -1.742,1.173 -3.204,2.716 -4.282,4.518 -1.078,1.802 -1.746,3.819 -1.955,5.909 -0.21,2.089 0.044,4.199 0.743,6.179 l 2.845,8.064 c 0,0 -3.584,24.28 2.323,31.133 l 18.127,-1.64 c 0,0 -3.314,-12.25 -0.77,-18.177 1.558,-3.629 1.472,-16.166 -0.064,-26.364 -1.172,-7.787 -3.387,-13.096 -11.171,-11.891 z"
       fill="#ed455d"
       id="path124" />
    <path
       d="m 189.905,297.631 c 0,0 13.972,13.624 10.988,16.77 -2.984,3.147 -9.809,7.554 -3.474,8.272 6.335,0.718 8.963,2.274 3.474,3.583 -5.488,1.309 -4.64,4.669 -4.64,4.669 0,0 8.263,39.328 2.001,65.204 0,0 -3.485,70.679 -5.672,76.183 -2.187,5.504 -3.022,2.165 -2.187,5.504 0.835,3.339 2.505,-2.504 0.835,3.339 -0.911,3.052 -1.633,6.158 -2.16,9.299 l -16.333,-2.504 c 0,0 -2.629,-8.287 0,-10.462 2.63,-2.176 4.989,-0.835 2.139,-5.679 -2.849,-4.844 -3.684,1.834 -2.849,-4.844 0.835,-6.678 -2.65,-42.795 2.849,-61.882 l -10.163,-53.559 -16.136,55.457 c 0,0 -8.559,67.73 -11.34,70.117 -2.781,2.388 -6.955,-1.786 -2.781,2.388 4.175,4.173 4.102,3.456 4.175,4.173 0.778,7.657 -23.125,-0.717 -23.125,-0.717 0.132,-1.946 0.132,-3.898 0,-5.844 -0.252,-1.786 2.756,-2.358 0,-4.159 -2.757,-1.801 1.345,-0.014 1.345,-0.014 0,0 6.164,-49.967 10.853,-65.109 l 5.427,-73.738 c 0,0 0.345,1.471 0,-2.104 -0.344,-3.575 -2.849,-1.071 -0.344,-3.575 2.504,-2.504 4.174,-3.78 2.504,-5.646 -1.669,-1.866 -6.276,-5.642 -3.555,-7.928 2.721,-2.286 8.074,-17.194 8.074,-17.194 l 52.182,0.417"
       fill="#25313c"
       id="path126" />
    <path
       d="m 170.285,214.848 -9.409,-10.593 -14.867,1.652 -9.518,13.318 c -5.067,1.165 -9.494,4.226 -12.372,8.555 -2.877,4.329 -3.986,9.596 -3.097,14.717 3.693,21.265 16.246,41.889 12.101,52.381 -6.292,15.927 -6.676,22.423 8.385,20.19 15.061,-2.233 65.518,-7.381 55.736,-17.161 -9.783,-9.781 -11.931,-26.124 -11.931,-26.124 l -0.393,-37.392 c 0.416,-2.255 0.361,-4.572 -0.162,-6.804 -0.524,-2.233 -1.503,-4.333 -2.878,-6.169 -1.375,-1.836 -3.114,-3.367 -5.11,-4.498 -1.995,-1.131 -4.203,-1.836 -6.485,-2.072 z"
       fill="#ed455d"
       id="path128" />
    <path
       d="m 167.715,255.85 13.409,-1.92 c 4.535,7.582 6.147,27.762 6.147,27.762 l 13.123,31.184 c 0.869,0.59 1.567,1.399 2.024,2.345 0.457,0.945 0.657,1.995 0.58,3.042 -0.078,1.048 -0.43,2.056 -1.021,2.925 -0.592,0.868 -1.401,1.565 -2.348,2.021 -0.946,0.456 -1.996,0.654 -3.044,0.576 -1.048,-0.079 -2.056,-0.432 -2.924,-1.025 -0.867,-0.592 -1.564,-1.402 -2.019,-2.349 -0.454,-0.947 -0.652,-1.997 -0.572,-3.044 L 169.524,281.07 Z"
       fill="#ffb6b6"
       id="path130" />
    <path
       d="m 174.983,218.631 c -2.076,0.322 -4.055,1.096 -5.797,2.269 -1.742,1.173 -3.204,2.716 -4.282,4.518 -1.078,1.802 -1.745,3.819 -1.955,5.909 -0.209,2.089 0.044,4.199 0.743,6.179 l 2.846,8.064 c 0,0 -3.585,24.28 2.323,31.133 l 18.126,-1.64 c 0,0 -3.314,-12.25 -0.769,-18.177 1.558,-3.629 1.471,-16.166 -0.064,-26.364 -1.173,-7.787 -3.388,-13.096 -11.171,-11.891 z"
       fill="#ed455d"
       id="path132" />
    <path
       d="m 149.355,203.344 c 9.924,0 17.969,-8.044 17.969,-17.967 0,-9.922 -8.045,-17.966 -17.969,-17.966 -9.925,0 -17.97,8.044 -17.97,17.966 0,9.923 8.045,17.967 17.97,17.967 z"
       fill="#ffb6b6"
       id="path134" />
    <path
       d="m 146.05,202.965 c 5.004,-1.254 5.175,-2.684 10.179,-3.938 1.594,-0.399 3.44,-1.027 3.913,-2.601 0.112,-0.575 0.089,-1.169 -0.067,-1.734 -0.156,-0.565 -0.442,-1.086 -0.833,-1.522 -0.789,-0.863 -1.528,-1.771 -2.213,-2.718 -0.454,-0.761 -0.715,-1.622 -0.762,-2.506 -0.047,-0.885 0.122,-1.768 0.493,-2.573 0.371,-0.805 0.932,-1.507 1.636,-2.046 0.703,-0.539 1.527,-0.899 2.4,-1.049 1.549,-0.265 3.145,0.145 4.703,-0.053 2.137,-0.272 5.28,-8.199 3.91,-9.861 -1.333,-1.618 -3.522,-2.583 -4.257,-4.546 -0.481,-1.284 -0.218,-2.72 -0.433,-4.074 -0.317,-2.009 -4.381,3.551 -3.841,1.592 1.327,-4.808 -21.126,-5.565 -23.463,0.603 -0.874,2.305 -3.239,2.671 -5.058,4.335 -1.193,1.09 -4.044,4.58 -4.458,6.461 -0.342,1.901 -0.276,3.854 0.194,5.729 1.864,8.786 4.947,16.573 13.151,20.233"
       fill="#25313c"
       id="path136" />
  </g>
  <defs
     id="defs143">
    <clipPath
       id="clip0_2647_686">
      <rect
         width="583"
         height="508"
         fill="#ffffff"
         id="rect140"
         x="0"
         y="0" />
    </clipPath>
  </defs>
</svg>
