<?xml version="1.0" encoding="UTF-8" standalone="no"?>
<svg
   width="477"
   height="346"
   viewBox="0 0 477 346"
   fill="none"
   version="1.1"
   id="svg48"
   sodipodi:docname="Mobile Drawing.svg"
   inkscape:version="1.1.2 (b8e25be833, 2022-02-05)"
   xmlns:inkscape="http://www.inkscape.org/namespaces/inkscape"
   xmlns:sodipodi="http://sodipodi.sourceforge.net/DTD/sodipodi-0.dtd"
   xmlns="http://www.w3.org/2000/svg"
   xmlns:svg="http://www.w3.org/2000/svg">
  <defs
     id="defs52" />
  <sodipodi:namedview
     id="namedview50"
     pagecolor="#ffffff"
     bordercolor="#666666"
     borderopacity="1.0"
     inkscape:pageshadow="2"
     inkscape:pageopacity="0.0"
     inkscape:pagecheckerboard="0"
     showgrid="false"
     width="587px"
     inkscape:zoom="1.2723112"
     inkscape:cx="194.52788"
     inkscape:cy="71.523383"
     inkscape:window-width="2560"
     inkscape:window-height="1377"
     inkscape:window-x="-2568"
     inkscape:window-y="-8"
     inkscape:window-maximized="1"
     inkscape:current-layer="svg48" />
  <path
     d="M 448.87058,269.48 H 47.649236 c -4.9046,-0.006 -9.6068,-1.958 -13.0749,-5.429 -3.4682,-3.471 -5.419,-8.177 -5.4246,-13.086 V 57.2365 c 0.0056,-4.9087 1.9564,-9.6147 5.4246,-13.0857 3.4681,-3.4709 8.1703,-5.4234 13.0749,-5.4289 H 448.87058 c 4.905,0.0055 9.607,1.958 13.075,5.4289 3.468,3.471 5.419,8.177 5.424,13.0857 V 250.965 c -0.005,4.909 -1.956,9.615 -5.424,13.086 -3.468,3.471 -8.17,5.423 -13.075,5.429 z M 47.649236,40.112 c -4.5364,0.0051 -8.8856,1.8109 -12.0933,5.0213 -3.2078,3.2103 -5.0121,7.5631 -5.0172,12.1032 V 250.965 c 0.0051,4.54 1.8094,8.893 5.0172,12.103 3.2077,3.211 7.5569,5.016 12.0933,5.022 H 448.87058 c 4.536,-0.006 8.886,-1.811 12.093,-5.022 3.208,-3.21 5.012,-7.563 5.018,-12.103 V 57.2365 c -0.006,-4.5401 -1.81,-8.8929 -5.018,-12.1032 -3.207,-3.2104 -7.557,-5.0162 -12.093,-5.0213 z"
     fill="#ffffff"
     id="path2" />
  <path
     d="m 15.047536,230.141 c -3e-4,0.109 0.0163,0.216 0.0489,0.317 0.0325,0.1 0.0803,0.192 0.1407,0.268 0.0604,0.077 0.1321,0.138 0.211,0.18 0.0789,0.041 0.1634,0.062 0.2488,0.062 H 476.44558 c 0.173,0 0.338,-0.087 0.46,-0.242 0.121,-0.155 0.19,-0.366 0.19,-0.585 0,-0.22 -0.069,-0.43 -0.19,-0.585 -0.122,-0.155 -0.287,-0.242 -0.46,-0.242 H 15.696936 c -0.0854,-0.001 -0.1699,0.021 -0.2488,0.062 -0.079,0.041 -0.1506,0.102 -0.211,0.179 -0.0604,0.077 -0.1082,0.168 -0.1407,0.269 -0.0326,0.1 -0.0492,0.208 -0.0489,0.317 z"
     fill="#cccccc"
     id="path4" />
  <path
     d="m 152.87258,215.528 c -0.399,0.018 -0.794,-0.087 -1.132,-0.301 -0.338,-0.214 -0.602,-0.527 -0.756,-0.896 -0.154,-0.369 -0.191,-0.776 -0.106,-1.167 0.085,-0.391 0.288,-0.747 0.581,-1.018 l 0.134,-0.532 c -0.018,-0.042 -0.035,-0.085 -0.053,-0.127 -0.402,-0.951 -1.076,-1.762 -1.938,-2.331 -0.861,-0.569 -1.871,-0.87 -2.903,-0.867 -1.032,0.004 -2.04,0.313 -2.897,0.888 -0.857,0.576 -1.525,1.391 -1.92,2.345 -1.58,3.808 -3.591,7.622 -4.086,11.648 -0.218,1.78 -0.126,3.583 0.272,5.331 -3.71,-8.099 -5.637,-16.903 -5.649,-25.813 -0.001,-2.236 0.123,-4.47 0.372,-6.692 0.205,-1.822 0.49,-3.63 0.854,-5.426 1.989,-9.743 6.258,-18.875 12.458,-26.647 3.001,-1.638 5.427,-4.158 6.953,-7.219 0.553,-1.101 0.943,-2.276 1.16,-3.488 -0.339,0.044 -1.276,-5.115 -1.021,-5.432 -0.472,-0.716 -1.316,-1.072 -1.831,-1.771 -2.563,-3.477 -6.093,-2.87 -7.936,1.855 -3.936,1.988 -3.975,5.286 -1.559,8.458 1.537,2.018 1.748,4.748 3.097,6.909 -0.139,0.177 -0.284,0.35 -0.422,0.527 -2.536,3.264 -4.747,6.768 -6.599,10.464 0.45,-4.14 -0.088,-8.328 -1.57,-12.219 -1.502,-3.626 -4.317,-6.68 -6.796,-9.815 -2.978,-3.765 -9.084,-2.122 -9.609,2.651 -0.005,0.047 -0.01,0.093 -0.014,0.139 0.368,0.208 0.728,0.429 1.081,0.662 0.443,0.296 0.786,0.72 0.985,1.214 0.198,0.495 0.243,1.039 0.128,1.559 -0.115,0.521 -0.385,0.995 -0.774,1.359 -0.389,0.365 -0.879,0.603 -1.405,0.685 l -0.054,0.008 c 0.131,1.328 0.363,2.645 0.693,3.938 -3.18,12.309 3.686,16.792 13.49,16.994 0.217,0.111 0.428,0.222 0.644,0.328 -1.862,5.279 -3.029,10.779 -3.474,16.361 -0.251,3.292 -0.236,6.6 0.045,9.891 l -0.017,-0.117 c -0.71,-3.659 -2.661,-6.96 -5.521,-9.347 -4.249,-3.493 -10.252,-4.779 -14.836,-7.587 -0.488,-0.313 -1.054,-0.48 -1.633,-0.482 -0.579,-0.001 -1.146,0.163 -1.635,0.474 -0.488,0.31 -0.878,0.754 -1.123,1.279 -0.245,0.526 -0.335,1.11 -0.258,1.684 0.006,0.041 0.012,0.082 0.018,0.123 0.684,0.278 1.349,0.599 1.992,0.96 0.369,0.208 0.729,0.429 1.082,0.662 0.443,0.297 0.786,0.72 0.985,1.215 0.198,0.495 0.243,1.038 0.128,1.559 -0.116,0.52 -0.385,0.994 -0.774,1.359 -0.389,0.364 -0.879,0.603 -1.405,0.684 l -0.054,0.008 c -0.039,0.006 -0.073,0.012 -0.111,0.017 1.167,2.79 2.806,5.358 4.844,7.592 1.989,10.746 10.53,11.765 19.666,8.636 h 0.006 c 1.002,4.36 2.454,8.603 4.334,12.662 h 15.482 c 0.055,-0.172 0.105,-0.35 0.155,-0.522 -1.433,0.09 -2.872,0.005 -4.284,-0.255 1.149,-1.411 2.297,-2.833 3.446,-4.243 0.026,-0.027 0.05,-0.054 0.072,-0.084 0.583,-0.721 1.171,-1.438 1.754,-2.16 v -0.001 c 0.031,-2.213 -0.223,-4.421 -0.755,-6.569 z"
     fill="#f2f2f2"
     id="path6" />
  <path
     d="m 75.585636,206.931 c -0.648,0.029 -1.289,-0.141 -1.836,-0.488 -0.548,-0.347 -0.976,-0.854 -1.226,-1.452 -0.25,-0.599 -0.31,-1.26 -0.172,-1.894 0.138,-0.634 0.467,-1.21 0.943,-1.65 0.08,-0.317 0.137,-0.545 0.216,-0.862 -0.028,-0.069 -0.057,-0.138 -0.086,-0.207 -0.652,-1.542 -1.745,-2.857 -3.141,-3.779 -1.397,-0.922 -3.035,-1.411 -4.708,-1.405 -1.673,0.006 -3.307,0.507 -4.697,1.44 -1.389,0.933 -2.473,2.255 -3.113,3.802 -2.562,6.174 -5.8225,12.358 -6.6254,18.886 -0.3536,2.885 -0.2045,5.81 0.4409,8.645 -6.0157,-13.134 -9.1394,-27.408 -9.1595,-41.855 -0.0013,-3.625 0.1999,-7.248 0.6028,-10.851 0.3329,-2.954 0.7948,-5.886 1.3856,-8.798 3.2243,-15.798 10.1466,-30.605 20.1996,-43.205 4.865,-2.657 8.8,-6.743 11.274,-11.706 0.896,-1.785 1.529,-3.689 1.88,-5.655 -0.549,0.072 -2.069,-8.294 -1.655,-8.8072 -0.765,-1.1616 -2.134,-1.7391 -2.97,-2.8725 -4.154,-5.6373 -9.878,-4.653 -12.866,3.0076 -6.383,3.2241 -6.445,8.5711 -2.528,13.7141 2.492,3.272 2.834,7.699 5.02,11.202 -0.225,0.288 -0.459,0.568 -0.684,0.856 -4.111,5.292 -7.695,10.974 -10.6996,16.965 0.7306,-6.712 -0.1413,-13.502 -2.5442,-19.811 -2.4353,-5.879 -7,-10.831 -11.0197,-15.914 -4.8283,-6.1058 -14.7292,-3.441 -15.5798,4.298 -0.0083,0.075 -0.0163,0.15 -0.0241,0.225 0.597,0.337 1.1815,0.695 1.7533,1.074 0.7184,0.48 1.275,1.166 1.597,1.969 0.3219,0.802 0.3942,1.683 0.2073,2.527 -0.1868,0.844 -0.6242,1.612 -1.2546,2.204 -0.6305,0.591 -1.4247,0.978 -2.2786,1.109 l -0.0874,0.014 c 0.2127,2.154 0.5887,4.288 1.1247,6.384 -5.1568,19.959 5.9763,27.229 21.8729,27.555 0.3509,0.18 0.6928,0.36 1.0438,0.532 -3.0185,8.561 -4.9119,17.478 -5.6325,26.528 -0.408,5.339 -0.3839,10.702 0.072,16.038 l -0.027,-0.189 c -1.1518,-5.933 -4.314,-11.286 -8.9526,-15.156 -6.8894,-5.664 -16.623,-7.75 -24.0555168,-12.302 -3.5778,-2.192 -8.16250014,0.64 -7.53810008,4.792 0.01,0.066 0.0201,0.132 0.0304,0.198 1.10800008,0.452 2.18680008,0.972 3.23010008,1.558 0.597,0.337 1.1815,0.695 1.7533,1.074 0.7184,0.48 1.275,1.166 1.597,1.969 0.322,0.802 0.3943,1.683 0.2074,2.527 -0.1869,0.844 -0.6242,1.613 -1.2547,2.204 -0.6305,0.591 -1.4247,0.978 -2.2785,1.109 l -0.0876,0.014 c -0.0629,0.009 -0.1169,0.018 -0.1798,0.027 1.8931,4.524 4.5501,8.688 7.8547168,12.31 3.2244,17.423 17.0733,19.076 31.8872,14.002 h 0.009 c 1.6254,7.069 3.9804,13.95 7.0271,20.531 h 25.1031 c 0.09,-0.279 0.171,-0.567 0.252,-0.846 -2.324,0.146 -4.656,0.007 -6.946,-0.414 1.862,-2.288 3.725,-4.593 5.587,-6.88 0.042,-0.043 0.081,-0.088 0.117,-0.135 0.945,-1.171 1.899,-2.332 2.843,-3.503 l 0.001,-0.001 c 0.05,-3.589 -0.361,-7.169 -1.224,-10.652 z"
     fill="#f2f2f2"
     id="path8" />
  <path
     d="m 419.13958,12.5391 c -1.686,-12.927797 -31.481,-12.10312 -34.294,0.0599 -1.492,-0.9342 -5.289,-0.2876 -6.704,0.7861 -1.416,1.0738 -2.324,2.6523 -3.212,4.1845 -1.213,2.1283 -2.47,4.3327 -2.739,6.7729 -0.28,2.4356 0.677,5.1946 2.883,6.2791 1.75,0.8642 5.601,0.2806 7.525,-0.1063 1.343,-0.2671 2.47,-0.5011 3.426,-0.7306 0.321,-1.5137 0.1,-3.0924 -0.626,-4.4589 0.773,0.1536 1.502,0.4765 2.136,0.9456 0.634,0.4691 1.156,1.0727 1.529,1.7675 0.15,0.2911 5.609,41.4151 5.609,41.4151 1.492,0.18 2.998,0.2177 4.497,0.1124 0.931,-5.0612 1.1,-10.2331 0.503,-15.3444 1.58,2.9214 2.831,6.0101 3.728,9.2088 0.514,1.7891 0.937,3.6033 1.266,5.4355 12.991,-2.4312 30.552,-10.8053 33.756,-25.0244 -0.017,-0.0459 -0.035,-0.0918 -0.053,-0.1376 -0.175,-0.4345 -0.194,-0.9165 -0.053,-1.3633 0.141,-0.4469 0.433,-0.8308 0.825,-1.086 0.393,-0.2552 0.862,-0.3659 1.327,-0.3131 0.465,0.0529 0.898,0.2659 1.223,0.6027 0.392,0.4034 0.741,0.7483 1.036,1.0154 -1.139,-9.0805 -8.021,-17.2518 -23.588,-30.0209 z"
     fill="#496075"
     id="path10" />
  <path
     d="m 229.45258,329.154 -7.283,-3.811 11.55,-30.556 10.75,5.625 z"
     fill="#a0616a"
     id="path12" />
  <path
     d="m 200.06458,328.786 c -0.451,0.865 -0.54,1.873 -0.249,2.803 0.291,0.931 0.939,1.708 1.802,2.161 l 14.482,7.576 5.189,-3.86 -1.721,5.671 5.462,2.863 8.09,-19.227 -1.844,-1.106 -7.513,-4.529 -2.427,-1.456 -2.725,5.216 -15.742,1.943 c -0.589,0.073 -1.153,0.288 -1.641,0.627 -0.489,0.339 -0.888,0.791 -1.163,1.318 z"
     fill="#496075"
     id="path14" />
  <path
     d="m 221.99158,216.663 -5.298,-6.288 22.257,-23.899 7.819,9.282 z"
     fill="#a0616a"
     id="path16" />
  <path
     d="m 194.93358,205.178 c -0.744,0.629 -1.209,1.528 -1.292,2.5 -0.083,0.972 0.223,1.936 0.85,2.683 l 10.534,12.503 6.263,-1.604 -3.74,4.595 3.972,4.721 14.765,-14.726 -1.288,-1.723 -5.238,-7.04 -1.694,-2.268 -4.497,3.794 -15.303,-4.172 c -0.574,-0.156 -1.176,-0.17 -1.757,-0.042 -0.58,0.128 -1.121,0.396 -1.575,0.779 z"
     fill="#496075"
     id="path18" />
  <path
     d="m 455.62958,193.098 c 0,0 22.491,48.181 -70.65,35.198 0,0 -49.624,-55.04 -48.19,-61.662 0,0 -21.121,-21.479 -20.087,-21.87 1.033,-0.391 1.671,-1.241 -0.037,-1.163 -1.708,0.077 -1.708,-2.467 -1.708,-2.467 0,0 -38.17,41.427 -70.31,61.984 l -11.111,-12.511 c 0,0 4.333,-13.567 6.417,-13.567 2.083,0 2.801,0.501 3.137,-2.182 0.335,-2.683 -1.324,-4.987 0.894,-5.225 2.219,-0.238 48.199,-54.021 48.199,-54.021 0,0 4.961,-17.7151 20.118,-14.286 15.157,3.429 93.915,67.513 93.915,67.513 z"
     fill="#496075"
     id="path20" />
  <path
     d="m 417.70058,229.857 -123.05,-1.022 -53.475,84.797 -15.112,-8.007 3.35,-1.415 c 0,0 -1.014,-11.786 0.228,-14.769 1.243,-2.984 4.939,-2.086 4.939,-2.086 l 31.177,-71.958 c 2.15,-6.388 6.374,-11.871 11.999,-15.577 5.625,-3.706 12.328,-5.422 19.04,-4.874 25.798,-3.765 67.675,-0.756 111.182,2.938 z"
     fill="#496075"
     id="path22" />
  <path
     d="m 346.45858,85.5423 c 2.342,0.3593 4.452,1.6191 5.88,3.5114 1.428,1.8923 2.063,4.2677 1.768,6.6207 -0.068,0.4774 -0.175,0.9483 -0.32,1.408 l 25.284,19.1946 -5.217,16.267 -31.796,-30.042 c -1.858,-0.75 -3.416,-2.094 -4.43,-3.8231 -1.015,-1.7291 -1.429,-3.7455 -1.177,-5.7348 0.153,-1.1305 0.528,-2.2197 1.102,-3.2053 0.575,-0.9856 1.337,-1.8483 2.245,-2.5389 0.907,-0.6906 1.942,-1.1956 3.044,-1.4861 1.103,-0.2904 2.252,-0.3608 3.381,-0.2069 0.079,0.0108 0.158,0.0226 0.236,0.0354 z"
     fill="#a0616a"
     id="path24" />
  <path
     d="m 458.00158,86.7405 -9.091,25.1885 -35.55,50.28 c 0,0 -0.292,-0.125 -0.82,-0.347 -3.056,-1.321 -14.154,-6.172 -24.592,-11.684 -9.799,-5.178 -19.029,-10.94 -20.459,-14.902 -0.153,-0.417 -0.292,-0.82 -0.417,-1.209 v -0.007 c -0.666,-2.018 -1.084,-4.109 -1.243,-6.228 -0.118,-1.633 -0.014,-2.509 -0.236,-2.613 -0.174,-0.077 -0.535,0.299 -1.334,1.147 -0.055,0.055 -0.104,0.111 -0.159,0.159 -2.889,2.899 -6.438,2.523 -5.57,1.147 0.889,-1.411 0.424,-1.383 -0.882,-2.856 -0.972,-1.099 -4.132,-5.394 -5.688,-7.514 -0.535,-0.73 -0.875,-1.202 -0.875,-1.202 l 0.535,-0.841 1.479,-2.322 7.035,-11.037 0.389,-0.605 c 0,0 14.459,3.343 16.383,6.52 1.931,3.176 -2.91,3.072 1.931,3.176 4.84,0.104 9.778,-6.485 6.243,0.069 -3.535,6.548 -2.604,8.835 1.771,7.799 1.778,-0.424 4.591,0.917 7.299,2.655 v 0.007 c 1.694,1.101 3.328,2.292 4.896,3.566 1.674,1.348 2.806,2.37 2.806,2.37 l 27.46,-55.7575 3.042,-6.1721 c 0.927,-1.8781 2.219,-3.5523 3.8,-4.9248 1.581,-1.3724 3.42,-2.4155 5.409,-3.0683 l 0.951,1.6612 c 5.924,8.7315 11.104,17.9456 15.487,27.545 z"
     fill="#b8cde1"
     id="path26" />
  <path
     d="m 459.52258,166.686 c 8.417,1.96 -0.537,63.281 -10.57,63.472 -72.921,1.39 -50.718,-39.556 -54.628,-43.476 -3.91,-3.927 -7.438,-1.112 -3.91,-7.221 2.569,-4.449 6.382,-3.788 6.438,-6.284 0.027,-0.931 -0.466,-2.293 -1.744,-4.531 -4.694,-8.23 -4.694,-10.683 -4.694,-10.683 -1.171,-2.471 -2,-5.09 -2.466,-7.785 -0.761,-4.007 -0.855,-8.112 -0.278,-12.149 0.882,-5.923 3.098,-11.568 6.48,-16.508 v -0.007 c 0.354,-0.528 0.722,-1.063 1.111,-1.592 0.882,-1.202 5.771,-0.973 5.771,-0.973 l 10.418,-43.7881 -6.028,-17.4597 28.55,-13.3867 7.591,13.2199 0.951,1.6612 c 5.924,8.7314 11.104,17.9455 15.487,27.5449 4.216,9.3902 7.681,19.8155 7.806,28.8865 0.333,23.653 -3.743,30.687 -3.743,30.687 0,0 9.896,7.402 4.945,11.927 -4.945,4.531 -15.904,6.485 -7.487,8.445 z"
     fill="#b8cde1"
     id="path28" />
  <path
     d="m 330.18158,79.7815 -4.658,3.5414 c -0.92,0.7043 -1.524,1.7448 -1.679,2.8936 -0.155,1.1489 0.151,2.3124 0.852,3.2358 l 11.219,14.7587 6.625,8.707 c 0.702,0.919 1.74,1.523 2.886,1.678 1.146,0.155 2.307,-0.151 3.228,-0.851 l 4.664,-3.546 c 0.916,-0.706 1.517,-1.746 1.671,-2.893 0.154,-1.147 -0.151,-2.309 -0.849,-3.232 l -0.687,-0.909 -13.591,-17.8715 -3.566,-4.6848 c -0.347,-0.4564 -0.781,-0.8397 -1.276,-1.1283 -0.495,-0.2885 -1.042,-0.4766 -1.61,-0.5534 -0.568,-0.0768 -1.145,-0.0409 -1.699,0.1057 -0.554,0.1467 -1.074,0.4011 -1.53,0.7488 z"
     fill="#ffffff"
     id="path30" />
  <path
     d="m 332.61858,79.5138 -5.019,3.5036 c -0.442,0.2896 -0.818,0.6698 -1.103,1.1156 -0.285,0.4458 -0.473,0.9469 -0.55,1.4704 -0.077,0.5235 -0.043,1.0575 0.101,1.5667 0.144,0.5093 0.394,0.9822 0.734,1.3876 l 6.568,7.9208 3.5,4.2195 2.336,2.815 5.223,6.298 c 0.738,0.845 1.762,1.389 2.875,1.527 1.113,0.139 2.238,-0.137 3.161,-0.775 l 3.76,-2.626 1.251,-0.873 c 0.624,-0.416 1.111,-1.007 1.4,-1.7 0.289,-0.692 0.367,-1.454 0.224,-2.191 -0.126,-0.612 -0.402,-1.183 -0.804,-1.661 l -15.433,-18.6124 -2.188,-2.6344 c -0.738,-0.8461 -1.762,-1.3905 -2.875,-1.5291 -1.114,-0.1386 -2.239,0.1382 -3.161,0.7777 z"
     fill="#b8cde1"
     id="path32" />
  <path
     d="m 335.82458,99.0766 c 2.342,0.3593 4.452,1.6194 5.88,3.5114 1.428,1.892 2.063,4.268 1.768,6.621 -0.068,0.477 -0.175,0.948 -0.32,1.408 l 25.284,19.194 -5.217,16.267 -31.796,-30.042 c -1.858,-0.75 -3.416,-2.094 -4.43,-3.823 -1.015,-1.729 -1.429,-3.745 -1.177,-5.735 0.153,-1.13 0.528,-2.219 1.102,-3.205 0.575,-0.986 1.337,-1.848 2.245,-2.539 0.907,-0.69 1.942,-1.1954 3.044,-1.4859 1.103,-0.2905 2.252,-0.3608 3.381,-0.2069 0.079,0.0107 0.158,0.0225 0.236,0.0354 z"
     fill="#a0616a"
     id="path34" />
  <path
     d="m 438.94558,70.6104 c 2.21,0.4503 4.297,1.3717 6.119,2.7015 1.823,1.3298 3.338,3.0368 4.442,5.0049 1.105,1.9682 1.773,4.1513 1.959,6.4009 0.186,2.2496 -0.114,4.5129 -0.88,6.636 l -12.306,34.1083 -35.556,50.284 c 0,0 -42.641,-18.026 -45.87,-26.936 -3.228,-8.91 -0.313,-11.984 -3.228,-8.91 -2.916,3.075 -6.612,2.71 -5.727,1.303 0.885,-1.407 0.419,-1.377 -0.884,-2.851 -1.303,-1.474 -6.562,-8.716 -6.562,-8.716 l 9.437,-14.805 c 0,0 14.46,3.34 16.386,6.519 1.927,3.178 -2.915,3.074 1.927,3.178 4.842,0.104 9.781,-6.488 6.244,0.065 -3.537,6.552 -2.604,8.837 1.772,7.798 4.375,-1.038 14.997,8.601 14.997,8.601 l 30.508,-61.9288 c 1.534,-3.1149 4.056,-5.6337 7.172,-7.1628 3.115,-1.5292 6.649,-1.9828 10.05,-1.29 z"
     fill="#b8cde1"
     id="path36" />
  <path
     d="m 420.75058,50.0789 c 8.84,-8.8466 8.84,-23.1898 0,-32.0365 -8.839,-8.8466 -23.171,-8.8466 -32.01,0 -8.84,8.8467 -8.84,23.1899 0,32.0365 8.839,8.8466 23.171,8.8466 32.01,0 z"
     fill="#a0616a"
     id="path38" />
  <path
     d="m 431.21358,9.38207 c -1.686,-12.92784 -31.481,-12.10316 -34.294,0.05983 -1.492,-0.93415 -5.289,-0.28756 -6.704,0.7862 -1.416,1.0737 -2.324,2.6522 -3.212,4.1845 -1.213,2.1282 -9.7,9.3285 -10.972,7.2292 -2.862,-4.7243 -8.475,5.5992 -4.167,12.511 1.033,1.6573 20.994,-1.0032 22.918,-1.3901 1.343,-0.2672 -0.956,0.2294 0,0 0.309,-1.4995 3.427,-9.2468 2.69,-10.594 0.773,0.1536 1.503,0.4765 2.136,0.9456 0.634,0.4691 1.156,1.0727 1.529,1.7675 0.15,0.291 5.609,41.4151 5.609,41.4151 1.492,0.18 2.998,0.2176 4.497,0.1124 0.931,-5.0612 1.1,-10.2331 0.503,-15.3444 1.581,2.9214 2.831,6.0101 3.728,9.2088 0.514,1.7891 0.937,3.6033 1.266,5.4355 12.991,-2.4312 30.552,-10.8053 33.756,-25.0244 -17.517,-5.837 -3.716,-18.5337 -19.283,-31.30273 z"
     fill="#496075"
     id="path40" />
  <path
     d="m 328.30158,94.3657 c 0.312,-0.2233 0.113,-1.0371 -0.445,-1.8178 -0.557,-0.7807 -1.262,-1.2327 -1.574,-1.0094 -0.313,0.2232 -0.113,1.0371 0.444,1.8178 0.558,0.7807 1.263,1.2326 1.575,1.0094 z"
     fill="#ffffff"
     id="path42" />
  <path
     d="m 326.21758,91.5854 c 0.312,-0.2232 0.113,-1.037 -0.444,-1.8177 -0.558,-0.7807 -1.263,-1.2327 -1.575,-1.0094 -0.312,0.2232 -0.113,1.0371 0.445,1.8178 0.557,0.7807 1.262,1.2326 1.574,1.0093 z"
     fill="#ffffff"
     id="path44" />
  <path
     d="m 345.22458,110.1 c -0.679,-0.476 -1.237,-1.164 -1.238,-1.53 -0.017,-3.592 -3.237,-8.244 -6.439,-9.3014 -2.319,-0.7658 -11.343,-11.1508 -11.343,-13.0532 0,-1.5525 0.85,-2.5434 3.988,-4.6495 3.396,-2.2801 4.916,-2.8183 6.396,-2.2652 1.236,0.462 18.712,20.9353 19.753,23.1423 0.985,2.085 0.052,3.681 -3.602,6.159 -3.719,2.523 -5.536,2.885 -7.515,1.498 z"
     fill="#ed455d"
     id="path46" />
</svg>
