<?xml version="1.0" encoding="UTF-8" standalone="no"?>
<svg
   width="600"
   height="600"
   viewBox="0 0 600 600"
   fill="none"
   version="1.1"
   id="svg150"
   sodipodi:docname="undraw_mobile_user_re_xta4 1 1.svg"
   inkscape:version="1.1.2 (b8e25be833, 2022-02-05)"
   xmlns:inkscape="http://www.inkscape.org/namespaces/inkscape"
   xmlns:sodipodi="http://sodipodi.sourceforge.net/DTD/sodipodi-0.dtd"
   xmlns="http://www.w3.org/2000/svg"
   xmlns:svg="http://www.w3.org/2000/svg">
  <defs
     id="defs154" />
  <sodipodi:namedview
     id="namedview152"
     pagecolor="#ffffff"
     bordercolor="#666666"
     borderopacity="1.0"
     inkscape:pageshadow="2"
     inkscape:pageopacity="0.0"
     inkscape:pagecheckerboard="0"
     showgrid="false"
     inkscape:zoom="0.62357143"
     inkscape:cx="262.19931"
     inkscape:cy="288.65979"
     inkscape:window-width="3440"
     inkscape:window-height="1377"
     inkscape:window-x="-8"
     inkscape:window-y="-8"
     inkscape:window-maximized="1"
     inkscape:current-layer="svg150" />
  <path
     d="m 428.76184,433.23582 c 0,0.131 -0.015,0.262 -0.045,0.383 -0.03,0.122 -0.075,0.232 -0.131,0.325 -0.056,0.093 -0.122,0.167 -0.195,0.217 -0.073,0.05 -0.152,0.075 -0.231,0.075 H 0.6424344 c -0.15985,0 -0.313082,-0.105 -0.426051,-0.293 -0.113033,-0.187 -0.176513,-0.442 -0.176513,-0.707 0,-0.265 0.063479,-0.52 0.176513,-0.707 0.112969,-0.188 0.266201,-0.293 0.426051,-0.293 H 428.15984 c 0.079,0 0.158,0.025 0.231,0.075 0.073,0.05 0.139,0.124 0.195,0.217 0.056,0.093 0.101,0.203 0.131,0.325 0.03,0.121 0.046,0.252 0.046,0.383 z"
     fill="#cccccc"
     id="path2" />
  <path
     d="m 72.103957,120.27582 c 2.427,-18.59904 45.328883,-17.41304 49.379883,0.087 2.149,-1.344 7.615,-0.414 9.654,1.131 2.038,1.545 3.345,3.816 4.624,6.02 1.747,3.062 3.557,6.234 3.944,9.744 0.403,3.505 -0.974,7.474 -4.151,9.034 -2.52,1.244 -8.065,0.404 -10.836,-0.153 -1.933,-0.384 -3.556,-0.721 -4.933,-1.051 -0.463,-2.178 -0.143,-4.449 0.902,-6.415 -1.113,0.221 -2.164,0.686 -3.076,1.361 -0.912,0.675 -1.664,1.543 -2.201,2.543 -0.217,0.418 -8.077,59.585 -8.077,59.585 -2.149,0.259 -4.317,0.313 -6.476,0.162 -1.339995,-7.282 -1.582892,-14.723 -0.723,-22.077 -2.275883,4.203 -4.076883,8.647 -5.368883,13.249 -0.74,2.574 -1.348,5.184 -1.822,7.821 -18.706,-3.498 -43.993,-15.546 -48.607,-36.004 0.026,-0.066 0.051,-0.132 0.077,-0.198 0.252,-0.625 0.279,-1.319 0.076,-1.961 -0.203,-0.643 -0.623,-1.196 -1.188,-1.563 -0.566,-0.367 -1.241,-0.526 -1.911,-0.45 -0.67,0.076 -1.292,0.382 -1.761,0.867 -0.564,0.58 -1.067,1.076 -1.491,1.461 1.639,-13.065 11.549,-24.821 33.965,-43.193 z"
     fill="#496075"
     id="path4" />
  <path
     d="m 345.23584,575.80282 10.487,-5.483 -16.63,-43.963 -15.479,8.093 z"
     fill="#a0616a"
     id="path6" />
  <path
     d="m 387.55284,575.27282 c 0.649,1.244 0.778,2.694 0.359,4.033 -0.419,1.339 -1.353,2.457 -2.595,3.109 l -20.853,10.9 -7.472,-5.553 2.479,8.159 -7.865,4.118 -11.649,-27.662 2.655,-1.591 10.818,-6.516 3.494,-2.095 3.924,7.505 22.667,2.794 c 0.849,0.105 1.66,0.415 2.364,0.902 0.703,0.488 1.278,1.139 1.674,1.897 z"
     fill="#496075"
     id="path8" />
  <path
     d="m 355.97984,413.95782 7.628,-9.048 -32.048,-34.384 -11.258,13.354 z"
     fill="#a0616a"
     id="path10" />
  <path
     d="m 394.94084,397.43382 c 1.072,0.905 1.741,2.198 1.86,3.596 0.12,1.398 -0.32,2.786 -1.223,3.86 l -15.168,17.989 -9.019,-2.308 5.385,6.611 -5.718,6.792 -21.262,-21.186 1.855,-2.479 7.542,-10.129 2.44,-3.263 6.475,5.459 22.036,-6.002 c 0.825,-0.225 1.693,-0.246 2.529,-0.061 0.836,0.184 1.614,0.569 2.268,1.121 z"
     fill="#496075"
     id="path12" />
  <path
     d="m 19.561257,380.05382 c 0,0 -32.3861,69.319 101.729583,50.64 0,0 71.454,-79.188 69.39,-88.716 0,0 30.412,-30.902 28.924,-31.465 -1.488,-0.562 -2.406,-1.784 0.053,-1.673 2.459,0.111 2.459,-3.55 2.459,-3.55 0,0 54.961,59.603 101.239,89.18 l 16,-18 c 0,0 -6.239,-19.519 -9.239,-19.519 -3,0 -4.034,0.721 -4.517,-3.14 -0.484,-3.86 1.906,-7.175 -1.289,-7.518 -3.195,-0.342 -69.402,-77.722 -69.402,-77.722 0,0 -7.144,-25.487 -28.968,-20.554 -21.824,4.934 -135.229983,97.134 -135.229983,97.134 z"
     fill="#496075"
     id="path14" />
  <path
     d="m 74.175157,432.93982 177.181683,-1.47 77,122 21.76,-11.519 -4.824,-2.036 c 0,0 1.46,-16.957 -0.329,-21.249 -1.789,-4.293 -7.111,-3.002 -7.111,-3.002 l -44.892,-103.528 c -3.097,-9.19 -9.179,-17.079 -17.279,-22.411 -8.099,-5.333 -17.75,-7.801 -27.415,-7.012 -37.147,-5.418 -97.447,-1.089 -160.091683,4.227 z"
     fill="#496075"
     id="path16" />
  <path
     d="m 176.75784,225.30882 c -3.373,0.517 -6.411,2.329 -8.467,5.052 -2.057,2.722 -2.97,6.14 -2.545,9.525 0.097,0.687 0.251,1.365 0.46,2.026 l -36.407,27.616 7.513,23.403 45.783,-43.221 c 2.675,-1.079 4.918,-3.013 6.379,-5.501 1.461,-2.488 2.057,-5.389 1.695,-8.251 -0.221,-1.626 -0.761,-3.193 -1.588,-4.611 -0.827,-1.418 -1.925,-2.66 -3.232,-3.653 -1.306,-0.994 -2.796,-1.72 -4.384,-2.138 -1.587,-0.418 -3.241,-0.519 -4.868,-0.298 -0.113,0.015 -0.226,0.032 -0.339,0.051 z"
     fill="#a0616a"
     id="path18" />
  <path
     d="m 16.145357,227.03282 13.09,36.24 51.1898,72.34 c 0,0 0.42,-0.18 1.18,-0.5 4.4,-1.9 20.379683,-8.88 35.409683,-16.81 14.11,-7.45 27.4,-15.74 29.46,-21.44 0.22,-0.6 0.42,-1.18 0.6,-1.74 v -0.01 c 0.96,-2.903 1.561,-5.912 1.79,-8.96 0.17,-2.35 0.02,-3.61 0.34,-3.76 0.25,-0.11 0.77,0.43 1.92,1.65 0.08,0.08 0.15,0.16 0.23,0.23 4.16,4.17 9.27,3.63 8.02,1.65 -1.28,-2.03 -0.61,-1.99 1.27,-4.11 1.4,-1.58 5.95,-7.76 8.19,-10.81 0.77,-1.05 1.26,-1.73 1.26,-1.73 l -0.77,-1.21 -2.13,-3.34 -10.13,-15.88 -0.56,-0.87 c 0,0 -20.82,4.81 -23.59,9.38 -2.78,4.57 4.19,4.42 -2.78,4.57 -6.97,0.15 -14.08,-9.33 -8.99,0.1 5.09,9.42 3.75,12.71 -2.55,11.22 -2.56,-0.61 -6.61,1.32 -10.51,3.82 v 0.01 c -2.438,1.584 -4.792,3.297 -7.05,5.13 -2.409686,1.94 -4.039683,3.41 -4.039683,3.41 l -39.54,-80.22 -4.38,-8.88 c -1.334,-2.702 -3.195,-5.111 -5.472,-7.086 -2.276,-1.974 -4.924,-3.475 -7.788,-4.414 l -1.37,2.39 c -8.5296,12.562 -15.9892,25.819 -22.2998,39.63 z"
     fill="#b8cde1"
     id="path20" />
  <path
     d="m 13.955557,342.05282 c -12.1200526,2.82 0.7738,91.045 15.2199,91.32 104.999383,2 73.029383,-56.91 78.659383,-62.55 5.63,-5.65 10.71,-1.6 5.63,-10.39 -3.7,-6.4 -9.19,-5.45 -9.27,-9.04 -0.04,-1.34 0.67,-3.3 2.51,-6.52 6.76,-11.84 6.76,-15.37 6.76,-15.37 1.685,-3.555 2.88,-7.323 3.55,-11.2 1.097,-5.765 1.232,-11.671 0.4,-17.48 -1.269,-8.522 -4.46,-16.643 -9.33,-23.75 v -0.01 c -0.51,-0.76 -1.04,-1.53 -1.6,-2.29 -1.27,-1.73 -8.309681,-1.4 -8.309681,-1.4 l -15.000002,-63 8.68,-25.12 -41.11,-19.26 -10.93,19.02 -1.37,2.39 c -8.5295,12.562 -15.989,25.819 -22.2996,39.63 -6.07,13.51 -11.0599626,28.51 -11.2399626,41.56 -0.48,34.03 5.3898626,44.15 5.3898626,44.15 0,0 -14.2499626,10.65 -7.1199626,17.16 7.1199626,6.52 22.9000626,9.33 10.7800626,12.15 z"
     fill="#b8cde1"
     id="path22" />
  <path
     d="m 200.19484,217.02082 6.708,5.095 c 1.324,1.013 2.194,2.51 2.417,4.163 0.223,1.653 -0.217,3.327 -1.226,4.655 l -16.154,21.234 -9.54,12.527 c -1.011,1.323 -2.506,2.191 -4.156,2.414 -1.65,0.223 -3.322,-0.217 -4.648,-1.224 l -6.716,-5.101 c -1.319,-1.016 -2.184,-2.512 -2.405,-4.163 -0.222,-1.65 0.217,-3.321 1.222,-4.649 l 0.989,-1.309 19.57,-25.712 5.134,-6.74 c 0.5,-0.657 1.124,-1.208 1.838,-1.623 0.713,-0.416 1.5,-0.686 2.318,-0.797 0.818,-0.11 1.649,-0.059 2.447,0.152 0.798,0.211 1.546,0.577 2.202,1.078 z"
     fill="#3f3d56"
     id="path24" />
  <path
     d="m 196.68684,216.63582 7.226,5.04 c 0.637,0.417 1.179,0.964 1.589,1.605 0.411,0.642 0.68,1.363 0.792,2.116 0.111,0.753 0.062,1.521 -0.146,2.254 -0.207,0.733 -0.567,1.413 -1.056,1.996 l -9.458,11.396 -5.04,6.071 -3.363,4.05 -7.521,9.062 c -1.063,1.215 -2.537,1.997 -4.139,2.197 -1.603,0.199 -3.223,-0.198 -4.552,-1.116 l -5.415,-3.777 -1.801,-1.257 c -0.898,-0.599 -1.599,-1.449 -2.015,-2.445 -0.416,-0.996 -0.529,-2.093 -0.323,-3.153 0.181,-0.88 0.578,-1.701 1.157,-2.389 l 22.223,-26.779 3.151,-3.79 c 1.062,-1.218 2.536,-2.001 4.139,-2.2 1.603,-0.2 3.224,0.199 4.552,1.119 z"
     fill="#ed455d"
     id="path26" />
  <path
     d="m 192.06984,244.78082 c -3.373,0.517 -6.411,2.33 -8.467,5.052 -2.057,2.723 -2.97,6.14 -2.545,9.526 0.097,0.686 0.251,1.364 0.46,2.025 l -36.407,27.616 7.513,23.404 45.783,-43.222 c 2.675,-1.079 4.918,-3.013 6.379,-5.501 1.461,-2.487 2.057,-5.389 1.695,-8.251 -0.221,-1.626 -0.761,-3.193 -1.588,-4.611 -0.827,-1.418 -1.925,-2.659 -3.232,-3.653 -1.306,-0.994 -2.796,-1.72 -4.384,-2.138 -1.587,-0.418 -3.241,-0.519 -4.868,-0.298 -0.113,0.016 -0.226,0.033 -0.339,0.051 z"
     fill="#a0616a"
     id="path28" />
  <path
     d="m 43.585057,203.82582 c -3.182,0.648 -6.188,1.973 -8.812,3.887 -2.6242,1.913 -4.8057,4.369 -6.396,7.2 -1.5903,2.832 -2.5522,5.973 -2.8201,9.21 -0.268,3.236 0.1642,6.492 1.2671,9.547 l 17.719,49.073 51.198,72.346 c 0,0 61.399783,-25.935 66.048783,-38.754 4.648,-12.819 0.451,-17.243 4.648,-12.819 4.198,4.423 9.521,3.899 8.247,1.874 -1.275,-2.024 -0.604,-1.981 1.272,-4.101 1.877,-2.121 9.449,-12.541 9.449,-12.541 l -13.588,-21.301 c 0,0 -20.821,4.806 -23.595,9.379 -2.774,4.573 4.198,4.424 -2.774,4.573 -6.972,0.15 -14.084,-9.334 -8.992,0.093 5.093,9.428 3.75,12.714 -2.55,11.221 -6.301,-1.494 -21.595,12.374 -21.595,12.374 l -43.928783,-89.1 c -2.209,-4.481 -5.841,-8.105 -10.327,-10.305 -4.486,-2.2 -9.575,-2.853 -14.471,-1.856 z"
     fill="#b8cde1"
     id="path30" />
  <path
     d="m 69.784157,174.28582 c -12.728,-12.728 -12.728,-33.364 0,-46.092 12.728,-12.728 33.363683,-12.728 46.091683,0 12.728,12.728 12.728,33.364 0,46.092 -12.728,12.728 -33.363683,12.728 -46.091683,0 z"
     fill="#a0616a"
     id="path32" />
  <path
     d="m 54.717857,115.73382 c 2.427,-18.600043 45.328983,-17.413043 49.379983,0.086 2.149,-1.344 7.615,-0.413 9.654,1.131 2.039,1.545 3.345,3.816 4.625,6.021 1.746,3.062 13.967,13.421 15.798,10.401 4.121,-6.797 12.203,8.056 6,18 -1.487,2.384 -30.229,-1.443 -33,-2 -1.933,-0.384 1.377,0.33 0,0 -0.445,-2.157 -4.935,-13.304 -3.873,-15.242 -1.113,0.221 -2.164,0.686 -3.076,1.36 -0.911993,0.675 -1.663983,1.544 -2.20098,2.543 -0.217003,0.419 -8.077003,59.586 -8.077003,59.586 -2.148,0.259 -4.317,0.313 -6.476,0.161 -1.339,-7.281 -1.583,-14.722 -0.723,-22.076 -2.276,4.203 -4.077,8.647 -5.369,13.249 -0.74,2.574 -1.348,5.184 -1.822,7.82 -18.706,-3.498 -43.9926,-15.546 -48.6064,-36.003 25.2234,-8.398 5.3508,-26.665 27.7664,-45.037 z"
     fill="#496075"
     id="path34" />
  <path
     d="m 202.90284,238.00282 c -0.45,-0.321 -0.163,-1.492 0.64,-2.615 0.803,-1.123 1.818,-1.773 2.267,-1.452 0.45,0.321 0.163,1.492 -0.64,2.615 -0.803,1.123 -1.818,1.774 -2.267,1.452 z"
     fill="#3f3d56"
     id="path36" />
  <path
     d="m 205.90284,234.00282 c -0.45,-0.321 -0.163,-1.492 0.64,-2.615 0.803,-1.123 1.818,-1.773 2.267,-1.452 0.45,0.321 0.163,1.492 -0.64,2.615 -0.803,1.123 -1.818,1.774 -2.267,1.452 z"
     fill="#3f3d56"
     id="path38" />
  <path
     d="m 282.43131,171.16412 c 1.237,-3.568 1.081,-7.471 -0.439,-10.93 -0.151,-0.343 0.39,-0.558 0.541,-0.216 1.575,3.602 1.729,7.664 0.433,11.375 -0.124,0.354 -0.658,0.123 -0.535,-0.229 z"
     fill="#ffffff"
     id="path40" />
  <path
     d="m 599.25831,9.024146 h -82.933 v 5.320001 c -10e-4,0.273 0.093,0.537 0.266,0.748 -0.167,4.159 -0.266,9.468 -0.266,15.237 V 172.57212 c 0,13.333 0.536,24.181 1.193,24.181 h 80.547 c 0.658,0 1.193,-10.848 1.193,-24.181 V 30.329147 c 0,-5.769 -0.097,-11.078 -0.264,-15.237 0.173,-0.211 0.265,-0.475 0.264,-0.748 z"
     fill="#ffffff"
     id="path42" />
  <path
     d="m 598.06431,197.32812 h -80.546 c -0.627,0 -1.042,0 -1.419,-7.637 -0.227,-4.583 -0.351,-10.663 -0.351,-17.119 V 30.329147 c 0,-5.576 0.094,-10.995 0.266,-15.26 0.107,-2.561 0.23,-4.612 0.365,-6.0970012 0.265,-2.9080014 0.517,-3.3990014 1.139,-3.3990014 h 80.546 c 0.623,0 0.875,0.491 1.14,3.3990014 0.135,1.4910012 0.258,3.5420012 0.365,6.0960012 v 10e-4 c 0.171,4.26 0.266,9.679 0.266,15.26 V 172.57212 c 0,6.456 -0.125,12.536 -0.351,17.119 -0.377,7.637 -0.792,7.637 -1.42,7.637 z m -80.218,-1.15 h 79.891 c 0.417,-1.572 0.944,-10.106 0.944,-23.606 V 30.329147 c 0,-5.565 -0.094,-10.968 -0.265,-15.213 -0.106,-2.536 -0.227,-4.568 -0.361,-6.040001 -0.052,-0.7910008 -0.16,-1.5770016 -0.324,-2.3530016 h -79.879 c -0.165,0.776 -0.273,1.5620008 -0.324,2.3530016 -0.134,1.467001 -0.255,3.499001 -0.362,6.040001 -0.171,4.249 -0.265,9.652 -0.265,15.213 V 172.57212 c 0,13.5 0.528,22.034 0.945,23.606 z"
     fill="#b8cde1"
     id="path44" />
  <path
     d="m 598.06531,6.1481444 h -80.547 c -0.316,0 -0.619,0.126 -0.843,0.349 -0.224,0.223 -0.349,0.526 -0.35,0.841 v 7.0060026 c -10e-4,0.273 0.093,0.537 0.266,0.748 0.112,0.138 0.254,0.249 0.414,0.326 0.161,0.076 0.335,0.116 0.513,0.117 h 80.547 c 0.178,-10e-4 0.353,-0.041 0.513,-0.117 0.161,-0.077 0.304,-0.188 0.416,-0.326 0.173,-0.211 0.265,-0.475 0.264,-0.748 V 7.3381444 c -0.001,-0.315 -0.126,-0.618 -0.349,-0.841 -0.224,-0.223 -0.527,-0.349 -0.844,-0.349 z"
     fill="#496075"
     id="path46" />
  <path
     d="m 523.25731,12.190147 c 0.936,0 1.695,-0.757 1.695,-1.691 0,-0.9340006 -0.759,-1.6910012 -1.695,-1.6910012 -0.936,0 -1.695,0.7570006 -1.695,1.6910012 0,0.934 0.759,1.691 1.695,1.691 z"
     fill="#ffffff"
     id="path48" />
  <path
     d="m 529.69331,12.190147 c 0.936,0 1.695,-0.757 1.695,-1.691 0,-0.9340006 -0.759,-1.6910012 -1.695,-1.6910012 -0.937,0 -1.696,0.7570006 -1.696,1.6910012 0,0.934 0.759,1.691 1.696,1.691 z"
     fill="#ffffff"
     id="path50" />
  <path
     d="m 536.12831,12.190147 c 0.937,0 1.696,-0.757 1.696,-1.691 0,-0.9340006 -0.759,-1.6910012 -1.696,-1.6910012 -0.936,0 -1.695,0.7570006 -1.695,1.6910012 0,0.934 0.759,1.691 1.695,1.691 z"
     fill="#ffffff"
     id="path52" />
  <path
     d="m 591.76031,8.2421452 h -7.412 c -0.145,0.001 -0.283,0.058 -0.386,0.1610002 -0.102,0.102 -0.16,0.2400002 -0.161,0.3850002 -0.003,0.082 0.017,0.1640002 0.057,0.2360004 0.044,0.092 0.114,0.171 0.2,0.2260002 0.087,0.055 0.188,0.084 0.29,0.084 h 7.412 c 0.104,0.001 0.205,-0.028 0.293,-0.083 0.088,-0.055 0.159,-0.1340002 0.203,-0.2270002 0.036,-0.074 0.053,-0.1540002 0.052,-0.2360004 0,-0.072 -0.014,-0.143 -0.042,-0.2090002 -0.027,-0.066 -0.068,-0.127 -0.118,-0.178 -0.051,-0.05 -0.112,-0.09 -0.178,-0.1180002 -0.067,-0.027 -0.138,-0.041 -0.21,-0.041 z"
     fill="#ffffff"
     id="path54" />
  <path
     d="m 591.76031,10.295147 h -7.412 c -0.145,0 -0.284,0.057 -0.387,0.16 -0.103,0.102 -0.16,0.241 -0.16,0.386 0,0.145 0.057,0.284 0.16,0.387 0.103,0.102 0.242,0.16 0.387,0.16 h 7.412 c 0.145,0 0.285,-0.058 0.387,-0.16 0.103,-0.103 0.161,-0.242 0.161,-0.387 0,-0.145 -0.058,-0.284 -0.161,-0.386 -0.102,-0.103 -0.242,-0.16 -0.387,-0.16 z"
     fill="#ffffff"
     id="path56" />
  <path
     d="m 591.76031,12.348147 h -7.412 c -0.145,0 -0.284,0.058 -0.387,0.16 -0.103,0.103 -0.16,0.242 -0.16,0.387 0,0.145 0.057,0.284 0.16,0.386 0.103,0.103 0.242,0.16 0.387,0.16 h 7.412 c 0.145,0 0.285,-0.057 0.387,-0.16 0.103,-0.102 0.161,-0.241 0.161,-0.386 0,-0.145 -0.058,-0.284 -0.161,-0.387 -0.102,-0.102 -0.242,-0.16 -0.387,-0.16 z"
     fill="#ffffff"
     id="path58" />
  <path
     d="m 565.80531,30.892147 h -15.249 c -0.765,10e-4 -1.499,0.304 -2.039,0.843 -0.541,0.539 -0.845,1.271 -0.845,2.033 v 13.172 c 10e-4,0.762 0.305,1.493 0.846,2.032 0.54,0.539 1.273,0.843 2.038,0.844 h 15.249 c 0.765,-0.002 1.497,-0.306 2.037,-0.845 0.54,-0.539 0.845,-1.269 0.847,-2.031 v -13.172 c -10e-4,-0.762 -0.305,-1.493 -0.846,-2.032 -0.54,-0.539 -1.273,-0.842 -2.038,-0.844 z"
     fill="#ed455d"
     id="path60" />
  <path
     d="m 584.75231,58.421147 h -53.149 c -0.347,0 -0.68,0.137 -0.926,0.382 -0.245,0.245 -0.383,0.577 -0.383,0.923 0,0.347 0.138,0.679 0.383,0.924 0.246,0.244 0.579,0.382 0.926,0.382 h 53.149 c 0.347,0 0.68,-0.138 0.926,-0.382 0.246,-0.245 0.383,-0.577 0.383,-0.924 0,-0.346 -0.137,-0.678 -0.383,-0.923 -0.246,-0.245 -0.579,-0.382 -0.926,-0.382 z"
     fill="#b8cde1"
     id="path62" />
  <path
     d="m 551.79031,64.541147 h -20.187 c -0.347,0 -0.68,0.137 -0.926,0.382 -0.245,0.245 -0.383,0.577 -0.383,0.923 0,0.347 0.138,0.679 0.383,0.924 0.246,0.245 0.579,0.382 0.926,0.382 h 20.187 c 0.347,0 0.68,-0.137 0.926,-0.382 0.245,-0.245 0.383,-0.577 0.383,-0.924 0,-0.346 -0.138,-0.678 -0.383,-0.923 -0.246,-0.245 -0.579,-0.382 -0.926,-0.382 z"
     fill="#b8cde1"
     id="path64" />
  <path
     d="m 565.80531,87.836147 h -15.249 c -0.765,0 -1.499,0.303 -2.039,0.843 -0.541,0.539 -0.845,1.27 -0.845,2.033 v 13.171973 c 10e-4,0.762 0.305,1.493 0.846,2.032 0.54,0.539 1.273,0.842 2.038,0.844 h 15.249 c 0.765,-0.003 1.497,-0.306 2.037,-0.845 0.54,-0.539 0.845,-1.269 0.847,-2.031 V 90.712147 c -10e-4,-0.763 -0.305,-1.493 -0.846,-2.032 -0.54,-0.54 -1.273,-0.843 -2.038,-0.844 z"
     fill="#ed455d"
     id="path66" />
  <path
     d="m 584.75231,115.36412 h -53.149 c -0.347,0 -0.68,0.138 -0.926,0.383 -0.245,0.245 -0.383,0.577 -0.383,0.923 0,0.346 0.138,0.678 0.383,0.923 0.246,0.245 0.579,0.383 0.926,0.383 h 53.149 c 0.347,0 0.68,-0.138 0.926,-0.383 0.246,-0.245 0.383,-0.577 0.383,-0.923 0,-0.346 -0.137,-0.678 -0.383,-0.923 -0.246,-0.245 -0.579,-0.383 -0.926,-0.383 z"
     fill="#b8cde1"
     id="path68" />
  <path
     d="m 551.79031,121.48412 h -20.187 c -0.347,0 -0.68,0.138 -0.926,0.383 -0.245,0.245 -0.383,0.577 -0.383,0.923 0,0.346 0.138,0.678 0.383,0.923 0.246,0.245 0.579,0.383 0.926,0.383 h 20.187 c 0.347,0 0.68,-0.138 0.926,-0.383 0.245,-0.245 0.383,-0.577 0.383,-0.923 0,-0.346 -0.138,-0.678 -0.383,-0.923 -0.246,-0.245 -0.579,-0.383 -0.926,-0.383 z"
     fill="#b8cde1"
     id="path70" />
  <path
     d="m 565.80531,144.77912 h -15.249 c -0.765,0.001 -1.499,0.304 -2.039,0.843 -0.541,0.539 -0.845,1.271 -0.845,2.033 v 13.172 c 10e-4,0.762 0.305,1.493 0.846,2.032 0.54,0.539 1.273,0.843 2.038,0.844 h 15.249 c 0.765,-0.002 1.497,-0.306 2.037,-0.845 0.54,-0.539 0.845,-1.269 0.847,-2.031 v -13.172 c -10e-4,-0.762 -0.305,-1.493 -0.846,-2.032 -0.54,-0.539 -1.273,-0.842 -2.038,-0.844 z"
     fill="#ed455d"
     id="path72" />
  <path
     d="m 584.75231,172.30812 h -53.149 c -0.347,0 -0.68,0.137 -0.926,0.382 -0.245,0.245 -0.383,0.577 -0.383,0.923 0,0.347 0.138,0.679 0.383,0.924 0.246,0.245 0.579,0.382 0.926,0.382 h 53.149 c 0.347,0 0.68,-0.137 0.926,-0.382 0.246,-0.245 0.383,-0.577 0.383,-0.924 0,-0.346 -0.137,-0.678 -0.383,-0.923 -0.246,-0.245 -0.579,-0.382 -0.926,-0.382 z"
     fill="#b8cde1"
     id="path74" />
  <path
     d="m 551.79031,178.42812 h -20.187 c -0.347,0 -0.68,0.137 -0.926,0.382 -0.245,0.245 -0.383,0.577 -0.383,0.923 0,0.347 0.138,0.679 0.383,0.924 0.246,0.245 0.579,0.382 0.926,0.382 h 20.187 c 0.347,0 0.68,-0.137 0.926,-0.382 0.245,-0.245 0.383,-0.577 0.383,-0.924 0,-0.346 -0.138,-0.678 -0.383,-0.923 -0.246,-0.245 -0.579,-0.382 -0.926,-0.382 z"
     fill="#b8cde1"
     id="path76" />
  <path
     d="m 493.70931,2.1621444 c 0,-0.316 -0.126,-0.618 -0.35,-0.842 -0.224,-0.223 -0.527,-0.34799999 -0.844,-0.34899999 h -213.202 c -0.317,0.001 -0.62,0.12599999 -0.844,0.34899999 -0.224,0.224 -0.35,0.526 -0.35,0.842 V 9.167146 c -10e-4,0.2920004 0.108,0.5730006 0.305,0.7880008 -0.19,4.7570002 -0.305,11.0270002 -0.305,17.8940002 V 185.97412 c 0,14.829 0.536,26.884 1.194,26.884 h 213.202 c 0.658,0 1.194,-12.055 1.194,-26.884 V 27.849147 c 0,-6.867 -0.115,-13.137 -0.305,-17.8940002 0.197,-0.2150002 0.306,-0.4960004 0.305,-0.7880008 z"
     fill="#ffffff"
     id="path78" />
  <path
     d="m 492.51531,213.43412 h -213.202 c -0.652,0 -1.046,0 -1.42,-8.432 -0.227,-5.093 -0.351,-11.85 -0.351,-19.028 V 27.850147 c 0,-6.619 0.109,-12.982 0.306,-17.9170002 0.379,-9.53700236 0.811,-9.53700236 1.465,-9.53700236 h 213.202 c 0.654,0 1.086,0.002 1.465,9.53700236 0.197,4.9300002 0.306,11.2930002 0.306,17.9170002 V 185.97412 c 0,7.178 -0.125,13.936 -0.351,19.028 -0.375,8.432 -0.768,8.432 -1.42,8.432 z m -212.866,-1.151 h 212.53 c 0.472,-1.803 0.953,-11.929 0.953,-26.309 V 27.850147 c 0,-6.609 -0.108,-12.956 -0.305,-17.8710002 v -0.001 c -0.24,-6.0410024 -0.52,-7.8800024 -0.655,-8.4320024 h -212.516 c -0.135,0.552 -0.415,2.391 -0.655,8.4320024 -0.197,4.9210002 -0.306,11.2680002 -0.306,17.8720002 V 185.97412 c 0,14.38 0.482,24.506 0.954,26.309 z"
     fill="#b8cde1"
     id="path80" />
  <path
     d="m 492.51531,0.97114441 h -213.202 c -0.317,0.001 -0.62,0.12599999 -0.844,0.34899999 -0.224,0.224 -0.35,0.526 -0.35,0.842 V 9.167146 c -10e-4,0.2920004 0.108,0.5730006 0.305,0.7880008 0.111,0.1270002 0.248,0.2280002 0.401,0.2970002 0.153,0.07 0.319,0.106 0.488,0.106 h 213.202 c 0.169,0 0.335,-0.036 0.488,-0.106 0.153,-0.069 0.29,-0.17 0.401,-0.2970002 0.197,-0.2150002 0.306,-0.4960004 0.305,-0.7880008 V 2.1621444 c 0,-0.316 -0.126,-0.618 -0.35,-0.842 -0.224,-0.223 -0.527,-0.34799999 -0.844,-0.34899999 z"
     fill="#496075"
     id="path82" />
  <path
     d="m 285.05131,7.0131444 c 0.937,0 1.696,-0.757 1.696,-1.69 0,-0.934 -0.759,-1.691 -1.696,-1.691 -0.936,0 -1.695,0.757 -1.695,1.691 0,0.933 0.759,1.69 1.695,1.69 z"
     fill="#ffffff"
     id="path84" />
  <path
     d="m 291.48731,7.0131444 c 0.936,0 1.695,-0.757 1.695,-1.69 0,-0.934 -0.759,-1.691 -1.695,-1.691 -0.937,0 -1.696,0.757 -1.696,1.691 0,0.933 0.759,1.69 1.696,1.69 z"
     fill="#ffffff"
     id="path86" />
  <path
     d="m 297.92331,7.0131444 c 0.936,0 1.695,-0.757 1.695,-1.69 0,-0.934 -0.759,-1.691 -1.695,-1.691 -0.937,0 -1.696,0.757 -1.696,1.691 0,0.933 0.759,1.69 1.696,1.69 z"
     fill="#ffffff"
     id="path88" />
  <path
     d="m 486.21131,3.0651444 h -7.411 c -0.146,0 -0.285,0.057 -0.388,0.16 -0.103,0.102 -0.16,0.241 -0.16,0.386 0,0.145 0.057,0.284 0.16,0.387 0.103,0.102 0.242,0.16 0.388,0.16 h 7.411 c 0.146,0 0.285,-0.058 0.388,-0.16 0.102,-0.103 0.16,-0.242 0.16,-0.387 0,-0.145 -0.058,-0.284 -0.16,-0.386 -0.103,-0.103 -0.242,-0.16 -0.388,-0.16 z"
     fill="#ffffff"
     id="path90" />
  <path
     d="m 486.21131,5.1181444 h -7.411 c -0.146,0 -0.285,0.058 -0.388,0.16 -0.103,0.103 -0.16,0.242 -0.16,0.387 0,0.145 0.057,0.284 0.16,0.386 0.103,0.102 0.242,0.16 0.388,0.16 h 7.411 c 0.146,0 0.285,-0.058 0.388,-0.16 0.102,-0.102 0.16,-0.241 0.16,-0.386 0,-0.145 -0.058,-0.284 -0.16,-0.387 -0.103,-0.102 -0.242,-0.16 -0.388,-0.16 z"
     fill="#ffffff"
     id="path92" />
  <path
     d="m 486.21131,7.1721444 h -7.411 c -0.146,0 -0.285,0.057 -0.388,0.16 -0.103,0.102 -0.16,0.241 -0.16,0.3860002 0,0.1450002 0.057,0.2840004 0.16,0.3860004 0.103,0.1030002 0.242,0.1600002 0.388,0.1600002 h 7.411 c 0.146,0 0.285,-0.057 0.388,-0.1600002 0.102,-0.102 0.16,-0.2410002 0.16,-0.3860004 0,-0.1450002 -0.058,-0.2840002 -0.16,-0.3860002 -0.103,-0.103 -0.242,-0.16 -0.388,-0.16 z"
     fill="#ffffff"
     id="path94" />
  <path
     d="m 348.22531,36.069147 h -24.951 c -1.251,0.002 -2.45,0.498 -3.335,1.38 -0.884,0.882 -1.382,2.078 -1.383,3.325 v 21.552 c 10e-4,1.248 0.499,2.444 1.383,3.326 0.885,0.882 2.084,1.378 3.335,1.379 h 24.951 c 1.251,-0.001 2.45,-0.497 3.334,-1.379 0.885,-0.882 1.382,-2.078 1.384,-3.326 v -21.552 c -0.002,-1.247 -0.499,-2.443 -1.384,-3.325 -0.884,-0.882 -2.083,-1.378 -3.334,-1.38 z"
     fill="#ed455d"
     id="path96" />
  <path
     d="m 451.13831,44.403147 h -86.965 c -0.569,0 -1.114,0.226 -1.516,0.626 -0.401,0.401 -0.627,0.945 -0.627,1.511 0,0.567 0.226,1.11 0.627,1.511 0.402,0.401 0.947,0.626 1.516,0.626 h 86.965 c 0.568,0 1.113,-0.225 1.515,-0.626 0.402,-0.401 0.627,-0.944 0.627,-1.511 0,-0.566 -0.225,-1.11 -0.627,-1.511 -0.402,-0.4 -0.947,-0.626 -1.515,-0.626 z"
     fill="#b8cde1"
     id="path98" />
  <path
     d="m 397.20431,54.417147 h -33.031 c -0.569,0 -1.114,0.226 -1.515,0.626 -0.402,0.401 -0.628,0.945 -0.628,1.511 0,0.567 0.226,1.11 0.628,1.511 0.401,0.401 0.946,0.626 1.515,0.626 h 33.031 c 0.569,0 1.114,-0.225 1.515,-0.626 0.402,-0.401 0.628,-0.944 0.628,-1.511 0,-0.566 -0.226,-1.11 -0.628,-1.511 -0.401,-0.4 -0.946,-0.626 -1.515,-0.626 z"
     fill="#b8cde1"
     id="path100" />
  <path
     d="m 348.22531,93.588147 h -24.951 c -1.251,10e-4 -2.45,0.497 -3.335,1.38 -0.884,0.882 -1.382,2.077 -1.383,3.324991 v 21.551982 c 10e-4,1.247 0.499,2.443 1.383,3.325 0.885,0.882 2.084,1.379 3.335,1.38 h 24.951 c 1.251,-0.001 2.45,-0.498 3.334,-1.38 0.885,-0.882 1.382,-2.078 1.384,-3.325 V 98.293138 c -0.002,-1.247991 -0.499,-2.442991 -1.384,-3.324991 -0.884,-0.883 -2.083,-1.379 -3.334,-1.38 z"
     fill="#ed455d"
     id="path102" />
  <path
     d="m 451.13831,101.92212 h -86.965 c -0.569,0 -1.114,0.225 -1.516,0.626 -0.401,0.401 -0.627,0.944 -0.627,1.511 0,0.567 0.226,1.11 0.627,1.511 0.402,0.401 0.947,0.626 1.516,0.626 h 86.965 c 0.568,0 1.113,-0.225 1.515,-0.626 0.402,-0.401 0.627,-0.944 0.627,-1.511 0,-0.567 -0.225,-1.11 -0.627,-1.511 -0.402,-0.401 -0.947,-0.626 -1.515,-0.626 z"
     fill="#b8cde1"
     id="path104" />
  <path
     d="m 397.20431,111.93612 h -33.031 c -0.569,0 -1.114,0.225 -1.515,0.626 -0.402,0.401 -0.628,0.944 -0.628,1.511 0,0.567 0.226,1.11 0.628,1.511 0.401,0.401 0.946,0.626 1.515,0.626 h 33.031 c 0.569,0 1.114,-0.225 1.515,-0.626 0.402,-0.401 0.628,-0.944 0.628,-1.511 0,-0.567 -0.226,-1.11 -0.628,-1.511 -0.401,-0.401 -0.946,-0.626 -1.515,-0.626 z"
     fill="#b8cde1"
     id="path106" />
  <path
     d="m 348.22531,151.10612 h -24.951 c -1.251,0.002 -2.45,0.498 -3.335,1.38 -0.884,0.882 -1.382,2.078 -1.383,3.325 v 21.553 c 10e-4,1.247 0.499,2.443 1.383,3.325 0.885,0.882 2.084,1.378 3.335,1.38 h 24.951 c 1.251,-0.002 2.45,-0.498 3.334,-1.38 0.885,-0.882 1.382,-2.078 1.384,-3.325 v -21.553 c -0.002,-1.247 -0.499,-2.443 -1.384,-3.325 -0.884,-0.882 -2.083,-1.378 -3.334,-1.38 z"
     fill="#ed455d"
     id="path108" />
  <path
     d="m 451.13831,159.44112 h -86.965 c -0.569,0 -1.114,0.225 -1.516,0.626 -0.401,0.401 -0.627,0.944 -0.627,1.511 0,0.566 0.226,1.11 0.627,1.511 0.402,0.4 0.947,0.626 1.516,0.626 h 86.965 c 0.568,0 1.113,-0.226 1.515,-0.626 0.402,-0.401 0.627,-0.945 0.627,-1.511 0,-0.567 -0.225,-1.11 -0.627,-1.511 -0.402,-0.401 -0.947,-0.626 -1.515,-0.626 z"
     fill="#b8cde1"
     id="path110" />
  <path
     d="m 397.20431,169.45512 h -33.031 c -0.569,0 -1.114,0.225 -1.515,0.626 -0.402,0.4 -0.628,0.944 -0.628,1.511 0,0.566 0.226,1.11 0.628,1.511 0.401,0.4 0.946,0.626 1.515,0.626 h 33.031 c 0.569,0 1.114,-0.226 1.515,-0.626 0.402,-0.401 0.628,-0.945 0.628,-1.511 0,-0.567 -0.226,-1.111 -0.628,-1.511 -0.401,-0.401 -0.946,-0.626 -1.515,-0.626 z"
     fill="#b8cde1"
     id="path112" />
  <path
     d="m 530.58531,250.82112 h -142.836 c -0.659,0 -1.195,-10.094 -1.195,-22.503 V 95.948147 c 0,-12.41 0.536,-22.504 1.195,-22.504 h 142.836 c 0.658,0 1.194,10.094 1.194,22.504 V 228.31812 c 0,12.409 -0.536,22.503 -1.194,22.503 z"
     fill="#ffffff"
     id="path114" />
  <path
     d="m 530.58431,251.39612 h -142.836 c -0.605,0 -1.041,0 -1.42,-7.143 -0.227,-4.265 -0.351,-9.924 -0.351,-15.936 V 95.948147 c 0,-6.012 0.124,-11.671 0.351,-15.936 0.379,-7.143 0.815,-7.143 1.42,-7.143 h 142.836 c 0.604,0 1.041,0 1.42,7.143 0.226,4.265 0.351,9.924 0.351,15.936 V 228.31712 c 0,6.012 -0.125,11.671 -0.351,15.936 -0.379,7.143 -0.816,7.143 -1.42,7.143 z m -142.517,-1.15 h 142.198 c 0.414,-1.491 0.936,-9.43 0.936,-21.929 V 95.948147 c 0,-12.499 -0.522,-20.438 -0.936,-21.929 h -142.198 c -0.414,1.491 -0.937,9.43 -0.937,21.929 V 228.31712 c 0,12.499 0.523,20.438 0.937,21.929 z"
     fill="#b8cde1"
     id="path116" />
  <path
     d="m 530.58531,82.832147 h -142.836 c -0.317,-0.001 -0.621,-0.126 -0.845,-0.35 -0.223,-0.223 -0.349,-0.526 -0.35,-0.841 v -7.006 c 0.001,-0.316 0.127,-0.618 0.35,-0.842 0.224,-0.223 0.528,-0.348 0.845,-0.349 h 142.836 c 0.316,0.001 0.62,0.126 0.844,0.349 0.224,0.224 0.35,0.526 0.35,0.842 v 7.006 c 0,0.315 -0.126,0.618 -0.35,0.841 -0.224,0.224 -0.528,0.349 -0.844,0.35 z"
     fill="#496075"
     id="path118" />
  <path
     d="m 393.48431,79.487147 c 0.936,0 1.695,-0.757 1.695,-1.691 0,-0.934 -0.759,-1.691 -1.695,-1.691 -0.936,0 -1.696,0.757 -1.696,1.691 0,0.934 0.76,1.691 1.696,1.691 z"
     fill="#ffffff"
     id="path120" />
  <path
     d="m 399.91931,79.487147 c 0.937,0 1.696,-0.757 1.696,-1.691 0,-0.934 -0.759,-1.691 -1.696,-1.691 -0.936,0 -1.695,0.757 -1.695,1.691 0,0.934 0.759,1.691 1.695,1.691 z"
     fill="#ffffff"
     id="path122" />
  <path
     d="m 406.35531,79.487147 c 0.937,0 1.696,-0.757 1.696,-1.691 0,-0.934 -0.759,-1.691 -1.696,-1.691 -0.936,0 -1.695,0.757 -1.695,1.691 0,0.934 0.759,1.691 1.695,1.691 z"
     fill="#ffffff"
     id="path124" />
  <path
     d="m 524.27831,76.632147 h -7.41 c -0.146,0 -0.286,-0.057 -0.389,-0.16 -0.102,-0.103 -0.16,-0.242 -0.16,-0.387 0,-0.145 0.058,-0.284 0.16,-0.387 0.103,-0.103 0.243,-0.16 0.389,-0.16 h 7.41 c 0.146,0 0.285,0.058 0.387,0.161 0.103,0.102 0.16,0.241 0.16,0.386 0,0.145 -0.057,0.284 -0.16,0.386 -0.102,0.103 -0.241,0.161 -0.387,0.161 z"
     fill="#ffffff"
     id="path126" />
  <path
     d="m 524.27831,78.685147 h -7.41 c -0.146,0 -0.286,-0.057 -0.389,-0.16 -0.102,-0.103 -0.16,-0.242 -0.16,-0.387 0,-0.145 0.058,-0.285 0.16,-0.387 0.103,-0.103 0.243,-0.16 0.389,-0.16 h 7.41 c 0.146,0 0.286,0.057 0.389,0.16 0.102,0.102 0.16,0.242 0.16,0.387 0,0.145 -0.058,0.284 -0.16,0.387 -0.103,0.103 -0.243,0.16 -0.389,0.16 z"
     fill="#ffffff"
     id="path128" />
  <path
     d="m 524.27831,80.738147 h -7.41 c -0.146,0 -0.286,-0.058 -0.389,-0.16 -0.102,-0.103 -0.16,-0.242 -0.16,-0.387 0,-0.145 0.058,-0.285 0.16,-0.387 0.103,-0.103 0.243,-0.161 0.389,-0.161 h 7.41 c 0.146,0.001 0.285,0.059 0.387,0.161 0.103,0.103 0.16,0.242 0.16,0.387 0,0.145 -0.057,0.284 -0.16,0.386 -0.102,0.103 -0.241,0.161 -0.387,0.161 z"
     fill="#ffffff"
     id="path130" />
  <path
     d="m 431.64031,126.31412 h -18.222 c -0.914,-0.001 -1.79,-0.364 -2.436,-1.008 -0.646,-0.644 -1.009,-1.517 -1.01,-2.429 v -15.739 c 0.001,-0.911 0.364,-1.784 1.01,-2.428 0.646,-0.645 1.522,-1.007 2.436,-1.008 h 18.222 c 0.913,0.001 1.789,0.363 2.435,1.008 0.646,0.644 1.009,1.517 1.011,2.428 v 15.739 c -0.002,0.912 -0.365,1.785 -1.011,2.429 -0.646,0.644 -1.522,1.007 -2.435,1.008 z"
     fill="#ed455d"
     id="path132" />
  <path
     d="m 506.79531,112.91212 h -63.508 c -0.415,0 -0.813,-0.165 -1.106,-0.457 -0.294,-0.293 -0.459,-0.69 -0.459,-1.103 0,-0.414 0.165,-0.811 0.459,-1.104 0.293,-0.292 0.691,-0.457 1.106,-0.457 h 63.508 c 0.415,0 0.813,0.165 1.106,0.457 0.294,0.293 0.459,0.69 0.459,1.104 0,0.413 -0.165,0.81 -0.459,1.103 -0.293,0.292 -0.691,0.457 -1.106,0.457 z"
     fill="#b8cde1"
     id="path134" />
  <path
     d="m 467.40831,120.22512 h -24.121 c -0.415,0 -0.813,-0.165 -1.106,-0.457 -0.294,-0.293 -0.459,-0.69 -0.459,-1.104 0,-0.413 0.165,-0.81 0.459,-1.103 0.293,-0.292 0.691,-0.457 1.106,-0.457 h 24.121 c 0.206,0 0.41,0.04 0.6,0.118 0.19,0.078 0.363,0.193 0.509,0.338 0.145,0.145 0.261,0.317 0.339,0.507 0.079,0.189 0.12,0.392 0.12,0.597 0,0.206 -0.041,0.409 -0.12,0.598 -0.078,0.19 -0.194,0.362 -0.339,0.507 -0.146,0.145 -0.319,0.259 -0.509,0.338 -0.19,0.078 -0.394,0.118 -0.6,0.118 z"
     fill="#b8cde1"
     id="path136" />
  <path
     d="m 431.64031,172.90412 h -18.222 c -0.914,-0.001 -1.79,-0.363 -2.436,-1.008 -0.646,-0.644 -1.009,-1.517 -1.01,-2.428 v -15.739 c 0.001,-0.911 0.364,-1.785 1.01,-2.429 0.646,-0.644 1.522,-1.007 2.436,-1.008 h 18.222 c 0.913,10e-4 1.789,0.364 2.435,1.008 0.646,0.644 1.009,1.518 1.011,2.429 v 15.739 c -0.002,0.911 -0.365,1.784 -1.011,2.428 -0.646,0.645 -1.522,1.007 -2.435,1.008 z"
     fill="#ed455d"
     id="path138" />
  <path
     d="m 506.79531,159.50212 h -63.508 c -0.415,0 -0.813,-0.165 -1.106,-0.457 -0.294,-0.293 -0.459,-0.69 -0.459,-1.103 0,-0.414 0.165,-0.811 0.459,-1.104 0.293,-0.292 0.691,-0.457 1.106,-0.457 h 63.508 c 0.415,0 0.813,0.165 1.106,0.457 0.294,0.293 0.459,0.69 0.459,1.104 0,0.413 -0.165,0.81 -0.459,1.103 -0.293,0.292 -0.691,0.457 -1.106,0.457 z"
     fill="#b8cde1"
     id="path140" />
  <path
     d="m 467.40831,166.81512 h -24.121 c -0.415,0 -0.813,-0.165 -1.106,-0.457 -0.294,-0.293 -0.459,-0.69 -0.459,-1.103 0,-0.414 0.165,-0.811 0.459,-1.104 0.293,-0.292 0.691,-0.457 1.106,-0.457 h 24.121 c 0.206,0 0.41,0.04 0.6,0.118 0.19,0.079 0.363,0.193 0.509,0.338 0.145,0.145 0.261,0.317 0.339,0.507 0.079,0.189 0.12,0.392 0.12,0.598 0,0.205 -0.041,0.408 -0.12,0.597 -0.078,0.19 -0.194,0.362 -0.339,0.507 -0.146,0.145 -0.319,0.26 -0.509,0.338 -0.19,0.078 -0.394,0.118 -0.6,0.118 z"
     fill="#b8cde1"
     id="path142" />
  <path
     d="m 431.64031,219.49412 h -18.222 c -0.914,-0.001 -1.79,-0.363 -2.436,-1.007 -0.646,-0.645 -1.009,-1.518 -1.01,-2.429 v -15.739 c 0.001,-0.911 0.364,-1.785 1.01,-2.429 0.646,-0.644 1.522,-1.007 2.436,-1.008 h 18.222 c 0.913,0.001 1.789,0.364 2.435,1.008 0.646,0.644 1.009,1.518 1.011,2.429 v 15.739 c -0.002,0.911 -0.365,1.784 -1.011,2.429 -0.646,0.644 -1.522,1.006 -2.435,1.007 z"
     fill="#ed455d"
     id="path144" />
  <path
     d="m 506.79531,206.09212 h -63.508 c -0.415,0 -0.813,-0.164 -1.106,-0.457 -0.294,-0.293 -0.459,-0.689 -0.459,-1.103 0,-0.414 0.165,-0.811 0.459,-1.103 0.293,-0.293 0.691,-0.457 1.106,-0.457 h 63.508 c 0.415,0 0.813,0.164 1.106,0.457 0.294,0.292 0.459,0.689 0.459,1.103 0,0.414 -0.165,0.81 -0.459,1.103 -0.293,0.293 -0.691,0.457 -1.106,0.457 z"
     fill="#b8cde1"
     id="path146" />
  <path
     d="m 467.40831,213.40512 h -24.121 c -0.415,0 -0.813,-0.165 -1.106,-0.457 -0.294,-0.293 -0.459,-0.69 -0.459,-1.103 0,-0.414 0.165,-0.811 0.459,-1.104 0.293,-0.292 0.691,-0.456 1.106,-0.456 h 24.121 c 0.206,-0.001 0.41,0.039 0.6,0.117 0.19,0.079 0.363,0.194 0.509,0.338 0.145,0.145 0.261,0.317 0.339,0.507 0.079,0.189 0.12,0.393 0.12,0.598 0,0.205 -0.041,0.408 -0.12,0.597 -0.078,0.19 -0.194,0.362 -0.339,0.507 -0.146,0.145 -0.319,0.26 -0.509,0.338 -0.19,0.078 -0.394,0.118 -0.6,0.118 z"
     fill="#b8cde1"
     id="path148" />
</svg>
