<?xml version="1.0" encoding="UTF-8" standalone="no"?>
<svg
   width="477"
   height="346"
   viewBox="0 0 477 346"
   fill="none"
   version="1.1"
   id="svg48"
   sodipodi:docname="mobile_drawing.svg"
   inkscape:version="1.1.2 (b8e25be833, 2022-02-05)"
   xmlns:inkscape="http://www.inkscape.org/namespaces/inkscape"
   xmlns:sodipodi="http://sodipodi.sourceforge.net/DTD/sodipodi-0.dtd"
   xmlns="http://www.w3.org/2000/svg"
   xmlns:svg="http://www.w3.org/2000/svg">
  <defs
     id="defs52" />
  <sodipodi:namedview
     id="namedview50"
     pagecolor="#ffffff"
     bordercolor="#666666"
     borderopacity="1.0"
     inkscape:pageshadow="2"
     inkscape:pageopacity="0.0"
     inkscape:pagecheckerboard="0"
     showgrid="false"
     width="587px"
     inkscape:zoom="1.7993198"
     inkscape:cx="5.8355385"
     inkscape:cy="282.32891"
     inkscape:window-width="3440"
     inkscape:window-height="1377"
     inkscape:window-x="-8"
     inkscape:window-y="-8"
     inkscape:window-maximized="1"
     inkscape:current-layer="svg48" />
  <path
     d="m 29.081033,230.141 c -2.85e-4,0.109 0.01546,0.216 0.04639,0.317 0.03083,0.1 0.07617,0.192 0.13348,0.268 0.0573,0.077 0.125321,0.138 0.200171,0.18 0.07484,0.041 0.155017,0.062 0.236033,0.062 H 466.80166 c 0.16413,0 0.32066,-0.087 0.4364,-0.242 0.1148,-0.155 0.18025,-0.366 0.18025,-0.585 0,-0.22 -0.0654,-0.43 -0.18025,-0.585 -0.11574,-0.155 -0.27227,-0.242 -0.4364,-0.242 H 29.697107 c -0.08101,-0.001 -0.161181,0.021 -0.236033,0.062 -0.07494,0.041 -0.142871,0.102 -0.200172,0.179 -0.0573,0.077 -0.102646,0.168 -0.133479,0.269 -0.03093,0.1 -0.04668,0.208 -0.04639,0.317 z"
     fill="#cccccc"
     id="path4"
     style="stroke-width:0.974004" />
  <path
     d="m 154.30146,210.31953 c -0.7179,0.0246 -1.4286,-0.11917 -2.0366,-0.41229 -0.6081,-0.29312 -1.0831,-0.72184 -1.36,-1.22727 -0.2771,-0.50542 -0.3437,-1.0629 -0.1908,-1.59846 0.1529,-0.53556 0.5182,-1.02318 1.0453,-1.39437 l 0.2411,-0.72869 c -0.032,-0.0575 -0.063,-0.11643 -0.095,-0.17395 -0.7233,-1.30261 -1.9359,-2.41345 -3.4867,-3.19282 -1.5491,-0.77937 -3.3661,-1.19166 -5.2227,-1.18755 -1.8567,0.006 -3.6701,0.42872 -5.2119,1.21632 -1.5419,0.78895 -2.7436,1.90528 -3.4542,3.21199 -2.8426,5.21588 -6.4605,10.43998 -7.3511,15.95447 -0.3922,2.43809 -0.2266,4.9077 0.4894,7.30197 -6.6746,-11.09335 -10.1414,-23.15235 -10.163,-35.35654 0,-3.06268 0.2212,-6.12263 0.6692,-9.16614 0.3689,-2.49563 0.8816,-4.97208 1.5365,-7.43209 3.5783,-13.34517 11.2586,-25.85344 22.4128,-36.49888 5.399,-2.2436 9.7637,-5.69529 12.509,-9.88799 0.9948,-1.50807 1.6965,-3.11749 2.0869,-4.77758 -0.6099,0.0603 -2.2956,-7.00611 -1.8369,-7.44032 -0.8491,-0.98071 -2.3676,-1.46833 -3.294,-2.42577 -4.611,-4.76251 -10.9618,-3.93108 -14.2775,2.54084 -7.0811,2.72299 -7.1513,7.24033 -2.8048,11.58507 2.7652,2.76409 3.1449,6.50342 5.5718,9.46339 -0.2501,0.24243 -0.511,0.47939 -0.7592,0.72183 -4.5625,4.47076 -8.5402,9.27025 -11.8721,14.33273 0.8096,-5.67063 -0.1583,-11.407 -2.8246,-16.73658 -2.7021,-4.9666 -7.7666,-9.14972 -12.2264,-13.44378 -5.3577,-5.15699 -16.3429,-2.90655 -17.2873,3.63112 -0.012,0.0643 -0.018,0.12738 -0.025,0.19039 0.6621,0.2849 1.3097,0.58761 1.9448,0.90675 0.797,0.40544 1.414,0.98619 1.7721,1.66284 0.3563,0.67801 0.4371,1.42313 0.2302,2.13539 -0.2069,0.71362 -0.6926,1.36287 -1.3924,1.86144 -0.6998,0.49996 -1.5814,0.82595 -2.5277,0.93826 l -0.097,0.0104 c 0.2357,1.81899 0.6531,3.62292 1.2467,5.39395 -5.7211,16.85987 6.6314,23.00031 24.2695,23.27699 0.3904,0.15204 0.77,0.30408 1.1587,0.44928 -3.35,7.23073 -5.4495,14.76419 -6.25,22.40995 -0.4516,4.50911 -0.4246,9.04014 0.081,13.54788 l -0.031,-0.16025 c -1.2774,-5.01181 -4.7873,-9.53324 -9.9327,-12.80276 -7.6442,-4.78443 -18.4441,-6.54588 -26.6911,-10.39206 -0.8778,-0.42872 -1.8962,-0.65746 -2.9378,-0.6602 -1.0417,-0.001 -2.0618,0.22327 -2.9415,0.64925 -0.878,0.42461 -1.5796,1.03277 -2.0203,1.75187 -0.4409,0.72047 -0.6028,1.52039 -0.4642,2.30661 0.012,0.0561 0.021,0.11236 0.032,0.16847 1.2305,0.38078 2.427,0.82046 3.5838,1.31493 0.6638,0.28489 1.3114,0.5876 1.9465,0.90675 0.7971,0.40681 1.4141,0.9862 1.7721,1.66421 0.3563,0.67801 0.4372,1.42177 0.2304,2.13539 -0.2088,0.71225 -0.6927,1.3615 -1.3926,1.86144 -0.6998,0.49858 -1.5814,0.82595 -2.5277,0.93689 l -0.097,0.0104 c -0.07,0.008 -0.1313,0.0164 -0.1996,0.0233 2.0995,3.82151 5.0482,7.33895 8.7147,10.3989 3.5783,14.71899 18.9442,16.11474 35.3805,11.82889 h 0.012 c 1.8027,5.97196 4.415,11.78367 7.7972,17.34336 h 27.8533 c 0.099,-0.23559 0.189,-0.4794 0.2789,-0.71499 -2.5781,0.12327 -5.167,0.007 -7.7072,-0.34928 2.0671,-1.93268 4.1324,-3.88041 6.1995,-5.81171 0.047,-0.037 0.09,-0.0739 0.1296,-0.11502 1.0488,-0.98757 2.1067,-1.96966 3.1556,-2.9586 v -0.001 c 0.056,-3.03118 -0.4013,-6.05552 -1.3584,-8.99767 z"
     fill="#f2f2f2"
     id="path6"
     style="stroke-width:1.56979" />
  <path
     d="m 419.13958,12.5391 c -1.686,-12.927797 -31.481,-12.10312 -34.294,0.0599 -1.492,-0.9342 -5.289,-0.2876 -6.704,0.7861 -1.416,1.0738 -2.324,2.6523 -3.212,4.1845 -1.213,2.1283 -2.47,4.3327 -2.739,6.7729 -0.28,2.4356 0.677,5.1946 2.883,6.2791 1.75,0.8642 5.601,0.2806 7.525,-0.1063 1.343,-0.2671 2.47,-0.5011 3.426,-0.7306 0.321,-1.5137 0.1,-3.0924 -0.626,-4.4589 0.773,0.1536 1.502,0.4765 2.136,0.9456 0.634,0.4691 1.156,1.0727 1.529,1.7675 0.15,0.2911 5.609,41.4151 5.609,41.4151 1.492,0.18 2.998,0.2177 4.497,0.1124 0.931,-5.0612 1.1,-10.2331 0.503,-15.3444 1.58,2.9214 2.831,6.0101 3.728,9.2088 0.514,1.7891 0.937,3.6033 1.266,5.4355 12.991,-2.4312 30.552,-10.8053 33.756,-25.0244 -0.017,-0.0459 -0.035,-0.0918 -0.053,-0.1376 -0.175,-0.4345 -0.194,-0.9165 -0.053,-1.3633 0.141,-0.4469 0.433,-0.8308 0.825,-1.086 0.393,-0.2552 0.862,-0.3659 1.327,-0.3131 0.465,0.0529 0.898,0.2659 1.223,0.6027 0.392,0.4034 0.741,0.7483 1.036,1.0154 -1.139,-9.0805 -8.021,-17.2518 -23.588,-30.0209 z"
     fill="#496075"
     id="path10" />
  <path
     d="m 229.45258,329.154 -7.283,-3.811 11.55,-30.556 10.75,5.625 z"
     fill="#a0616a"
     id="path12" />
  <path
     d="m 200.06458,328.786 c -0.451,0.865 -0.54,1.873 -0.249,2.803 0.291,0.931 0.939,1.708 1.802,2.161 l 14.482,7.576 5.189,-3.86 -1.721,5.671 5.462,2.863 8.09,-19.227 -1.844,-1.106 -7.513,-4.529 -2.427,-1.456 -2.725,5.216 -15.742,1.943 c -0.589,0.073 -1.153,0.288 -1.641,0.627 -0.489,0.339 -0.888,0.791 -1.163,1.318 z"
     fill="#496075"
     id="path14" />
  <path
     d="m 221.99158,216.663 -5.298,-6.288 22.257,-23.899 7.819,9.282 z"
     fill="#a0616a"
     id="path16" />
  <path
     d="m 194.93358,205.178 c -0.744,0.629 -1.209,1.528 -1.292,2.5 -0.083,0.972 0.223,1.936 0.85,2.683 l 10.534,12.503 6.263,-1.604 -3.74,4.595 3.972,4.721 14.765,-14.726 -1.288,-1.723 -5.238,-7.04 -1.694,-2.268 -4.497,3.794 -15.303,-4.172 c -0.574,-0.156 -1.176,-0.17 -1.757,-0.042 -0.58,0.128 -1.121,0.396 -1.575,0.779 z"
     fill="#496075"
     id="path18" />
  <path
     d="m 455.62958,193.098 c 0,0 22.491,48.181 -70.65,35.198 0,0 -49.624,-55.04 -48.19,-61.662 0,0 -21.121,-21.479 -20.087,-21.87 1.033,-0.391 1.671,-1.241 -0.037,-1.163 -1.708,0.077 -1.708,-2.467 -1.708,-2.467 0,0 -38.17,41.427 -70.31,61.984 l -11.111,-12.511 c 0,0 4.333,-13.567 6.417,-13.567 2.083,0 2.801,0.501 3.137,-2.182 0.335,-2.683 -1.324,-4.987 0.894,-5.225 2.219,-0.238 48.199,-54.021 48.199,-54.021 0,0 4.961,-17.7151 20.118,-14.286 15.157,3.429 93.915,67.513 93.915,67.513 z"
     fill="#496075"
     id="path20" />
  <path
     d="m 417.70058,229.857 -123.05,-1.022 -53.475,84.797 -15.112,-8.007 3.35,-1.415 c 0,0 -1.014,-11.786 0.228,-14.769 1.243,-2.984 4.939,-2.086 4.939,-2.086 l 31.177,-71.958 c 2.15,-6.388 6.374,-11.871 11.999,-15.577 5.625,-3.706 12.328,-5.422 19.04,-4.874 25.798,-3.765 67.675,-0.756 111.182,2.938 z"
     fill="#496075"
     id="path22" />
  <path
     d="m 346.45858,85.5423 c 2.342,0.3593 4.452,1.6191 5.88,3.5114 1.428,1.8923 2.063,4.2677 1.768,6.6207 -0.068,0.4774 -0.175,0.9483 -0.32,1.408 l 25.284,19.1946 -5.217,16.267 -31.796,-30.042 c -1.858,-0.75 -3.416,-2.094 -4.43,-3.8231 -1.015,-1.7291 -1.429,-3.7455 -1.177,-5.7348 0.153,-1.1305 0.528,-2.2197 1.102,-3.2053 0.575,-0.9856 1.337,-1.8483 2.245,-2.5389 0.907,-0.6906 1.942,-1.1956 3.044,-1.4861 1.103,-0.2904 2.252,-0.3608 3.381,-0.2069 0.079,0.0108 0.158,0.0226 0.236,0.0354 z"
     fill="#a0616a"
     id="path24" />
  <path
     d="m 458.00158,86.7405 -9.091,25.1885 -35.55,50.28 c 0,0 -0.292,-0.125 -0.82,-0.347 -3.056,-1.321 -14.154,-6.172 -24.592,-11.684 -9.799,-5.178 -19.029,-10.94 -20.459,-14.902 -0.153,-0.417 -0.292,-0.82 -0.417,-1.209 v -0.007 c -0.666,-2.018 -1.084,-4.109 -1.243,-6.228 -0.118,-1.633 -0.014,-2.509 -0.236,-2.613 -0.174,-0.077 -0.535,0.299 -1.334,1.147 -0.055,0.055 -0.104,0.111 -0.159,0.159 -2.889,2.899 -6.438,2.523 -5.57,1.147 0.889,-1.411 0.424,-1.383 -0.882,-2.856 -0.972,-1.099 -4.132,-5.394 -5.688,-7.514 -0.535,-0.73 -0.875,-1.202 -0.875,-1.202 l 0.535,-0.841 1.479,-2.322 7.035,-11.037 0.389,-0.605 c 0,0 14.459,3.343 16.383,6.52 1.931,3.176 -2.91,3.072 1.931,3.176 4.84,0.104 9.778,-6.485 6.243,0.069 -3.535,6.548 -2.604,8.835 1.771,7.799 1.778,-0.424 4.591,0.917 7.299,2.655 v 0.007 c 1.694,1.101 3.328,2.292 4.896,3.566 1.674,1.348 2.806,2.37 2.806,2.37 l 27.46,-55.7575 3.042,-6.1721 c 0.927,-1.8781 2.219,-3.5523 3.8,-4.9248 1.581,-1.3724 3.42,-2.4155 5.409,-3.0683 l 0.951,1.6612 c 5.924,8.7315 11.104,17.9456 15.487,27.545 z"
     fill="#b8cde1"
     id="path26" />
  <path
     d="m 459.52258,166.686 c 8.417,1.96 -0.537,63.281 -10.57,63.472 -72.921,1.39 -50.718,-39.556 -54.628,-43.476 -3.91,-3.927 -7.438,-1.112 -3.91,-7.221 2.569,-4.449 6.382,-3.788 6.438,-6.284 0.027,-0.931 -0.466,-2.293 -1.744,-4.531 -4.694,-8.23 -4.694,-10.683 -4.694,-10.683 -1.171,-2.471 -2,-5.09 -2.466,-7.785 -0.761,-4.007 -0.855,-8.112 -0.278,-12.149 0.882,-5.923 3.098,-11.568 6.48,-16.508 v -0.007 c 0.354,-0.528 0.722,-1.063 1.111,-1.592 0.882,-1.202 5.771,-0.973 5.771,-0.973 l 10.418,-43.7881 -6.028,-17.4597 28.55,-13.3867 7.591,13.2199 0.951,1.6612 c 5.924,8.7314 11.104,17.9455 15.487,27.5449 4.216,9.3902 7.681,19.8155 7.806,28.8865 0.333,23.653 -3.743,30.687 -3.743,30.687 0,0 9.896,7.402 4.945,11.927 -4.945,4.531 -15.904,6.485 -7.487,8.445 z"
     fill="#b8cde1"
     id="path28" />
  <path
     d="m 330.18158,79.7815 -4.658,3.5414 c -0.92,0.7043 -1.524,1.7448 -1.679,2.8936 -0.155,1.1489 0.151,2.3124 0.852,3.2358 l 11.219,14.7587 6.625,8.707 c 0.702,0.919 1.74,1.523 2.886,1.678 1.146,0.155 2.307,-0.151 3.228,-0.851 l 4.664,-3.546 c 0.916,-0.706 1.517,-1.746 1.671,-2.893 0.154,-1.147 -0.151,-2.309 -0.849,-3.232 l -0.687,-0.909 -13.591,-17.8715 -3.566,-4.6848 c -0.347,-0.4564 -0.781,-0.8397 -1.276,-1.1283 -0.495,-0.2885 -1.042,-0.4766 -1.61,-0.5534 -0.568,-0.0768 -1.145,-0.0409 -1.699,0.1057 -0.554,0.1467 -1.074,0.4011 -1.53,0.7488 z"
     fill="#ffffff"
     id="path30" />
  <path
     d="m 332.61858,79.5138 -5.019,3.5036 c -0.442,0.2896 -0.818,0.6698 -1.103,1.1156 -0.285,0.4458 -0.473,0.9469 -0.55,1.4704 -0.077,0.5235 -0.043,1.0575 0.101,1.5667 0.144,0.5093 0.394,0.9822 0.734,1.3876 l 6.568,7.9208 3.5,4.2195 2.336,2.815 5.223,6.298 c 0.738,0.845 1.762,1.389 2.875,1.527 1.113,0.139 2.238,-0.137 3.161,-0.775 l 3.76,-2.626 1.251,-0.873 c 0.624,-0.416 1.111,-1.007 1.4,-1.7 0.289,-0.692 0.367,-1.454 0.224,-2.191 -0.126,-0.612 -0.402,-1.183 -0.804,-1.661 l -15.433,-18.6124 -2.188,-2.6344 c -0.738,-0.8461 -1.762,-1.3905 -2.875,-1.5291 -1.114,-0.1386 -2.239,0.1382 -3.161,0.7777 z"
     fill="#b8cde1"
     id="path32" />
  <path
     d="m 335.82458,99.0766 c 2.342,0.3593 4.452,1.6194 5.88,3.5114 1.428,1.892 2.063,4.268 1.768,6.621 -0.068,0.477 -0.175,0.948 -0.32,1.408 l 25.284,19.194 -5.217,16.267 -31.796,-30.042 c -1.858,-0.75 -3.416,-2.094 -4.43,-3.823 -1.015,-1.729 -1.429,-3.745 -1.177,-5.735 0.153,-1.13 0.528,-2.219 1.102,-3.205 0.575,-0.986 1.337,-1.848 2.245,-2.539 0.907,-0.69 1.942,-1.1954 3.044,-1.4859 1.103,-0.2905 2.252,-0.3608 3.381,-0.2069 0.079,0.0107 0.158,0.0225 0.236,0.0354 z"
     fill="#a0616a"
     id="path34" />
  <path
     d="m 438.94558,70.6104 c 2.21,0.4503 4.297,1.3717 6.119,2.7015 1.823,1.3298 3.338,3.0368 4.442,5.0049 1.105,1.9682 1.773,4.1513 1.959,6.4009 0.186,2.2496 -0.114,4.5129 -0.88,6.636 l -12.306,34.1083 -35.556,50.284 c 0,0 -42.641,-18.026 -45.87,-26.936 -3.228,-8.91 -0.313,-11.984 -3.228,-8.91 -2.916,3.075 -6.612,2.71 -5.727,1.303 0.885,-1.407 0.419,-1.377 -0.884,-2.851 -1.303,-1.474 -6.562,-8.716 -6.562,-8.716 l 9.437,-14.805 c 0,0 14.46,3.34 16.386,6.519 1.927,3.178 -2.915,3.074 1.927,3.178 4.842,0.104 9.781,-6.488 6.244,0.065 -3.537,6.552 -2.604,8.837 1.772,7.798 4.375,-1.038 14.997,8.601 14.997,8.601 l 30.508,-61.9288 c 1.534,-3.1149 4.056,-5.6337 7.172,-7.1628 3.115,-1.5292 6.649,-1.9828 10.05,-1.29 z"
     fill="#b8cde1"
     id="path36" />
  <path
     d="m 420.75058,50.0789 c 8.84,-8.8466 8.84,-23.1898 0,-32.0365 -8.839,-8.8466 -23.171,-8.8466 -32.01,0 -8.84,8.8467 -8.84,23.1899 0,32.0365 8.839,8.8466 23.171,8.8466 32.01,0 z"
     fill="#a0616a"
     id="path38" />
  <path
     d="m 431.21358,9.38207 c -1.686,-12.92784 -31.481,-12.10316 -34.294,0.05983 -1.492,-0.93415 -5.289,-0.28756 -6.704,0.7862 -1.416,1.0737 -2.324,2.6522 -3.212,4.1845 -1.213,2.1282 -9.7,9.3285 -10.972,7.2292 -2.862,-4.7243 -8.475,5.5992 -4.167,12.511 1.033,1.6573 20.994,-1.0032 22.918,-1.3901 1.343,-0.2672 -0.956,0.2294 0,0 0.309,-1.4995 3.427,-9.2468 2.69,-10.594 0.773,0.1536 1.503,0.4765 2.136,0.9456 0.634,0.4691 1.156,1.0727 1.529,1.7675 0.15,0.291 5.609,41.4151 5.609,41.4151 1.492,0.18 2.998,0.2176 4.497,0.1124 0.931,-5.0612 1.1,-10.2331 0.503,-15.3444 1.581,2.9214 2.831,6.0101 3.728,9.2088 0.514,1.7891 0.937,3.6033 1.266,5.4355 12.991,-2.4312 30.552,-10.8053 33.756,-25.0244 -17.517,-5.837 -3.716,-18.5337 -19.283,-31.30273 z"
     fill="#496075"
     id="path40" />
  <path
     d="m 328.30158,94.3657 c 0.312,-0.2233 0.113,-1.0371 -0.445,-1.8178 -0.557,-0.7807 -1.262,-1.2327 -1.574,-1.0094 -0.313,0.2232 -0.113,1.0371 0.444,1.8178 0.558,0.7807 1.263,1.2326 1.575,1.0094 z"
     fill="#ffffff"
     id="path42" />
  <path
     d="m 326.21758,91.5854 c 0.312,-0.2232 0.113,-1.037 -0.444,-1.8177 -0.558,-0.7807 -1.263,-1.2327 -1.575,-1.0094 -0.312,0.2232 -0.113,1.0371 0.445,1.8178 0.557,0.7807 1.262,1.2326 1.574,1.0093 z"
     fill="#ffffff"
     id="path44" />
  <path
     d="m 345.22458,110.1 c -0.679,-0.476 -1.237,-1.164 -1.238,-1.53 -0.017,-3.592 -3.237,-8.244 -6.439,-9.3014 -2.319,-0.7658 -11.343,-11.1508 -11.343,-13.0532 0,-1.5525 0.85,-2.5434 3.988,-4.6495 3.396,-2.2801 4.916,-2.8183 6.396,-2.2652 1.236,0.462 18.712,20.9353 19.753,23.1423 0.985,2.085 0.052,3.681 -3.602,6.159 -3.719,2.523 -5.536,2.885 -7.515,1.498 z"
     fill="#ed455d"
     id="path46" />
</svg>
