<?xml version="1.0" encoding="UTF-8" standalone="no"?>
<svg
   width="509"
   height="509"
   viewBox="0 0 509 509"
   fill="none"
   version="1.1"
   id="svg50"
   sodipodi:docname="SEO Drawing.svg"
   inkscape:version="1.1.2 (b8e25be833, 2022-02-05)"
   xmlns:inkscape="http://www.inkscape.org/namespaces/inkscape"
   xmlns:sodipodi="http://sodipodi.sourceforge.net/DTD/sodipodi-0.dtd"
   xmlns="http://www.w3.org/2000/svg"
   xmlns:svg="http://www.w3.org/2000/svg">
  <defs
     id="defs54" />
  <sodipodi:namedview
     id="namedview52"
     pagecolor="#ffffff"
     bordercolor="#666666"
     borderopacity="1.0"
     inkscape:pageshadow="2"
     inkscape:pageopacity="0.0"
     inkscape:pagecheckerboard="0"
     showgrid="false"
     inkscape:zoom="1.4142136"
     inkscape:cx="132.58252"
     inkscape:cy="353.55339"
     inkscape:window-width="2560"
     inkscape:window-height="1377"
     inkscape:window-x="-2568"
     inkscape:window-y="-8"
     inkscape:window-maximized="1"
     inkscape:current-layer="svg50" />
  <path
     d="M 347.37131,354.47002 H 142.89733 c -17.188,0 -31.16998,-13.969 -31.16998,-31.141 v -204.287 c 0,-17.171 13.98198,-31.141005 31.16998,-31.141005 h 204.47398 c 17.187,0 31.17,13.970005 31.17,31.141005 v 204.287 c 0,17.172 -13.983,31.141 -31.17,31.141 z M 142.89733,92.883015 c -14.461,0 -26.18299,11.712005 -26.18299,26.159005 v 204.287 c 0,14.447 11.72199,26.159 26.18299,26.159 h 143.22898 c 48.285,0 87.428,-39.107 87.428,-87.348 v -143.098 c 0,-14.447 -11.723,-26.159005 -26.183,-26.159005 z"
     fill="#f2f2f2"
     id="path2" />
  <path
     d="m 164.94131,114.12702 c -9.678,0 -17.55,7.866 -17.55,17.534 v 27.445 c 0,9.669 7.872,17.535 17.55,17.535 h 27.47 c 9.678,0 17.55,-7.866 17.55,-17.535 v -27.445 c 0,-9.668 -7.872,-17.534 -17.55,-17.534 z"
     fill="#f2f2f2"
     id="path4" />
  <path
     d="m 164.94131,191.38802 c -9.678,0 -17.55,7.866 -17.55,17.535 v 27.445 c 0,9.668 7.872,17.534 17.55,17.534 h 27.47 c 9.678,0 17.55,-7.866 17.55,-17.534 v -27.445 c 0,-9.669 -7.872,-17.535 -17.55,-17.535 z"
     fill="#f2f2f2"
     id="path6" />
  <path
     d="m 164.94131,268.65002 c -9.678,0 -17.55,7.865 -17.55,17.534 v 27.445 c 0,9.669 7.872,17.534 17.55,17.534 h 27.47 c 9.678,0 17.55,-7.865 17.55,-17.534 v -27.445 c 0,-9.669 -7.872,-17.534 -17.55,-17.534 z"
     fill="#f2f2f2"
     id="path8" />
  <path
     d="m 183.15731,47.167415 c -12.194,0 -22.114,9.9108 -22.114,22.0937 v 34.581905 c 0,12.183 9.92,22.093 22.114,22.093 h 34.614 c 12.194,0 22.114,-9.91 22.114,-22.093 V 69.261115 c 0,-12.1829 -9.92,-22.0937 -22.114,-22.0937 z"
     fill="#ed455d"
     id="path10" />
  <path
     d="m 297.11331,143.80802 c -12.194,0 -22.114,9.911 -22.114,22.094 v 34.582 c 0,12.182 9.92,22.093 22.114,22.093 h 34.613 c 12.194,0 22.114,-9.911 22.114,-22.093 v -34.582 c 0,-12.183 -9.92,-22.094 -22.114,-22.094 z"
     fill="#ed455d"
     id="path12" />
  <path
     d="m 247.57131,491.88502 -7.032,-0.059 -3.113,-27.73 10.378,0.088 z"
     fill="#a0616a"
     id="path14" />
  <path
     d="m 225.04731,503.05602 c -0.015,1.73 1.38,3.153 3.117,3.169 l 13.981,0.116 2.447,-4.956 0.899,4.982 5.276,0.047 -1.333,-17.768 -1.835,-0.122 -7.486,-0.516 -2.415,-0.161 -0.042,5.027 -11.231,7.611 c -0.855,0.58 -1.369,1.54 -1.378,2.571 z"
     fill="#496075"
     id="path16" />
  <path
     d="m 283.34731,491.88502 -7.031,-0.059 -3.113,-27.73 10.378,0.088 z"
     fill="#a0616a"
     id="path18" />
  <path
     d="m 260.82431,503.05602 c -0.015,1.73 1.38,3.153 3.117,3.169 l 13.981,0.116 2.447,-4.956 0.899,4.982 5.275,0.047 -1.332,-17.768 -1.835,-0.122 -7.486,-0.516 -2.415,-0.161 -0.043,5.027 -11.23,7.611 c -0.855,0.58 -1.369,1.54 -1.378,2.571 z"
     fill="#496075"
     id="path20" />
  <path
     d="m 219.97731,267.69402 28.503,0.899 27.003,5.995 c 0,0 -2.7,3.298 6.301,12.29 0,0 12.001,20.983 3.6,41.367 l -3.6,81.534 c 0,0 10.497,57.476 2.477,75.768 l -10.601,0.662 -17.937,-75.767 -8.743,-81.598 -4.2,80.335 c 0,0 16.069,55.141 5.922,77.03 l -11.481,-0.662 -19.644,-76.368 c 0,0 -8.401,-88.128 -7.201,-104.915 1.201,-16.786 9.601,-36.57 9.601,-36.57 z"
     fill="#496075"
     id="path22" />
  <path
     d="m 315.69731,138.85802 c -3.896,1.008 -6.237,4.98 -5.228,8.873 0.462,1.784 1.551,3.235 2.967,4.194 l -10e-4,0.01 -0.553,13.376 10.246,4.737 0.818,-20.584 -0.071,0.003 c 0.888,-1.582 1.195,-3.492 0.704,-5.386 -1.009,-3.893 -4.985,-6.231 -8.882,-5.223 z"
     fill="#a0616a"
     id="path24" />
  <path
     d="m 258.43431,186.59702 c -2.152,-2.132 -3.401,-5.021 -3.448,-8.164 -0.063,-4.216 2.052,-8.042 5.656,-10.235 4.151,-2.526 9.342,-2.27 13.224,0.65 l 32.173,24.202 5.733,-34.864 12.308,3.958 -2.937,45.399 c -0.205,3.175 -2.002,5.973 -4.805,7.483 -2.804,1.51 -6.13,1.472 -8.899,-0.101 l -46.495,-26.429 c -0.934,-0.531 -1.775,-1.171 -2.51,-1.899 z"
     fill="#b8cde1"
     id="path26" />
  <path
     d="m 209.37631,119.35602 c 2.057,3.457 0.919,7.924 -2.541,9.979 -1.585,0.942 -3.381,1.206 -5.062,0.891 l -0.007,0.008 -9.033,9.888 -10.614,-3.843 13.924,-15.193 0.049,0.052 c 0.484,-1.748 1.612,-3.321 3.295,-4.32 3.46,-2.055 7.932,-0.919 9.989,2.538 z"
     fill="#a0616a"
     id="path28" />
  <path
     d="m 213.27831,193.12002 -51.643,-13.937 c -3.075,-0.83 -5.463,-3.142 -6.39,-6.187 -0.927,-3.045 -0.231,-6.295 1.861,-8.695 l 29.907,-34.305 11.53,5.846 -20.498,28.792 39.902,5.444 c 4.815,0.657 8.681,4.127 9.849,8.84 1.014,4.093 -0.18,8.297 -3.196,11.247 -2.247,2.199 -5.171,3.373 -8.201,3.372 -1.035,0 -2.084,-0.137 -3.121,-0.417 z"
     fill="#b8cde1"
     id="path30" />
  <path
     d="m 286.90431,279.68902 -72.216,3.31 c -1.984,-3.01 -1.447,-7.534 1.331,-13.201 10.487,-21.393 2.523,-61.865 -2.835,-82.939 -1.504,-5.913 2.532,-11.791 8.608,-12.398 l 6.809,-0.68 6.294,-19.196 h 22.043 l 9.145,10.438 15.52,9.42 c -2.825,29.071 -14.862,70.123 2.286,90.71 3.751,4.502 4.814,9.372 3.015,14.536 z"
     fill="#b8cde1"
     id="path32" />
  <path
     d="m 243.11331,155.02802 c 11.858,0 21.471,-9.604 21.471,-21.451 0,-11.847 -9.613,-21.451 -21.471,-21.451 -11.858,0 -21.471,9.604 -21.471,21.451 0,11.847 9.613,21.451 21.471,21.451 z"
     fill="#a0616a"
     id="path34" />
  <path
     d="m 267.40931,119.84602 c 2.987,-10.881 -29.571,-20.21203 -35.898,-11.45 -0.88,-1.245 -4.131,-2.002 -5.623,-1.62 -1.492,0.382 -2.746,1.338 -3.97,2.263 -1.684,1.291 -3.428,2.629 -4.46,4.486 -1.041,1.85 -1.202,4.372 0.198,5.977 1.11,1.276 3.059,8.059 4.727,8.396 1.162,0.237 2.142,0.428 2.983,0.565 0.75,-1.093 2.662,-2.466 2.524,-3.788 1.132,0.749 0.719,2.067 0.49,3.414 -0.76,4.485 -17.885,39.202 -8.077,28.972 0.972,0.573 2.173,1.108 3.558,1.597 2.348,-3.539 4.276,-7.712 5.546,-12.076 l 0.009,0.081 c 0.437,3.792 3.212,6.904 6.882,7.967 14.723,4.261 26.633,-1.992 30.73,-13.269 -1.5,-3.042 -2.153,-2.711 -2.019,-2.802 1.872,-1.26 4.445,-0.436 5.25,1.672 0.237,0.621 0.453,1.151 0.64,1.551 2.134,-7.628 4.673,-6.527 -3.49,-21.936 z"
     fill="#496075"
     id="path36" />
  <path
     d="m 257.25231,111.95102 -1.504,-7.682 c -0.127,-0.645 -0.247,-1.346 0.045,-1.936 0.374,-0.758 1.337,-1.072 2.174,-0.951 0.838,0.12 1.464,0.885 2.298,1.032 2.897,0.512 6.726,-2.34702 7.764,4.885 0.433,3.016 5.249,3.334 6.858,5.922 1.608,2.588 1.806,6.324 -0.389,8.439 -1.754,1.688 -4.569,1.883 -6.846,1.02 -2.277,-0.862 -4.105,-2.605 -5.701,-4.442 -1.596,-1.837 -3.042,-3.826 -4.883,-5.418"
     fill="#496075"
     id="path38" />
  <path
     d="m 268.55631,123.63502 c -5.875,-0.82 -9.88,-2.954 -11.903,-6.344 -2.647,-4.438 -0.874,-9.323 -0.797,-9.529 l 1.242,0.461 c -0.017,0.045 -1.626,4.517 0.7,8.401 1.81,3.022 5.491,4.939 10.941,5.7 z"
     fill="#ed455d"
     id="path40" />
  <path
     d="m 274.12631,62.632315 c -17.272,0 -31.325,-14.0409 -31.325,-31.2971 0,-17.2563 14.053,-31.29719973 31.325,-31.29719973 17.273,0 31.326,14.04089973 31.326,31.29719973 0,17.2562 -14.053,31.2971 -31.326,31.2971 z m 0,-50.0754 c -10.364,0 -18.795,8.4233 -18.795,18.7783 0,10.3549 8.431,18.7782 18.795,18.7782 10.365,0 18.796,-8.4233 18.796,-18.7782 0,-10.355 -8.431,-18.7783 -18.796,-18.7783 z"
     fill="#ed455d"
     id="path42" />
  <path
     d="m 322.32431,83.901615 c -1.536,0 -3.075,-0.5594 -4.283,-1.6933 l -29.402,-27.5286 c -2.527,-2.3626 -2.655,-6.3237 -0.287,-8.8452 2.361,-2.5306 6.326,-2.6559 8.853,-0.2873 l 29.401,27.5287 c 2.527,2.3626 2.656,6.3236 0.288,8.8451 -1.233,1.3173 -2.9,1.9806 -4.57,1.9806 z"
     fill="#ed455d"
     id="path44" />
  <path
     d="m 453.05691,491.18302 c 2.13,0.133 3.307,-2.511 1.696,-4.052 l -0.161,-0.637 c 0.021,-0.051 0.043,-0.102 0.064,-0.153 2.154,-5.132 9.455,-5.097 11.591,0.043 1.896,4.562 4.309,9.131 4.904,13.954 0.266,2.129 0.146,4.298 -0.327,6.388 4.442,-9.695 6.78,-20.28 6.78,-30.926 0,-2.675 -0.147,-5.35 -0.446,-8.018 -0.247,-2.182 -0.586,-4.351 -1.026,-6.5 -2.377,-11.618 -7.525,-22.683 -14.951,-31.924 -3.57,-1.95 -6.546,-4.997 -8.344,-8.65 -0.646,-1.318 -1.153,-2.735 -1.392,-4.179 0.406,0.054 1.531,-6.128 1.225,-6.507 0.566,-0.858 1.579,-1.285 2.198,-2.122 3.075,-4.166 7.311,-3.438 9.523,2.222 4.725,2.382 4.771,6.333 1.872,10.133 -1.845,2.418 -2.098,5.689 -3.717,8.277 0.167,0.213 0.34,0.42 0.507,0.633 3.053,3.912 5.693,8.117 7.919,12.535 -0.629,-4.91 0.3,-10.825 1.884,-14.638 1.802,-4.344 5.181,-8.003 8.156,-11.759 3.574,-4.511 10.902,-2.543 11.532,3.176 0.006,0.056 0.012,0.111 0.018,0.166 -0.442,0.249 -0.875,0.514 -1.298,0.793 -2.412,1.594 -1.579,5.33 1.28,5.771 l 0.064,0.01 c -0.16,1.59 -0.433,3.167 -0.832,4.717 3.817,14.748 -4.424,20.119 -16.19,20.36 -0.26,0.134 -0.513,0.267 -0.772,0.393 1.192,3.353 2.144,6.793 2.85,10.28 0.633,3.08 1.072,6.194 1.319,9.322 0.306,3.945 0.279,7.911 -0.054,11.85 l 0.02,-0.14 c 0.846,-4.338 3.204,-8.39 6.627,-11.198 5.099,-4.185 12.304,-5.726 17.805,-9.09 2.648,-1.62 6.042,0.473 5.579,3.54 l -0.022,0.147 c -0.819,0.333 -1.618,0.719 -2.391,1.151 -0.442,0.249 -0.875,0.514 -1.298,0.793 -2.412,1.594 -1.578,5.33 1.28,5.771 l 0.065,0.01 c 0.046,0.007 0.086,0.013 0.133,0.02 -1.405,3.333 -3.363,6.427 -5.814,9.095 -2.387,12.874 -12.637,14.096 -23.602,10.347 h -0.007 c -1.198,5.216 -2.95,10.313 -5.201,15.17 h -18.581 c -0.066,-0.206 -0.126,-0.419 -0.186,-0.625 1.718,0.106 3.45,0.006 5.141,-0.307 -1.378,-1.69 -2.757,-3.393 -4.135,-5.083 -0.034,-0.033 -0.06,-0.066 -0.087,-0.1 -0.699,-0.865 -1.405,-1.723 -2.104,-2.588 l -0.001,-10e-4 c -0.044,-2.655 0.275,-5.302 0.906,-7.87 z"
     fill="#f2f2f2"
     id="path46" />
  <path
     d="m 0.00250188,507.81202 c 0,0.68 0.48815177,1.226 1.09603912,1.226 H 507.91033 c 0.60828,0 1.09598,-0.546 1.09598,-1.226 0,-0.68 -0.4877,-1.226 -1.09598,-1.226 H 1.098541 c -0.60788735,0 -1.09603912,0.546 -1.09603912,1.226 z"
     fill="#cccccc"
     id="path48"
     style="stroke-width:0.945101" />
</svg>
