<svg width="500" height="402" viewBox="0 0 500 402" fill="none" xmlns="http://www.w3.org/2000/svg">
<path d="M492.925 242.272H394.032C393.181 242.271 392.364 241.933 391.761 241.33C391.16 240.728 390.821 239.913 390.82 239.062V161.709C390.821 160.857 391.16 160.041 391.761 159.44C392.363 158.838 393.18 158.499 394.031 158.497H492.926C493.777 158.499 494.594 158.838 495.196 159.44C495.798 160.042 496.136 160.859 496.137 161.711V239.06C496.136 239.912 495.798 240.728 495.196 241.33C494.592 241.933 493.776 242.271 492.925 242.272Z" fill="#25313C" stroke="#496075" stroke-width="7"/>
<path d="M454.574 223.268H404.923C404.861 223.269 404.799 223.264 404.737 223.253L428.221 182.578C428.363 182.325 428.572 182.114 428.823 181.968C429.075 181.821 429.36 181.744 429.652 181.744C429.943 181.744 430.228 181.821 430.48 181.968C430.731 182.114 430.939 182.325 431.082 182.578L446.843 209.874L447.597 211.18L454.574 223.268Z" fill="#B8CDE1"/>
<path opacity="0.2" d="M454.574 223.268H437.623L445.943 211.181L446.543 210.311L446.841 209.875L447.597 211.181L454.574 223.268Z" fill="#496075"/>
<path d="M482.22 223.268H439.276L447.597 211.18L448.196 210.31L459.04 194.557C459.232 194.317 459.472 194.119 459.745 193.977C460.019 193.836 460.318 193.753 460.625 193.735C460.932 193.716 461.239 193.763 461.528 193.871C461.815 193.979 462.078 194.147 462.297 194.363C462.353 194.424 462.405 194.49 462.453 194.557L482.22 223.268Z" fill="#496075"/>
<path d="M480.209 182.42C484.27 182.42 487.564 179.127 487.564 175.065C487.564 171.002 484.27 167.71 480.209 167.71C476.147 167.71 472.853 171.002 472.853 175.065C472.853 179.127 476.147 182.42 480.209 182.42Z" fill="#ED455D"/>
<path d="M239.928 198.056H6.88598C6.31005 198.056 5.75775 197.827 5.35046 197.42C4.94369 197.013 4.71463 196.462 4.71338 195.886V6.9053C4.71452 6.32926 4.94359 5.77822 5.35036 5.37197C5.75723 4.96467 6.30859 4.73551 6.8839 4.73447H239.93C240.505 4.73551 241.056 4.96467 241.463 5.37197C241.871 5.77926 242.1 6.33134 242.1 6.90738V195.884C242.1 196.46 241.871 197.013 241.463 197.42C241.056 197.827 240.504 198.056 239.928 198.056Z" fill="#25313C" stroke="#496075" stroke-width="9"/>
<path d="M149.996 156.231H31.0158C30.8668 156.234 30.7181 156.222 30.5713 156.196L86.8435 58.7251C87.1862 58.1178 87.6851 57.6126 88.2872 57.2616C88.8903 56.9105 89.5747 56.7251 90.2726 56.7251C90.9695 56.7251 91.6549 56.9105 92.257 57.2616C92.8601 57.6126 93.3581 58.1178 93.7018 58.7251L131.468 124.136L133.277 127.266L149.996 156.231Z" fill="#B8CDE1"/>
<path opacity="0.2" d="M149.995 156.231H109.373L129.314 127.266L130.75 125.178L131.467 124.136L133.277 127.266L149.995 156.231Z" fill="#496075"/>
<path d="M216.243 156.231H113.335L133.277 127.266L134.711 125.179L160.697 87.4314C161.157 86.8543 161.732 86.3803 162.386 86.0407C163.041 85.7011 163.759 85.5032 164.496 85.4595C165.232 85.4147 165.969 85.5261 166.659 85.7855C167.349 86.0449 167.977 86.447 168.502 86.9647C168.636 87.1116 168.761 87.2678 168.876 87.4314L216.243 156.231Z" fill="#496075"/>
<path d="M209.186 56.3511C218.92 56.3511 226.811 48.4605 226.811 38.7261C226.811 28.9918 218.92 21.1001 209.186 21.1001C199.451 21.1001 191.56 28.9918 191.56 38.7261C191.56 48.4605 199.451 56.3511 209.186 56.3511Z" fill="#ED455D"/>
<path d="M289.627 192.881C291.215 192.007 293.059 191.715 294.84 192.053L322.767 165.956L318.131 142.686L336.468 143.68L338.106 171.924L301.16 200.697C300.998 202.029 300.497 203.297 299.703 204.379C298.91 205.462 297.852 206.322 296.63 206.877C295.409 207.434 294.065 207.666 292.728 207.553C291.39 207.44 290.105 206.986 288.995 206.232C287.883 205.479 286.984 204.454 286.384 203.254C285.784 202.054 285.502 200.72 285.565 199.379C285.629 198.039 286.035 196.738 286.747 195.599C287.458 194.462 288.45 193.525 289.627 192.881Z" fill="#FFB6B6"/>
<path d="M258.789 389.32H246.785L241.074 343.016H258.791L258.789 389.32Z" fill="#FFB6B6"/>
<path d="M261.851 400.957L223.142 400.956V400.467C223.142 396.471 224.73 392.639 227.555 389.813C230.381 386.988 234.213 385.4 238.209 385.4L261.852 385.401L261.851 400.957Z" fill="#496075"/>
<path d="M348.878 389.32H336.873L331.161 343.016H348.879L348.878 389.32Z" fill="#FFB6B6"/>
<path d="M351.938 400.957L313.23 400.956V400.467C313.23 396.471 314.817 392.639 317.642 389.813C320.469 386.988 324.301 385.4 328.297 385.4H328.298L351.939 385.401L351.938 400.957Z" fill="#496075"/>
<path d="M326.983 128.982C325.533 127.152 323.478 125.9 321.186 125.453C318.895 125.005 316.519 125.392 314.488 126.543C312.481 127.681 310.94 129.492 310.138 131.655C309.336 133.82 309.325 136.197 310.107 138.369L315.993 154.721L340.105 145.559L326.983 128.982Z" fill="#B8CDE1"/>
<path d="M324.817 201.197C323.721 200.374 322.54 199.667 321.298 199.087L277.415 205.838L278.379 233.324C257.155 273.387 243.12 319.09 235.46 369.796L262.948 376.066C275.248 328.418 289.218 285.661 306.831 253.578L325.398 374.906L356.983 374.137C352.824 302.812 349.613 219.663 324.817 201.197Z" fill="#496075"/>
<path d="M292.064 122.074C301.511 122.074 309.169 114.416 309.169 104.97C309.169 95.523 301.511 87.8647 292.064 87.8647C282.618 87.8647 274.96 95.523 274.96 104.97C274.96 114.416 282.618 122.074 292.064 122.074Z" fill="#FFB6B6"/>
<path d="M329.678 148.922C330.46 144.193 329.691 139.336 327.486 135.078C325.28 130.822 321.756 127.393 317.44 125.304L298.151 126.269C295.011 127.083 292.098 128.601 289.633 130.71C287.169 132.819 285.219 135.463 283.929 138.439C275.569 158.006 274.378 183.025 277.898 211.624L323.585 200.755C317.32 186.647 322.356 168.221 329.678 148.922Z" fill="#B8CDE1"/>
<path d="M270.856 100.798C270.856 98.4834 271.311 96.1918 272.198 94.0532C273.083 91.9147 274.382 89.9709 276.018 88.3345C277.655 86.698 279.598 85.4001 281.736 84.5136C283.875 83.6282 286.166 83.172 288.482 83.172H289.492C292.685 80.6334 296.643 79.2532 300.722 79.2553C305.526 79.2553 310.134 81.1636 313.531 84.5616C316.929 87.9584 318.837 92.5657 318.837 97.3709V120.382C307.125 120.091 293.859 122.399 279.668 126.257C283.246 116.35 285.623 107.242 283.999 100.798H270.856Z" fill="#496075"/>
<path d="M234.625 180.115C236.438 180.112 238.196 180.741 239.595 181.894L276.627 172.427L283.744 149.792L299.346 159.475L287.211 185.032L240.984 192.511C240.202 193.601 239.152 194.472 237.936 195.04C236.721 195.607 235.379 195.854 234.041 195.754C232.703 195.654 231.412 195.213 230.295 194.471C229.176 193.729 228.266 192.714 227.654 191.519C227.043 190.325 226.747 188.994 226.797 187.653C226.847 186.312 227.24 185.006 227.94 183.862C228.64 182.717 229.623 181.771 230.793 181.115C231.963 180.459 233.283 180.114 234.625 180.115Z" fill="#FFB6B6"/>
<path d="M306.827 142.935C307.496 140.698 307.343 138.296 306.397 136.162C305.45 134.028 303.771 132.303 301.663 131.299C299.58 130.306 297.213 130.081 294.98 130.665C292.748 131.248 290.792 132.602 289.462 134.488L279.438 148.685L300.767 163.189L306.827 142.935Z" fill="#B8CDE1"/>
</svg>
