<svg width="358" height="500" viewBox="0 0 358 500" fill="none" xmlns="http://www.w3.org/2000/svg">
<path d="M350.439 419.06H66.5482C64.8648 419.058 63.2506 418.389 62.0602 417.198C60.8698 416.008 60.2005 414.395 60.1985 412.711V6.3494C60.2005 4.66601 60.8698 3.0521 62.0602 1.86177C63.2506 0.671435 64.8648 0.00187829 66.5482 0H350.439C352.122 0.00188026 353.737 0.671436 354.927 1.86177C356.117 3.0521 356.788 4.66601 356.79 6.3494V412.711C356.788 414.395 356.117 416.008 354.927 417.198C353.737 418.389 352.122 419.058 350.439 419.06Z" fill="#496075"/>
<path d="M344.462 413.084H72.5253C70.8419 413.082 69.2277 412.413 68.0373 411.222C66.8469 410.032 66.1766 408.419 66.1746 406.735V12.3254C66.1766 10.642 66.8469 9.02806 68.0373 7.83773C69.2277 6.64738 70.8419 5.97783 72.5253 5.97595H344.462C346.147 5.97784 347.76 6.64738 348.951 7.83773C350.142 9.02806 350.811 10.642 350.813 12.3254V406.735C350.811 408.419 350.142 410.032 348.951 411.222C347.76 412.413 346.147 413.082 344.462 413.084Z" fill="#25313C"/>
<path d="M126.544 203.303C114.205 202.328 128.766 194.163 129.741 181.825C129.971 178.89 130.778 176.03 132.113 173.407C133.45 170.784 135.291 168.45 137.529 166.538C139.769 164.626 142.362 163.174 145.162 162.266C147.962 161.357 150.914 161.008 153.849 161.239C156.784 161.472 159.645 162.28 162.267 163.617C164.89 164.954 167.223 166.796 169.133 169.035C171.044 171.275 172.495 173.868 173.404 176.668C174.312 179.468 174.66 182.42 174.426 185.355C173.451 197.692 138.884 204.278 126.544 203.303Z" fill="#ED455D"/>
<path d="M245.024 126.49C242.09 126.258 239.231 125.451 236.608 124.114C233.987 122.778 231.653 120.937 229.743 118.698C227.832 116.46 226.381 113.868 225.472 111.068C224.563 108.27 224.215 105.319 224.447 102.385C225.422 90.0468 200.917 81.7935 213.257 82.7682C225.596 83.7428 270.107 93.5765 269.132 105.915C268.901 108.849 268.093 111.707 266.757 114.33C265.419 116.951 263.579 119.284 261.341 121.194C259.101 123.105 256.508 124.556 253.71 125.465C250.91 126.373 247.959 126.721 245.024 126.49Z" fill="#ED455D"/>
<path d="M272.033 98.3653C273.659 101.739 272.7 105.635 270.553 108.547C268.11 111.86 264.225 113.493 260.239 114.032C255.96 114.552 251.621 114.194 247.486 112.982C243.496 111.831 239.356 109.364 238.533 104.955C237.984 102.017 239.238 98.8813 242.29 98.0669C243.513 97.7574 244.797 97.7684 246.015 98.099C247.234 98.4295 248.347 99.0683 249.246 99.9539C251.78 102.591 251.587 106.823 249.977 109.886C248.082 113.488 244.293 115.476 240.396 116.132C235.764 116.912 231.109 115.823 226.751 114.273C222.014 112.588 217.419 110.49 212.779 108.563C203.728 104.805 194.482 101.275 184.75 99.7778C169.882 97.4914 152.237 101.051 143.134 114.085C138.222 121.12 136.83 129.944 137.887 138.339C139.002 147.19 142.887 155.326 148.031 162.529C150.755 166.276 153.729 169.835 156.933 173.18C157.976 174.194 158.693 175.496 158.995 176.919C159.297 178.342 159.168 179.822 158.626 181.172C155.807 188.099 144.533 185.892 143.693 178.752C143.312 175.507 145.122 172.165 147.384 169.964C149.951 167.563 153.185 165.997 156.661 165.471C163.976 164.25 171.709 166.961 177.301 171.671C183.618 176.993 187.174 185.08 189.047 192.953C191.18 201.917 191.289 211.135 191.492 220.298C191.698 229.673 192.055 239.16 194.746 248.21C196.933 255.494 200.311 262.367 204.742 268.548C213.589 281.003 226.168 290.324 240.66 295.163C244.165 296.301 247.761 297.143 251.407 297.68C252.834 297.892 253.004 295.657 251.583 295.447C235.689 293.09 221.074 284.486 210.611 272.392C205.368 266.358 201.224 259.451 198.367 251.985C194.955 242.993 194.09 233.441 193.812 223.898C193.527 214.15 193.681 204.316 191.731 194.714C190.005 186.226 186.62 177.629 180.353 171.445C174.827 165.992 166.92 162.618 159.106 162.98C151.836 163.317 144.061 167.321 141.901 174.738C140.887 178.219 141.532 181.955 144.189 184.539C145.704 185.977 147.588 186.966 149.631 187.398C151.674 187.83 153.797 187.686 155.764 186.985C157.901 186.061 159.617 184.375 160.58 182.255C161.542 180.135 161.681 177.733 160.97 175.516C160.372 173.888 159.411 172.418 158.159 171.218C151.6 164.213 145.581 156.376 142.316 147.257C139.269 138.751 138.644 128.965 142.157 120.501C148.809 104.478 168.112 99.6634 183.836 101.903C194.126 103.369 203.87 107.264 213.402 111.249C218.27 113.284 223.106 115.545 228.154 117.102C232.673 118.497 237.524 119.197 242.18 118.053C246.245 117.055 249.98 114.692 251.949 110.913C253.738 107.479 254.046 103.122 251.919 99.7589C248.845 94.8958 240.354 93.8019 237.26 99.264C235.207 102.889 236.215 107.529 238.912 110.535C241.935 113.905 246.461 115.282 250.794 115.976C258.979 117.289 269.059 116.258 273.439 108.173C275.243 104.843 275.73 100.872 274.051 97.3901C273.916 97.1328 273.685 96.9381 273.41 96.8473C273.133 96.7563 272.833 96.7761 272.571 96.9027C272.309 97.0291 272.106 97.2524 272.006 97.5253C271.906 97.7982 271.916 98.0994 272.033 98.3654V98.3653Z" fill="#B8CDE1"/>
<path d="M245.702 298.136C232.616 297.103 197.629 315.005 188.158 307.304C186.974 306.349 185.829 305.347 184.723 304.298C181.101 300.902 177.903 297.081 175.198 292.92C174.729 292.215 174.283 291.506 173.852 290.791C172.335 288.248 170.998 285.6 169.854 282.869C169.654 282.374 169.453 281.871 169.254 281.368C163.923 267.595 163.654 252.378 168.491 238.425C173.329 224.472 182.961 212.687 195.674 205.169C208.386 197.65 223.354 194.886 237.914 197.366C252.473 199.847 265.682 207.412 275.186 218.715C275.694 219.31 276.186 219.918 276.668 220.54C281.493 226.718 285.104 233.755 287.313 241.276C287.312 241.284 287.32 241.284 287.319 241.292C290.612 252.569 290.666 264.547 287.473 275.855L287.472 275.87C287.4 276.118 287.328 276.368 287.249 276.616C279.075 304.272 275.604 300.498 245.702 298.136Z" fill="#ED455D"/>
<path d="M170.136 282.899C170.041 282.9 169.947 282.89 169.854 282.869C169.653 282.374 169.453 281.871 169.254 281.368C169.338 281.157 169.484 280.977 169.674 280.852C169.863 280.725 170.086 280.66 170.313 280.664C171.446 280.661 172.574 280.531 173.679 280.279C183.262 278.113 188.849 268.304 191.242 259.546C194.179 248.831 194.22 237.317 199.528 227.321C201.59 223.212 204.622 219.669 208.362 216.996C212.469 214.213 217.458 213.047 222.373 213.719C233.935 215.247 242.375 224.148 253.109 227.814C257.531 229.325 262.238 229.696 266.66 227.978C270.418 226.521 273.845 223.644 274.621 219.51C274.646 219.343 274.712 219.183 274.81 219.045C274.908 218.908 275.036 218.795 275.187 218.715C275.694 219.31 276.186 219.918 276.669 220.54C276.495 221.287 276.245 222.013 275.92 222.706C274.033 226.664 270.272 229.221 266.177 230.502C261.436 231.978 256.504 231.417 251.891 229.764C241.134 225.909 232.287 216.383 220.411 215.79C210.117 215.277 203.003 223.736 199.578 232.562C195.344 243.483 195.972 255.723 191.218 266.483C187.477 274.947 179.979 282.86 170.136 282.899Z" fill="#B8CDE1"/>
<path d="M175.198 292.92C174.729 292.215 174.283 291.506 173.852 290.791C173.956 290.707 174.077 290.647 174.207 290.615C174.336 290.582 174.47 290.578 174.601 290.602C184.207 291.735 193.881 289.157 201.647 283.395C205.055 280.903 208.017 277.854 210.409 274.376C212.892 270.735 214.392 266.642 216.075 262.602C217.731 258.626 219.674 254.606 222.967 251.726C226.324 248.793 230.655 247.561 235.042 247.428C245.439 247.117 254.504 253.026 264.622 254.244C269.136 254.789 273.616 254.138 277.48 251.619C280.815 249.44 283.243 246.027 283.086 241.931C283.029 240.577 285 240.666 285.289 241.858C285.308 241.94 285.319 242.023 285.321 242.107C285.499 246.872 282.569 250.949 278.713 253.47C274.232 256.405 268.996 257.13 263.757 256.387C253.618 254.942 244.249 248.807 233.759 249.731C231.557 249.859 229.408 250.447 227.448 251.457C225.488 252.468 223.764 253.88 222.384 255.599C219.623 259.143 218.164 263.471 216.461 267.578C214.845 271.681 212.585 275.502 209.767 278.896C206.915 282.208 203.551 285.044 199.803 287.296C192.431 291.795 183.793 293.768 175.198 292.92Z" fill="#B8CDE1"/>
<path d="M188.158 307.304C186.974 306.349 185.829 305.347 184.723 304.298C190.431 305.751 196.378 305.998 202.187 305.025C209.495 303.853 216.39 300.856 222.233 296.313C225.141 294.035 227.709 291.351 229.854 288.343C232.299 284.902 234.436 281.099 238.123 278.82C246.127 273.877 255.708 278.396 263.7 280.825C267.87 282.098 272.351 282.962 276.599 281.552C279.893 280.456 283.09 278.026 283.741 274.436C283.995 273.024 286.238 273.194 285.975 274.612C285.924 274.878 285.866 275.142 285.8 275.407C284.773 279.305 281.582 282.118 277.818 283.484C272.904 285.254 267.814 284.425 262.933 282.938C254.905 280.49 244.414 275.458 237.15 282.4C234.086 285.328 232.207 289.293 229.444 292.491C226.979 295.358 224.135 297.877 220.991 299.976C211.335 306.407 199.632 309.019 188.158 307.304Z" fill="#B8CDE1"/>
<path d="M37.2336 249.766L38.6334 262.75L37.8098 279.776L75.5252 275.296L79.0703 249.766L74.5543 249.811L37.2336 249.766Z" fill="#FFB6B6"/>
<path d="M82.2377 209.53L70.5764 205.218L65.5934 197.983L47.6696 196.19L36.6135 203.273L27.3442 207.992L27.503 232.633L38.1596 276.76L76.2608 275.266L81.2758 243.8C81.2758 243.8 92.9271 228.153 80.38 219.191L82.2377 209.53Z" fill="#B8CDE1"/>
<path d="M17.6702 485.496H25.9165L29.8401 453.693H17.6702V485.496Z" fill="#FFB6B6"/>
<path d="M14.9791 479.849L28.153 479.062V484.706L40.6784 493.356C41.2966 493.783 41.7626 494.396 42.0081 495.106C42.2525 495.818 42.2646 496.587 42.0411 497.306C41.8167 498.023 41.3698 498.65 40.7636 499.096C40.1584 499.541 39.4259 499.782 38.6744 499.782H22.9904L20.287 494.199L19.2315 499.782H13.3179L14.9791 479.849Z" fill="#496075"/>
<path d="M63.989 485.496H72.2355L76.1594 453.693H63.989V485.496Z" fill="#FFB6B6"/>
<path d="M61.2978 479.849L74.4721 479.062V484.706L86.9972 493.356C87.6154 493.783 88.0813 494.396 88.3268 495.106C88.5723 495.818 88.5833 496.587 88.3599 497.306C88.1365 498.023 87.6886 498.65 87.0833 499.096C86.4771 499.541 85.7457 499.782 84.9932 499.782H69.3098L66.6064 494.199L65.5503 499.782H59.6375L61.2978 479.849Z" fill="#496075"/>
<path d="M14.1123 458.071H14.2019L15.7878 406.363C14.7616 404.383 14.2407 402.18 14.2717 399.951C14.3026 397.722 14.8844 395.535 15.9653 393.585L16.1923 393.174L15.6036 390.446C14.8475 386.94 15.1944 383.287 16.5969 379.986L18.0764 331.751C12.7908 297.5 37.98 275.163 37.98 275.163H75.7135L83.8147 302.993C89.1704 355.163 88.1984 406.001 79.7004 455.255L79.9319 455.372C80.7656 455.66 81.1243 456.816 80.7315 457.953C80.3387 459.09 79.3437 459.78 78.5101 459.492L58.5822 458.799C57.7475 458.511 57.3898 457.355 57.7826 456.217C58.1754 455.08 59.1694 454.391 60.004 454.679L61.3588 455.365L58.469 405.467L58.7896 396.353L58.1293 386.013L55.0752 339.505L43.5131 396.697L31.7024 458.647C32.0291 458.942 32.2576 459.329 32.3588 459.756C32.46 460.183 32.4289 460.631 32.2706 461.041C32.1123 461.451 31.8327 461.804 31.47 462.051C31.1073 462.299 30.6774 462.431 30.2379 462.429H14.1123C13.5343 462.429 12.98 462.199 12.5714 461.791C12.1627 461.383 11.9331 460.828 11.9331 460.251C11.9331 459.672 12.1627 459.118 12.5714 458.709C12.98 458.301 13.5343 458.071 14.1123 458.071Z" fill="#496075"/>
<path d="M10.1894 311.575C9.4694 310.881 8.91038 310.037 8.55157 309.104C8.19285 308.17 8.04325 307.169 8.11319 306.172C8.18313 305.174 8.471 304.204 8.95647 303.33C9.44195 302.456 10.1132 301.698 10.9231 301.111L20.9767 239.41L32.7677 243.558L20.8198 302.996C21.7156 304.422 22.0573 306.126 21.78 307.787C21.5028 309.448 20.6259 310.949 19.3156 312.006C18.0053 313.064 16.3525 313.604 14.6705 313.524C12.9884 313.445 11.3941 312.751 10.1894 311.575Z" fill="#FFB6B6"/>
<path d="M28.9295 207.937C28.9295 207.937 25.5476 206.662 24.3202 214.219C23.3375 220.271 13.7442 256.79 14.6518 265.252C13.5259 265.645 12.5633 266.403 11.9155 267.405C11.2677 268.406 10.9715 269.595 11.0737 270.784L28.7634 270.874C31.4721 267.92 31.8228 264.356 30.5152 263.48L32.9631 252.683L44.4881 217.85L31.391 208.815L28.9295 207.937Z" fill="#B8CDE1"/>
<path d="M91.6303 314.201C92.4078 313.572 93.0371 312.779 93.475 311.881C93.9128 310.981 94.1483 309.997 94.1643 308.997C94.1804 307.997 93.977 307.006 93.5681 306.093C93.1603 305.18 92.5561 304.368 91.7996 303.713L88.2134 241.65L74.99 244.494L81.7776 304.739C80.7625 306.083 80.2756 307.751 80.4088 309.43C80.5421 311.109 81.2866 312.68 82.501 313.847C83.7154 315.013 85.3156 315.693 86.998 315.758C88.6814 315.824 90.3287 315.269 91.6303 314.201Z" fill="#FFB6B6"/>
<path d="M81.8789 209.336C81.8789 209.336 85.3578 208.357 85.931 215.992C86.3889 222.104 92.8037 259.314 91.1714 267.665C92.2586 268.155 93.1534 268.993 93.7125 270.047C94.2716 271.1 94.464 272.31 94.2596 273.485L76.6284 272.053C74.1835 268.878 74.1404 265.297 75.5191 264.536L74.0101 253.569L65.5251 217.873L79.3518 209.998L81.8789 209.336Z" fill="#B8CDE1"/>
<path d="M48.7667 194.918C58.6184 194.918 66.6043 186.933 66.6043 177.082C66.6043 167.233 58.6184 159.248 48.7667 159.248C38.916 159.248 30.9297 167.233 30.9297 177.082C30.9297 186.933 38.916 194.918 48.7667 194.918Z" fill="#FFB8B8"/>
<path d="M13.3173 214.564C9.54271 213.226 5.76806 211.887 1.99351 210.544C2.64411 209.453 3.47257 208.478 4.44482 207.659C8.0386 204.659 12.9991 204.117 17.562 203.104C22.132 202.092 27.0925 200.017 28.763 195.65C30.4983 191.11 27.982 186.207 26.5213 181.58C24.4749 175.124 24.5183 167.916 27.2588 161.726C29.9994 155.537 35.5673 150.52 42.1765 149.045C48.7857 147.577 56.2556 149.97 60.3188 155.379C62.938 154.593 65.7526 154.794 68.2336 155.942C70.7136 157.09 72.6885 159.106 73.7837 161.611C74.7306 163.982 74.7596 166.838 73.3498 168.971C71.94 171.104 68.924 172.195 66.6534 171.01L67.9701 167.669C63.8989 169.05 61.2516 176.411 61.8017 180.676C62.3438 184.935 64.8318 188.666 67.3548 192.143C69.8789 195.621 72.5683 199.135 73.6534 203.293C75.2156 209.272 73.1033 215.808 69.1995 220.601C65.2947 225.395 59.7917 228.648 54.0933 231.042C49.8278 232.835 45.3949 234.201 40.8609 235.12C41.6705 233.544 42.4731 231.968 43.2827 230.391L33.6725 236.204C31.8148 236.385 29.9416 236.494 28.0688 236.53C22.6166 236.623 17.0559 236.052 12.0664 233.877C7.06977 231.692 2.68049 227.737 0.872671 222.597C0.293112 220.935 0.0187631 219.18 0.0629515 217.421C4.48099 216.466 8.89912 215.514 13.3173 214.564Z" fill="#496075"/>
</svg>
