<svg width="424" height="500" viewBox="0 0 424 500" fill="none" xmlns="http://www.w3.org/2000/svg">
<g clip-path="url(#clip0_2642_1823)">
<path d="M391.536 323.835C390.91 321.956 391.052 319.906 391.928 318.131C392.804 316.355 394.344 314.996 396.216 314.349C396.6 314.222 396.993 314.127 397.392 314.065L401.424 297.525L411.934 297.558L405.918 320.835C406.064 322.501 405.649 324.169 404.738 325.573C403.827 326.977 402.473 328.036 400.891 328.58C399.965 328.889 398.988 329.011 398.015 328.939C397.042 328.867 396.093 328.603 395.222 328.161C394.352 327.72 393.578 327.11 392.946 326.368C392.313 325.625 391.834 324.764 391.536 323.835Z" fill="#FFB6B6"/>
<path d="M409.281 315.339L393.183 314.208L400.98 267.098L396.018 215.225L412.291 208.46L423.143 266.065L423.113 266.17L409.281 315.339Z" fill="#B8CDE1"/>
<path d="M284.813 309.818C284.776 307.842 285.526 305.934 286.897 304.511C288.269 303.089 290.149 302.269 292.124 302.232C292.527 302.23 292.931 302.262 293.33 302.327L302.147 287.823L312.146 291.106L299.41 311.41C299.024 313.194 297.992 314.772 296.511 315.839C295.032 316.906 293.208 317.387 291.394 317.188C289.579 316.991 287.903 316.128 286.688 314.767C285.472 313.405 284.804 311.643 284.813 309.818Z" fill="#FFB6B6"/>
<path d="M334.454 491.17H325.891L321.817 457.68L334.456 457.681L334.454 491.17Z" fill="#FFB6B6"/>
<path d="M336.637 499.587L309.026 499.586V499.232C309.016 496.348 310.148 493.577 312.175 491.526C313.165 490.514 314.346 489.711 315.652 489.162C316.957 488.614 318.358 488.333 319.774 488.335H319.775L336.638 488.336L336.637 499.587Z" fill="#25313C"/>
<path d="M394.194 491.17H385.63L381.557 457.68L394.195 457.681L394.194 491.17Z" fill="#FFB6B6"/>
<path d="M396.377 499.587L368.766 499.586V499.232C368.756 496.348 369.887 493.577 371.914 491.526C372.903 490.514 374.085 489.711 375.391 489.162C376.695 488.614 378.098 488.333 379.513 488.335L396.378 488.336L396.377 499.587Z" fill="#25313C"/>
<path d="M386.05 176.676C397.285 176.676 406.393 167.44 406.393 156.048C406.393 144.656 397.285 135.421 386.05 135.421C374.815 135.421 365.707 144.656 365.707 156.048C365.707 167.44 374.815 176.676 386.05 176.676Z" fill="#FFB6B6"/>
<path d="M379.179 154.917C376.12 156.096 372.739 156.134 369.655 155.025C366.57 153.916 363.988 151.733 362.381 148.876C360.922 145.913 360.555 142.531 361.342 139.324C362.129 136.116 364.022 133.289 366.687 131.339C372.102 127.665 380.188 128.881 385.437 133.142C388.976 131.511 392.948 131.064 396.762 131.867C400.575 132.669 404.029 134.679 406.612 137.598C411.679 143.542 412.233 152.976 408.541 159.905C406.926 163.521 406.209 167.476 406.453 171.429C406.697 175.383 407.895 179.219 409.943 182.609C408.354 182.543 404.857 182.244 400.482 181.862C399.215 181.752 398.668 177.98 397.279 177.858C396.055 177.752 394 181.295 392.717 181.185C383.214 180.371 372.574 179.544 367.752 179.706C371.135 171.254 374.949 162.98 379.179 154.917Z" fill="#25313C"/>
<path d="M401.651 301.368C401.651 301.368 408.263 308.279 404.226 343.971L401.437 419.756L396.502 486.86L380.625 485.789L366.679 331.339L347.155 387.857L336.642 481.293L321.408 480.223L318.808 387.306L325.486 315.497L401.651 301.368Z" fill="#25313C"/>
<path d="M336.214 319.82C328.091 319.821 324.819 318.83 324.579 318.755L324.203 318.633L324.269 318.239C324.323 317.914 329.781 285.651 337.269 268.712L342.535 200.019C342.674 197.991 343.496 196.069 344.866 194.567C346.235 193.064 348.073 192.069 350.08 191.744L350.152 192.199L350.08 191.744L363.475 189.612L371.668 182.297L391.295 183.397L393.026 191.816C395.374 192.482 410.866 197.295 412.398 208.823L412.417 208.967L412.351 209.096L383.971 264.454C386.37 266.854 405.323 286.596 406.609 311.834L406.639 312.441L406.056 312.306C406.001 312.294 399.936 311.125 368.042 316.593C353.291 319.121 343.04 319.82 336.214 319.82Z" fill="#B8CDE1"/>
<path d="M304.752 309.484L293.184 300.45L319.003 248.072L343.016 196.736C343.345 196.021 343.888 195.425 344.569 195.029C345.251 194.634 346.038 194.459 346.823 194.528C347.607 194.598 348.351 194.908 348.953 195.416C349.554 195.926 349.984 196.608 350.182 197.371L356.126 219.234L337.539 268.269L304.752 309.484Z" fill="#B8CDE1"/>
<path d="M252.288 123.386H69.0376C67.5743 123.385 66.1713 122.802 65.1366 121.768C64.1018 120.733 63.5197 119.33 63.5181 117.867V56.0473C63.5197 54.5839 64.1018 53.181 65.1366 52.1462C66.1713 51.1114 67.5743 50.5293 69.0376 50.5277H252.288C253.751 50.5293 255.155 51.1114 256.189 52.1461C257.224 53.181 257.805 54.5839 257.807 56.0473V117.867C257.805 119.33 257.224 120.733 256.189 121.768C255.155 122.802 253.751 123.385 252.288 123.386Z" fill="#25313C"/>
<path d="M140.792 67.0864H92.22V72.606H140.792V67.0864Z" fill="#B8CDE1"/>
<path d="M204.82 73.7099C206.649 73.7099 208.131 72.2273 208.131 70.3981C208.131 68.5691 206.649 67.0864 204.82 67.0864C202.991 67.0864 201.508 68.5691 201.508 70.3981C201.508 72.2273 202.991 73.7099 204.82 73.7099Z" fill="#ED455D"/>
<path d="M215.859 73.7099C217.687 73.7099 219.17 72.2273 219.17 70.3981C219.17 68.5691 217.687 67.0864 215.859 67.0864C214.03 67.0864 212.547 68.5691 212.547 70.3981C212.547 72.2273 214.03 73.7099 215.859 73.7099Z" fill="#ED455D"/>
<path d="M226.898 73.7099C228.727 73.7099 230.21 72.2273 230.21 70.3981C230.21 68.5691 228.727 67.0864 226.898 67.0864C225.069 67.0864 223.586 68.5691 223.586 70.3981C223.586 72.2273 225.069 73.7099 226.898 73.7099Z" fill="#ED455D"/>
<path d="M252.288 201.765H69.0376C67.5743 201.763 66.1713 201.18 65.1366 200.146C64.1018 199.111 63.5197 197.708 63.5181 196.244V134.426C63.5197 132.962 64.1018 131.559 65.1366 130.524C66.1713 129.49 67.5743 128.907 69.0376 128.906H252.288C253.751 128.907 255.155 129.49 256.189 130.524C257.224 131.559 257.805 132.962 257.807 134.426V196.244C257.805 197.708 257.224 199.111 256.189 200.146C255.155 201.18 253.751 201.763 252.288 201.765Z" fill="#25313C"/>
<path d="M140.792 145.464H92.22V150.985H140.792V145.464Z" fill="#B8CDE1"/>
<path d="M204.82 152.089C206.649 152.089 208.131 150.606 208.131 148.776C208.131 146.947 206.649 145.464 204.82 145.464C202.991 145.464 201.508 146.947 201.508 148.776C201.508 150.606 202.991 152.089 204.82 152.089Z" fill="#ED455D"/>
<path d="M215.859 152.089C217.687 152.089 219.17 150.606 219.17 148.776C219.17 146.947 217.687 145.464 215.859 145.464C214.03 145.464 212.547 146.947 212.547 148.776C212.547 150.606 214.03 152.089 215.859 152.089Z" fill="#ED455D"/>
<path d="M226.898 152.089C228.727 152.089 230.21 150.606 230.21 148.776C230.21 146.947 228.727 145.464 226.898 145.464C225.069 145.464 223.586 146.947 223.586 148.776C223.586 150.606 225.069 152.089 226.898 152.089Z" fill="#ED455D"/>
<path d="M252.288 280.143H69.0376C67.5743 280.14 66.1713 279.559 65.1366 278.524C64.1018 277.49 63.5197 276.087 63.5181 274.623V212.803C63.5197 211.34 64.1018 209.938 65.1366 208.902C66.1713 207.868 67.5743 207.286 69.0376 207.284H252.288C253.751 207.286 255.155 207.868 256.189 208.902C257.224 209.937 257.805 211.34 257.807 212.803V274.623C257.805 276.087 257.224 277.49 256.189 278.524C255.155 279.559 253.751 280.14 252.288 280.143Z" fill="#25313C"/>
<path d="M140.792 223.843H92.22V229.362H140.792V223.843Z" fill="#B8CDE1"/>
<path d="M204.82 230.466C206.649 230.466 208.131 228.984 208.131 227.155C208.131 225.326 206.649 223.843 204.82 223.843C202.991 223.843 201.508 225.326 201.508 227.155C201.508 228.984 202.991 230.466 204.82 230.466Z" fill="#ED455D"/>
<path d="M215.859 230.466C217.687 230.466 219.17 228.984 219.17 227.155C219.17 225.326 217.687 223.843 215.859 223.843C214.03 223.843 212.547 225.326 212.547 227.155C212.547 228.984 214.03 230.466 215.859 230.466Z" fill="#ED455D"/>
<path d="M226.898 230.466C228.727 230.466 230.21 228.984 230.21 227.155C230.21 225.326 228.727 223.843 226.898 223.843C225.069 223.843 223.586 225.326 223.586 227.155C223.586 228.984 225.069 230.466 226.898 230.466Z" fill="#ED455D"/>
<path d="M185.458 328.122H0V255.005H2.20784V325.914H185.458V328.122Z" fill="#25313C"/>
<path d="M115.911 0H301.37V73.1169H299.162V2.20784H115.911V0Z" fill="#25313C"/>
</g>
<defs>
<clipPath id="clip0_2642_1823">
<rect width="423.625" height="500" fill="white"/>
</clipPath>
</defs>
</svg>
