<svg width="407" height="500" viewBox="0 0 407 500" fill="none" xmlns="http://www.w3.org/2000/svg">
<g clip-path="url(#clip0_2642_1755)">
<path d="M10.7778 486.73H18.283L21.8548 457.803H10.7778V486.73Z" fill="#FFB6B6"/>
<path d="M8.32858 481.593L20.3191 480.878V486.012L31.7184 493.879C32.2815 494.268 32.7063 494.826 32.9288 495.472C33.1522 496.118 33.1623 496.82 32.9588 497.472C32.7554 498.125 32.3486 498.695 31.7975 499.101C31.2464 499.506 30.5791 499.724 29.8957 499.724H15.6202L13.1596 494.646L12.1989 499.724H6.81665L8.32858 481.593Z" fill="#25313C"/>
<path d="M70.8044 486.73H78.3094L81.8816 457.803H70.8044V486.73Z" fill="#FFB6B6"/>
<path d="M68.3558 481.593L80.3457 480.878V486.012L91.7455 493.879C92.3087 494.268 92.7325 494.826 92.956 495.472C93.1794 496.118 93.1894 496.82 92.986 497.472C92.7826 498.125 92.3748 498.695 91.8237 499.101C91.2726 499.506 90.6063 499.724 89.9219 499.724H75.6474L73.1864 494.646L72.2255 499.724H66.8438L68.3558 481.593Z" fill="#25313C"/>
<path d="M16.7195 310.045L56.6222 311.045V267.95L23.8456 268.111L16.7195 310.045Z" fill="#FFB6B6"/>
<path d="M56.8246 279.018L62.1593 296.777L73.2324 320.072L96.6222 454.623L93.047 473.235L58.3707 471.779L42.9268 356.415L42.6793 372.341L42.5591 380.05C42.5591 380.05 48.1913 430.188 41.6252 439.919C35.0601 449.648 41.4919 448.504 41.4919 448.504L41.1793 468.576L0.0925293 468.867L9.15675 411.08C9.15675 411.08 13.7593 407.448 11.2968 403.798C8.83431 400.147 13.6835 395.676 13.6835 395.676L11.5086 350.564C11.5086 350.564 13.9167 342.772 11.0841 341.759C8.25154 340.746 10.7123 334.045 10.7123 334.045L10.2912 325.313L19.6119 290.094L56.8246 279.018Z" fill="#25313C"/>
<path d="M18.1588 267.95L14.0793 255.72L11.1654 251.643L9.99976 239.996C9.99976 208.548 17.0194 213.785 17.0194 213.785L26.1763 202.724L36.5931 202.399L44.8246 202.142L51.6693 213.498L61.5761 216.992L65.4559 237.136L58.3707 258.632L58.6833 257.034C62.019 263.187 61.1703 264.112 58.4088 268.733L58.2715 270.4C57.9468 274.345 60.6973 275.024 56.8246 275.853C23.5711 282.974 20.4036 297.215 16.4447 291.677C15.5632 290.444 19.3041 275.726 18.0283 275.853C14.5328 276.202 18.1588 267.95 18.1588 267.95Z" fill="#B8CDE1"/>
<path d="M38.5379 198.233C48.086 198.233 55.8265 190.498 55.8265 180.957C55.8265 171.416 48.086 163.68 38.5379 163.68C28.9898 163.68 21.2498 171.416 21.2498 180.957C21.2498 190.498 28.9898 198.233 38.5379 198.233Z" fill="#FFB6B6"/>
<path d="M2.07065 304.216L3.84099 243.357L15.3717 248.398L9.62315 303.994C10.5268 304.736 11.1822 305.737 11.5017 306.861C11.8213 307.986 11.7897 309.18 11.4114 310.287C11.0331 311.393 10.326 312.358 9.38448 313.051C8.4431 313.745 7.31213 314.135 6.1429 314.169C4.97366 314.203 3.82185 313.881 2.84119 313.244C1.86063 312.606 1.098 311.684 0.655319 310.603C0.212734 309.521 0.111028 308.33 0.363934 307.188C0.61674 306.047 1.21223 305.01 2.07065 304.216Z" fill="#FFB6B6"/>
<path d="M16.813 213.47L15.472 213.894C11.8891 215.024 8.75993 217.267 6.53878 220.295C4.31764 223.324 3.12025 226.98 3.12025 230.736L0.5979 242.277C4.25191 248.541 9.65332 251.645 17.1734 250.919L16.813 213.47Z" fill="#B8CDE1"/>
<path d="M95.6342 234.477C95.6342 233.624 95.4449 232.782 95.0781 232.011C94.7124 231.242 94.1793 230.562 93.517 230.024C92.8557 229.486 92.0811 229.101 91.2525 228.9C90.4238 228.697 89.5601 228.683 88.7244 228.857C87.8887 229.03 87.1022 229.388 86.4228 229.904C85.7424 230.419 85.1863 231.079 84.7945 231.837C84.4018 232.594 84.1843 233.429 84.1553 234.282C84.1272 235.133 84.2885 235.982 84.6292 236.764L73.3226 254.567V243.889L60.5691 245.267L62.3537 264.297C62.497 265.821 63.1232 267.259 64.1402 268.401C65.1583 269.544 66.514 270.333 68.012 270.652C69.509 270.971 71.0691 270.805 72.4649 270.175C73.8607 269.547 75.02 268.49 75.7725 267.157L91.0551 240.095C92.3487 239.828 93.51 239.123 94.3447 238.099C95.1783 237.076 95.6342 235.797 95.6342 234.477Z" fill="#FFB6B6"/>
<path d="M59.5339 216.332L60.8175 216.736C64.2443 217.818 67.2383 219.963 69.3626 222.861C71.4878 225.758 72.6331 229.256 72.6331 232.848L75.0459 243.889C71.5509 249.882 66.3836 252.852 59.1892 252.155L59.5339 216.332Z" fill="#B8CDE1"/>
<path d="M16.3478 184.816C17.3133 181.142 17.6763 177.3 19.0712 173.768C20.4561 170.261 22.8022 167.214 25.8407 164.979C28.8788 162.745 32.486 161.41 36.2486 161.13C40.0101 160.851 43.7756 161.636 47.1113 163.397C50.447 165.158 53.2185 167.824 55.1083 171.086C56.7636 173.735 57.462 176.87 57.0852 179.969C56.5351 183.341 54.3007 186.546 55.0001 189.89C55.468 192.127 57.1594 193.865 58.5021 195.715C59.8438 197.565 60.9039 200.013 59.9369 202.083C58.8858 204.333 55.968 204.997 53.493 204.787C51.0191 204.575 48.5401 203.777 46.0973 204.224L47.2606 199.669C44.3638 202.454 41.468 205.24 38.5722 208.025C38.8928 205.126 37.5452 202.345 36.6163 199.58C35.6864 196.816 35.2526 193.484 37.0942 191.221C38.1965 189.868 39.8928 189.184 41.4079 188.318C42.9229 187.451 44.4259 186.154 44.5802 184.417C44.7706 182.269 42.8447 180.544 40.953 179.506C39.0622 178.467 36.8828 177.596 35.8217 175.718C36.5832 177.354 37.3458 178.988 38.1083 180.622C35.5732 180.444 33.1313 179.6 31.0281 178.176C28.9239 176.753 27.2335 174.801 26.1263 172.515L25.0822 173.198C16.4009 182.928 27.5181 197.504 21.001 202.605C23.8628 197.505 14.861 190.471 16.3478 184.816Z" fill="#25313C"/>
<path d="M242.354 1.84241L83.7395 47.6969C59.0702 54.8287 44.8567 80.5942 51.994 105.246L156.852 467.437C163.988 492.088 189.773 506.292 214.442 499.159L373.055 453.305C397.724 446.173 411.938 420.408 404.801 395.756L299.944 33.565C292.807 8.91332 267.023 -5.28935 242.354 1.84241Z" fill="#25313C"/>
<path d="M243.563 6.02264L222.821 12.0191L224.894 19.1796C225.833 22.4207 225.444 25.9014 223.814 28.8563C222.184 31.8111 219.447 33.9978 216.203 34.9354L123.532 61.7263C120.288 62.6639 116.805 62.2756 113.849 60.6468C110.892 59.0181 108.703 56.2822 107.764 53.0412L105.691 45.8807L84.9497 51.8771C74.2193 54.9923 65.1642 62.2333 59.7704 72.0118C54.3766 81.7902 53.084 93.3075 56.1772 104.037L161.034 466.228C164.151 476.95 171.398 485.999 181.183 491.389C190.969 496.779 202.494 498.07 213.231 494.979L371.846 449.125C382.575 446.01 391.63 438.769 397.024 428.99C402.419 419.211 403.71 407.694 400.617 396.965L295.76 34.7745C292.643 24.0522 285.397 15.0034 275.611 9.6133C265.825 4.22316 254.3 2.93185 243.563 6.02264Z" fill="#496075"/>
<path d="M64.4447 152.524C63.6381 152.757 62.7724 152.659 62.0369 152.255C61.3014 151.85 60.7564 151.169 60.5229 150.364L58.7624 144.284C58.6471 143.885 58.6111 143.466 58.6572 143.053C58.7032 142.64 58.8305 142.241 59.0309 141.877C59.2313 141.512 59.5018 141.191 59.8275 140.932C60.1521 140.672 60.5249 140.479 60.9247 140.364C61.3235 140.249 61.7423 140.212 62.1551 140.259C62.569 140.305 62.9688 140.432 63.3335 140.632C63.6972 140.833 64.0189 141.103 64.2784 141.428C64.5379 141.753 64.7313 142.125 64.8465 142.525L66.607 148.605C66.8395 149.411 66.7423 150.277 66.3375 151.011C65.9317 151.747 65.2513 152.291 64.4447 152.524Z" fill="#25313C"/>
<path d="M73.4718 183.702C72.6642 183.935 71.7985 183.838 71.063 183.433C70.3275 183.028 69.7834 182.348 69.549 181.542L64.7033 164.805C64.588 164.406 64.552 163.987 64.5981 163.574C64.6442 163.161 64.7714 162.762 64.9718 162.398C65.1732 162.033 65.4438 161.712 65.7684 161.453C66.0931 161.193 66.4658 161.001 66.8656 160.885C67.2654 160.77 67.6832 160.733 68.0971 160.78C68.5099 160.826 68.9107 160.953 69.2744 161.153C69.6391 161.354 69.9598 161.624 70.2193 161.949C70.4788 162.274 70.6722 162.646 70.7884 163.046L75.6331 179.783C75.8656 180.589 75.7684 181.455 75.3636 182.189C74.9578 182.924 74.2774 183.468 73.4718 183.702Z" fill="#25313C"/>
<path d="M80.7274 208.768C79.9208 209 79.0551 208.903 78.3196 208.498C77.5841 208.092 77.04 207.413 76.8056 206.607L71.9599 189.87C71.7264 189.063 71.8236 188.197 72.2284 187.462C72.6342 186.727 73.3156 186.183 74.1222 185.95C74.9288 185.716 75.7955 185.814 76.531 186.218C77.2665 186.623 77.8116 187.305 78.044 188.11L82.8897 204.848C83.1222 205.654 83.025 206.519 82.6202 207.255C82.2144 207.989 81.534 208.533 80.7274 208.768Z" fill="#25313C"/>
<path d="M326.237 122.966C325.431 123.198 324.565 123.101 323.83 122.696C323.094 122.292 322.549 121.611 322.315 120.806L310.492 79.9659C310.258 79.1596 310.355 78.2937 310.76 77.5586C311.166 76.8236 311.848 76.2796 312.654 76.0463C313.461 75.813 314.328 75.9096 315.063 76.3148C315.798 76.7201 316.343 77.4006 316.576 78.2069L328.4 119.046C328.632 119.853 328.535 120.718 328.13 121.453C327.724 122.187 327.044 122.731 326.237 122.966Z" fill="#25313C"/>
<path d="M124.525 145.21C124.244 145.292 123.943 145.267 123.679 145.139L108.315 137.744C108.175 137.675 108.05 137.581 107.946 137.465C107.842 137.349 107.761 137.212 107.71 137.066C107.659 136.919 107.637 136.763 107.645 136.607C107.654 136.452 107.693 136.3 107.761 136.158L115.163 120.807C115.23 120.665 115.326 120.54 115.442 120.436C115.558 120.333 115.693 120.253 115.841 120.201C115.988 120.149 116.144 120.127 116.299 120.136C116.455 120.145 116.608 120.184 116.748 120.253C116.889 120.32 117.015 120.415 117.118 120.531C117.222 120.647 117.302 120.783 117.354 120.93C117.406 121.076 117.428 121.232 117.419 121.388C117.41 121.544 117.371 121.696 117.302 121.837L110.417 136.12L124.71 143.001C124.927 143.105 125.107 143.273 125.226 143.481C125.346 143.69 125.399 143.93 125.379 144.169C125.359 144.409 125.266 144.636 125.113 144.823C124.961 145.008 124.755 145.143 124.525 145.21Z" fill="#ED455D"/>
<path d="M133.257 142.653C133.023 142.72 132.773 142.714 132.542 142.636C132.312 142.557 132.11 142.409 131.967 142.211C131.824 142.014 131.743 141.778 131.739 141.534C131.735 141.29 131.807 141.05 131.943 140.849L140.83 127.713L127.686 118.834C127.556 118.747 127.445 118.634 127.359 118.505C127.272 118.375 127.213 118.229 127.183 118.075C127.153 117.922 127.154 117.765 127.185 117.612C127.216 117.459 127.277 117.314 127.365 117.184C127.453 117.055 127.565 116.944 127.695 116.859C127.826 116.773 127.972 116.713 128.125 116.683C128.279 116.654 128.436 116.655 128.589 116.687C128.741 116.719 128.887 116.78 129.016 116.868L143.144 126.413C143.273 126.5 143.384 126.611 143.47 126.742C143.556 126.872 143.615 127.017 143.645 127.17C143.674 127.324 143.673 127.481 143.642 127.633C143.611 127.787 143.55 127.931 143.463 128.06L133.911 142.177C133.755 142.408 133.524 142.576 133.257 142.653Z" fill="#ED455D"/>
<path d="M288.85 114.419L107.616 166.813C104.821 167.617 101.82 167.282 99.2724 165.878C96.7243 164.475 94.8375 162.118 94.0259 159.327L83.8426 124.15C83.037 121.357 83.3736 118.358 84.7774 115.812C86.1822 113.267 88.54 111.381 91.3335 110.57L272.567 58.1761C275.363 57.3713 278.364 57.7075 280.911 59.1109C283.459 60.5142 285.346 62.8701 286.157 65.6618L296.341 100.839C297.146 103.632 296.809 106.631 295.406 109.176C294.001 111.722 291.643 113.608 288.85 114.419ZM91.7734 112.09C89.3826 112.784 87.3656 114.397 86.1642 116.575C84.9618 118.755 84.6742 121.32 85.3636 123.71L95.547 158.887C96.2424 161.276 97.8566 163.292 100.036 164.493C102.216 165.693 104.784 165.981 107.176 165.293L288.41 112.899C290.8 112.204 292.817 110.591 294.019 108.413C295.221 106.234 295.509 103.668 294.82 101.279L284.636 66.1016C283.941 63.7128 282.327 61.697 280.147 60.4961C277.967 59.2953 275.399 59.0076 273.007 59.6962L91.7734 112.09Z" fill="#25313C"/>
<path d="M194.531 105.445L164.108 114.24C163.302 114.474 162.435 114.377 161.699 113.972C160.964 113.567 160.419 112.886 160.185 112.08C159.952 111.274 160.049 110.408 160.455 109.672C160.86 108.938 161.541 108.394 162.348 108.16L192.772 99.365C193.578 99.1318 194.445 99.2284 195.18 99.6336C195.916 100.039 196.46 100.719 196.693 101.526C196.927 102.332 196.831 103.197 196.425 103.933C196.019 104.668 195.339 105.212 194.531 105.445Z" fill="#B8CDE1"/>
<path d="M264.783 103.257L168.188 131.181C167.382 131.415 166.515 131.318 165.78 130.913C165.044 130.508 164.499 129.827 164.265 129.021C164.032 128.214 164.129 127.349 164.535 126.613C164.94 125.879 165.621 125.335 166.428 125.101L263.022 97.1762C263.829 96.9429 264.695 97.0395 265.431 97.4447C266.166 97.8499 266.711 98.5306 266.944 99.3369C267.177 100.143 267.081 101.009 266.675 101.745C266.271 102.479 265.589 103.023 264.783 103.257Z" fill="#B8CDE1"/>
<path d="M193.219 385.726C192.939 385.807 192.638 385.782 192.375 385.654L177.011 378.259C176.871 378.19 176.744 378.096 176.641 377.98C176.537 377.864 176.457 377.728 176.406 377.58C176.354 377.434 176.332 377.278 176.341 377.122C176.35 376.967 176.389 376.814 176.457 376.673L183.858 361.321C183.995 361.037 184.238 360.82 184.536 360.715C184.833 360.612 185.159 360.63 185.443 360.767C185.727 360.904 185.945 361.147 186.049 361.444C186.153 361.742 186.134 362.068 185.998 362.352L179.112 376.634L193.406 383.516C193.622 383.62 193.803 383.788 193.922 383.996C194.041 384.204 194.094 384.445 194.074 384.684C194.053 384.924 193.961 385.151 193.809 385.338C193.656 385.523 193.451 385.658 193.219 385.726Z" fill="#ED455D"/>
<path d="M201.953 383.168C201.718 383.237 201.469 383.23 201.237 383.151C201.007 383.072 200.806 382.924 200.662 382.726C200.518 382.53 200.439 382.293 200.435 382.049C200.43 381.806 200.501 381.566 200.638 381.364L209.524 368.228L196.381 359.348C196.12 359.171 195.941 358.899 195.881 358.59C195.822 358.282 195.887 357.962 196.063 357.701C196.239 357.441 196.512 357.261 196.822 357.2C197.13 357.141 197.45 357.206 197.711 357.382L211.839 366.928C212.1 367.104 212.279 367.377 212.34 367.685C212.4 367.994 212.334 368.315 212.157 368.575L202.606 382.693C202.451 382.923 202.219 383.091 201.953 383.168Z" fill="#ED455D"/>
<path d="M372.024 401.713L190.791 454.107C187.995 454.912 184.994 454.575 182.447 453.172C179.899 451.769 178.012 449.413 177.2 446.621L150.954 355.962C150.148 353.168 150.485 350.169 151.89 347.623C153.294 345.078 155.651 343.192 158.445 342.382L339.678 289.988C342.474 289.183 345.475 289.519 348.022 290.923C350.57 292.326 352.457 294.681 353.268 297.473L379.515 388.133C380.321 390.927 379.984 393.925 378.58 396.471C377.175 399.017 374.818 400.902 372.024 401.713ZM158.885 343.902C156.495 344.595 154.477 346.208 153.275 348.387C152.074 350.565 151.786 353.131 152.475 355.522L178.721 446.181C179.416 448.57 181.031 450.586 183.21 451.787C185.391 452.988 187.958 453.276 190.351 452.587L371.584 400.193C373.975 399.499 375.992 397.886 377.193 395.707C378.395 393.529 378.683 390.963 377.994 388.573L351.747 297.913C351.053 295.524 349.439 293.508 347.258 292.308C345.078 291.107 342.511 290.819 340.118 291.508L158.885 343.902Z" fill="#25313C"/>
<path d="M263.226 345.96L232.802 354.755C232.403 354.872 231.984 354.908 231.571 354.862C231.157 354.817 230.756 354.689 230.392 354.489C230.027 354.289 229.705 354.018 229.445 353.693C229.185 353.369 228.992 352.996 228.876 352.596C228.76 352.196 228.724 351.778 228.77 351.365C228.818 350.951 228.945 350.551 229.146 350.186C229.347 349.823 229.618 349.502 229.944 349.242C230.269 348.983 230.642 348.791 231.043 348.675L261.466 339.88C262.272 339.648 263.138 339.746 263.873 340.15C264.607 340.556 265.15 341.236 265.384 342.042C265.617 342.848 265.521 343.712 265.116 344.447C264.711 345.181 264.032 345.726 263.226 345.96Z" fill="#B8CDE1"/>
<path d="M333.477 343.772L236.883 371.696C236.484 371.813 236.065 371.849 235.651 371.803C235.237 371.757 234.837 371.63 234.472 371.43C234.107 371.229 233.787 370.959 233.526 370.633C233.267 370.309 233.073 369.936 232.957 369.536C232.842 369.137 232.806 368.718 232.852 368.306C232.899 367.892 233.026 367.492 233.226 367.127C233.428 366.764 233.699 366.443 234.024 366.183C234.35 365.924 234.723 365.731 235.123 365.616L331.716 337.691C332.524 337.458 333.39 337.554 334.126 337.96C334.862 338.365 335.406 339.045 335.639 339.852C335.873 340.658 335.776 341.524 335.371 342.259C334.965 342.994 334.284 343.538 333.477 343.772Z" fill="#B8CDE1"/>
<path d="M122.136 212.146L113.26 214.712C112.049 215.062 111.353 216.326 111.702 217.535L112.442 220.09C112.793 221.3 114.057 221.996 115.267 221.646L124.143 219.08C125.354 218.73 126.05 217.467 125.7 216.258L124.961 213.702C124.61 212.493 123.346 211.797 122.136 212.146Z" fill="#B8CDE1"/>
<path d="M194.414 191.252L185.536 193.818C184.327 194.167 183.629 195.431 183.98 196.64L184.719 199.195C185.069 200.405 186.334 201.101 187.544 200.752L196.421 198.185C197.631 197.836 198.328 196.572 197.978 195.363L197.237 192.807C196.888 191.598 195.623 190.902 194.414 191.252Z" fill="#ED455D"/>
<path d="M214.892 185.331L206.015 187.898C204.806 188.248 204.108 189.511 204.458 190.719L205.198 193.276C205.548 194.484 206.813 195.18 208.022 194.831L216.9 192.265C218.109 191.915 218.807 190.651 218.456 189.443L217.716 186.887C217.367 185.677 216.102 184.981 214.892 185.331Z" fill="#B8CDE1"/>
<path d="M174.587 196.357L132.751 208.451C131.542 208.801 130.845 210.064 131.194 211.274L131.935 213.829C132.284 215.038 133.549 215.735 134.758 215.385L176.594 203.291C177.803 202.941 178.501 201.677 178.151 200.468L177.411 197.913C177.061 196.703 175.796 196.007 174.587 196.357Z" fill="#B8CDE1"/>
<path d="M270.957 168.497L229.121 180.591C227.912 180.941 227.214 182.204 227.564 183.413L228.305 185.969C228.654 187.178 229.919 187.875 231.128 187.525L272.964 175.431C274.173 175.081 274.871 173.818 274.52 172.608L273.781 170.052C273.431 168.844 272.166 168.147 270.957 168.497Z" fill="#25313C"/>
<path d="M126.926 227.72L118.049 230.287C116.84 230.636 116.142 231.9 116.492 233.108L117.232 235.664C117.582 236.874 118.847 237.57 120.056 237.22L128.934 234.653C130.143 234.304 130.841 233.04 130.49 231.832L129.75 229.276C129.401 228.067 128.136 227.371 126.926 227.72Z" fill="#B8CDE1"/>
<path d="M199.203 206.826L190.327 209.392C189.116 209.742 188.42 211.005 188.77 212.213L189.509 214.77C189.86 215.978 191.124 216.675 192.334 216.326L201.211 213.759C202.421 213.409 203.117 212.145 202.768 210.937L202.028 208.381C201.677 207.172 200.414 206.476 199.203 206.826Z" fill="#ED455D"/>
<path d="M219.682 200.905L210.805 203.471C209.595 203.821 208.898 205.084 209.248 206.294L209.988 208.85C210.338 210.058 211.602 210.755 212.812 210.405L221.689 207.839C222.899 207.489 223.596 206.225 223.246 205.016L222.506 202.461C222.156 201.252 220.892 200.555 219.682 200.905Z" fill="#B8CDE1"/>
<path d="M179.377 211.931L137.541 224.025C136.332 224.375 135.634 225.638 135.985 226.848L136.724 229.403C137.074 230.612 138.339 231.309 139.549 230.959L181.384 218.865C182.593 218.515 183.291 217.252 182.941 216.042L182.2 213.486C181.851 212.278 180.586 211.581 179.377 211.931Z" fill="#B8CDE1"/>
<path d="M275.748 184.068L233.913 196.163C232.703 196.513 232.007 197.777 232.357 198.985L233.096 201.541C233.447 202.751 234.71 203.447 235.921 203.097L277.756 191.002C278.966 190.652 279.662 189.389 279.313 188.18L278.573 185.624C278.222 184.416 276.958 183.718 275.748 184.068Z" fill="#25313C"/>
<path d="M169.746 232.301L160.868 234.867C159.658 235.217 158.961 236.48 159.312 237.688L160.051 240.245C160.401 241.453 161.665 242.15 162.876 241.801L171.753 239.234C172.962 238.884 173.659 237.62 173.31 236.412L172.569 233.856C172.219 232.647 170.955 231.95 169.746 232.301Z" fill="#B8CDE1"/>
<path d="M242.023 211.405L233.145 213.972C231.936 214.322 231.238 215.585 231.588 216.794L232.329 219.35C232.678 220.558 233.943 221.255 235.152 220.905L244.03 218.339C245.239 217.989 245.937 216.725 245.587 215.517L244.847 212.961C244.497 211.751 243.232 211.055 242.023 211.405Z" fill="#ED455D"/>
<path d="M262.501 205.485L253.624 208.051C252.414 208.401 251.717 209.664 252.067 210.874L252.807 213.429C253.157 214.638 254.422 215.335 255.631 214.985L264.508 212.419C265.718 212.069 266.415 210.806 266.065 209.596L265.326 207.04C264.975 205.832 263.71 205.135 262.501 205.485Z" fill="#B8CDE1"/>
<path d="M222.195 216.511L180.361 228.605C179.15 228.955 178.454 230.218 178.803 231.427L179.543 233.983C179.894 235.191 181.158 235.889 182.368 235.539L224.203 223.444C225.413 223.094 226.109 221.831 225.759 220.622L225.02 218.066C224.669 216.858 223.406 216.161 222.195 216.511Z" fill="#B8CDE1"/>
<path d="M318.567 188.648L276.732 200.743C275.522 201.092 274.826 202.356 275.175 203.565L275.916 206.121C276.265 207.33 277.53 208.026 278.739 207.676L320.575 195.582C321.784 195.232 322.482 193.969 322.131 192.76L321.392 190.204C321.042 188.995 319.777 188.299 318.567 188.648Z" fill="#25313C"/>
<path d="M144.498 289.304L135.621 291.87C134.411 292.219 133.714 293.483 134.064 294.691L134.803 297.248C135.154 298.457 136.418 299.153 137.628 298.804L146.505 296.236C147.715 295.887 148.412 294.623 148.062 293.415L147.322 290.859C146.972 289.65 145.707 288.954 144.498 289.304Z" fill="#ED455D"/>
<path d="M164.976 283.383L156.099 285.949C154.89 286.3 154.192 287.563 154.542 288.772L155.282 291.328C155.632 292.536 156.897 293.233 158.106 292.883L166.984 290.317C168.193 289.967 168.891 288.703 168.54 287.494L167.8 284.939C167.451 283.729 166.186 283.033 164.976 283.383Z" fill="#B8CDE1"/>
<path d="M221.376 267.704L179.54 279.8C178.331 280.149 177.633 281.413 177.983 282.621L178.723 285.177C179.073 286.386 180.338 287.082 181.547 286.733L223.383 274.638C224.592 274.289 225.289 273.025 224.94 271.817L224.199 269.261C223.85 268.051 222.585 267.355 221.376 267.704Z" fill="#25313C"/>
<path d="M192.706 258.408L183.83 260.974C182.62 261.324 181.923 262.587 182.272 263.797L183.013 266.352C183.363 267.561 184.627 268.258 185.837 267.908L194.714 265.342C195.924 264.991 196.621 263.729 196.27 262.519L195.531 259.963C195.181 258.755 193.917 258.058 192.706 258.408Z" fill="#ED455D"/>
<path d="M213.188 252.486L204.31 255.052C203.101 255.402 202.404 256.665 202.753 257.874L203.494 260.43C203.844 261.639 205.108 262.336 206.317 261.986L215.195 259.419C216.405 259.069 217.102 257.806 216.751 256.597L216.012 254.041C215.662 252.833 214.398 252.136 213.188 252.486Z" fill="#ED455D"/>
<path d="M173.214 264.669L131.38 276.764C130.169 277.113 129.473 278.377 129.823 279.585L130.562 282.141C130.913 283.351 132.177 284.047 133.387 283.697L175.221 271.603C176.432 271.253 177.128 269.989 176.778 268.781L176.039 266.224C175.688 265.016 174.424 264.32 173.214 264.669Z" fill="#B8CDE1"/>
<path d="M269.587 236.808L227.751 248.902C226.542 249.252 225.845 250.515 226.194 251.723L226.935 254.28C227.284 255.489 228.549 256.185 229.758 255.836L271.594 243.741C272.803 243.391 273.501 242.127 273.151 240.919L272.411 238.363C272.061 237.154 270.796 236.457 269.587 236.808Z" fill="#25313C"/>
<path d="M173.963 246.868L165.085 249.434C163.876 249.784 163.178 251.047 163.529 252.257L164.268 254.813C164.618 256.021 165.883 256.717 167.093 256.368L175.97 253.802C177.179 253.452 177.877 252.188 177.527 250.979L176.786 248.424C176.437 247.214 175.172 246.518 173.963 246.868Z" fill="#B8CDE1"/>
<path d="M246.24 225.973L237.363 228.539C236.153 228.889 235.456 230.152 235.806 231.362L236.546 233.917C236.896 235.126 238.16 235.823 239.37 235.473L248.247 232.907C249.457 232.557 250.154 231.294 249.805 230.084L249.064 227.528C248.714 226.32 247.45 225.623 246.24 225.973Z" fill="#ED455D"/>
<path d="M266.718 220.053L257.842 222.619C256.631 222.969 255.935 224.233 256.284 225.441L257.024 227.997C257.375 229.205 258.639 229.902 259.849 229.552L268.725 226.986C269.936 226.636 270.632 225.373 270.282 224.164L269.543 221.608C269.192 220.4 267.928 219.702 266.718 220.053Z" fill="#B8CDE1"/>
<path d="M226.747 232.235L184.913 244.329C183.702 244.678 183.006 245.942 183.356 247.151L184.095 249.706C184.446 250.916 185.71 251.612 186.92 251.263L228.754 239.168C229.965 238.819 230.661 237.555 230.312 236.346L229.572 233.79C229.221 232.581 227.957 231.885 226.747 232.235Z" fill="#B8CDE1"/>
<path d="M323.117 204.375L281.282 216.469C280.072 216.819 279.376 218.082 279.725 219.291L280.465 221.847C280.816 223.055 282.08 223.752 283.289 223.402L325.124 211.308C326.335 210.958 327.031 209.694 326.681 208.486L325.942 205.93C325.591 204.721 324.328 204.025 323.117 204.375Z" fill="#25313C"/>
<path d="M152.231 260.019C154.199 260.019 155.794 258.425 155.794 256.459C155.794 254.493 154.199 252.899 152.231 252.899C150.263 252.899 148.668 254.493 148.668 256.459C148.668 258.425 150.263 260.019 152.231 260.019Z" fill="#ED455D"/>
<path d="M148.051 245.578C150.019 245.578 151.614 243.985 151.614 242.018C151.614 240.052 150.019 238.458 148.051 238.458C146.083 238.458 144.488 240.052 144.488 242.018C144.488 243.985 146.083 245.578 148.051 245.578Z" fill="#ED455D"/>
<path d="M173.618 36.8239L150.04 43.6402C149.537 43.7836 148.997 43.7218 148.539 43.4683C148.08 43.2148 147.741 42.7902 147.596 42.2876C147.451 41.785 147.51 41.2452 147.762 40.7865C148.014 40.3278 148.438 39.9874 148.94 39.84L172.518 33.0238C172.768 32.9503 173.03 32.9271 173.289 32.9551C173.548 32.9832 173.799 33.0621 174.028 33.1874C174.256 33.3126 174.458 33.4818 174.62 33.6851C174.783 33.8883 174.905 34.1218 174.977 34.3719C175.05 34.6221 175.072 34.8841 175.043 35.1428C175.014 35.4016 174.934 35.6521 174.807 35.8799C174.681 36.1077 174.511 36.3084 174.306 36.4704C174.103 36.6324 173.869 36.7525 173.618 36.8239Z" fill="#496075"/>
<path d="M185.237 32.9881C186.112 32.9881 186.821 32.2796 186.821 31.4058C186.821 30.5318 186.112 29.8233 185.237 29.8233C184.363 29.8233 183.654 30.5318 183.654 31.4058C183.654 32.2796 184.363 32.9881 185.237 32.9881Z" fill="#496075"/>
<path d="M260.226 411.781C257.657 412.524 254.925 412.489 252.376 411.679C249.827 410.871 247.575 409.325 245.906 407.237C244.235 405.15 243.222 402.614 242.995 399.951C242.767 397.289 243.335 394.618 244.626 392.278C245.917 389.937 247.874 388.032 250.248 386.803C252.623 385.573 255.309 385.075 257.967 385.372C260.625 385.667 263.135 386.745 265.181 388.467C267.226 390.188 268.714 392.478 269.458 395.045C270.455 398.488 270.042 402.185 268.31 405.324C266.579 408.462 263.671 410.786 260.226 411.781Z" fill="#B8CDE1"/>
<path d="M261.222 396.039L257.379 397.15L256.266 393.309C256.218 393.14 256.136 392.984 256.027 392.847C255.918 392.71 255.783 392.596 255.629 392.512C255.32 392.341 254.955 392.301 254.614 392.399C254.275 392.497 253.988 392.725 253.817 393.035C253.646 393.345 253.605 393.709 253.704 394.049L254.816 397.891L250.972 399.002C250.632 399.101 250.347 399.33 250.176 399.639C250.006 399.949 249.965 400.313 250.063 400.652C250.161 400.992 250.391 401.278 250.699 401.449C251.009 401.619 251.374 401.66 251.713 401.563L255.557 400.452L256.669 404.293C256.718 404.461 256.8 404.618 256.909 404.755C257.018 404.892 257.153 405.005 257.307 405.09C257.46 405.174 257.629 405.228 257.803 405.248C257.977 405.267 258.153 405.252 258.322 405.202C258.49 405.154 258.647 405.073 258.784 404.964C258.921 404.855 259.034 404.719 259.119 404.566C259.203 404.413 259.257 404.245 259.277 404.07C259.296 403.896 259.281 403.72 259.232 403.552L258.12 399.71L261.964 398.599C262.304 398.501 262.59 398.272 262.76 397.962C262.931 397.652 262.971 397.289 262.873 396.949C262.775 396.61 262.546 396.324 262.236 396.152C261.927 395.982 261.562 395.941 261.222 396.039Z" fill="#496075"/>
<path d="M298.23 400.795C295.66 401.537 292.929 401.502 290.38 400.693C287.831 399.884 285.579 398.339 283.909 396.251C282.24 394.163 281.227 391.627 280.999 388.965C280.771 386.302 281.339 383.631 282.629 381.291C283.921 378.95 285.877 377.045 288.252 375.816C290.626 374.586 293.313 374.088 295.971 374.385C298.629 374.681 301.139 375.759 303.184 377.48C305.23 379.202 306.718 381.491 307.461 384.059C308.458 387.501 308.045 391.198 306.314 394.337C304.583 397.476 301.674 399.799 298.23 400.795Z" fill="#B8CDE1"/>
<path d="M299.226 385.052L295.383 386.163L292.82 386.904L288.976 388.015C288.636 388.113 288.349 388.343 288.178 388.652C288.008 388.962 287.967 389.327 288.065 389.666C288.163 390.006 288.393 390.293 288.702 390.463C289.012 390.633 289.378 390.674 289.717 390.576L293.561 389.465L296.124 388.724L299.968 387.612C300.136 387.564 300.294 387.483 300.431 387.374C300.568 387.265 300.682 387.129 300.766 386.976C300.852 386.823 300.906 386.654 300.925 386.48C300.945 386.306 300.93 386.129 300.881 385.961C300.832 385.793 300.75 385.636 300.641 385.499C300.531 385.362 300.396 385.248 300.242 385.164C300.089 385.079 299.92 385.026 299.745 385.007C299.571 384.988 299.395 385.003 299.226 385.052Z" fill="#496075"/>
<path d="M336.233 389.808C333.664 390.55 330.933 390.515 328.384 389.706C325.835 388.898 323.582 387.352 321.913 385.264C320.242 383.176 319.23 380.641 319.002 377.978C318.774 375.316 319.342 372.644 320.633 370.305C321.924 367.964 323.881 366.058 326.255 364.829C328.63 363.599 331.317 363.101 333.975 363.398C336.632 363.694 339.143 364.772 341.188 366.493C343.233 368.215 344.721 370.505 345.465 373.072C346.462 376.515 346.049 380.212 344.318 383.351C342.586 386.489 339.678 388.812 336.233 389.808Z" fill="#B8CDE1"/>
<path d="M339.605 374.098L334.368 369.792C334.252 369.696 334.119 369.625 333.976 369.582C333.834 369.539 333.683 369.524 333.535 369.538C333.387 369.552 333.242 369.596 333.11 369.666C332.979 369.736 332.862 369.832 332.767 369.947C332.672 370.062 332.601 370.195 332.557 370.338C332.514 370.48 332.499 370.63 332.513 370.779C332.528 370.927 332.571 371.071 332.641 371.203C332.711 371.335 332.807 371.451 332.923 371.546L336.309 374.332L333.387 375.176L330.824 375.918L326.98 377.029C326.639 377.127 326.353 377.356 326.182 377.665C326.011 377.975 325.971 378.34 326.069 378.679C326.167 379.019 326.397 379.306 326.706 379.476C327.016 379.647 327.381 379.687 327.721 379.589L331.565 378.478L334.127 377.737L337.168 376.859L335.724 381.225C335.631 381.511 335.654 381.823 335.79 382.091C335.926 382.36 336.162 382.564 336.449 382.658C336.734 382.752 337.046 382.729 337.315 382.595C337.584 382.46 337.788 382.223 337.884 381.938L340.011 375.502C340.069 375.253 340.062 374.993 339.991 374.747C339.92 374.502 339.786 374.279 339.605 374.098Z" fill="#496075"/>
</g>
<defs>
<clipPath id="clip0_2642_1755">
<rect width="406.814" height="500" fill="white"/>
</clipPath>
</defs>
</svg>
