<svg width="465" height="500" viewBox="0 0 465 500" fill="none" xmlns="http://www.w3.org/2000/svg">
<path d="M294.71 283.683L93.88 335.409C87.0676 337.156 79.8408 336.128 73.785 332.552C67.7292 328.975 63.339 323.143 61.5775 316.333L0.841114 80.4307C-0.904955 73.617 0.122509 66.3889 3.6981 60.332C7.2737 54.2751 13.1054 49.884 19.9139 48.1223L206.754 3.05176e-05L254.576 21.4124L313.783 251.375C315.529 258.189 314.502 265.417 310.926 271.474C307.351 277.531 301.519 281.922 294.71 283.683Z" fill="#496075"/>
<path d="M21.8181 55.5185C16.9697 56.7731 12.8168 59.9 10.2705 64.2133C7.72425 68.5265 6.99258 73.6738 8.236 78.526L68.9724 314.428C70.2268 319.278 73.3531 323.431 77.6656 325.978C81.978 328.525 87.1244 329.256 91.9757 328.013L292.806 276.287C297.655 275.033 301.807 271.906 304.354 267.592C306.9 263.279 307.632 258.132 306.388 253.28L248.098 26.8802L206.071 8.06247L21.8181 55.5185Z" fill="#25313C"/>
<path d="M254.066 22.6293L222.984 30.6346C220.715 31.219 218.307 30.8779 216.29 29.6864C214.272 28.4949 212.81 26.5506 212.226 24.2811L206.315 1.32079C206.289 1.22027 206.292 1.11449 206.323 1.01558C206.355 0.916672 206.413 0.828639 206.493 0.761574C206.572 0.694509 206.668 0.651129 206.771 0.63641C206.874 0.621691 206.978 0.636226 207.073 0.678352L254.152 21.5898C254.257 21.6363 254.345 21.7143 254.403 21.813C254.461 21.9116 254.488 22.026 254.478 22.1403C254.469 22.2545 254.424 22.363 254.35 22.4506C254.276 22.5383 254.177 22.6007 254.066 22.6293Z" fill="#496075"/>
<path d="M237.714 224.085L146.279 247.635C145.717 247.779 145.132 247.812 144.558 247.731C143.984 247.649 143.431 247.456 142.931 247.161C142.432 246.866 141.995 246.475 141.647 246.011C141.298 245.548 141.044 245.02 140.9 244.458C140.755 243.896 140.722 243.311 140.804 242.737C140.885 242.162 141.079 241.61 141.374 241.11C141.668 240.61 142.059 240.174 142.523 239.825C142.986 239.476 143.514 239.223 144.076 239.078L235.511 215.528C236.073 215.383 236.657 215.351 237.232 215.432C237.806 215.513 238.359 215.707 238.858 216.002C239.358 216.297 239.794 216.687 240.143 217.151C240.492 217.615 240.746 218.143 240.89 218.705C241.035 219.266 241.067 219.851 240.986 220.426C240.905 221 240.711 221.553 240.416 222.053C240.121 222.552 239.731 222.989 239.267 223.337C238.804 223.686 238.276 223.94 237.714 224.085Z" fill="#496075"/>
<path d="M259.077 233.98L149.997 262.074C148.862 262.367 147.658 262.196 146.649 261.6C145.64 261.005 144.909 260.032 144.617 258.898C144.325 257.763 144.496 256.559 145.091 255.55C145.687 254.541 146.659 253.81 147.793 253.518L256.874 225.423C258.008 225.132 259.212 225.303 260.219 225.899C261.227 226.495 261.958 227.467 262.25 228.601C262.542 229.735 262.371 230.938 261.777 231.947C261.182 232.956 260.211 233.687 259.077 233.98Z" fill="#496075"/>
<path d="M108.96 275.998C117.583 275.998 124.573 269.007 124.573 260.383C124.573 251.759 117.583 244.768 108.96 244.768C100.338 244.768 93.3477 251.759 93.3477 260.383C93.3477 269.007 100.338 275.998 108.96 275.998Z" fill="#B8CDE1"/>
<path d="M227.992 183.218L106.557 214.483C103.047 215.383 99.3244 214.853 96.2049 213.01C93.0854 211.168 90.824 208.163 89.9169 204.655L64.4686 105.776C63.5694 102.266 64.0991 98.5423 65.9413 95.4222C67.7836 92.3022 70.788 90.0404 74.2955 89.1332L195.731 57.8681C199.24 56.9687 202.963 57.4985 206.083 59.3411C209.202 61.1837 211.463 64.1886 212.371 67.6967L237.819 166.576C238.718 170.086 238.188 173.809 236.346 176.929C234.504 180.049 231.499 182.311 227.992 183.218Z" fill="#25313C"/>
<path d="M227.992 183.218L106.557 214.483C103.047 215.383 99.3244 214.853 96.2049 213.01C93.0854 211.168 90.824 208.163 89.9169 204.655L64.4686 105.776C63.5694 102.266 64.0991 98.5423 65.9413 95.4222C67.7836 92.3022 70.788 90.0404 74.2955 89.1332L195.731 57.8681C199.24 56.9687 202.963 57.4985 206.083 59.3411C209.202 61.1837 211.463 64.1886 212.371 67.6967L237.819 166.576C238.718 170.086 238.188 173.809 236.346 176.929C234.504 180.049 231.499 182.311 227.992 183.218ZM74.6963 90.6903C71.6015 91.4908 68.9505 93.4865 67.325 96.2395C65.6995 98.9925 65.2321 102.278 66.0255 105.375L91.4738 204.254C92.2742 207.349 94.2695 210.001 97.022 211.627C99.7745 213.252 103.059 213.72 106.156 212.926L227.591 181.661C230.686 180.861 233.337 178.865 234.963 176.112C236.588 173.359 237.055 170.074 236.262 166.976L210.814 68.0976C210.013 65.0022 208.018 62.3507 205.265 60.7249C202.513 59.0991 199.228 58.6317 196.131 59.4252L74.6963 90.6903Z" fill="#B8CDE1"/>
<path d="M189.57 91.115L128.283 106.894C127.747 107.044 127.175 106.984 126.681 106.728C126.188 106.471 125.81 106.037 125.624 105.512C125.537 105.238 125.508 104.95 125.537 104.664C125.565 104.378 125.652 104.101 125.791 103.85C125.931 103.599 126.12 103.378 126.347 103.203C126.574 103.027 126.835 102.899 127.113 102.828L189.499 86.7657C192.019 88.0429 191.356 90.6551 189.569 91.1152L189.57 91.115Z" fill="#B8CDE1"/>
<path d="M192.337 101.867L131.05 117.646C130.515 117.796 129.942 117.736 129.448 117.48C128.955 117.223 128.577 116.789 128.391 116.265C128.305 115.991 128.275 115.702 128.304 115.416C128.332 115.13 128.419 114.853 128.559 114.602C128.698 114.351 128.887 114.131 129.114 113.955C129.341 113.779 129.602 113.652 129.88 113.58L192.266 97.5178C194.787 98.795 194.123 101.407 192.336 101.867H192.337Z" fill="#B8CDE1"/>
<path d="M119.377 127.179L100.673 131.995C100.062 132.151 99.4143 132.059 98.8713 131.738C98.3283 131.418 97.9347 130.895 97.7769 130.284L92.0951 108.208C91.9385 107.597 92.0307 106.948 92.3513 106.405C92.672 105.862 93.195 105.469 93.8056 105.311L112.51 100.495C113.121 100.339 113.768 100.431 114.311 100.752C114.854 101.072 115.248 101.595 115.406 102.206L121.088 124.282C121.244 124.893 121.152 125.541 120.832 126.085C120.511 126.628 119.988 127.021 119.377 127.179Z" fill="#B8CDE1"/>
<path d="M197.825 123.928L104.29 148.01C103.754 148.159 103.182 148.1 102.688 147.843C102.194 147.587 101.816 147.153 101.631 146.628C101.544 146.354 101.515 146.065 101.543 145.78C101.572 145.494 101.659 145.217 101.798 144.965C101.938 144.714 102.127 144.494 102.354 144.318C102.581 144.143 102.842 144.015 103.12 143.943L197.755 119.578C200.275 120.856 199.612 123.468 197.825 123.928Z" fill="#B8CDE1"/>
<path d="M200.593 134.683L107.058 158.765C106.522 158.915 105.95 158.855 105.456 158.599C104.962 158.342 104.585 157.908 104.399 157.383C104.312 157.109 104.283 156.821 104.311 156.535C104.34 156.249 104.427 155.972 104.566 155.721C104.706 155.469 104.895 155.249 105.122 155.074C105.349 154.898 105.61 154.77 105.888 154.699L200.523 130.334C203.043 131.611 202.38 134.223 200.593 134.683Z" fill="#B8CDE1"/>
<path d="M203.359 145.431L109.824 169.513C109.288 169.663 108.716 169.603 108.222 169.347C107.729 169.09 107.351 168.656 107.165 168.131C107.078 167.858 107.049 167.569 107.078 167.283C107.106 166.997 107.193 166.72 107.332 166.469C107.472 166.218 107.661 165.998 107.888 165.822C108.115 165.646 108.376 165.518 108.654 165.447L203.289 141.082C205.809 142.359 205.146 144.971 203.359 145.431Z" fill="#B8CDE1"/>
<path d="M206.127 156.186L112.592 180.268C112.057 180.417 111.484 180.358 110.99 180.101C110.497 179.845 110.119 179.41 109.933 178.886C109.847 178.612 109.817 178.323 109.846 178.037C109.874 177.751 109.961 177.475 110.101 177.223C110.24 176.972 110.429 176.752 110.656 176.576C110.883 176.4 111.144 176.273 111.422 176.201L206.057 151.836C208.577 153.113 207.914 155.726 206.127 156.186Z" fill="#B8CDE1"/>
<path d="M208.894 166.935L115.359 191.017C114.823 191.166 114.25 191.107 113.757 190.85C113.263 190.594 112.885 190.159 112.699 189.635C112.613 189.361 112.583 189.072 112.612 188.786C112.641 188.501 112.728 188.224 112.867 187.972C113.006 187.721 113.195 187.501 113.423 187.325C113.65 187.149 113.91 187.022 114.189 186.95L208.824 162.585C211.344 163.862 210.681 166.475 208.894 166.935Z" fill="#B8CDE1"/>
<path d="M110.112 265.857C109.772 265.945 109.412 265.92 109.088 265.786L109.068 265.778L104.815 263.974C104.617 263.891 104.438 263.769 104.288 263.616C104.137 263.463 104.019 263.282 103.938 263.084C103.858 262.885 103.818 262.672 103.82 262.458C103.822 262.244 103.866 262.032 103.95 261.834C104.033 261.637 104.155 261.458 104.308 261.308C104.461 261.158 104.643 261.04 104.841 260.96C105.04 260.88 105.253 260.839 105.467 260.842C105.682 260.844 105.893 260.888 106.091 260.973L108.847 262.145L112.458 253.648C112.542 253.451 112.663 253.272 112.816 253.122C112.969 252.972 113.15 252.854 113.348 252.774C113.547 252.694 113.759 252.654 113.973 252.656C114.187 252.658 114.399 252.702 114.596 252.786L114.574 252.841L114.597 252.786C114.995 252.955 115.309 253.276 115.47 253.677C115.632 254.078 115.628 254.526 115.459 254.924L111.21 264.915C111.112 265.145 110.961 265.35 110.771 265.513C110.581 265.676 110.356 265.793 110.113 265.854L110.112 265.857Z" fill="#25313C"/>
<path d="M371.741 373.58H164.359C157.326 373.572 150.584 370.774 145.611 365.8C140.638 360.827 137.841 354.083 137.833 347.049V103.451C137.841 96.417 140.638 89.6735 145.611 84.6998C150.584 79.7261 157.326 76.9284 164.359 76.9204H357.294L398.267 109.584V347.049C398.259 354.083 395.461 360.827 390.489 365.8C385.516 370.774 378.774 373.572 371.741 373.58Z" fill="#496075"/>
<path d="M164.359 84.558C159.351 84.5636 154.549 86.5559 151.008 90.0978C147.467 93.6397 145.475 98.4419 145.469 103.451V347.049C145.475 352.058 147.467 356.86 151.008 360.402C154.549 363.944 159.351 365.936 164.359 365.942H371.741C376.749 365.936 381.55 363.944 385.092 360.402C388.633 356.86 390.625 352.058 390.631 347.049V113.264L354.623 84.558H164.359Z" fill="#25313C"/>
<path d="M331.405 155.39H236.987C235.816 155.39 234.692 154.924 233.864 154.096C233.035 153.267 232.57 152.143 232.57 150.972C232.57 149.8 233.035 148.676 233.864 147.848C234.692 147.019 235.816 146.554 236.987 146.554H331.405C332.577 146.554 333.7 147.019 334.529 147.848C335.357 148.676 335.823 149.8 335.823 150.972C335.823 152.143 335.357 153.267 334.529 154.096C333.7 154.924 332.577 155.39 331.405 155.39Z" fill="#ED455D"/>
<path d="M349.626 170.301H236.987C235.816 170.299 234.694 169.833 233.867 169.005C233.04 168.176 232.576 167.053 232.576 165.883C232.576 164.712 233.04 163.589 233.867 162.761C234.694 161.932 235.816 161.466 236.987 161.465H349.626C350.207 161.464 350.782 161.578 351.319 161.799C351.855 162.021 352.343 162.346 352.754 162.757C353.164 163.167 353.49 163.654 353.713 164.191C353.935 164.727 354.049 165.302 354.049 165.883C354.049 166.463 353.935 167.038 353.713 167.575C353.49 168.111 353.164 168.598 352.754 169.009C352.343 169.419 351.855 169.744 351.319 169.966C350.782 170.188 350.207 170.301 349.626 170.301Z" fill="#ED455D"/>
<path d="M331.406 213.374H236.99C235.819 213.374 234.695 213.839 233.867 214.668C233.039 215.496 232.573 216.62 232.573 217.792C232.573 218.963 233.039 220.087 233.867 220.916C234.695 221.744 235.819 222.209 236.99 222.209H331.406C332.577 222.209 333.701 221.744 334.529 220.916C335.357 220.087 335.823 218.963 335.823 217.792C335.823 216.62 335.357 215.496 334.529 214.668C333.701 213.839 332.577 213.374 331.406 213.374Z" fill="#B8CDE1"/>
<path d="M349.628 228.287H236.991C235.819 228.287 234.696 228.753 233.867 229.581C233.039 230.41 232.574 231.534 232.574 232.705C232.574 233.877 233.039 235 233.867 235.829C234.696 236.657 235.819 237.123 236.991 237.123H349.628C350.8 237.123 351.923 236.657 352.751 235.829C353.58 235 354.045 233.877 354.045 232.705C354.045 231.534 353.58 230.41 352.751 229.581C351.923 228.753 350.8 228.287 349.628 228.287Z" fill="#B8CDE1"/>
<path d="M331.405 289.035H236.987C235.816 289.035 234.692 288.57 233.864 287.741C233.035 286.913 232.57 285.789 232.57 284.617C232.57 283.446 233.035 282.322 233.864 281.493C234.692 280.665 235.816 280.199 236.987 280.199H331.405C332.577 280.199 333.7 280.665 334.529 281.493C335.357 282.322 335.823 283.446 335.823 284.617C335.823 285.789 335.357 286.913 334.529 287.741C333.7 288.57 332.577 289.035 331.405 289.035Z" fill="#B8CDE1"/>
<path d="M349.626 303.946H236.987C235.816 303.945 234.694 303.479 233.867 302.65C233.04 301.822 232.576 300.699 232.576 299.528C232.576 298.358 233.04 297.235 233.867 296.406C234.694 295.578 235.816 295.112 236.987 295.11H349.626C350.207 295.109 350.782 295.223 351.319 295.445C351.855 295.667 352.343 295.992 352.754 296.402C353.164 296.812 353.49 297.3 353.713 297.836C353.935 298.373 354.049 298.948 354.049 299.528C354.049 300.109 353.935 300.684 353.713 301.22C353.49 301.757 353.164 302.244 352.754 302.654C352.343 303.065 351.855 303.39 351.319 303.612C350.782 303.833 350.207 303.947 349.626 303.946Z" fill="#B8CDE1"/>
<path d="M197.669 174.043C206.291 174.043 213.281 167.051 213.281 158.427C213.281 149.803 206.291 142.812 197.669 142.812C189.046 142.812 182.056 149.803 182.056 158.427C182.056 167.051 189.046 174.043 197.669 174.043Z" fill="#ED455D"/>
<path d="M196.122 164.384C195.77 164.385 195.428 164.271 195.147 164.06L195.13 164.047L191.461 161.24C191.29 161.11 191.147 160.947 191.04 160.762C190.932 160.576 190.862 160.371 190.834 160.159C190.806 159.946 190.819 159.73 190.875 159.523C190.93 159.316 191.026 159.121 191.156 158.951C191.287 158.781 191.449 158.638 191.635 158.531C191.821 158.424 192.026 158.354 192.238 158.326C192.451 158.299 192.667 158.313 192.874 158.369C193.081 158.424 193.275 158.52 193.445 158.651L195.822 160.474L201.438 153.146C201.568 152.976 201.73 152.834 201.915 152.727C202.101 152.619 202.305 152.55 202.518 152.522C202.73 152.494 202.945 152.508 203.152 152.563C203.359 152.618 203.553 152.714 203.723 152.844V152.845L203.688 152.893L203.724 152.845C204.067 153.108 204.291 153.497 204.347 153.925C204.404 154.354 204.288 154.787 204.026 155.131L197.42 163.746C197.267 163.945 197.071 164.105 196.846 164.216C196.621 164.326 196.374 164.383 196.123 164.382L196.122 164.384Z" fill="#25313C"/>
<path d="M214.886 225.248C214.887 227.299 214.484 229.33 213.699 231.225C212.915 233.12 211.766 234.842 210.316 236.293C208.867 237.743 207.146 238.894 205.251 239.679C203.357 240.465 201.327 240.869 199.276 240.869C199.142 240.872 199.008 240.867 198.874 240.853C195.804 240.774 192.826 239.792 190.312 238.029C187.797 236.265 185.859 233.799 184.739 230.94C183.618 228.08 183.366 224.953 184.014 221.951C184.662 218.949 186.18 216.204 188.379 214.061C190.579 211.917 193.361 210.47 196.379 209.9C199.396 209.331 202.515 209.664 205.344 210.858C208.173 212.052 210.588 214.054 212.285 216.614C213.982 219.174 214.887 222.177 214.886 225.248Z" fill="#B8CDE1"/>
<path d="M197.669 307.688C206.291 307.688 213.281 300.697 213.281 292.073C213.281 283.449 206.291 276.458 197.669 276.458C189.046 276.458 182.056 283.449 182.056 292.073C182.056 300.697 189.046 307.688 197.669 307.688Z" fill="#B8CDE1"/>
<path d="M397.469 110.635H365.374C363.031 110.635 360.784 109.704 359.127 108.047C357.47 106.39 356.54 104.143 356.54 101.799V78.0899C356.54 77.9861 356.569 77.8844 356.624 77.7965C356.679 77.7085 356.758 77.6379 356.851 77.5927C356.945 77.5475 357.049 77.5296 357.152 77.541C357.255 77.5524 357.353 77.5926 357.435 77.657L397.812 109.65C397.902 109.721 397.967 109.819 397.999 109.929C398.031 110.039 398.028 110.156 397.991 110.265C397.953 110.373 397.883 110.467 397.789 110.533C397.696 110.6 397.584 110.635 397.469 110.635Z" fill="#496075"/>
<path d="M214.886 225.248C214.887 227.299 214.483 229.33 213.699 231.225C212.915 233.12 211.766 234.842 210.316 236.293C208.866 237.744 207.145 238.894 205.251 239.679C203.357 240.465 201.326 240.869 199.276 240.869C199.142 240.872 199.008 240.867 198.874 240.853C196.857 235.821 196.08 230.378 196.607 224.983C197.134 219.588 198.951 214.398 201.904 209.853C205.536 210.475 208.831 212.362 211.206 215.179C213.582 217.997 214.885 221.563 214.886 225.248Z" fill="#ED455D"/>
<path d="M232.57 217.796C232.572 216.624 233.038 215.5 233.867 214.671C234.695 213.843 235.819 213.376 236.991 213.374H260.518C261.892 216.17 262.869 219.143 263.42 222.209H236.991C235.819 222.209 234.696 221.744 233.868 220.917C233.039 220.089 232.572 218.967 232.57 217.796Z" fill="#ED455D"/>
<path d="M263.966 228.287C263.968 231.272 263.573 234.243 262.793 237.123H236.99C235.819 237.123 234.695 236.657 233.867 235.829C233.039 235 232.573 233.877 232.573 232.705C232.573 231.534 233.039 230.41 233.867 229.581C234.695 228.753 235.819 228.287 236.99 228.287H263.966Z" fill="#ED455D"/>
<path d="M322.179 282.777C321.513 283.87 320.441 284.652 319.198 284.954C317.954 285.255 316.643 285.05 315.551 284.384L259.28 250.055C258.739 249.725 258.269 249.292 257.896 248.78C257.522 248.268 257.253 247.688 257.104 247.072C256.955 246.457 256.929 245.818 257.027 245.192C257.124 244.566 257.344 243.965 257.674 243.425C258.004 242.884 258.437 242.413 258.949 242.04C259.46 241.666 260.04 241.397 260.656 241.248C261.272 241.099 261.91 241.073 262.536 241.171C263.162 241.268 263.762 241.488 264.303 241.818L320.573 276.147C321.665 276.814 322.448 277.886 322.749 279.13C323.05 280.373 322.845 281.685 322.179 282.777Z" fill="#496075"/>
<path d="M265.909 248.448C261.935 254.964 256.119 260.155 249.196 263.365C242.272 266.574 234.553 267.659 227.013 266.48C219.474 265.302 212.453 261.914 206.839 256.745C201.225 251.575 197.269 244.857 195.472 237.439C193.675 230.022 194.118 222.238 196.745 215.071C199.371 207.905 204.063 201.679 210.227 197.18C216.392 192.681 223.751 190.112 231.376 189.796C239 189.481 246.547 191.434 253.062 195.408C261.789 200.746 268.042 209.328 270.451 219.271C272.859 229.215 271.226 239.708 265.909 248.448ZM208.266 213.282C205.286 218.169 203.821 223.83 204.058 229.549C204.294 235.269 206.221 240.789 209.595 245.413C212.968 250.038 217.637 253.557 223.011 255.527C228.384 257.497 234.221 257.83 239.784 256.482C245.346 255.134 250.384 252.167 254.26 247.955C258.136 243.744 260.677 238.477 261.56 232.822C262.444 227.166 261.631 221.375 259.224 216.182C256.817 210.988 252.925 206.625 248.039 203.645C241.485 199.656 233.616 198.431 226.16 200.238C218.704 202.044 212.269 206.736 208.266 213.282Z" fill="#496075"/>
<path d="M389.527 234.541C400.431 234.541 409.27 225.7 409.27 214.795C409.27 203.889 400.431 195.049 389.527 195.049C378.624 195.049 369.785 203.889 369.785 214.795C369.785 225.7 378.624 234.541 389.527 234.541Z" fill="#FFB6B6"/>
<path d="M388.252 325.492C387.871 324.306 387.745 323.052 387.883 321.814C388.02 320.575 388.418 319.38 389.049 318.305C389.681 317.231 390.532 316.303 391.548 315.581C392.563 314.858 393.72 314.359 394.941 314.115C395.328 314.04 395.72 313.991 396.114 313.971L416.91 280.588L397.914 262.526C397.188 261.835 396.606 261.008 396.202 260.092C395.798 259.176 395.579 258.188 395.558 257.187C395.537 256.186 395.715 255.19 396.081 254.258C396.447 253.325 396.994 252.475 397.691 251.755C398.387 251.035 399.219 250.461 400.139 250.065C401.059 249.669 402.048 249.459 403.049 249.447C404.051 249.435 405.045 249.622 405.973 249.997C406.902 250.372 407.748 250.927 408.461 251.63L434.688 277.496L434.741 277.56C435.553 278.795 435.944 280.259 435.858 281.734C435.772 283.209 435.213 284.616 434.263 285.748L405.125 320.216C405.212 320.493 405.285 320.773 405.342 321.057C405.586 322.279 405.569 323.539 405.292 324.754C405.015 325.969 404.484 327.112 403.735 328.107C402.985 329.103 402.034 329.929 400.943 330.531C399.852 331.133 398.646 331.498 397.405 331.602C397.154 331.624 396.904 331.635 396.655 331.635C394.786 331.627 392.967 331.029 391.458 329.926C389.949 328.823 388.827 327.271 388.252 325.492Z" fill="#FFB6B6"/>
<path d="M357.012 489.609L347.157 489.608L342.469 451.591L357.014 451.592L357.012 489.609Z" fill="#FFB6B6"/>
<path d="M359.525 499.163L327.75 499.162V498.76C327.75 497.136 328.07 495.527 328.691 494.026C329.313 492.526 330.224 491.162 331.372 490.013C332.521 488.865 333.884 487.953 335.385 487.332C336.885 486.71 338.494 486.39 340.118 486.39H340.119L359.526 486.391L359.525 499.163Z" fill="#496075"/>
<path d="M454.961 475.981L446.493 481.024L423.018 450.758L435.515 443.316L454.961 475.981Z" fill="#FFB6B6"/>
<path d="M462.007 482.905L434.705 499.163L434.499 498.818C433.668 497.422 433.12 495.876 432.887 494.269C432.653 492.661 432.738 491.023 433.137 489.449C433.537 487.874 434.242 486.394 435.213 485.092C436.185 483.79 437.403 482.692 438.798 481.861L438.799 481.86L455.474 471.93L462.007 482.905Z" fill="#496075"/>
<path d="M341.226 472.866C334.625 395.119 330.698 322.893 354.83 293.429L355.017 293.201L395.63 309.449L395.697 309.595C395.834 309.893 409.34 339.609 406.19 359.596L416.207 405.685L448.87 460.387C449.133 460.827 449.3 461.319 449.358 461.828C449.417 462.338 449.367 462.854 449.211 463.343C449.055 463.831 448.797 464.281 448.454 464.663C448.111 465.044 447.691 465.348 447.222 465.555L433.028 471.801C432.227 472.15 431.327 472.198 430.493 471.937C429.659 471.677 428.947 471.124 428.487 470.382L392.956 412.432L372.886 367.985C372.777 367.744 372.592 367.545 372.359 367.42C372.126 367.294 371.858 367.249 371.596 367.291C371.335 367.333 371.095 367.46 370.913 367.652C370.73 367.844 370.616 368.091 370.588 368.354L359.464 472.946C359.371 473.835 358.951 474.657 358.287 475.255C357.623 475.853 356.76 476.183 355.867 476.181H344.832C343.927 476.176 343.056 475.833 342.389 475.221C341.722 474.608 341.308 473.768 341.226 472.866Z" fill="#496075"/>
<path d="M354.967 294.045L354.774 293.953L354.743 293.74C353.226 283.12 355.022 271.32 360.081 258.668C362.574 252.475 367.208 247.385 373.14 244.324C379.071 241.263 385.905 240.435 392.395 241.991C396.134 242.912 399.641 244.6 402.693 246.948C405.745 249.296 408.277 252.252 410.128 255.629C411.954 258.972 413.067 262.658 413.396 266.453C413.724 270.248 413.26 274.071 412.035 277.677C405.658 296.329 397.385 313.781 397.302 313.955L397.129 314.319L354.967 294.045Z" fill="#B8CDE1"/>
<path d="M310.656 267.593C311.634 266.82 312.764 266.263 313.972 265.958C315.18 265.654 316.439 265.607 317.666 265.823C318.893 266.038 320.061 266.511 321.093 267.209C322.125 267.908 322.997 268.816 323.654 269.876C323.86 270.212 324.042 270.562 324.2 270.924L362.746 278.716L373.009 254.594C373.401 253.673 373.972 252.838 374.688 252.138C375.405 251.438 376.253 250.887 377.183 250.517C378.114 250.147 379.108 249.965 380.11 249.982C381.111 249.998 382.099 250.213 383.017 250.613C383.935 251.014 384.764 251.592 385.457 252.315C386.151 253.038 386.694 253.891 387.055 254.825C387.417 255.76 387.59 256.756 387.564 257.757C387.539 258.759 387.315 259.745 386.906 260.659L371.867 294.289L371.825 294.361C370.953 295.553 369.719 296.433 368.308 296.869C366.896 297.305 365.382 297.274 363.99 296.781L321.506 281.553C321.278 281.731 321.04 281.897 320.795 282.051C319.735 282.707 318.55 283.132 317.315 283.298C316.08 283.464 314.824 283.367 313.629 283.014C312.434 282.66 311.328 282.058 310.382 281.247C309.436 280.436 308.672 279.434 308.14 278.307C308.031 278.08 307.933 277.85 307.846 277.617C307.199 275.863 307.122 273.949 307.627 272.149C308.132 270.349 309.192 268.754 310.656 267.593Z" fill="#FFB6B6"/>
<path d="M460.848 235.941C458.947 232.571 456.176 229.484 452.514 228.238C447.783 226.63 442.661 228.343 437.798 229.486C434.051 230.367 430.136 230.907 426.36 230.163C422.583 229.42 418.94 227.221 417.222 223.776C414.694 218.709 416.823 212.665 416.67 207.004C416.59 203.922 415.813 200.898 414.396 198.161C412.978 195.423 410.958 193.043 408.487 191.2C406.017 189.357 403.16 188.098 400.132 187.52C397.105 186.942 393.985 187.058 391.009 187.861C386.352 186.517 382.136 186.393 379.256 189.973C375.631 189.973 372.156 191.413 369.593 193.976C367.031 196.539 365.591 200.016 365.591 203.641H378.657C378.038 206.973 378.746 210.415 380.63 213.233C382.936 216.622 386.947 219.074 387.719 223.1C388.468 227.002 385.816 230.705 383.034 233.541C380.252 236.377 377.025 239.188 376.156 243.065C375.624 246.008 376.229 249.044 377.847 251.559C379.463 254.043 381.468 256.251 383.784 258.099C394.222 267.043 406.627 273.39 419.986 276.623C429.394 278.888 439.684 279.475 448.418 275.308C451.911 273.641 455.025 271.273 457.565 268.351C460.105 265.43 462.017 262.017 463.183 258.325C464.349 254.633 464.743 250.741 464.342 246.89C463.94 243.04 462.751 239.313 460.848 235.941Z" fill="#496075"/>
</svg>
