<svg width="358" height="500" viewBox="0 0 358 500" fill="none" xmlns="http://www.w3.org/2000/svg">
<path d="M350.718 419.06H66.6012C64.9164 419.058 63.3009 418.389 62.1096 417.198C60.9183 416.008 60.2484 414.395 60.2464 412.711V6.3494C60.2484 4.66601 60.9183 3.0521 62.1096 1.86177C63.3009 0.671435 64.9164 0.00187829 66.6012 0H350.718C352.403 0.00188026 354.018 0.671436 355.209 1.86177C356.401 3.0521 357.072 4.66601 357.074 6.3494V412.711C357.072 414.395 356.401 416.008 355.209 417.198C354.018 418.389 352.403 419.058 350.718 419.06Z" fill="#496075"/>
<path d="M344.736 413.084H72.5829C70.8982 413.082 69.2826 412.413 68.0913 411.222C66.9 410.032 66.2291 408.419 66.2271 406.735V12.3254C66.2291 10.642 66.9 9.02806 68.0913 7.83773C69.2826 6.64738 70.8982 5.97783 72.5829 5.97595H344.736C346.422 5.97784 348.036 6.64738 349.229 7.83773C350.42 9.02806 351.09 10.642 351.092 12.3254V406.735C351.09 408.419 350.42 410.032 349.229 411.222C348.036 412.413 346.422 413.082 344.736 413.084Z" fill="#25313C"/>
<path d="M126.645 203.303C114.295 202.328 128.868 194.163 129.844 181.825C130.075 178.89 130.882 176.03 132.218 173.407C133.556 170.784 135.398 168.45 137.639 166.538C139.88 164.626 142.475 163.174 145.277 162.266C148.08 161.357 151.034 161.008 153.971 161.239C156.908 161.472 159.771 162.28 162.396 163.617C165.021 164.954 167.356 166.796 169.268 169.035C171.18 171.275 172.632 173.868 173.542 176.668C174.45 179.468 174.798 182.42 174.565 185.355C173.589 197.692 138.994 204.278 126.645 203.303Z" fill="#ED455D"/>
<path d="M245.219 126.49C242.283 126.258 239.421 125.451 236.797 124.114C234.173 122.778 231.838 120.937 229.925 118.698C228.013 116.46 226.561 113.868 225.651 111.068C224.742 108.27 224.393 105.319 224.626 102.385C225.601 90.0468 201.077 81.7935 213.426 82.7682C225.776 83.7428 270.322 93.5765 269.347 105.915C269.115 108.849 268.307 111.707 266.969 114.33C265.63 116.951 263.789 119.284 261.549 121.194C259.307 123.105 256.712 124.556 253.911 125.465C251.11 126.373 248.156 126.721 245.219 126.49Z" fill="#ED455D"/>
<path d="M272.25 98.3653C273.877 101.739 272.917 105.635 270.768 108.547C268.324 111.86 264.435 113.493 260.446 114.032C256.164 114.552 251.822 114.194 247.683 112.982C243.69 111.831 239.546 109.364 238.723 104.955C238.173 102.017 239.428 98.8813 242.482 98.0669C243.707 97.7574 244.991 97.7684 246.211 98.099C247.43 98.4295 248.544 99.0683 249.444 99.9539C251.98 102.591 251.787 106.823 250.176 109.886C248.28 113.488 244.487 115.476 240.587 116.132C235.951 116.912 231.293 115.823 226.931 114.273C222.191 112.588 217.592 110.49 212.948 108.563C203.89 104.805 194.637 101.275 184.897 99.7778C170.017 97.4914 152.358 101.051 143.248 114.085C138.332 121.12 136.939 129.944 137.997 138.339C139.113 147.19 143.001 155.326 148.149 162.529C150.875 166.276 153.851 169.835 157.058 173.18C158.102 174.194 158.82 175.496 159.122 176.919C159.423 178.342 159.295 179.822 158.753 181.172C155.931 188.099 144.648 185.892 143.808 178.752C143.426 175.507 145.238 172.165 147.501 169.964C150.07 167.563 153.307 165.997 156.786 165.471C164.107 164.25 171.846 166.961 177.442 171.671C183.764 176.993 187.323 185.08 189.198 192.953C191.333 201.917 191.441 211.135 191.644 220.298C191.851 229.673 192.208 239.16 194.901 248.21C197.09 255.494 200.47 262.367 204.905 268.548C213.759 281.003 226.348 290.324 240.852 295.163C244.36 296.301 247.958 297.143 251.607 297.68C253.035 297.892 253.205 295.657 251.783 295.447C235.877 293.09 221.25 284.486 210.779 272.392C205.531 266.358 201.384 259.451 198.525 251.985C195.11 242.993 194.245 233.441 193.966 223.898C193.681 214.15 193.836 204.316 191.883 194.714C190.156 186.226 186.769 177.629 180.496 171.445C174.966 165.992 167.053 162.618 159.233 162.98C151.957 163.317 144.176 167.321 142.014 174.738C140.999 178.219 141.645 181.955 144.304 184.539C145.82 185.977 147.706 186.966 149.75 187.398C151.795 187.83 153.919 187.686 155.888 186.985C158.027 186.061 159.744 184.375 160.708 182.255C161.671 180.135 161.81 177.733 161.098 175.516C160.499 173.888 159.538 172.418 158.285 171.218C151.721 164.213 145.697 156.376 142.429 147.257C139.379 138.751 138.755 128.965 142.271 120.501C148.927 104.478 168.246 99.6634 183.982 101.903C194.281 103.369 204.032 107.264 213.572 111.249C218.443 113.284 223.284 115.545 228.336 117.102C232.859 118.497 237.713 119.197 242.373 118.053C246.441 117.055 250.179 114.692 252.149 110.913C253.939 107.479 254.248 103.122 252.119 99.7589C249.043 94.8958 240.545 93.8019 237.448 99.264C235.395 102.889 236.403 107.529 239.102 110.535C242.127 113.905 246.657 115.282 250.993 115.976C259.185 117.289 269.273 116.258 273.657 108.173C275.462 104.843 275.949 100.872 274.269 97.3901C274.134 97.1328 273.903 96.9381 273.627 96.8473C273.351 96.7563 273.05 96.7761 272.788 96.9027C272.525 97.0291 272.323 97.2524 272.223 97.5253C272.122 97.7982 272.132 98.0994 272.25 98.3654V98.3653Z" fill="#B8CDE1"/>
<path d="M245.897 298.136C232.801 297.103 197.786 315.005 188.307 307.304C187.123 306.349 185.977 305.347 184.87 304.298C181.245 300.902 178.045 297.081 175.337 292.92C174.868 292.215 174.421 291.506 173.99 290.791C172.472 288.248 171.134 285.6 169.989 282.869C169.788 282.374 169.588 281.871 169.388 281.368C164.053 267.595 163.784 252.378 168.625 238.425C173.467 224.472 183.107 212.687 195.829 205.169C208.552 197.65 223.532 194.886 238.103 197.366C252.674 199.847 265.893 207.412 275.405 218.715C275.913 219.31 276.405 219.918 276.888 220.54C281.717 226.718 285.331 233.755 287.541 241.276C287.54 241.284 287.548 241.284 287.547 241.292C290.844 252.569 290.897 264.547 287.702 275.855L287.701 275.87C287.629 276.118 287.556 276.368 287.477 276.616C279.297 304.272 275.824 300.498 245.897 298.136Z" fill="#ED455D"/>
<path d="M170.272 282.899C170.177 282.9 170.082 282.89 169.989 282.869C169.788 282.374 169.588 281.871 169.388 281.368C169.473 281.157 169.619 280.977 169.808 280.852C169.998 280.725 170.222 280.66 170.448 280.664C171.582 280.661 172.712 280.531 173.817 280.279C183.407 278.113 188.999 268.304 191.394 259.546C194.333 248.831 194.374 237.317 199.687 227.321C201.751 223.212 204.785 219.669 208.528 216.996C212.638 214.213 217.631 213.047 222.55 213.719C234.121 215.247 242.568 224.148 253.311 227.814C257.736 229.325 262.446 229.696 266.873 227.978C270.633 226.521 274.063 223.644 274.84 219.51C274.865 219.343 274.93 219.183 275.028 219.045C275.127 218.908 275.255 218.795 275.405 218.715C275.913 219.31 276.405 219.918 276.889 220.54C276.715 221.287 276.464 222.013 276.14 222.706C274.251 226.664 270.487 229.221 266.388 230.502C261.644 231.978 256.708 231.417 252.091 229.764C241.326 225.909 232.472 216.383 220.586 215.79C210.285 215.277 203.165 223.736 199.737 232.562C195.499 243.483 196.128 255.723 191.37 266.483C187.626 274.947 180.122 282.86 170.272 282.899Z" fill="#B8CDE1"/>
<path d="M175.337 292.92C174.868 292.215 174.421 291.506 173.99 290.791C174.094 290.707 174.216 290.647 174.345 290.615C174.475 290.582 174.609 290.578 174.74 290.602C184.353 291.735 194.035 289.157 201.808 283.395C205.218 280.903 208.183 277.854 210.576 274.376C213.061 270.735 214.562 266.642 216.247 262.602C217.904 258.626 219.849 254.606 223.144 251.726C226.504 248.793 230.839 247.561 235.229 247.428C245.634 247.117 254.707 253.026 264.833 254.244C269.351 254.789 273.834 254.138 277.701 251.619C281.038 249.44 283.468 246.027 283.312 241.931C283.254 240.577 285.227 240.666 285.516 241.858C285.535 241.94 285.546 242.023 285.548 242.107C285.726 246.872 282.794 250.949 278.934 253.47C274.45 256.405 269.21 257.13 263.967 256.387C253.82 254.942 244.443 248.807 233.945 249.731C231.741 249.859 229.59 250.447 227.629 251.457C225.668 252.468 223.942 253.88 222.561 255.599C219.798 259.143 218.338 263.471 216.633 267.578C215.016 271.681 212.754 275.502 209.934 278.896C207.08 282.208 203.713 285.044 199.962 287.296C192.584 291.795 183.939 293.768 175.337 292.92Z" fill="#B8CDE1"/>
<path d="M188.307 307.304C187.123 306.349 185.977 305.347 184.87 304.298C190.583 305.751 196.534 305.998 202.347 305.025C209.662 303.853 216.562 300.856 222.409 296.313C225.321 294.035 227.89 291.351 230.037 288.343C232.484 284.902 234.623 281.099 238.313 278.82C246.323 273.877 255.911 278.396 263.909 280.825C268.083 282.098 272.568 282.962 276.819 281.552C280.116 280.456 283.316 278.026 283.966 274.436C284.221 273.024 286.465 273.194 286.203 274.612C286.151 274.878 286.093 275.142 286.027 275.407C284.999 279.305 281.806 282.118 278.039 283.484C273.121 285.254 268.027 284.425 263.142 282.938C255.108 280.49 244.608 275.458 237.339 282.4C234.273 285.328 232.391 289.293 229.627 292.491C227.16 295.358 224.314 297.877 221.167 299.976C211.503 306.407 199.791 309.019 188.307 307.304Z" fill="#B8CDE1"/>
<path d="M37.2632 249.766L38.6641 262.75L37.8398 279.776L75.5853 275.296L79.1332 249.766L74.6135 249.811L37.2632 249.766Z" fill="#FFB6B6"/>
<path d="M82.303 209.53L70.6324 205.218L65.6455 197.983L47.7074 196.19L36.6425 203.273L27.3659 207.992L27.5247 232.633L38.1898 276.76L76.3213 275.266L81.3403 243.8C81.3403 243.8 93.0009 228.153 80.4438 219.191L82.303 209.53Z" fill="#B8CDE1"/>
<path d="M17.6842 485.496H25.9371L29.8639 453.693H17.6842V485.496Z" fill="#FFB6B6"/>
<path d="M14.9911 479.849L28.1755 479.062V484.706L40.7108 493.356C41.3296 493.783 41.7959 494.396 42.0416 495.106C42.2862 495.818 42.2983 496.587 42.0746 497.306C41.85 498.023 41.4028 498.65 40.7961 499.096C40.1904 499.541 39.4573 499.782 38.7052 499.782H23.0088L20.3032 494.199L19.2469 499.782H13.3286L14.9911 479.849Z" fill="#496075"/>
<path d="M64.04 485.496H72.2931L76.22 453.693H64.04V485.496Z" fill="#FFB6B6"/>
<path d="M61.3465 479.849L74.5313 479.062V484.706L87.0663 493.356C87.6851 493.783 88.1514 494.396 88.3971 495.106C88.6427 495.818 88.6538 496.587 88.4301 497.306C88.2065 498.023 87.7583 498.65 87.1526 499.096C86.5459 499.541 85.8138 499.782 85.0607 499.782H69.3649L66.6593 494.199L65.6024 499.782H59.6848L61.3465 479.849Z" fill="#496075"/>
<path d="M14.1236 458.071H14.2133L15.8005 406.363C14.7734 404.383 14.2521 402.18 14.2831 399.951C14.3141 397.722 14.8963 395.535 15.9781 393.585L16.2053 393.174L15.6161 390.446C14.8594 386.94 15.2066 383.287 16.6102 379.986L18.0909 331.751C12.8011 297.5 38.0103 275.163 38.0103 275.163H75.7738L83.8814 302.993C89.2414 355.163 88.2687 406.001 79.7639 455.255L79.9956 455.372C80.8299 455.66 81.1889 456.816 80.7958 457.953C80.4027 459.09 79.4069 459.78 78.5726 459.492L58.6289 458.799C57.7936 458.511 57.4356 457.355 57.8287 456.217C58.2218 455.08 59.2165 454.391 60.0519 454.679L61.4077 455.365L58.5156 405.467L58.8365 396.353L58.1756 386.013L55.1191 339.505L43.5478 396.697L31.7278 458.647C32.0547 458.942 32.2833 459.329 32.3846 459.756C32.4859 460.183 32.4548 460.631 32.2963 461.041C32.1379 461.451 31.8581 461.804 31.4951 462.051C31.1321 462.299 30.7019 462.431 30.2621 462.429H14.1236C13.5452 462.429 12.9904 462.199 12.5815 461.791C12.1724 461.383 11.9427 460.828 11.9427 460.251C11.9427 459.672 12.1724 459.118 12.5815 458.709C12.9904 458.301 13.5452 458.071 14.1236 458.071Z" fill="#496075"/>
<path d="M10.1975 311.575C9.4769 310.881 8.91744 310.037 8.55834 309.104C8.19933 308.17 8.04962 307.169 8.11961 306.172C8.18961 305.174 8.47771 304.204 8.96357 303.33C9.44943 302.456 10.1212 301.698 10.9318 301.111L20.9934 239.41L32.7937 243.558L20.8363 302.996C21.7328 304.422 22.0748 306.126 21.7973 307.787C21.5198 309.448 20.6423 310.949 19.3309 312.006C18.0196 313.064 16.3654 313.604 14.6821 313.524C12.9987 313.445 11.4031 312.751 10.1975 311.575Z" fill="#FFB6B6"/>
<path d="M28.9525 207.937C28.9525 207.937 25.5679 206.662 24.3395 214.219C23.3561 220.271 13.7551 256.79 14.6634 265.252C13.5366 265.645 12.5733 266.403 11.9249 267.405C11.2766 268.406 10.9802 269.595 11.0825 270.784L28.7862 270.874C31.4971 267.92 31.8481 264.356 30.5394 263.48L32.9893 252.683L44.5235 217.85L31.4159 208.815L28.9525 207.937Z" fill="#B8CDE1"/>
<path d="M91.7033 314.201C92.4814 313.572 93.1112 312.779 93.5494 311.881C93.9876 310.981 94.2233 309.997 94.2394 308.997C94.2554 307.997 94.0518 307.006 93.6427 306.093C93.2345 305.18 92.6299 304.368 91.8727 303.713L88.2837 241.65L75.0497 244.494L81.8427 304.739C80.8269 306.083 80.3395 307.751 80.4729 309.43C80.6063 311.109 81.3514 312.68 82.5667 313.847C83.7821 315.013 85.3836 315.693 87.0673 315.758C88.752 315.824 90.4006 315.269 91.7033 314.201Z" fill="#FFB6B6"/>
<path d="M81.944 209.336C81.944 209.336 85.4257 208.357 85.9993 215.992C86.4576 222.104 92.8776 259.314 91.244 267.665C92.332 268.155 93.2275 268.993 93.7871 270.047C94.3467 271.1 94.5392 272.31 94.3346 273.485L76.6893 272.053C74.2425 268.878 74.1994 265.297 75.5792 264.536L74.069 253.569L65.5773 217.873L79.415 209.998L81.944 209.336Z" fill="#B8CDE1"/>
<path d="M48.8054 194.918C58.665 194.918 66.6573 186.933 66.6573 177.082C66.6573 167.233 58.665 159.248 48.8054 159.248C38.9469 159.248 30.9543 167.233 30.9543 177.082C30.9543 186.933 38.9469 194.918 48.8054 194.918Z" fill="#FFB8B8"/>
<path d="M13.3278 214.564C9.55026 213.226 5.7726 211.887 1.99505 210.544C2.64617 209.453 3.47529 208.478 4.44831 207.659C8.04495 204.659 13.0094 204.117 17.5759 203.104C22.1496 202.092 27.114 200.017 28.7858 195.65C30.5225 191.11 28.0042 186.207 26.5423 181.58C24.4943 175.124 24.5377 167.916 27.2805 161.726C30.0232 155.537 35.5955 150.52 42.21 149.045C48.8245 147.577 56.3004 149.97 60.3667 155.379C62.988 154.593 65.8049 154.794 68.2878 155.942C70.7698 157.09 72.7463 159.106 73.8424 161.611C74.79 163.982 74.8191 166.838 73.4081 168.971C71.9972 171.104 68.9788 172.195 66.7064 171.01L68.0241 167.669C63.9497 169.05 61.3003 176.411 61.8509 180.676C62.3934 184.935 64.8833 188.666 67.4084 192.143C69.9344 195.621 72.6259 199.135 73.712 203.293C75.2753 209.272 73.1614 215.808 69.2545 220.601C65.3466 225.395 59.8392 228.648 54.1363 231.042C49.8674 232.835 45.431 234.201 40.8933 235.12C41.7036 233.544 42.5068 231.968 43.3171 230.391L33.6992 236.204C31.84 236.385 29.9654 236.494 28.0911 236.53C22.6345 236.623 17.0695 236.052 12.0759 233.877C7.07534 231.692 2.68257 227.737 0.873319 222.597C0.293299 220.935 0.0187316 219.18 0.0629552 217.421C4.48451 216.466 8.90616 215.514 13.3278 214.564Z" fill="#496075"/>
</svg>
