<svg width="500" height="401" viewBox="0 0 500 401" fill="none" xmlns="http://www.w3.org/2000/svg">
<path d="M492.925 242.247H394.032C393.181 242.246 392.364 241.907 391.761 241.305C391.16 240.703 390.821 239.888 390.82 239.037V161.692C390.821 160.841 391.16 160.024 391.761 159.423C392.363 158.821 393.18 158.483 394.031 158.481H492.926C493.777 158.483 494.593 158.821 495.196 159.423C495.798 160.025 496.136 160.842 496.137 161.694V239.035C496.136 239.887 495.798 240.703 495.196 241.305C494.592 241.907 493.776 242.246 492.925 242.247Z" fill="#25313C" stroke="#496075" stroke-width="7"/>
<path d="M454.574 223.245H404.923C404.861 223.246 404.799 223.241 404.737 223.23L428.221 182.559C428.363 182.306 428.572 182.095 428.823 181.949C429.075 181.802 429.36 181.725 429.652 181.725C429.942 181.725 430.228 181.802 430.48 181.949C430.731 182.095 430.939 182.306 431.082 182.559L446.842 209.852L447.597 211.158L454.574 223.245Z" fill="#B8CDE1"/>
<path opacity="0.2" d="M454.574 223.245H437.623L445.944 211.16L446.544 210.289L446.841 209.853L447.597 211.16L454.574 223.245Z" fill="#496075"/>
<path d="M482.22 223.245H439.276L447.597 211.158L448.196 210.288L459.04 194.537C459.232 194.297 459.472 194.099 459.745 193.957C460.019 193.815 460.317 193.733 460.625 193.714C460.932 193.696 461.239 193.743 461.528 193.851C461.815 193.959 462.078 194.127 462.297 194.342C462.353 194.404 462.405 194.47 462.453 194.537L482.22 223.245Z" fill="#496075"/>
<path d="M480.209 182.401C484.271 182.401 487.564 179.109 487.564 175.047C487.564 170.985 484.271 167.692 480.209 167.692C476.147 167.692 472.853 170.985 472.853 175.047C472.853 179.109 476.147 182.401 480.209 182.401Z" fill="#ED455D"/>
<path d="M239.928 198.036H6.88601C6.31008 198.036 5.75778 197.807 5.35049 197.399C4.94372 196.992 4.71466 196.441 4.71341 195.865V6.90459C4.71456 6.3286 4.94362 5.77762 5.35039 5.37141C5.75726 4.96416 6.30862 4.73502 6.88393 4.73398H239.93C240.505 4.73502 241.056 4.96416 241.463 5.37141C241.871 5.77866 242.1 6.33069 242.1 6.90667V195.863C242.1 196.439 241.871 196.992 241.463 197.399C241.056 197.807 240.504 198.036 239.928 198.036Z" fill="#25313C" stroke="#496075" stroke-width="9"/>
<path d="M149.996 156.215H31.0157C30.8667 156.217 30.718 156.206 30.5712 156.18L86.8434 58.719C87.1861 58.1118 87.6851 57.6066 88.2872 57.2556C88.8903 56.9046 89.5747 56.7192 90.2726 56.7192C90.9695 56.7192 91.6549 56.9046 92.257 57.2556C92.8601 57.6066 93.358 58.1118 93.7017 58.719L131.467 124.123L133.277 127.253L149.996 156.215Z" fill="#B8CDE1"/>
<path opacity="0.2" d="M149.996 156.215H109.373L129.314 127.253L130.75 125.165L131.467 124.123L133.277 127.253L149.996 156.215Z" fill="#496075"/>
<path d="M216.242 156.215H113.335L133.277 127.253L134.711 125.166L160.697 87.4223C161.157 86.8452 161.732 86.3713 162.386 86.0318C163.041 85.6922 163.759 85.4943 164.496 85.4506C165.232 85.4058 165.969 85.5173 166.659 85.7766C167.349 86.036 167.977 86.438 168.502 86.9557C168.636 87.1025 168.761 87.2587 168.876 87.4223L216.242 156.215Z" fill="#496075"/>
<path d="M209.186 56.3453C218.921 56.3453 226.811 48.4555 226.811 38.7221C226.811 28.9887 218.921 21.0979 209.186 21.0979C199.451 21.0979 191.56 28.9887 191.56 38.7221C191.56 48.4555 199.451 56.3453 209.186 56.3453Z" fill="#ED455D"/>
<path d="M289.627 192.861C291.215 191.988 293.059 191.695 294.84 192.033L322.767 165.939L318.131 142.671L336.467 143.665L338.106 171.906L301.16 200.676C300.998 202.008 300.497 203.276 299.703 204.358C298.91 205.44 297.852 206.301 296.63 206.856C295.409 207.412 294.065 207.644 292.728 207.532C291.39 207.418 290.105 206.964 288.995 206.211C287.883 205.458 286.984 204.433 286.384 203.233C285.784 202.033 285.502 200.699 285.565 199.359C285.629 198.018 286.035 196.717 286.747 195.579C287.458 194.441 288.45 193.505 289.627 192.861Z" fill="#FFB6B6"/>
<path d="M258.789 389.28H246.785L241.074 342.98H258.791L258.789 389.28Z" fill="#FFB6B6"/>
<path d="M261.851 400.916L223.142 400.915V400.425C223.142 396.43 224.73 392.598 227.555 389.772C230.381 386.947 234.213 385.36 238.209 385.36L261.852 385.361L261.851 400.916Z" fill="#496075"/>
<path d="M348.878 389.28H336.873L331.161 342.98H348.879L348.878 389.28Z" fill="#FFB6B6"/>
<path d="M351.938 400.916L313.23 400.915V400.425C313.23 396.43 314.817 392.598 317.642 389.772C320.469 386.947 324.301 385.36 328.297 385.36H328.298L351.939 385.361L351.938 400.916Z" fill="#496075"/>
<path d="M326.983 128.969C325.533 127.139 323.478 125.887 321.186 125.44C318.896 124.992 316.52 125.379 314.488 126.53C312.481 127.668 310.94 129.478 310.138 131.642C309.336 133.806 309.325 136.183 310.107 138.355L315.994 154.705L340.105 145.543L326.983 128.969Z" fill="#B8CDE1"/>
<path d="M324.817 201.176C323.721 200.353 322.54 199.646 321.298 199.066L277.415 205.816L278.379 233.3C257.155 273.358 243.12 319.057 235.46 369.758L262.948 376.027C275.248 328.384 289.217 285.631 306.831 253.552L325.398 374.867L356.983 374.098C352.824 302.78 349.613 219.64 324.817 201.176Z" fill="#496075"/>
<path d="M292.064 122.061C301.511 122.061 309.168 114.404 309.168 104.959C309.168 95.5131 301.511 87.8556 292.064 87.8556C282.617 87.8556 274.96 95.5131 274.96 104.959C274.96 114.404 282.617 122.061 292.064 122.061Z" fill="#FFB6B6"/>
<path d="M329.678 148.907C330.46 144.178 329.691 139.321 327.486 135.064C325.28 130.808 321.756 127.38 317.44 125.291L298.151 126.256C295.011 127.069 292.098 128.588 289.633 130.696C287.168 132.805 285.218 135.449 283.929 138.424C275.568 157.99 274.378 183.006 277.898 211.602L323.585 200.735C317.32 186.628 322.356 168.204 329.678 148.907Z" fill="#B8CDE1"/>
<path d="M270.856 100.788C270.856 98.4732 271.311 96.1818 272.198 94.0435C273.083 91.9051 274.382 89.9616 276.018 88.3253C277.655 86.689 279.598 85.3912 281.736 84.5049C283.875 83.6195 286.166 83.1633 288.482 83.1633H289.492C292.685 80.625 296.643 79.245 300.722 79.2471C305.526 79.2471 310.134 81.1552 313.531 84.5528C316.929 87.9493 318.837 92.5561 318.837 97.3608V120.37C307.125 120.078 293.859 122.386 279.668 126.244C283.246 116.338 285.623 107.231 283.999 100.788H270.856Z" fill="#496075"/>
<path d="M234.625 180.096C236.438 180.093 238.196 180.722 239.595 181.875L276.627 172.409L283.743 149.776L299.346 159.459L287.211 185.013L240.984 192.491C240.202 193.581 239.152 194.452 237.936 195.02C236.721 195.587 235.379 195.834 234.041 195.734C232.703 195.634 231.412 195.192 230.295 194.451C229.176 193.709 228.266 192.694 227.654 191.499C227.042 190.305 226.747 188.974 226.797 187.634C226.847 186.292 227.24 184.987 227.94 183.843C228.64 182.698 229.623 181.752 230.792 181.096C231.963 180.44 233.283 180.095 234.625 180.096Z" fill="#FFB6B6"/>
<path d="M306.827 142.92C307.496 140.684 307.343 138.282 306.397 136.148C305.45 134.014 303.771 132.29 301.663 131.286C299.58 130.293 297.213 130.068 294.98 130.651C292.748 131.235 290.792 132.589 289.462 134.474L279.438 148.669L300.767 163.172L306.827 142.92Z" fill="#B8CDE1"/>
</svg>
