<svg width="500" height="411" viewBox="0 0 500 411" fill="none" xmlns="http://www.w3.org/2000/svg">
<g clip-path="url(#clip0_2675_1127)">
<path d="M482.701 108.916L322.849 96.4751C320.368 96.2792 318.065 95.1063 316.447 93.2145C314.828 91.3218 314.027 88.8652 314.217 86.3823L321.147 8.68134C321.343 6.1988 322.515 3.8954 324.406 2.2764C326.298 0.657493 328.754 -0.144893 331.236 0.0454818L491.088 12.4868C493.569 12.6827 495.872 13.8554 497.49 15.7475C499.109 17.6397 499.91 20.0968 499.72 22.5797L492.79 100.28C492.594 102.763 491.422 105.066 489.531 106.686C487.639 108.304 485.184 109.106 482.701 108.916Z" fill="#496075"/>
<path d="M444.943 91.3627C443.729 91.3627 442.512 91.315 441.289 91.2205L337.982 83.1796C335.916 83.0195 333.903 82.453 332.056 81.5135C330.209 80.574 328.565 79.2801 327.218 77.7052C325.871 76.1302 324.847 74.3057 324.205 72.3346C323.564 70.3644 323.316 68.2861 323.476 66.2196L325.832 35.9247C326.161 31.7528 328.131 27.8818 331.309 25.1611C334.488 22.4403 338.615 21.0919 342.785 21.4119L476.374 31.8091C480.544 32.1385 484.413 34.1092 487.133 37.2887C489.852 40.4683 491.2 44.5972 490.88 48.7696C489.979 60.3473 484.751 71.16 476.237 79.0535C467.724 86.9479 456.55 91.3423 444.943 91.3627Z" fill="#25313C"/>
<path d="M473.178 55.8926L342.22 45.7002C341.948 45.679 341.682 45.6042 341.438 45.4802C341.194 45.3561 340.977 45.1851 340.799 44.9771C340.621 44.7691 340.485 44.528 340.401 44.2677C340.316 44.0074 340.283 43.733 340.305 43.4601C340.326 43.1871 340.4 42.921 340.524 42.6769C340.649 42.4329 340.819 42.2157 341.027 42.0377C341.235 41.8597 341.476 41.7245 341.737 41.6396C341.996 41.5548 342.271 41.522 342.544 41.5433L473.501 51.7356C473.774 51.7569 474.04 51.8317 474.284 51.9557C474.528 52.0798 474.745 52.2508 474.923 52.4588C475.101 52.6668 475.236 52.9079 475.321 53.1682C475.405 53.4285 475.438 53.7029 475.417 53.9758C475.396 54.2488 475.321 54.5149 475.197 54.759C475.073 55.003 474.902 55.2202 474.694 55.3982C474.486 55.5762 474.245 55.7114 473.985 55.7963C473.725 55.8811 473.45 55.9139 473.178 55.8926Z" fill="#B8CDE1"/>
<path d="M418.801 59.9232L341.581 53.9132C341.031 53.87 340.52 53.6097 340.161 53.1897C339.802 52.7696 339.624 52.2241 339.667 51.673C339.71 51.122 339.97 50.6105 340.389 50.2511C340.809 49.8915 341.354 49.7135 341.905 49.7561L419.124 55.766C419.397 55.7872 419.663 55.8618 419.907 55.9858C420.151 56.1098 420.369 56.2808 420.547 56.4888C420.725 56.6969 420.86 56.938 420.945 57.1984C421.03 57.4588 421.063 57.7333 421.041 58.0064C421.02 58.2795 420.945 58.5457 420.821 58.7899C420.697 59.034 420.526 59.2512 420.318 59.4292C420.11 59.6073 419.869 59.7425 419.609 59.8273C419.348 59.912 419.074 59.9447 418.801 59.9232Z" fill="#B8CDE1"/>
<path d="M435.811 69.51L340.943 62.1265C340.67 62.1054 340.404 62.0307 340.16 61.9066C339.916 61.7826 339.698 61.6118 339.52 61.4037C339.342 61.1957 339.208 60.9545 339.122 60.6941C339.037 60.4337 339.005 60.1591 339.026 59.886C339.047 59.613 339.122 59.3468 339.246 59.1026C339.37 58.8585 339.541 58.6412 339.749 58.4632C339.957 58.2853 340.198 58.15 340.459 58.0652C340.719 57.9805 340.994 57.9479 341.266 57.9693L436.134 65.3529C436.685 65.3961 437.196 65.6563 437.555 66.0764C437.915 66.4964 438.092 67.042 438.049 67.593C438.007 68.1441 437.747 68.6556 437.327 69.0151C436.907 69.3745 436.362 69.5525 435.811 69.51Z" fill="#B8CDE1"/>
<path d="M472.005 214.394L312.152 201.953C309.671 201.757 307.369 200.584 305.75 198.691C304.133 196.8 303.33 194.342 303.52 191.86L310.45 114.159C310.646 111.676 311.818 109.373 313.709 107.754C315.601 106.135 318.057 105.333 320.539 105.523L480.391 117.964C482.873 118.16 485.175 119.333 486.794 121.226C488.412 123.117 489.213 125.575 489.023 128.057L482.093 205.758C481.897 208.241 480.725 210.544 478.834 212.163C476.943 213.782 474.487 214.584 472.005 214.394Z" fill="#496075"/>
<path d="M434.205 196.839C433.009 196.839 431.805 196.792 430.593 196.697L327.286 188.657C325.22 188.496 323.206 187.931 321.359 186.991C319.512 186.052 317.868 184.758 316.522 183.183C315.174 181.608 314.15 179.783 313.509 177.812C312.867 175.841 312.619 173.764 312.78 171.697L315.135 141.403C315.296 139.336 315.862 137.321 316.801 135.473C317.74 133.626 319.034 131.981 320.608 130.634C322.182 129.286 324.006 128.261 325.977 127.619C327.946 126.977 330.024 126.729 332.089 126.89L465.678 137.287C467.743 137.448 469.757 138.014 471.604 138.953C473.45 139.892 475.094 141.186 476.442 142.761C477.788 144.336 478.812 146.162 479.454 148.132C480.097 150.103 480.344 152.181 480.184 154.248C479.269 165.827 474.03 176.638 465.511 184.53C456.992 192.421 445.816 196.816 434.205 196.839Z" fill="#25313C"/>
<path d="M462.481 161.37L331.524 151.178C331.251 151.157 330.985 151.082 330.741 150.958C330.497 150.834 330.28 150.663 330.102 150.455C329.924 150.247 329.788 150.006 329.704 149.745C329.619 149.485 329.587 149.21 329.608 148.938C329.629 148.665 329.704 148.398 329.828 148.155C329.952 147.91 330.122 147.693 330.33 147.515C330.539 147.337 330.779 147.202 331.04 147.117C331.3 147.032 331.574 147 331.847 147.021L462.805 157.214C463.077 157.235 463.343 157.309 463.587 157.433C463.831 157.558 464.048 157.728 464.226 157.937C464.404 158.145 464.539 158.386 464.624 158.645C464.708 158.906 464.742 159.18 464.72 159.454C464.699 159.726 464.624 159.992 464.501 160.237C464.376 160.48 464.205 160.697 463.997 160.875C463.789 161.054 463.548 161.189 463.288 161.274C463.028 161.358 462.754 161.392 462.481 161.37Z" fill="#B8CDE1"/>
<path d="M408.104 165.401L330.886 159.391C330.612 159.37 330.346 159.295 330.102 159.171C329.857 159.048 329.64 158.876 329.462 158.669C329.284 158.46 329.149 158.219 329.064 157.959C328.979 157.698 328.947 157.424 328.968 157.151C328.989 156.877 329.064 156.611 329.188 156.367C329.312 156.123 329.484 155.906 329.691 155.728C329.899 155.55 330.14 155.415 330.401 155.33C330.661 155.245 330.936 155.213 331.208 155.234L408.427 161.244C408.978 161.287 409.489 161.548 409.848 161.968C410.208 162.387 410.386 162.933 410.342 163.484C410.299 164.035 410.04 164.547 409.62 164.906C409.2 165.266 408.655 165.444 408.104 165.401Z" fill="#B8CDE1"/>
<path d="M425.115 174.988L330.247 167.604C329.696 167.561 329.184 167.301 328.824 166.881C328.466 166.461 328.288 165.915 328.33 165.364C328.373 164.812 328.633 164.301 329.053 163.941C329.473 163.582 330.018 163.404 330.57 163.447L425.438 170.83C425.989 170.874 426.501 171.134 426.859 171.553C427.219 171.973 427.397 172.519 427.354 173.071C427.311 173.622 427.051 174.134 426.631 174.493C426.211 174.852 425.666 175.03 425.115 174.988Z" fill="#B8CDE1"/>
<path d="M462.353 208.894L452.855 158.309L434.209 133.755L420.391 142.794C422.343 153.389 437.113 173.168 437.113 173.168L450.205 212.289C450.152 212.493 450.104 212.698 450.069 212.91C449.861 214.147 449.976 215.417 450.403 216.598C450.829 217.778 451.553 218.828 452.504 219.647C453.455 220.466 454.6 221.025 455.83 221.271C457.06 221.518 458.333 221.442 459.525 221.052C460.718 220.663 461.789 219.972 462.637 219.047C463.484 218.121 464.08 216.993 464.363 215.771C464.648 214.548 464.612 213.273 464.26 212.069C463.908 210.864 463.251 209.771 462.353 208.894Z" fill="#FFB8B8"/>
<path d="M420.762 148.139L436.406 135.435L436.436 135.368C439.362 128.735 432.865 117.36 426.9 108.987C424.931 106.227 421.988 104.319 418.666 103.647C415.344 102.976 411.891 103.591 409.005 105.369C406.885 106.695 405.178 108.588 404.077 110.833C402.976 113.078 402.524 115.588 402.774 118.076L404.09 130.749L420.762 148.139Z" fill="#25313C"/>
<path d="M365.472 399.884L355.062 399.883L350.11 359.715L365.473 359.716L365.472 399.884Z" fill="#FFB8B8"/>
<path d="M368.127 396.484H365.196L353.758 391.829L347.627 396.483H347.627C344.162 396.483 340.839 397.86 338.389 400.311C335.939 402.762 334.563 406.086 334.563 409.553V409.977L368.126 409.979L368.127 396.484Z" fill="#496075"/>
<path d="M411.658 399.884L401.249 399.883L396.298 359.715L411.661 359.716L411.658 399.884Z" fill="#FFB8B8"/>
<path d="M414.314 396.484H411.384L399.945 391.829L393.814 396.483H393.813C390.349 396.483 387.026 397.86 384.576 400.311C382.127 402.762 380.75 406.086 380.75 409.553V409.977L414.313 409.979L414.314 396.484Z" fill="#496075"/>
<path d="M427.53 226.87C427.53 226.87 428.746 241.462 425.707 255.445C422.668 269.429 422.668 308.812 422.668 308.812L415.983 385.556L395.929 383.732L390.46 255.445L371.012 298.613L372.835 304.692L370.407 306.213C370.407 306.213 372.227 318.069 371.012 318.069C369.797 318.069 366.758 319.893 366.758 319.893L369.189 382.516L348.526 381.908L341.233 293.749L349.134 243.285L349.742 233.558L352.477 233.67L353.868 229.606L356.426 222.614L427.53 226.87Z" fill="#496075"/>
<path d="M428.581 229.934L428.689 229.783C434.473 221.68 425.774 202.211 424.461 199.388L429.988 197.594L428.743 187.01L428.154 182.292L432.378 178.066L432.39 177.961L434.821 156.68L438.356 142.547C439.687 137.204 439.574 131.603 438.026 126.318C436.479 121.033 433.554 116.255 429.552 112.475L421.382 104.769L411.453 90.0714H395.442L389.952 100.445C384.629 101.676 379.907 104.736 376.607 109.092C373.307 113.448 371.64 118.824 371.895 124.284L373.139 151.492L368.268 185.37L368.265 191.501L362.783 197.596L363.981 203.583L359.809 205.372L357.966 213.972C357.204 214.979 352.173 221.691 352.173 223.525C352.173 223.801 352.375 224.067 352.812 224.363C356.241 226.686 375.195 231.422 383.583 228.064C392.518 224.49 428.038 229.852 428.396 229.906L428.581 229.934Z" fill="#ED455D"/>
<path d="M401.379 85.326C413.09 85.326 422.584 75.8286 422.584 64.1118C422.584 52.3953 413.09 42.8972 401.379 42.8972C389.668 42.8972 380.173 52.3953 380.173 64.1118C380.173 75.8286 389.668 85.326 401.379 85.326Z" fill="#FFB8B8"/>
<path d="M399.347 85.6702C402.632 85.6361 405.907 85.3218 409.138 84.7306C412.335 83.9938 419.392 78.5347 421.316 75.3099C422.744 72.9138 423.602 69.2077 424.07 66.5208C424.702 62.9647 424.58 59.3156 423.713 55.8096C422.845 52.3036 421.251 49.0191 419.034 46.1685C418.179 44.9743 417.018 44.0334 415.673 43.4453C415.554 43.4022 415.432 43.3645 415.308 43.3328C413.358 42.873 411.59 41.8406 410.23 40.3682C409.967 40.0701 409.682 39.7914 409.378 39.5342C407.853 38.3128 406.061 37.4698 404.148 37.0741C401.058 36.3316 396.638 37.262 391.01 39.8418C388.183 41.138 385.045 40.7764 382.626 40.3165C382.49 40.2939 382.351 40.3072 382.222 40.3552C382.093 40.403 381.979 40.484 381.891 40.5897C380.892 41.5772 379.558 42.1501 378.154 42.193C377.295 42.253 376.424 43.4672 375.374 45.0484C375.136 45.4073 374.857 45.8261 374.656 46.0817L374.616 45.6017L374.143 46.1506C373.4 47.0133 372.888 48.05 372.654 49.1641C372.42 50.2783 372.471 51.4336 372.803 52.5226C373.135 53.6116 373.737 54.5988 374.553 55.3922C375.369 56.1857 376.373 56.7597 377.471 57.0606C378.341 57.2685 379.23 57.3869 380.126 57.4139C380.668 57.4486 381.229 57.4846 381.768 57.5639C383.499 57.8721 385.121 58.6242 386.474 59.7465C387.828 60.8689 388.868 62.3233 389.492 63.9677C389.639 64.3477 389.872 64.6887 390.172 64.9645C390.472 65.2403 390.831 65.4433 391.222 65.5581C391.613 65.6729 392.025 65.6962 392.426 65.6263C392.828 65.5564 393.207 65.3953 393.537 65.1552C394.085 64.7053 394.733 64.3947 395.426 64.2497C396.12 64.1048 396.839 64.1299 397.52 64.3227C398.113 64.6328 398.581 65.1374 398.846 65.7519C399.167 66.4358 399.685 67.0087 400.332 67.3974C402.54 68.465 402.818 73.4393 402.143 77.6097C401.492 81.6301 400.075 84.5628 398.699 84.7409C397.638 84.8789 397.519 84.9572 397.447 85.1472L397.383 85.3175L397.506 85.4717C398.098 85.6693 398.726 85.7375 399.347 85.6702Z" fill="#496075"/>
<path d="M235.303 133.874C258.59 133.874 277.468 114.988 277.468 91.6898C277.468 68.3928 258.59 49.5065 235.303 49.5065C212.016 49.5065 193.138 68.3928 193.138 91.6898C193.138 114.988 212.016 133.874 235.303 133.874Z" fill="#496075"/>
<path d="M394.463 146.559L380.555 137.66C371.698 143.789 359.729 165.379 359.729 165.379L329.436 193.378C328.173 193.594 326.99 194.14 326.006 194.96C325.022 195.778 324.271 196.843 323.828 198.045C323.386 199.247 323.268 200.545 323.486 201.807C323.704 203.07 324.25 204.252 325.07 205.236C325.891 206.22 326.955 206.97 328.157 207.411C329.359 207.852 330.656 207.969 331.918 207.749C333.179 207.53 334.361 206.981 335.343 206.16C336.326 205.338 337.074 204.272 337.514 203.069L379.732 173.645L394.463 146.559Z" fill="#FFB8B8"/>
<path d="M393.138 150.169L402.401 127.927L399.051 115.635C398.384 113.225 397.057 111.048 395.219 109.352C393.38 107.657 391.105 106.509 388.65 106.04C385.317 105.425 381.875 106.099 379.02 107.927C376.165 109.754 374.11 112.598 373.271 115.883C370.734 125.848 368.786 138.802 373.91 143.929L373.962 143.981L393.138 150.169Z" fill="#ED455D"/>
<path d="M91.0823 166.898L92.4477 179.572L91.6445 196.192L128.441 191.818L131.898 166.898L127.493 166.941L91.0823 166.898Z" fill="#FFB6B6"/>
<path d="M71.9971 397.008H80.0414L83.8702 365.964H71.9971V397.008Z" fill="#FFB6B6"/>
<path d="M69.3711 391.495L82.2237 390.727V396.237L94.4426 404.68C95.0465 405.096 95.5014 405.696 95.7407 406.389C95.9792 407.083 95.9912 407.835 95.7723 408.536C95.5542 409.236 95.1181 409.848 94.527 410.284C93.9367 410.718 93.222 410.952 92.4886 410.952H77.1871L74.55 405.503L73.5201 410.952H67.7501L69.3711 391.495Z" fill="#496075"/>
<path d="M117.186 397.008H125.231L129.059 365.964H117.186V397.008Z" fill="#FFB6B6"/>
<path d="M114.56 391.495L127.413 390.727V396.237L139.633 404.68C140.236 405.096 140.69 405.696 140.93 406.389C141.168 407.083 141.18 407.835 140.961 408.536C140.743 409.236 140.307 409.848 139.716 410.284C139.126 410.718 138.411 410.952 137.678 410.952H122.376L119.738 405.503L118.709 410.952H112.939L114.56 391.495Z" fill="#496075"/>
<path d="M68.5253 370.237H68.613L70.1598 319.761C69.159 317.829 68.6505 315.679 68.6811 313.502C68.7109 311.326 69.2791 309.192 70.3336 307.288L70.5551 306.887L69.9801 304.223C69.2425 300.801 69.5815 297.235 70.9494 294.013L72.3932 246.927C67.2365 213.494 91.8106 191.69 91.8106 191.69H128.624L136.528 218.856C141.753 269.783 140.805 319.408 132.513 367.487L132.739 367.602C133.553 367.883 133.903 369.011 133.519 370.122C133.136 371.232 132.166 371.904 131.352 371.623L111.91 370.946C111.097 370.665 110.748 369.537 111.131 368.427C111.513 367.317 112.484 366.645 113.298 366.926L114.62 367.594L111.8 318.887L112.113 309.99L111.469 299.897L108.489 254.497L97.2092 310.326L85.6871 370.799C86.0048 371.087 86.228 371.464 86.3268 371.881C86.4256 372.299 86.3958 372.736 86.2408 373.136C86.0857 373.536 85.814 373.88 85.4597 374.122C85.1053 374.364 84.6862 374.492 84.2578 374.491H68.5253C68.2459 374.491 67.969 374.437 67.7109 374.33C67.452 374.223 67.2178 374.066 67.0193 373.869C66.8217 373.672 66.6649 373.437 66.5576 373.179C66.4512 372.921 66.3958 372.643 66.3958 372.364C66.3958 372.084 66.4512 371.807 66.5576 371.548C66.6649 371.29 66.8217 371.056 67.0193 370.858C67.2178 370.661 67.452 370.504 67.7109 370.398C67.969 370.291 68.2459 370.236 68.5253 370.237Z" fill="#496075"/>
<path d="M97.5073 102.041C108.413 102.041 117.253 93.1966 117.253 82.2869C117.253 71.3763 108.413 62.5325 97.5073 62.5325C86.6019 62.5325 77.762 71.3763 77.762 82.2869C77.762 93.1966 86.6019 102.041 97.5073 102.041Z" fill="#FFB6B6"/>
<path d="M10.9835 173.551C13.7586 167.105 17.5695 161.157 22.2646 155.944C18.2884 162.283 16.0159 169.542 15.6675 177.019C17.107 177.918 18.6138 178.707 20.1734 179.376C24.86 181.343 29.8583 182.467 34.9358 182.694C37.6726 173.572 42.3958 165.17 48.7671 158.094C44.176 165.419 41.8668 173.944 42.1343 182.587C47.7978 182.097 53.3779 180.9 58.745 179.025C66.8029 176.252 74.6249 172.111 80.1973 165.668C86.228 158.696 89.2007 149.495 90.1607 140.322C91.1207 131.157 90.2178 121.905 89.308 112.733C88.8787 108.362 92.5176 103.331 92.0874 98.9607H91.8012C89.8881 96.3372 87.9401 93.6506 87.0023 90.5407C86.0704 87.4377 86.314 83.7758 88.4563 81.3321C89.6556 80.0552 91.17 79.1166 92.8464 78.6089C93.0039 78.4087 93.176 78.2145 93.3549 78.0212C96.5985 74.5748 100.415 71.7188 104.637 69.5799C101.593 71.8798 99.5585 74.4811 98.613 77.1685C101.248 76.5884 103.885 76.0101 106.52 75.4343C107.401 74.4999 108.328 73.6097 109.3 72.769C110.711 71.5433 111.176 71.4505 112.859 70.2963C111.501 71.4922 110.447 72.9965 109.787 74.6821C113.174 73.8295 116.563 72.5467 118.325 69.63C121.247 64.8074 117.773 58.3007 112.924 55.42C109.397 53.4264 105.332 52.5925 101.305 53.0362C97.2782 53.4798 93.492 55.1786 90.4827 57.8923C83.4707 52.7256 73.4861 52.8116 65.6854 56.6741C60.5355 59.338 56.1002 63.1985 52.7493 67.9317C54.6931 67.6822 56.6496 67.5458 58.6087 67.5233C55.8506 67.9271 53.2246 68.9672 50.9375 70.562C49.9256 72.1336 48.998 73.7571 48.1581 75.4275C47.6062 76.5237 47.0857 77.6344 46.5968 78.7597C43.5951 85.5961 41.6402 92.8763 39.613 100.071C37.2493 108.455 34.7135 116.897 30.2867 124.399C23.4997 135.807 12.7936 144.354 0.167485 148.441C-0.885326 157.921 3.7416 167.194 10.9835 173.551Z" fill="#496075"/>
<path d="M117.391 115.251L113.559 113.812L108.727 105.995L91.5133 107.402L87.3293 115.784L77.2501 123.485L81.6581 146.709L88.5056 174.919L134.348 169.186L134.3 147.95C134.3 147.95 142.583 131.172 129.202 124.885L117.391 115.251Z" fill="#B8CDE1"/>
<path d="M188.052 188.915C187.162 189.272 186.205 189.43 185.248 189.377C184.29 189.324 183.356 189.063 182.511 188.61C181.666 188.157 180.93 187.523 180.356 186.754C179.782 185.986 179.383 185.101 179.187 184.162L128.074 153.22L137.416 142.436L184.721 176.243C186.321 176.019 187.946 176.389 189.29 177.284C190.633 178.18 191.603 179.536 192.013 181.099C192.424 182.661 192.248 184.319 191.518 185.76C190.788 187.2 189.555 188.323 188.052 188.915Z" fill="#FFB6B6"/>
<path d="M111.042 138.548C111.042 138.548 108.599 141.007 114.729 145.049C119.635 148.286 141.522 164.282 149.281 166.812C149.184 167.951 149.468 169.092 150.09 170.052C150.712 171.013 151.636 171.738 152.715 172.116L159.74 156.672C158.219 153.141 155.788 153.958 154.507 154.759L146.024 148.375L125.19 127.563L112.777 136.739L111.042 138.548Z" fill="#B8CDE1"/>
<path d="M90.6087 58.4297C88.2348 61.9334 86.7015 65.9378 86.1283 70.131C85.5542 74.3243 85.9554 78.5935 87.3004 82.6071" fill="#ED455D"/>
<path d="M63.3063 225.763C62.8293 225.932 62.4392 226.282 62.2203 226.737C62.0014 227.193 61.9716 227.717 62.1385 228.194L88.7867 305.032C88.9545 305.509 89.3046 305.9 89.7603 306.119C90.2152 306.338 90.739 306.368 91.216 306.201L246.271 251.774C246.748 251.606 247.139 251.256 247.358 250.801C247.576 250.345 247.606 249.821 247.439 249.343L220.791 172.505C220.623 172.028 220.273 171.637 219.817 171.418C219.362 171.199 218.838 171.17 218.361 171.337L63.3063 225.763Z" fill="#496075"/>
<path d="M102.552 295.111C99.5014 295.11 96.5252 294.163 94.0329 292.402C91.5406 290.64 89.6547 288.151 88.6343 285.273L73.9997 243.85C72.6964 240.16 72.9119 236.104 74.5976 232.573C76.2833 229.042 79.3021 226.326 82.9903 225.022L161.357 197.312C176.026 192.143 192.146 193.007 206.18 199.714C220.214 206.421 231.016 218.423 236.215 233.088C237.518 236.777 237.304 240.834 235.617 244.364C233.932 247.895 230.913 250.611 227.225 251.916L227.111 251.594L227.225 251.916L107.453 294.267C105.88 294.824 104.222 295.111 102.552 295.111Z" fill="#25313C"/>
<path d="M206.476 213.456L136.305 238.087C135.317 238.433 134.092 237.506 133.569 236.015C133.046 234.525 133.423 233.035 134.412 232.687L204.582 208.057C205.571 207.71 206.796 208.637 207.319 210.128C207.842 211.619 207.465 213.111 206.476 213.456Z" fill="#B8CDE1"/>
<path d="M211.903 228.933L141.733 253.563C140.744 253.91 139.518 252.983 138.996 251.492C138.473 250.001 138.851 248.511 139.84 248.164L210.01 223.533C210.998 223.186 212.224 224.114 212.747 225.605C213.27 227.095 212.892 228.585 211.903 228.933Z" fill="#B8CDE1"/>
<path d="M126.811 246.507C127.564 248.631 127.93 250.873 127.891 253.127C127.876 254.158 127.775 255.186 127.587 256.2C126.989 259.477 125.536 262.536 123.377 265.071C121.218 267.606 118.427 269.525 115.288 270.635C112.15 271.745 108.773 272.007 105.501 271.393C102.23 270.778 99.1777 269.311 96.6538 267.138C96.3991 266.92 96.1513 266.695 95.9102 266.462C93.8498 264.487 92.2629 262.07 91.2688 259.393C90.2748 256.716 89.9 253.849 90.1726 251.007C90.4443 248.164 91.3557 245.421 92.8395 242.981C94.3225 240.542 96.3395 238.47 98.7373 236.921C101.135 235.372 103.852 234.387 106.685 234.039C109.518 233.691 112.393 233.99 115.094 234.912C117.795 235.835 120.253 237.357 122.282 239.364C124.311 241.373 125.859 243.814 126.811 246.507Z" fill="#B8CDE1"/>
<path d="M109.776 255.697C111.771 255.697 113.389 254.078 113.389 252.082C113.389 250.085 111.771 248.467 109.776 248.467C107.78 248.467 106.162 250.085 106.162 252.082C106.162 254.078 107.78 255.697 109.776 255.697Z" fill="#ED455D"/>
<path d="M95.9102 266.462C96.8378 264.309 97.9341 261.023 100.474 262.219C101.729 262.763 103.976 264.416 104.888 262.494L112.033 247.531C112.168 247.253 112.358 247.003 112.591 246.799C112.824 246.594 113.096 246.438 113.39 246.34C113.684 246.242 113.995 246.203 114.304 246.227C114.613 246.251 114.915 246.336 115.19 246.478L127.891 253.127C127.877 254.158 127.775 255.186 127.587 256.2L96.6547 267.138L95.9102 266.462Z" fill="#25313C"/>
<path d="M99.5976 222.277C98.7033 221.929 97.8966 221.389 97.2339 220.697C96.5712 220.003 96.0687 219.173 95.7612 218.264C95.4537 217.355 95.3489 216.39 95.4545 215.437C95.561 214.483 95.8745 213.565 96.3728 212.745L80.2032 155.208L94.3906 153.725L105.824 210.749C107.144 211.679 108.077 213.06 108.447 214.633C108.816 216.205 108.596 217.858 107.828 219.279C107.061 220.7 105.8 221.79 104.282 222.343C102.765 222.895 101.098 222.871 99.5976 222.277Z" fill="#FFB6B6"/>
<path d="M77.8106 123.623C77.8106 123.623 74.3481 123.747 76.0601 130.889C77.4298 136.607 82.4631 172.478 86.3975 179.629C85.5474 180.396 84.9767 181.422 84.7748 182.548C84.5721 183.675 84.7501 184.836 85.2808 185.85L100.96 179.381C102.262 175.764 101.254 172.479 99.7723 172.189L97.9409 161.728L95.2407 126.634L80.3123 123.488L77.8106 123.623Z" fill="#B8CDE1"/>
<path d="M219.054 275.011L197.37 275.91C196.907 275.93 196.445 275.845 196.019 275.661C195.593 275.478 195.215 275.199 194.912 274.848C194.613 274.507 194.395 274.101 194.275 273.662C194.155 273.225 194.135 272.765 194.218 272.318C195.882 263.24 195.397 253.898 192.802 245.042C192.602 244.364 192.642 243.639 192.917 242.988C193.191 242.337 193.684 241.802 194.309 241.473C203.19 236.857 211.512 236.623 219.042 240.777C219.438 240.991 219.781 241.289 220.048 241.651C220.316 242.011 220.502 242.426 220.593 242.866C222.553 252.53 223.023 262.438 221.986 272.244C221.915 272.982 221.578 273.669 221.039 274.178C220.5 274.686 219.794 274.983 219.054 275.011Z" fill="#ED455D"/>
<path d="M218.137 260.812L201.557 261.5C201.352 261.508 201.148 261.477 200.956 261.406C200.764 261.336 200.587 261.229 200.437 261.09C200.287 260.951 200.165 260.784 200.079 260.599C199.993 260.414 199.943 260.213 199.936 260.008C199.927 259.804 199.959 259.599 200.029 259.408C200.099 259.215 200.208 259.039 200.346 258.888C200.484 258.738 200.651 258.616 200.837 258.53C201.023 258.444 201.224 258.396 201.427 258.387L218.007 257.701C218.212 257.692 218.416 257.724 218.608 257.795C218.8 257.865 218.976 257.973 219.127 258.111C219.277 258.249 219.398 258.416 219.484 258.602C219.57 258.787 219.619 258.988 219.627 259.192C219.636 259.397 219.604 259.6 219.534 259.793C219.463 259.984 219.356 260.161 219.218 260.312C219.079 260.461 218.912 260.583 218.727 260.669C218.541 260.755 218.34 260.804 218.137 260.812Z" fill="#25313C"/>
<path d="M217.91 255.356L201.33 256.042C200.918 256.059 200.516 255.912 200.212 255.633C199.909 255.352 199.728 254.964 199.711 254.551C199.694 254.139 199.841 253.736 200.121 253.432C200.4 253.128 200.789 252.948 201.202 252.931L217.782 252.243C218.194 252.226 218.597 252.375 218.9 252.654C219.204 252.933 219.385 253.323 219.402 253.735C219.419 254.148 219.271 254.551 218.991 254.854C218.712 255.158 218.323 255.339 217.91 255.356Z" fill="#25313C"/>
<path d="M466.587 104.625L445.068 101.801C444.608 101.743 444.167 101.58 443.779 101.325C443.391 101.071 443.066 100.733 442.828 100.335C442.591 99.947 442.445 99.5109 442.402 99.0577C442.358 98.6054 442.418 98.1497 442.576 97.7229C445.767 89.0637 446.885 79.7766 445.842 70.6071C445.76 69.9052 445.925 69.1969 446.306 68.6028C446.688 68.0087 447.265 67.5654 447.936 67.3487C457.476 64.3193 465.716 65.512 472.426 70.8933C472.777 71.1718 473.064 71.5245 473.267 71.9257C473.469 72.3269 473.581 72.7672 473.596 73.2161C473.875 83.0739 472.645 92.9154 469.948 102.4C469.751 103.116 469.302 103.735 468.684 104.144C468.066 104.553 467.321 104.724 466.587 104.625Z" fill="#ED455D"/>
<path d="M468.109 90.4785L451.656 88.3201C451.453 88.2928 451.257 88.2272 451.08 88.125C450.903 88.0228 450.748 87.8865 450.623 87.7247C450.499 87.562 450.408 87.3771 450.354 87.1795C450.301 86.9819 450.288 86.7758 450.314 86.573C450.341 86.3703 450.407 86.1744 450.509 85.9972C450.611 85.8201 450.748 85.665 450.909 85.5407C451.071 85.4163 451.257 85.3243 451.454 85.2715C451.651 85.2187 451.857 85.2051 452.06 85.2315L468.513 87.3908C468.923 87.4444 469.294 87.6582 469.546 87.9862C469.797 88.3133 469.908 88.7272 469.854 89.1369C469.8 89.5466 469.587 89.918 469.259 90.1693C468.931 90.4214 468.518 90.5322 468.109 90.4785Z" fill="#25313C"/>
<path d="M468.818 85.0637L452.365 82.9044C452.162 82.878 451.966 82.8124 451.789 82.7102C451.611 82.608 451.456 82.4717 451.331 82.3098C451.206 82.1471 451.115 81.9623 451.061 81.7647C451.008 81.5671 450.995 81.3601 451.021 81.1574C451.047 80.9546 451.114 80.7587 451.217 80.5816C451.319 80.4044 451.455 80.2485 451.617 80.1241C451.78 79.9998 451.966 79.9078 452.163 79.855C452.361 79.8022 452.567 79.7894 452.77 79.8167L469.224 81.9751C469.426 82.0015 469.622 82.0679 469.8 82.1693C469.977 82.2715 470.133 82.4078 470.258 82.5696C470.382 82.7323 470.474 82.9172 470.527 83.1156C470.581 83.3132 470.594 83.5194 470.567 83.7221C470.541 83.9257 470.474 84.1207 470.372 84.2988C470.27 84.4759 470.133 84.631 469.971 84.7553C469.809 84.8805 469.623 84.9717 469.426 85.0245C469.228 85.0773 469.022 85.0901 468.818 85.0637Z" fill="#25313C"/>
<path d="M248.951 85.2042H241.786V78.0356C241.786 76.3158 241.103 74.6659 239.887 73.4495C238.672 72.2332 237.023 71.55 235.303 71.55C233.584 71.55 231.935 72.2332 230.719 73.4495C229.503 74.6659 228.82 76.3158 228.82 78.0356V85.2042H221.655C219.936 85.2042 218.287 85.8874 217.071 87.1037C215.856 88.3201 215.173 89.97 215.173 91.6898C215.173 93.4104 215.856 95.0594 217.071 96.2758C218.287 97.4921 219.936 98.1761 221.655 98.1761H228.82V105.344C228.82 107.065 229.503 108.714 230.719 109.93C231.935 111.146 233.584 111.829 235.303 111.829C237.023 111.829 238.672 111.146 239.887 109.93C241.103 108.714 241.786 107.065 241.786 105.344V98.1761H248.951C250.671 98.1761 252.319 97.4921 253.535 96.2758C254.751 95.0594 255.434 93.4104 255.434 91.6898C255.434 89.97 254.751 88.3201 253.535 87.1037C252.319 85.8874 250.671 85.2042 248.951 85.2042Z" fill="#25313C"/>
<path d="M411.991 13.6884C415.764 13.6884 418.823 10.6283 418.823 6.85351C418.823 3.07873 415.764 0.0186768 411.991 0.0186768C408.218 0.0186768 405.159 3.07873 405.159 6.85351C405.159 10.6283 408.218 13.6884 411.991 13.6884Z" fill="#B8CDE1"/>
<path d="M141.364 207.578C145.138 207.578 148.196 204.518 148.196 200.743C148.196 196.968 145.138 193.909 141.364 193.909C137.591 193.909 134.532 196.968 134.532 200.743C134.532 204.518 137.591 207.578 141.364 207.578Z" fill="#B8CDE1"/>
</g>
<defs>
<clipPath id="clip0_2675_1127">
<rect width="500" height="410.562" fill="white"/>
</clipPath>
</defs>
</svg>
