<svg width="424" height="500" viewBox="0 0 424 500" fill="none" xmlns="http://www.w3.org/2000/svg">
<path d="M391.882 323.835C391.256 321.956 391.398 319.906 392.274 318.131C393.151 316.355 394.693 314.996 396.566 314.349C396.951 314.222 397.344 314.127 397.744 314.065L401.779 297.525L412.298 297.558L406.277 320.835C406.423 322.501 406.008 324.169 405.096 325.573C404.184 326.977 402.829 328.036 401.246 328.58C400.319 328.889 399.341 329.011 398.367 328.939C397.393 328.867 396.443 328.603 395.572 328.161C394.701 327.72 393.927 327.11 393.294 326.368C392.66 325.625 392.181 324.764 391.882 323.835Z" fill="#FFB6B6"/>
<path d="M409.643 315.339L393.531 314.208L401.334 267.098L396.369 215.225L412.656 208.46L423.517 266.065L423.487 266.17L409.643 315.339Z" fill="#B8CDE1"/>
<path d="M285.065 309.818C285.028 307.842 285.779 305.934 287.151 304.511C288.524 303.089 290.405 302.269 292.383 302.232C292.786 302.23 293.19 302.262 293.589 302.327L302.414 287.823L312.422 291.106L299.675 311.41C299.289 313.194 298.255 314.772 296.774 315.839C295.293 316.906 293.467 317.387 291.652 317.188C289.836 316.991 288.158 316.128 286.942 314.767C285.725 313.405 285.056 311.643 285.065 309.818Z" fill="#FFB6B6"/>
<path d="M334.75 491.17H326.179L322.101 457.68L334.752 457.681L334.75 491.17Z" fill="#FFB6B6"/>
<path d="M336.935 499.587L309.3 499.586V499.232C309.29 496.348 310.422 493.577 312.451 491.526C313.442 490.514 314.624 489.711 315.931 489.162C317.238 488.614 318.64 488.333 320.057 488.335H320.058L336.936 488.336L336.935 499.587Z" fill="#496075"/>
<path d="M394.542 491.17H385.972L381.895 457.68L394.543 457.681L394.542 491.17Z" fill="#FFB6B6"/>
<path d="M396.727 499.587L369.092 499.586V499.232C369.082 496.348 370.214 493.577 372.243 491.526C373.233 490.514 374.416 489.711 375.723 489.162C377.029 488.614 378.432 488.333 379.849 488.335L396.728 488.336L396.727 499.587Z" fill="#496075"/>
<path d="M386.391 176.676C397.637 176.676 406.753 167.44 406.753 156.048C406.753 144.656 397.637 135.421 386.391 135.421C375.146 135.421 366.03 144.656 366.03 156.048C366.03 167.44 375.146 176.676 386.391 176.676Z" fill="#FFB6B6"/>
<path d="M379.515 154.917C376.453 156.096 373.069 156.134 369.982 155.025C366.895 153.916 364.31 151.733 362.701 148.876C361.242 145.913 360.874 142.531 361.662 139.324C362.45 136.116 364.344 133.289 367.012 131.339C372.431 127.665 380.525 128.881 385.778 133.142C389.321 131.511 393.296 131.064 397.113 131.867C400.93 132.669 404.387 134.679 406.972 137.598C412.043 143.542 412.598 152.976 408.902 159.905C407.286 163.521 406.568 167.476 406.813 171.429C407.057 175.383 408.256 179.219 410.306 182.609C408.716 182.543 405.216 182.244 400.836 181.862C399.568 181.752 399.021 177.98 397.63 177.858C396.405 177.752 394.349 181.295 393.064 181.185C383.553 180.371 372.904 179.544 368.078 179.706C371.464 171.254 375.281 162.98 379.515 154.917Z" fill="#496075"/>
<path d="M402.006 301.368C402.006 301.368 408.624 308.279 404.584 343.971L401.792 419.756L396.853 486.86L380.962 485.789L367.004 331.339L347.462 387.857L336.939 481.293L321.693 480.223L319.09 387.306L325.774 315.497L402.006 301.368Z" fill="#496075"/>
<path d="M336.511 319.82C328.381 319.821 325.106 318.83 324.867 318.755L324.489 318.633L324.556 318.239C324.61 317.914 330.073 285.651 337.567 268.712L342.838 200.019C342.977 197.991 343.8 196.069 345.171 194.567C346.541 193.064 348.381 192.069 350.39 191.744L350.461 192.199L350.39 191.744L363.796 189.612L371.997 182.297L391.641 183.397L393.374 191.816C395.723 192.482 411.229 197.295 412.763 208.823L412.782 208.967L412.716 209.096L384.311 264.454C386.711 266.854 405.681 286.596 406.969 311.834L406.999 312.441L406.415 312.306C406.36 312.294 400.29 311.125 368.367 316.593C353.604 319.121 343.343 319.82 336.511 319.82Z" fill="#B8CDE1"/>
<path d="M305.021 309.484L293.444 300.45L319.285 248.072L343.32 196.736C343.649 196.021 344.192 195.425 344.874 195.029C345.556 194.634 346.344 194.459 347.13 194.528C347.914 194.598 348.659 194.908 349.262 195.416C349.863 195.926 350.293 196.608 350.492 197.371L356.441 219.234L337.837 268.269L305.021 309.484Z" fill="#B8CDE1"/>
<path d="M252.511 123.386H69.0987C67.6341 123.385 66.2299 122.802 65.1943 121.768C64.1585 120.733 63.5759 119.33 63.5743 117.867V56.0473C63.5759 54.5839 64.1585 53.181 65.1943 52.1462C66.2299 51.1114 67.6341 50.5293 69.0987 50.5277H252.511C253.976 50.5293 255.381 51.1114 256.416 52.1461C257.452 53.181 258.034 54.5839 258.036 56.0473V117.867C258.034 119.33 257.452 120.733 256.416 121.768C255.381 122.802 253.976 123.385 252.511 123.386Z" fill="#496075"/>
<path d="M140.917 67.0864H92.3016V72.606H140.917V67.0864Z" fill="#B8CDE1"/>
<path d="M205.001 73.7099C206.831 73.7099 208.315 72.2273 208.315 70.3981C208.315 68.5691 206.831 67.0864 205.001 67.0864C203.17 67.0864 201.686 68.5691 201.686 70.3981C201.686 72.2273 203.17 73.7099 205.001 73.7099Z" fill="#ED455D"/>
<path d="M216.049 73.7099C217.88 73.7099 219.364 72.2273 219.364 70.3981C219.364 68.5691 217.88 67.0864 216.049 67.0864C214.219 67.0864 212.735 68.5691 212.735 70.3981C212.735 72.2273 214.219 73.7099 216.049 73.7099Z" fill="#ED455D"/>
<path d="M227.099 73.7099C228.929 73.7099 230.413 72.2273 230.413 70.3981C230.413 68.5691 228.929 67.0864 227.099 67.0864C225.268 67.0864 223.784 68.5691 223.784 70.3981C223.784 72.2273 225.268 73.7099 227.099 73.7099Z" fill="#ED455D"/>
<path d="M252.511 201.765H69.0987C67.6341 201.763 66.2299 201.18 65.1943 200.146C64.1585 199.111 63.5759 197.708 63.5743 196.244V134.426C63.5759 132.962 64.1585 131.559 65.1943 130.524C66.2299 129.49 67.6341 128.907 69.0987 128.906H252.511C253.976 128.907 255.381 129.49 256.416 130.524C257.452 131.559 258.034 132.962 258.036 134.426V196.244C258.034 197.708 257.452 199.111 256.416 200.146C255.381 201.18 253.976 201.763 252.511 201.765Z" fill="#496075"/>
<path d="M140.917 145.464H92.3016V150.985H140.917V145.464Z" fill="#B8CDE1"/>
<path d="M205.001 152.089C206.831 152.089 208.315 150.606 208.315 148.776C208.315 146.947 206.831 145.464 205.001 145.464C203.17 145.464 201.686 146.947 201.686 148.776C201.686 150.606 203.17 152.089 205.001 152.089Z" fill="#ED455D"/>
<path d="M216.049 152.089C217.88 152.089 219.364 150.606 219.364 148.776C219.364 146.947 217.88 145.464 216.049 145.464C214.219 145.464 212.735 146.947 212.735 148.776C212.735 150.606 214.219 152.089 216.049 152.089Z" fill="#ED455D"/>
<path d="M227.099 152.089C228.929 152.089 230.413 150.606 230.413 148.776C230.413 146.947 228.929 145.464 227.099 145.464C225.268 145.464 223.784 146.947 223.784 148.776C223.784 150.606 225.268 152.089 227.099 152.089Z" fill="#ED455D"/>
<path d="M252.511 280.143H69.0987C67.6341 280.141 66.2299 279.559 65.1943 278.525C64.1585 277.49 63.5759 276.087 63.5743 274.623V212.804C63.5759 211.34 64.1585 209.938 65.1943 208.902C66.2299 207.868 67.6341 207.286 69.0987 207.284H252.511C253.976 207.286 255.381 207.868 256.416 208.902C257.452 209.937 258.034 211.34 258.036 212.804V274.623C258.034 276.087 257.452 277.49 256.416 278.525C255.381 279.559 253.976 280.141 252.511 280.143Z" fill="#496075"/>
<path d="M140.917 223.843H92.3016V229.363H140.917V223.843Z" fill="#B8CDE1"/>
<path d="M205.001 230.466C206.831 230.466 208.315 228.984 208.315 227.155C208.315 225.326 206.831 223.843 205.001 223.843C203.17 223.843 201.686 225.326 201.686 227.155C201.686 228.984 203.17 230.466 205.001 230.466Z" fill="#ED455D"/>
<path d="M216.049 230.466C217.88 230.466 219.364 228.984 219.364 227.155C219.364 225.326 217.88 223.843 216.049 223.843C214.219 223.843 212.735 225.326 212.735 227.155C212.735 228.984 214.219 230.466 216.049 230.466Z" fill="#ED455D"/>
<path d="M227.099 230.466C228.929 230.466 230.413 228.984 230.413 227.155C230.413 225.326 228.929 223.843 227.099 223.843C225.268 223.843 223.784 225.326 223.784 227.155C223.784 228.984 225.268 230.466 227.099 230.466Z" fill="#ED455D"/>
<path d="M185.622 328.122H0V255.005H2.20979V325.914H185.622V328.122Z" fill="#496075"/>
<path d="M116.014 0H301.636V73.1169H299.427V2.20784H116.014V0Z" fill="#496075"/>
</svg>
