<svg width="406" height="500" viewBox="0 0 406 500" fill="none" xmlns="http://www.w3.org/2000/svg">
<g clip-path="url(#clip0_2675_1349)">
<path d="M10.7564 486.73H18.2466L21.8112 457.803H10.7564V486.73Z" fill="#FFB6B6"/>
<path d="M8.31203 481.593L20.2785 480.878V486.012L31.655 493.879C32.217 494.268 32.641 494.826 32.863 495.472C33.086 496.118 33.096 496.82 32.893 497.472C32.69 498.125 32.284 498.695 31.734 499.101C31.184 499.506 30.518 499.724 29.836 499.724H15.589L13.1334 494.646L12.1746 499.724H6.80313L8.31203 481.593Z" fill="#496075"/>
<path d="M70.663 486.73H78.153L81.718 457.803H70.663V486.73Z" fill="#FFB6B6"/>
<path d="M68.219 481.593L80.185 480.878V486.012L91.562 493.879C92.124 494.268 92.547 494.826 92.77 495.472C92.993 496.118 93.003 496.82 92.8 497.472C92.597 498.125 92.19 498.695 91.64 499.101C91.09 499.506 90.425 499.724 89.742 499.724H75.496L73.04 494.646L72.081 499.724H66.71L68.219 481.593Z" fill="#496075"/>
<path d="M16.6861 310.045L56.509 311.045V267.95L23.798 268.111L16.6861 310.045Z" fill="#FFB6B6"/>
<path d="M56.711 279.018L62.035 296.777L73.086 320.072L96.429 454.623L92.861 473.235L58.254 471.779L42.841 356.415L42.594 372.341L42.474 380.05C42.474 380.05 48.095 430.188 41.542 439.919C34.99 449.648 41.409 448.504 41.409 448.504L41.097 468.576L0.0924377 468.867L9.13853 411.08C9.13853 411.08 13.7318 407.448 11.2743 403.798C8.81674 400.147 13.6562 395.676 13.6562 395.676L11.4856 350.564C11.4856 350.564 13.8889 342.772 11.062 341.759C8.23513 340.746 10.6909 334.045 10.6909 334.045L10.2707 325.313L19.5727 290.094L56.711 279.018Z" fill="#496075"/>
<path d="M18.1225 267.95L14.0512 255.72L11.1431 251.643L9.97983 239.996C9.97983 208.548 16.9854 213.785 16.9854 213.785L26.124 202.724L36.52 202.399L44.735 202.142L51.566 213.498L61.453 216.992L65.325 237.136L58.254 258.632L58.566 257.034C61.895 263.187 61.048 264.112 58.292 268.733L58.155 270.4C57.831 274.345 60.576 275.024 56.711 275.853C23.524 282.974 20.3628 297.215 16.4119 291.677C15.5321 290.444 19.2655 275.726 17.9923 275.853C14.5038 276.202 18.1225 267.95 18.1225 267.95Z" fill="#B8CDE1"/>
<path d="M38.461 198.233C47.99 198.233 55.715 190.498 55.715 180.957C55.715 171.416 47.99 163.68 38.461 163.68C28.932 163.68 21.2074 171.416 21.2074 180.957C21.2074 190.498 28.932 198.233 38.461 198.233Z" fill="#FFB6B6"/>
<path d="M2.06663 304.216L3.83343 243.357L15.3411 248.398L9.60403 303.994C10.5058 304.736 11.1599 305.737 11.4788 306.861C11.7977 307.986 11.7662 309.18 11.3887 310.287C11.0111 311.393 10.3054 312.358 9.36583 313.051C8.42633 313.745 7.29763 314.135 6.13073 314.169C4.96383 314.203 3.81432 313.881 2.83562 313.244C1.85702 312.606 1.09593 311.684 0.654129 310.603C0.212429 309.521 0.110927 308.33 0.363327 307.188C0.615627 306.047 1.20993 305.01 2.06663 304.216Z" fill="#FFB6B6"/>
<path d="M16.7795 213.47L15.4412 213.894C11.8654 215.024 8.74253 217.267 6.52583 220.295C4.30913 223.324 3.11414 226.98 3.11414 230.736L0.596832 242.277C4.24353 248.541 9.63414 251.645 17.1391 250.919L16.7795 213.47Z" fill="#B8CDE1"/>
<path d="M95.443 234.477C95.443 233.624 95.254 232.782 94.888 232.011C94.523 231.242 93.991 230.562 93.33 230.024C92.67 229.486 91.897 229.101 91.07 228.9C90.243 228.697 89.381 228.683 88.547 228.857C87.713 229.03 86.928 229.388 86.25 229.904C85.571 230.419 85.016 231.079 84.625 231.837C84.233 232.594 84.016 233.429 83.987 234.282C83.959 235.133 84.12 235.982 84.46 236.764L73.176 254.567V243.889L60.448 245.267L62.229 264.297C62.372 265.821 62.997 267.259 64.012 268.401C65.028 269.544 66.381 270.333 67.876 270.652C69.37 270.971 70.927 270.805 72.32 270.175C73.713 269.547 74.87 268.49 75.621 267.157L90.873 240.095C92.164 239.828 93.323 239.123 94.156 238.099C94.988 237.076 95.443 235.797 95.443 234.477Z" fill="#FFB6B6"/>
<path d="M59.415 216.332L60.696 216.736C64.116 217.818 67.104 219.963 69.224 222.861C71.345 225.758 72.488 229.256 72.488 232.848L74.896 243.889C71.408 249.882 66.251 252.852 59.071 252.155L59.415 216.332Z" fill="#B8CDE1"/>
<path d="M16.315 184.816C17.2786 181.142 17.6409 177.3 19.033 173.768C20.4151 170.261 22.7565 167.214 25.789 164.979C28.821 162.745 32.421 161.41 36.176 161.13C39.93 160.851 43.688 161.636 47.017 163.397C50.346 165.158 53.112 167.824 54.998 171.086C56.65 173.735 57.347 176.87 56.9711 179.969C56.4221 183.341 54.192 186.546 54.89 189.89C55.357 192.127 57.0451 193.865 58.3851 195.715C59.7241 197.565 60.782 200.013 59.817 202.083C58.768 204.333 55.856 204.997 53.386 204.787C50.917 204.575 48.443 203.777 46.005 204.224L47.166 199.669C44.275 202.454 41.385 205.24 38.495 208.025C38.815 205.126 37.47 202.345 36.543 199.58C35.615 196.816 35.182 193.484 37.02 191.221C38.12 189.868 39.813 189.184 41.325 188.318C42.837 187.451 44.337 186.154 44.491 184.417C44.681 182.269 42.759 180.544 40.871 179.506C38.984 178.467 36.809 177.596 35.75 175.718C36.51 177.354 37.271 178.988 38.032 180.622C35.502 180.444 33.065 179.6 30.966 178.176C28.866 176.753 27.179 174.801 26.074 172.515L25.032 173.198C16.368 182.928 27.463 197.504 20.9589 202.605C23.815 197.505 14.8312 190.471 16.315 184.816Z" fill="#496075"/>
<path d="M241.869 1.84241L83.572 47.6969C58.952 54.8287 44.767 80.5942 51.89 105.246L156.538 467.437C163.66 492.088 189.393 506.292 214.013 499.159L372.309 453.305C396.929 446.173 411.114 420.408 403.991 395.756L299.344 33.565C292.221 8.91332 266.489 -5.28935 241.869 1.84241Z" fill="#496075"/>
<path d="M243.076 6.02264L222.376 12.0191L224.444 19.1796C225.381 22.4207 224.993 25.9014 223.367 28.8563C221.74 31.8111 219.008 33.9978 215.771 34.9354L123.285 61.7263C120.048 62.6639 116.572 62.2756 113.621 60.6468C110.67 59.0181 108.486 56.2822 107.549 53.0412L105.48 45.8807L84.78 51.8771C74.071 54.9923 65.034 62.2333 59.651 72.0118C54.268 81.7902 52.978 93.3075 56.065 104.037L160.712 466.228C163.823 476.95 171.055 485.999 180.821 491.389C190.587 496.779 202.089 498.07 212.805 494.979L371.102 449.125C381.81 446.01 390.847 438.769 396.23 428.99C401.614 419.211 402.903 407.694 399.816 396.965L295.169 34.7745C292.058 24.0522 284.826 15.0034 275.06 9.6133C265.294 4.22316 253.792 2.93185 243.076 6.02264Z" fill="#25313C"/>
<path d="M64.316 152.524C63.511 152.757 62.647 152.659 61.913 152.255C61.179 151.85 60.635 151.169 60.402 150.364L58.645 144.284C58.53 143.885 58.494 143.466 58.54 143.053C58.586 142.64 58.713 142.241 58.913 141.877C59.113 141.512 59.383 141.191 59.708 140.932C60.032 140.672 60.404 140.479 60.803 140.364C61.201 140.249 61.619 140.212 62.031 140.259C62.444 140.305 62.843 140.432 63.207 140.632C63.57 140.833 63.891 141.103 64.15 141.428C64.409 141.753 64.602 142.125 64.717 142.525L66.474 148.605C66.706 149.411 66.609 150.277 66.205 151.011C65.8 151.747 65.121 152.291 64.316 152.524Z" fill="#496075"/>
<path d="M73.325 183.702C72.519 183.935 71.655 183.838 70.921 183.433C70.187 183.028 69.644 182.348 69.41 181.542L64.574 164.805C64.459 164.406 64.423 163.987 64.469 163.574C64.515 163.161 64.642 162.762 64.842 162.398C65.043 162.033 65.313 161.712 65.637 161.453C65.961 161.193 66.333 161.001 66.732 160.885C67.131 160.77 67.548 160.733 67.961 160.78C68.373 160.826 68.773 160.953 69.136 161.153C69.5 161.354 69.82 161.624 70.079 161.949C70.338 162.274 70.531 162.646 70.647 163.046L75.482 179.783C75.714 180.589 75.617 181.455 75.213 182.189C74.808 182.924 74.129 183.468 73.325 183.702Z" fill="#496075"/>
<path d="M80.566 208.768C79.761 209 78.897 208.903 78.163 208.498C77.429 208.092 76.886 207.413 76.652 206.607L71.816 189.87C71.583 189.063 71.68 188.197 72.084 187.462C72.489 186.727 73.169 186.183 73.974 185.95C74.779 185.716 75.644 185.814 76.378 186.218C77.112 186.623 77.656 187.305 77.888 188.11L82.724 204.848C82.956 205.654 82.859 206.519 82.455 207.255C82.05 207.989 81.371 208.533 80.566 208.768Z" fill="#496075"/>
<path d="M325.585 122.966C324.78 123.198 323.916 123.101 323.182 122.696C322.448 122.292 321.904 121.611 321.671 120.806L309.871 79.9659C309.638 79.1596 309.734 78.2937 310.139 77.5586C310.544 76.8236 311.224 76.2796 312.029 76.0463C312.834 75.813 313.699 75.9096 314.433 76.3148C315.167 76.7201 315.71 77.4006 315.943 78.2069L327.743 119.046C327.975 119.853 327.878 120.718 327.474 121.453C327.069 122.187 326.39 122.731 325.585 122.966Z" fill="#496075"/>
<path d="M124.276 145.21C123.996 145.292 123.695 145.267 123.432 145.139L108.099 137.744C107.959 137.675 107.834 137.581 107.73 137.465C107.626 137.349 107.546 137.212 107.495 137.066C107.444 136.919 107.422 136.763 107.43 136.607C107.439 136.452 107.478 136.3 107.546 136.158L114.933 120.807C115 120.665 115.095 120.54 115.211 120.436C115.327 120.333 115.462 120.253 115.609 120.201C115.756 120.149 115.912 120.127 116.067 120.136C116.222 120.145 116.375 120.184 116.515 120.253C116.655 120.32 116.781 120.415 116.884 120.531C116.988 120.647 117.068 120.783 117.119 120.93C117.171 121.076 117.193 121.232 117.184 121.388C117.175 121.544 117.136 121.696 117.068 121.837L110.196 136.12L124.461 143.001C124.677 143.105 124.857 143.273 124.976 143.481C125.095 143.69 125.148 143.93 125.128 144.169C125.108 144.409 125.016 144.636 124.863 144.823C124.711 145.008 124.506 145.143 124.276 145.21Z" fill="#ED455D"/>
<path d="M132.991 142.653C132.757 142.72 132.508 142.714 132.277 142.636C132.047 142.557 131.846 142.409 131.703 142.211C131.56 142.014 131.48 141.778 131.476 141.534C131.472 141.29 131.543 141.05 131.679 140.849L140.548 127.713L127.431 118.834C127.301 118.747 127.19 118.634 127.104 118.505C127.018 118.375 126.959 118.229 126.929 118.075C126.899 117.922 126.9 117.765 126.931 117.612C126.962 117.459 127.023 117.314 127.11 117.184C127.198 117.055 127.31 116.944 127.44 116.859C127.57 116.773 127.716 116.713 127.869 116.683C128.022 116.654 128.179 116.655 128.332 116.687C128.484 116.719 128.629 116.78 128.758 116.868L142.858 126.413C142.987 126.5 143.097 126.611 143.183 126.742C143.269 126.872 143.328 127.017 143.358 127.17C143.387 127.324 143.386 127.481 143.355 127.633C143.324 127.787 143.263 127.931 143.176 128.06L133.643 142.177C133.488 142.408 133.257 142.576 132.991 142.653Z" fill="#ED455D"/>
<path d="M288.272 114.419L107.401 166.813C104.611 167.617 101.616 167.282 99.074 165.878C96.531 164.475 94.648 162.118 93.838 159.327L83.675 124.15C82.871 121.357 83.207 118.358 84.608 115.812C86.01 113.267 88.363 111.381 91.151 110.57L272.022 58.1761C274.812 57.3713 277.807 57.7075 280.349 59.1109C282.892 60.5142 284.775 62.8701 285.585 65.6618L295.748 100.839C296.552 103.632 296.216 106.631 294.815 109.176C293.413 111.722 291.06 113.608 288.272 114.419ZM91.59 112.09C89.204 112.784 87.191 114.397 85.992 116.575C84.792 118.755 84.505 121.32 85.193 123.71L95.356 158.887C96.05 161.276 97.661 163.292 99.836 164.493C102.012 165.693 104.575 165.981 106.962 165.293L287.833 112.899C290.219 112.204 292.232 110.591 293.431 108.413C294.631 106.234 294.918 103.668 294.23 101.279L284.067 66.1016C283.373 63.7128 281.762 61.697 279.587 60.4961C277.411 59.2953 274.848 59.0076 272.461 59.6962L91.59 112.09Z" fill="#496075"/>
<path d="M194.142 105.445L163.78 114.24C162.975 114.474 162.11 114.377 161.376 113.972C160.642 113.567 160.098 112.886 159.865 112.08C159.632 111.274 159.729 110.408 160.134 109.672C160.538 108.938 161.218 108.394 162.023 108.16L192.386 99.365C193.191 99.1318 194.056 99.2284 194.79 99.6336C195.524 100.039 196.067 100.719 196.3 101.526C196.533 102.332 196.437 103.197 196.032 103.933C195.627 104.668 194.948 105.212 194.142 105.445Z" fill="#B8CDE1"/>
<path d="M264.253 103.257L167.852 131.181C167.047 131.415 166.182 131.318 165.448 130.913C164.714 130.508 164.17 129.827 163.937 129.021C163.704 128.214 163.801 127.349 164.206 126.613C164.61 125.879 165.29 125.335 166.095 125.101L262.496 97.1762C263.301 96.9429 264.166 97.0395 264.9 97.4447C265.634 97.8499 266.178 98.5306 266.41 99.3369C266.643 100.143 266.547 101.009 266.142 101.745C265.738 102.479 265.058 103.023 264.253 103.257Z" fill="#B8CDE1"/>
<path d="M192.833 385.726C192.553 385.807 192.253 385.782 191.99 385.654L176.657 378.259C176.517 378.19 176.391 378.096 176.288 377.98C176.184 377.864 176.104 377.728 176.053 377.58C176.001 377.434 175.979 377.278 175.988 377.122C175.997 376.967 176.036 376.814 176.104 376.673L183.49 361.321C183.627 361.037 183.87 360.82 184.167 360.715C184.463 360.612 184.789 360.63 185.072 360.767C185.356 360.904 185.573 361.147 185.677 361.444C185.781 361.742 185.762 362.068 185.626 362.352L178.754 376.634L193.019 383.516C193.235 383.62 193.415 383.788 193.534 383.996C193.653 384.204 193.706 384.445 193.686 384.684C193.665 384.924 193.573 385.151 193.421 385.338C193.269 385.523 193.064 385.658 192.833 385.726Z" fill="#ED455D"/>
<path d="M201.549 383.168C201.315 383.237 201.066 383.23 200.835 383.151C200.605 383.072 200.404 382.924 200.261 382.726C200.117 382.53 200.038 382.293 200.034 382.049C200.029 381.806 200.1 381.566 200.237 381.364L209.105 368.228L195.988 359.348C195.728 359.171 195.549 358.899 195.489 358.59C195.43 358.282 195.495 357.962 195.671 357.701C195.847 357.441 196.119 357.261 196.428 357.2C196.736 357.141 197.055 357.206 197.316 357.382L211.415 366.928C211.676 367.104 211.855 367.377 211.915 367.685C211.975 367.994 211.909 368.315 211.733 368.575L202.201 382.693C202.046 382.923 201.815 383.091 201.549 383.168Z" fill="#ED455D"/>
<path d="M371.28 401.713L190.409 454.107C187.619 454.912 184.624 454.575 182.082 453.172C179.539 451.769 177.656 449.413 176.846 446.621L150.652 355.962C149.848 353.168 150.184 350.169 151.586 347.623C152.987 345.078 155.34 343.192 158.128 342.382L338.999 289.988C341.789 289.183 344.784 289.519 347.326 290.923C349.869 292.326 351.752 294.681 352.562 297.473L378.756 388.133C379.56 390.927 379.224 393.925 377.823 396.471C376.421 399.017 374.068 400.902 371.28 401.713ZM158.567 343.902C156.182 344.595 154.168 346.208 152.969 348.387C151.77 350.565 151.482 353.131 152.17 355.522L178.364 446.181C179.057 448.57 180.669 450.586 182.844 451.787C185.02 452.988 187.582 453.276 189.97 452.587L370.841 400.193C373.227 399.499 375.24 397.886 376.439 395.707C377.638 393.529 377.926 390.963 377.238 388.573L351.044 297.913C350.351 295.524 348.74 293.508 346.564 292.308C344.388 291.107 341.826 290.819 339.438 291.508L158.567 343.902Z" fill="#496075"/>
<path d="M262.7 345.96L232.337 354.755C231.938 354.872 231.52 354.908 231.108 354.862C230.695 354.817 230.295 354.689 229.931 354.489C229.567 354.289 229.246 354.018 228.986 353.693C228.727 353.369 228.534 352.996 228.418 352.596C228.303 352.196 228.267 351.778 228.313 351.365C228.36 350.951 228.487 350.551 228.688 350.186C228.888 349.823 229.159 349.502 229.484 349.242C229.809 348.983 230.181 348.791 230.581 348.675L260.943 339.88C261.748 339.648 262.612 339.746 263.345 340.15C264.078 340.556 264.62 341.236 264.853 342.042C265.086 342.848 264.99 343.712 264.586 344.447C264.182 345.181 263.504 345.726 262.7 345.96Z" fill="#B8CDE1"/>
<path d="M332.81 343.772L236.409 371.696C236.011 371.813 235.593 371.849 235.18 371.803C234.767 371.757 234.367 371.63 234.003 371.43C233.639 371.229 233.319 370.959 233.059 370.633C232.8 370.309 232.607 369.936 232.491 369.536C232.376 369.137 232.34 368.718 232.386 368.306C232.433 367.892 232.56 367.492 232.76 367.127C232.961 366.764 233.232 366.443 233.556 366.183C233.881 365.924 234.254 365.731 234.653 365.616L331.053 337.691C331.859 337.458 332.723 337.554 333.458 337.96C334.192 338.365 334.735 339.045 334.968 339.852C335.201 340.658 335.104 341.524 334.7 342.259C334.295 342.994 333.615 343.538 332.81 343.772Z" fill="#B8CDE1"/>
<path d="M121.892 212.146L113.033 214.712C111.825 215.062 111.13 216.326 111.479 217.535L112.217 220.09C112.567 221.3 113.829 221.996 115.036 221.646L123.895 219.08C125.103 218.73 125.798 217.467 125.449 216.258L124.711 213.702C124.361 212.493 123.099 211.797 121.892 212.146Z" fill="#B8CDE1"/>
<path d="M194.025 191.252L185.165 193.818C183.958 194.167 183.262 195.431 183.612 196.64L184.35 199.195C184.699 200.405 185.961 201.101 187.169 200.752L196.028 198.185C197.236 197.836 197.931 196.572 197.582 195.363L196.843 192.807C196.494 191.598 195.232 190.902 194.025 191.252Z" fill="#ED455D"/>
<path d="M214.462 185.331L205.603 187.898C204.396 188.248 203.7 189.511 204.049 190.719L204.788 193.276C205.137 194.484 206.399 195.18 207.606 194.831L216.466 192.265C217.673 191.915 218.369 190.651 218.019 189.443L217.281 186.887C216.932 185.677 215.67 184.981 214.462 185.331Z" fill="#B8CDE1"/>
<path d="M174.238 196.357L132.486 208.451C131.279 208.801 130.583 210.064 130.932 211.274L131.671 213.829C132.02 215.038 133.282 215.735 134.489 215.385L176.241 203.291C177.448 202.941 178.144 201.677 177.795 200.468L177.056 197.913C176.707 196.703 175.445 196.007 174.238 196.357Z" fill="#B8CDE1"/>
<path d="M270.415 168.497L228.663 180.591C227.456 180.941 226.76 182.204 227.109 183.413L227.848 185.969C228.197 187.178 229.459 187.875 230.666 187.525L272.418 175.431C273.625 175.081 274.321 173.818 273.971 172.608L273.233 170.052C272.884 168.844 271.622 168.147 270.415 168.497Z" fill="#496075"/>
<path d="M126.672 227.72L117.813 230.287C116.606 230.636 115.91 231.9 116.259 233.108L116.998 235.664C117.347 236.874 118.609 237.57 119.816 237.22L128.676 234.653C129.883 234.304 130.579 233.04 130.229 231.832L129.491 229.276C129.142 228.067 127.88 227.371 126.672 227.72Z" fill="#B8CDE1"/>
<path d="M198.805 206.826L189.946 209.392C188.738 209.742 188.043 211.005 188.392 212.213L189.13 214.77C189.48 215.978 190.742 216.675 191.949 216.326L200.809 213.759C202.016 213.409 202.711 212.145 202.362 210.937L201.624 208.381C201.274 207.172 200.013 206.476 198.805 206.826Z" fill="#ED455D"/>
<path d="M219.243 200.905L210.383 203.471C209.176 203.821 208.48 205.084 208.83 206.294L209.568 208.85C209.917 210.058 211.179 210.755 212.386 210.405L221.246 207.839C222.453 207.489 223.149 206.225 222.8 205.016L222.061 202.461C221.712 201.252 220.45 200.555 219.243 200.905Z" fill="#B8CDE1"/>
<path d="M179.018 211.931L137.266 224.025C136.059 224.375 135.363 225.638 135.713 226.848L136.451 229.403C136.8 230.612 138.062 231.309 139.27 230.959L181.021 218.865C182.228 218.515 182.924 217.252 182.575 216.042L181.836 213.486C181.487 212.278 180.225 211.581 179.018 211.931Z" fill="#B8CDE1"/>
<path d="M275.197 184.068L233.445 196.163C232.238 196.513 231.543 197.777 231.892 198.985L232.63 201.541C232.98 202.751 234.241 203.447 235.449 203.097L277.2 191.002C278.408 190.652 279.103 189.389 278.754 188.18L278.016 185.624C277.666 184.416 276.404 183.718 275.197 184.068Z" fill="#496075"/>
<path d="M169.406 232.301L160.546 234.867C159.339 235.217 158.643 236.48 158.993 237.688L159.731 240.245C160.08 241.453 161.342 242.15 162.55 241.801L171.409 239.234C172.616 238.884 173.312 237.62 172.963 236.412L172.224 233.856C171.875 232.647 170.613 231.95 169.406 232.301Z" fill="#B8CDE1"/>
<path d="M241.539 211.405L232.679 213.972C231.472 214.322 230.776 215.585 231.125 216.794L231.864 219.35C232.213 220.558 233.475 221.255 234.682 220.905L243.542 218.339C244.749 217.989 245.445 216.725 245.096 215.517L244.357 212.961C244.008 211.751 242.746 211.055 241.539 211.405Z" fill="#ED455D"/>
<path d="M261.976 205.485L253.117 208.051C251.909 208.401 251.214 209.664 251.563 210.874L252.301 213.429C252.651 214.638 253.913 215.335 255.12 214.985L263.979 212.419C265.187 212.069 265.882 210.806 265.533 209.596L264.795 207.04C264.445 205.832 263.183 205.135 261.976 205.485Z" fill="#B8CDE1"/>
<path d="M221.751 216.511L180 228.605C178.792 228.955 178.097 230.218 178.446 231.427L179.184 233.983C179.534 235.191 180.796 235.889 182.003 235.539L223.755 223.444C224.962 223.094 225.657 221.831 225.308 220.622L224.57 218.066C224.22 216.858 222.959 216.161 221.751 216.511Z" fill="#B8CDE1"/>
<path d="M317.93 188.648L276.179 200.743C274.971 201.092 274.276 202.356 274.625 203.565L275.364 206.121C275.713 207.33 276.975 208.026 278.182 207.676L319.934 195.582C321.141 195.232 321.837 193.969 321.487 192.76L320.749 190.204C320.4 188.995 319.138 188.299 317.93 188.648Z" fill="#496075"/>
<path d="M144.209 289.304L135.35 291.87C134.142 292.219 133.447 293.483 133.796 294.691L134.534 297.248C134.884 298.457 136.145 299.153 137.353 298.804L146.212 296.236C147.42 295.887 148.115 294.623 147.766 293.415L147.028 290.859C146.678 289.65 145.416 288.954 144.209 289.304Z" fill="#ED455D"/>
<path d="M164.646 283.383L155.787 285.949C154.58 286.3 153.884 287.563 154.233 288.772L154.972 291.328C155.321 292.536 156.583 293.233 157.79 292.883L166.65 290.317C167.857 289.967 168.553 288.703 168.203 287.494L167.465 284.939C167.116 283.729 165.854 283.033 164.646 283.383Z" fill="#B8CDE1"/>
<path d="M220.933 267.704L179.181 279.8C177.974 280.149 177.278 281.413 177.627 282.621L178.366 285.177C178.715 286.386 179.977 287.082 181.184 286.733L222.936 274.638C224.143 274.289 224.839 273.025 224.49 271.817L223.751 269.261C223.402 268.051 222.14 267.355 220.933 267.704Z" fill="#496075"/>
<path d="M192.321 258.408L183.462 260.974C182.255 261.324 181.559 262.587 181.908 263.797L182.647 266.352C182.996 267.561 184.258 268.258 185.465 267.908L194.325 265.342C195.532 264.991 196.228 263.729 195.878 262.519L195.14 259.963C194.791 258.755 193.529 258.058 192.321 258.408Z" fill="#ED455D"/>
<path d="M212.762 252.486L203.902 255.052C202.695 255.402 201.999 256.665 202.348 257.874L203.087 260.43C203.436 261.639 204.698 262.336 205.905 261.986L214.765 259.419C215.972 259.069 216.668 257.806 216.318 256.597L215.58 254.041C215.231 252.833 213.969 252.136 212.762 252.486Z" fill="#ED455D"/>
<path d="M172.868 264.669L131.117 276.764C129.909 277.113 129.214 278.377 129.563 279.585L130.301 282.141C130.651 283.351 131.913 284.047 133.12 283.697L174.871 271.603C176.079 271.253 176.774 269.989 176.425 268.781L175.687 266.224C175.337 265.016 174.075 264.32 172.868 264.669Z" fill="#B8CDE1"/>
<path d="M269.048 236.808L227.296 248.902C226.089 249.252 225.393 250.515 225.742 251.723L226.481 254.28C226.83 255.489 228.092 256.185 229.299 255.836L271.051 243.741C272.258 243.391 272.954 242.127 272.605 240.919L271.866 238.363C271.517 237.154 270.255 236.457 269.048 236.808Z" fill="#496075"/>
<path d="M173.615 246.868L164.755 249.434C163.548 249.784 162.852 251.047 163.202 252.257L163.94 254.813C164.289 256.021 165.551 256.717 166.759 256.368L175.618 253.802C176.825 253.452 177.521 252.188 177.172 250.979L176.433 248.424C176.084 247.214 174.822 246.518 173.615 246.868Z" fill="#B8CDE1"/>
<path d="M245.748 225.973L236.888 228.539C235.681 228.889 234.985 230.152 235.334 231.362L236.073 233.917C236.422 235.126 237.684 235.823 238.891 235.473L247.751 232.907C248.958 232.557 249.654 231.294 249.305 230.084L248.566 227.528C248.217 226.32 246.955 225.623 245.748 225.973Z" fill="#ED455D"/>
<path d="M266.185 220.053L257.326 222.619C256.118 222.969 255.423 224.233 255.772 225.441L256.51 227.997C256.86 229.205 258.122 229.902 259.329 229.552L268.188 226.986C269.396 226.636 270.091 225.373 269.742 224.164L269.004 221.608C268.654 220.4 267.392 219.702 266.185 220.053Z" fill="#B8CDE1"/>
<path d="M226.294 232.235L184.543 244.329C183.335 244.678 182.64 245.942 182.989 247.151L183.727 249.706C184.077 250.916 185.339 251.612 186.546 251.263L228.297 239.168C229.505 238.819 230.2 237.555 229.851 236.346L229.113 233.79C228.763 232.581 227.501 231.885 226.294 232.235Z" fill="#B8CDE1"/>
<path d="M322.471 204.375L280.72 216.469C279.512 216.819 278.817 218.082 279.166 219.291L279.904 221.847C280.254 223.055 281.516 223.752 282.723 223.402L324.474 211.308C325.682 210.958 326.377 209.694 326.028 208.486L325.29 205.93C324.94 204.721 323.679 204.025 322.471 204.375Z" fill="#496075"/>
<path d="M151.927 260.019C153.891 260.019 155.483 258.425 155.483 256.459C155.483 254.493 153.891 252.899 151.927 252.899C149.963 252.899 148.371 254.493 148.371 256.459C148.371 258.425 149.963 260.019 151.927 260.019Z" fill="#ED455D"/>
<path d="M147.755 245.578C149.719 245.578 151.311 243.985 151.311 242.018C151.311 240.052 149.719 238.458 147.755 238.458C145.791 238.458 144.199 240.052 144.199 242.018C144.199 243.985 145.791 245.578 147.755 245.578Z" fill="#ED455D"/>
<path d="M173.271 36.8239L149.74 43.6402C149.238 43.7836 148.699 43.7218 148.242 43.4683C147.784 43.2148 147.446 42.7902 147.301 42.2876C147.156 41.785 147.215 41.2452 147.467 40.7865C147.718 40.3278 148.141 39.9874 148.642 39.84L172.173 33.0238C172.423 32.9503 172.684 32.9271 172.943 32.9551C173.201 32.9832 173.452 33.0621 173.68 33.1874C173.908 33.3126 174.109 33.4818 174.271 33.6851C174.434 33.8883 174.555 34.1218 174.627 34.3719C174.7 34.6221 174.722 34.8841 174.693 35.1428C174.664 35.4016 174.584 35.6521 174.458 35.8799C174.332 36.1077 174.162 36.3084 173.958 36.4704C173.755 36.6324 173.521 36.7525 173.271 36.8239Z" fill="#25313C"/>
<path d="M184.867 32.9881C185.74 32.9881 186.447 32.2796 186.447 31.4057C186.447 30.5318 185.74 29.8232 184.867 29.8232C183.994 29.8232 183.287 30.5318 183.287 31.4057C183.287 32.2796 183.994 32.9881 184.867 32.9881Z" fill="#25313C"/>
<path d="M259.706 411.781C257.142 412.524 254.415 412.489 251.871 411.679C249.327 410.871 247.08 409.325 245.414 407.237C243.747 405.15 242.736 402.614 242.509 399.951C242.282 397.289 242.848 394.618 244.137 392.278C245.425 389.937 247.378 388.032 249.748 386.803C252.118 385.573 254.799 385.075 257.451 385.372C260.104 385.667 262.609 386.745 264.651 388.467C266.692 390.188 268.177 392.478 268.919 395.045C269.914 398.488 269.502 402.185 267.774 405.324C266.046 408.462 263.144 410.786 259.706 411.781Z" fill="#B8CDE1"/>
<path d="M260.7 396.039L256.864 397.15L255.754 393.309C255.706 393.14 255.624 392.984 255.515 392.847C255.406 392.71 255.271 392.596 255.118 392.512C254.809 392.341 254.445 392.301 254.105 392.399C253.766 392.497 253.48 392.725 253.309 393.035C253.139 393.345 253.098 393.709 253.197 394.049L254.306 397.891L250.47 399.002C250.131 399.101 249.846 399.33 249.676 399.639C249.506 399.949 249.465 400.313 249.563 400.652C249.661 400.992 249.89 401.278 250.198 401.449C250.507 401.619 250.871 401.66 251.21 401.563L255.046 400.452L256.156 404.293C256.205 404.461 256.286 404.618 256.395 404.755C256.504 404.892 256.639 405.005 256.792 405.09C256.945 405.174 257.114 405.228 257.287 405.248C257.461 405.267 257.637 405.252 257.805 405.202C257.973 405.154 258.13 405.073 258.266 404.964C258.403 404.855 258.516 404.719 258.601 404.566C258.685 404.413 258.739 404.245 258.758 404.07C258.777 403.896 258.762 403.72 258.714 403.552L257.604 399.71L261.44 398.599C261.779 398.501 262.065 398.272 262.235 397.962C262.405 397.652 262.445 397.289 262.347 396.949C262.249 396.61 262.021 396.324 261.712 396.152C261.403 395.982 261.039 395.941 260.7 396.039Z" fill="#25313C"/>
<path d="M297.633 400.795C295.069 401.537 292.343 401.502 289.799 400.693C287.255 399.884 285.008 398.339 283.341 396.251C281.675 394.163 280.664 391.627 280.437 388.965C280.209 386.302 280.776 383.631 282.064 381.291C283.353 378.95 285.305 377.045 287.675 375.816C290.045 374.586 292.726 374.088 295.379 374.385C298.032 374.681 300.537 375.759 302.578 377.48C304.619 379.202 306.105 381.491 306.846 384.059C307.841 387.501 307.429 391.198 305.701 394.337C303.974 397.476 301.071 399.799 297.633 400.795Z" fill="#B8CDE1"/>
<path d="M298.628 385.052L294.792 386.163L292.234 386.904L288.398 388.015C288.059 388.113 287.772 388.343 287.602 388.652C287.432 388.962 287.391 389.327 287.489 389.666C287.587 390.006 287.816 390.293 288.125 390.463C288.434 390.633 288.799 390.674 289.138 390.576L292.974 389.465L295.532 388.724L299.368 387.612C299.536 387.564 299.693 387.483 299.83 387.374C299.967 387.265 300.081 387.129 300.165 386.976C300.25 386.823 300.304 386.654 300.323 386.48C300.343 386.306 300.328 386.129 300.279 385.961C300.23 385.793 300.149 385.636 300.04 385.499C299.93 385.362 299.795 385.248 299.642 385.164C299.489 385.079 299.32 385.026 299.146 385.007C298.972 384.988 298.796 385.003 298.628 385.052Z" fill="#25313C"/>
<path d="M335.561 389.808C332.997 390.55 330.271 390.515 327.727 389.706C325.183 388.898 322.935 387.352 321.269 385.264C319.602 383.176 318.592 380.641 318.364 377.978C318.137 375.316 318.703 372.644 319.992 370.305C321.28 367.964 323.233 366.058 325.603 364.829C327.973 363.599 330.654 363.101 333.307 363.398C335.959 363.694 338.465 364.772 340.506 366.493C342.547 368.215 344.032 370.505 344.774 373.072C345.769 376.515 345.357 380.212 343.629 383.351C341.901 386.489 338.999 388.812 335.561 389.808Z" fill="#B8CDE1"/>
<path d="M338.926 374.098L333.699 369.792C333.584 369.696 333.451 369.625 333.308 369.582C333.166 369.539 333.016 369.524 332.868 369.538C332.72 369.552 332.576 369.596 332.444 369.666C332.313 369.736 332.196 369.832 332.102 369.947C332.007 370.062 331.936 370.195 331.892 370.338C331.849 370.48 331.834 370.63 331.848 370.779C331.863 370.927 331.906 371.071 331.976 371.203C332.046 371.335 332.142 371.451 332.257 371.546L335.637 374.332L332.72 375.176L330.162 375.918L326.326 377.029C325.986 377.127 325.7 377.356 325.53 377.665C325.359 377.975 325.319 378.34 325.417 378.679C325.515 379.019 325.744 379.306 326.053 379.476C326.362 379.647 326.726 379.687 327.066 379.589L330.902 378.478L333.459 377.737L336.494 376.859L335.053 381.225C334.96 381.511 334.983 381.823 335.119 382.091C335.254 382.36 335.49 382.564 335.776 382.658C336.061 382.752 336.372 382.729 336.641 382.595C336.909 382.46 337.113 382.223 337.208 381.938L339.331 375.502C339.389 375.253 339.382 374.993 339.311 374.747C339.24 374.502 339.107 374.279 338.926 374.098Z" fill="#25313C"/>
</g>
<defs>
<clipPath id="clip0_2675_1349">
<rect width="406" height="500" rx="10" fill="white"/>
</clipPath>
</defs>
</svg>
