<?xml version="1.0" encoding="UTF-8" standalone="no"?>
<svg
   width="419"
   height="396"
   viewBox="0 0 419 396"
   fill="none"
   version="1.1"
   id="svg56"
   sodipodi:docname="undraw_my_answer_re_k4dv 1.svg"
   inkscape:version="1.1.1 (3bf5ae0d25, 2021-09-20)"
   xmlns:inkscape="http://www.inkscape.org/namespaces/inkscape"
   xmlns:sodipodi="http://sodipodi.sourceforge.net/DTD/sodipodi-0.dtd"
   xmlns="http://www.w3.org/2000/svg"
   xmlns:svg="http://www.w3.org/2000/svg">
  <defs
     id="defs60" />
  <sodipodi:namedview
     id="namedview58"
     pagecolor="#505050"
     bordercolor="#eeeeee"
     borderopacity="1"
     inkscape:pageshadow="0"
     inkscape:pageopacity="0"
     inkscape:pagecheckerboard="0"
     showgrid="false"
     inkscape:zoom="2.0664062"
     inkscape:cx="255.75803"
     inkscape:cy="198.17013"
     inkscape:window-width="3440"
     inkscape:window-height="1369"
     inkscape:window-x="2552"
     inkscape:window-y="-8"
     inkscape:window-maximized="1"
     inkscape:current-layer="svg56" />
  <path
     d="m 284.547,21.1859 c -0.685,0.8563 -1.175,1.8528 -1.434,2.9192 -0.26,1.0665 -0.282,2.1769 -0.067,3.2532 0.215,1.0762 0.664,2.092 1.313,2.9759 0.65,0.8839 1.485,1.6144 2.447,2.1399 l -4.383,26.3177 12.649,-5.6243 2.222,-24.1294 c 0.775,-1.6774 0.908,-3.581 0.375,-5.3501 -0.533,-1.7692 -1.696,-3.2809 -3.267,-4.2488 -1.571,-0.9679 -3.442,-1.3247 -5.259,-1.0028 -1.816,0.3219 -3.451,1.3002 -4.596,2.7495 z"
     fill="#ffb6b6"
     id="path2" />
  <path
     d="m 398.341,385.282 -10.343,-10e-4 -4.92,-39.969 15.265,10e-4 z"
     fill="#ffb6b6"
     id="path4" />
  <path
     d="m 400.979,395.327 -33.35,-10e-4 v -0.423 c 10e-4,-3.449 1.368,-6.757 3.803,-9.196 2.434,-2.439 5.735,-3.809 9.178,-3.809 h 10e-4 l 20.368,10e-4 z"
     fill="#25313c"
     id="path6" />
  <path
     d="m 328.94,385.282 -10.343,-10e-4 -4.92,-39.969 15.265,10e-4 z"
     fill="#ffb6b6"
     id="path8" />
  <path
     d="m 331.578,395.327 -33.349,-10e-4 v -0.423 c 0,-3.449 1.367,-6.757 3.802,-9.196 2.434,-2.439 5.735,-3.809 9.178,-3.809 h 10e-4 l 20.368,10e-4 z"
     fill="#25313c"
     id="path10" />
  <path
     d="m 324.629,198.772 -3.866,5.094 c 0,0 -0.35,2.379 -6.214,21.761 l -3.217,145.679 h 19.458 l 26.01,-116.56 26.993,118.898 16.868,0.997 -0.793,-135.141 c 0,0 2.131,-27.802 -5.421,-32.965 -7.552,-5.164 -69.818,-7.763 -69.818,-7.763 z"
     fill="#25313c"
     id="path12" />
  <path
     d="m 350.723,76.3525 c 11.277,0 20.419,-9.1591 20.419,-20.4574 0,-11.2984 -9.142,-20.4575 -20.419,-20.4575 -11.277,0 -20.418,9.1591 -20.418,20.4575 0,11.2983 9.141,20.4574 20.418,20.4574 z"
     fill="#ffb6b6"
     id="path14" />
  <path
     d="m 371.265,59.0979 -0.337,-0.6756 c -0.521,-1.0449 -4.839,-9.7315 -5.381,-11.965 l -5.434,0.6403 -14.149,0.0023 1.966,-2.9548 -5.198,0.6793 c -1.901,0.2314 -3.717,0.9175 -5.297,2.0003 -0.97,0.6452 -1.789,1.4917 -2.403,2.482 -1.857,3.1858 -4.694,8.3966 -4.722,8.449 l -0.271,0.4985 -2.358,-3.973 c -0.031,-0.1543 -2.952,-15.4215 6.825,-20.5993 0.504,-1.0262 4.802,-9.0978 14.957,-8.553 1.117,-1.2751 2.69,-2.0584 4.378,-2.1803 2.319,-0.1212 4.727,1.0995 7.145,3.6434 3.211,3.3787 7.61,8.0056 10.27,13.1431 l 0.734,1.0491 c 1.043,1.5013 1.559,3.3066 1.469,5.1334 0.565,2.9154 0.364,5.9279 -0.583,8.7421 z"
     fill="#25313c"
     id="path16" />
  <path
     d="m 366.281,80.2018 11.298,6.2566 22.194,6.2262 -6.624,58.1904 1.205,57.32 c 0,0 -37.568,25.785 -73.591,-4.329 v -72.148 l 2.131,-39.0334 c 0,0 8.62,-2.4536 12.961,1.7789 l 8.232,-10.714 z"
     fill="#ed455d"
     id="path18" />
  <path
     d="m 327.872,98.046 -4.978,-5.3612 -27.433,-3.1134 2.575,-42.2133 -14.957,-10.6899 -10.988,59.4283 50.759,35.6215 z"
     fill="#ed455d"
     id="path20" />
  <path
     d="m 383.479,227.136 c -0.205,-1.078 -0.171,-2.188 0.099,-3.252 0.27,-1.064 0.77,-2.055 1.464,-2.905 0.694,-0.849 1.565,-1.536 2.552,-2.011 0.988,-0.476 2.067,-0.729 3.163,-0.741 l 8.445,-25.304 8.541,10.91 -9.33,22.356 c -0.101,1.846 -0.875,3.589 -2.173,4.902 -1.299,1.312 -3.033,2.101 -4.874,2.218 -1.841,0.116 -3.661,-0.447 -5.114,-1.585 -1.454,-1.138 -2.44,-2.77 -2.773,-4.588 z"
     fill="#ffb6b6"
     id="path22" />
  <path
     d="m 391.435,99.3457 8.338,-6.6611 c 0,0 8.526,4.7116 11.121,13.1594 2.594,8.448 7.134,56.537 7.134,56.537 l -12.323,61.735 -13.782,-9.576 6.647,-48.91 -11.675,-35.742 z"
     fill="#ed455d"
     id="path24" />
  <path
     d="M 286.909,0 H 76.6284 V 51.1962 H 286.909 Z"
     fill="#25313c"
     id="path26" />
  <path
     d="M 82.1455,45.6682 H 281.391 V 5.52808 H 82.1455 Z"
     fill="#496075"
     id="path28" />
  <path
     d="m 120.096,40.8905 c 8.429,0 15.263,-6.8466 15.263,-15.2924 0,-8.4457 -6.834,-15.2923 -15.263,-15.2923 -8.43,0 -15.263,6.8466 -15.263,15.2923 0,8.4458 6.833,15.2924 15.263,15.2924 z"
     fill="#ed455d"
     id="path30" />
  <path
     d="m 258.705,19.6141 h -102.11 v 3.3245 h 102.11 z"
     fill="#ed455d"
     id="path32" />
  <path
     d="m 258.705,28.2577 h -102.11 v 3.3244 h 102.11 z"
     fill="#ed455d"
     id="path34" />
  <path
     d="M 0,77.8136 177.922,90.8162 V 137.621 L 0,134.311 Z"
     fill="#25313c"
     id="path36" />
  <path
     d="M 5.60498,128.348 174.038,132.475 V 95.6085 L 5.60498,84.2905 Z"
     fill="#496075"
     id="path38" />
  <path
     d="m 42.5723,91.8305 c 1.9445,0.1257 3.8383,0.675 5.5491,1.6096 1.7159,0.9398 3.238,2.1975 4.4856,3.7062 1.2965,1.5609 2.3121,3.3357 3.0011,5.2457 0.7271,2.009 1.0981,4.13 1.0963,6.267 0.0076,2.105 -0.3637,4.194 -1.0963,6.167 -0.6794,1.832 -1.6975,3.519 -3.0011,4.973 -1.2516,1.398 -2.779,2.52 -4.4856,3.295 -1.7424,0.784 -3.64,1.161 -5.5491,1.101 -1.9538,-0.062 -3.8699,-0.555 -5.6117,-1.445 -1.7642,-0.904 -3.3366,-2.142 -4.6298,-3.646 -1.3568,-1.573 -2.422,-3.376 -3.1453,-5.324 -0.7675,-2.057 -1.1597,-4.236 -1.158,-6.433 -0.0085,-2.164 0.3841,-4.311 1.158,-6.331 0.714,-1.8656 1.7824,-3.5749 3.1461,-5.033 1.2988,-1.3894 2.8768,-2.4873 4.6298,-3.2216 1.7749,-0.7353 3.6942,-1.0538 5.6109,-0.9309 z"
     fill="#b8cde1"
     id="path40" />
  <path
     d="m 75.7104,103.411 81.9766,4.281 v 3.11 l -81.9766,-3.99 z"
     fill="#b8cde1"
     id="path42" />
  <path
     d="m 75.7104,112.254 81.9766,3.526 v 3.11 l -81.9766,-3.236 z"
     fill="#b8cde1"
     id="path44" />
  <path
     d="m 0,172.894 177.922,-3.309 v 46.804 L 0,229.392 Z"
     fill="#25313c"
     id="path46" />
  <path
     d="M 5.60498,222.914 174.038,211.596 V 174.733 L 5.60498,178.861 Z"
     fill="#496075"
     id="path48" />
  <path
     d="m 28.0401,199.113 c 0.0864,-2.195 0.5662,-4.357 1.4166,-6.382 0.7986,-1.908 1.9338,-3.656 3.3513,-5.16 1.3491,-1.438 2.9667,-2.596 4.761,-3.409 1.7747,-0.801 3.7047,-1.196 5.6506,-1.157 1.9096,0.039 3.7854,0.512 5.4857,1.384 1.672,0.864 3.1489,2.064 4.3392,3.523 1.2415,1.521 2.1891,3.26 2.7944,5.128 0.6518,2.008 0.9394,4.117 0.8491,6.226 -0.0818,2.135 -0.5357,4.24 -1.3411,6.218 -0.7618,1.876 -1.8463,3.603 -3.2041,5.103 -1.304,1.447 -2.8735,2.629 -4.6229,3.483 -1.7471,0.849 -3.6594,1.302 -5.601,1.327 -1.9226,0.023 -3.825,-0.395 -5.5613,-1.223 -1.7206,-0.827 -3.2487,-2.007 -4.4856,-3.463 -1.3008,-1.53 -2.2965,-3.296 -2.9333,-5.202 -0.6895,-2.058 -0.9941,-4.227 -0.8986,-6.396 z"
     fill="#b8cde1"
     id="path50" />
  <path
     d="m 75.7104,191.551 81.9766,-3.236 v 3.111 l -81.9766,3.526 z"
     fill="#b8cde1"
     id="path52" />
  <path
     d="m 75.7104,200.393 81.9766,-3.99 v 3.111 l -81.9766,4.28 z"
     fill="#b8cde1"
     id="path54" />
</svg>
