<svg width="500" height="364" viewBox="0 0 500 364" fill="none" xmlns="http://www.w3.org/2000/svg">
<g clip-path="url(#clip0_2647_831)">
<path d="M291.249 64.1165C300.62 64.1165 308.217 56.5189 308.217 47.1467C308.217 37.7745 300.62 30.1768 291.249 30.1768C281.878 30.1768 274.282 37.7745 274.282 47.1467C274.282 56.5189 281.878 64.1165 291.249 64.1165Z" fill="#25313C"/>
<path d="M422.871 315.969C448.092 296.756 460.138 264.472 452.596 233.675C452.409 232.91 452.211 232.146 452.003 231.385C447.003 213.104 434.635 195.73 416.607 189.888C401.471 184.984 384.949 188.755 369.157 186.805C338.158 182.976 314.125 157.891 297.215 131.626C280.305 105.362 267.309 75.962 244.839 54.2636C207.8 18.4974 147.382 10.7969 101.46 34.078C55.5378 57.3592 26.286 109.01 27.5335 160.487C28.7811 211.964 59.3364 261.18 103.71 287.292C120.012 296.884 138.865 303.68 157.629 301.302C173.91 299.239 188.703 290.489 204.907 287.892C230.384 283.808 255.698 295.329 277.733 308.753C299.769 322.178 321.053 338.091 346.094 344.314C370.408 350.357 400.53 332.988 422.871 315.969Z" fill="#25313C"/>
<path d="M386.636 35.159C386.083 34.7904 385.524 34.4408 384.971 34.0849C368.99 23.8624 351.86 15.5578 333.937 9.34263L329.781 66.6826H303.434V0.972341C301.776 0.62914 300.104 0.305006 298.433 -6.10352e-05V66.6826H267.123C249.887 66.6826 233.357 59.8346 221.169 47.645C208.981 35.4555 202.134 18.9229 202.134 1.68424V1.68418C200.456 2.04645 198.792 2.43414 197.127 2.84725V66.6826H171.625L167.666 12.0056C149.247 19.0707 131.76 28.3615 115.596 39.6714C115.316 39.8621 115.037 40.0591 114.763 40.2498C113.359 41.2349 111.974 42.2391 110.595 43.256V262.008H185.752L184.424 243.609L177.116 142.587H324.284L316.976 243.609L315.648 262.008H389.972V37.3707C388.867 36.6208 387.755 35.8835 386.636 35.159ZM197.127 125.904H175.908L171.987 71.6908H197.127V125.904ZM298.433 125.904H262.796V124.83C262.796 124.313 262.694 123.802 262.497 123.325C262.299 122.848 262.009 122.415 261.644 122.05C261.278 121.685 260.845 121.396 260.367 121.199C259.89 121.002 259.379 120.901 258.862 120.902H243.37C242.854 120.902 242.343 121.003 241.867 121.201C241.39 121.398 240.957 121.687 240.592 122.052C240.228 122.417 239.938 122.85 239.741 123.326C239.544 123.803 239.442 124.314 239.443 124.83V125.904H202.134V71.6908H298.433V125.904ZM303.434 125.904V71.6908H329.419L325.498 125.904H303.434Z" fill="#496075"/>
<path d="M0 276.017C5.52048 282.559 11.4915 288.707 17.8694 294.416L482.131 295.052C488.508 289.343 494.479 283.194 500 276.652L0 276.017Z" fill="#496075"/>
<path d="M314.831 217.101V271.571C314.831 272.265 315.107 272.93 315.598 273.421C316.089 273.912 316.754 274.188 317.448 274.189H398.156C398.85 274.188 399.515 273.912 400.006 273.421C400.497 272.93 400.773 272.265 400.773 271.571V217.101C400.771 216.407 400.495 215.743 400.004 215.253C399.514 214.762 398.849 214.487 398.156 214.486H317.448C316.755 214.487 316.09 214.762 315.599 215.253C315.109 215.743 314.832 216.407 314.831 217.101Z" fill="#496075"/>
<path d="M316.724 217.779V270.899C316.724 271.27 316.872 271.625 317.134 271.887C317.396 272.15 317.752 272.297 318.123 272.298H397.483C397.854 272.297 398.21 272.15 398.472 271.887C398.734 271.625 398.882 271.27 398.882 270.899V217.779C398.882 217.407 398.735 217.051 398.473 216.788C398.211 216.525 397.855 216.377 397.483 216.377H318.123C317.751 216.377 317.396 216.525 317.133 216.788C316.871 217.051 316.724 217.407 316.724 217.779Z" fill="#25313C"/>
<path d="M313.143 282.194C313.291 282.379 313.478 282.529 313.692 282.631C313.906 282.733 314.141 282.786 314.378 282.785H400.796C401.033 282.784 401.266 282.731 401.479 282.63C401.693 282.528 401.881 282.38 402.029 282.196C402.178 282.013 402.284 281.798 402.34 281.568C402.396 281.339 402.399 281.099 402.351 280.868L401.009 274.495C400.954 274.235 400.834 273.993 400.661 273.792C400.488 273.59 400.268 273.435 400.019 273.34C399.839 273.269 399.648 273.233 399.455 273.233H315.714C315.521 273.233 315.329 273.269 315.15 273.34C314.901 273.435 314.681 273.59 314.508 273.792C314.335 273.993 314.215 274.235 314.159 274.495L312.818 280.868C312.77 281.099 312.775 281.338 312.831 281.568C312.887 281.797 312.994 282.011 313.143 282.194Z" fill="#B8CDE1"/>
<path d="M396.489 275.978H398.531C398.702 275.978 398.841 275.839 398.841 275.668V274.691C398.841 274.52 398.702 274.381 398.531 274.381H396.489C396.318 274.381 396.179 274.52 396.179 274.691V275.668C396.179 275.839 396.318 275.978 396.489 275.978Z" fill="#496075"/>
<path d="M391.166 275.978H393.207C393.379 275.978 393.518 275.839 393.518 275.668V274.691C393.518 274.52 393.379 274.381 393.207 274.381H391.166C390.995 274.381 390.856 274.52 390.856 274.691V275.668C390.856 275.839 390.995 275.978 391.166 275.978Z" fill="#496075"/>
<path d="M385.843 275.978H387.884C388.055 275.978 388.194 275.839 388.194 275.668V274.691C388.194 274.52 388.055 274.381 387.884 274.381H385.843C385.672 274.381 385.533 274.52 385.533 274.691V275.668C385.533 275.839 385.672 275.978 385.843 275.978Z" fill="#496075"/>
<path d="M380.52 275.978H382.561C382.732 275.978 382.871 275.839 382.871 275.668V274.691C382.871 274.52 382.732 274.381 382.561 274.381H380.52C380.348 274.381 380.209 274.52 380.209 274.691V275.668C380.209 275.839 380.348 275.978 380.52 275.978Z" fill="#496075"/>
<path d="M375.196 275.978H377.238C377.409 275.978 377.548 275.839 377.548 275.668V274.691C377.548 274.52 377.409 274.381 377.238 274.381H375.196C375.025 274.381 374.886 274.52 374.886 274.691V275.668C374.886 275.839 375.025 275.978 375.196 275.978Z" fill="#496075"/>
<path d="M369.873 275.978H371.914C372.086 275.978 372.225 275.839 372.225 275.668V274.691C372.225 274.52 372.086 274.381 371.914 274.381H369.873C369.702 274.381 369.563 274.52 369.563 274.691V275.668C369.563 275.839 369.702 275.978 369.873 275.978Z" fill="#496075"/>
<path d="M364.55 275.978H366.591C366.762 275.978 366.901 275.839 366.901 275.668V274.691C366.901 274.52 366.762 274.381 366.591 274.381H364.55C364.379 274.381 364.24 274.52 364.24 274.691V275.668C364.24 275.839 364.379 275.978 364.55 275.978Z" fill="#496075"/>
<path d="M359.227 275.978H361.268C361.439 275.978 361.578 275.839 361.578 275.668V274.691C361.578 274.52 361.439 274.381 361.268 274.381H359.227C359.055 274.381 358.916 274.52 358.916 274.691V275.668C358.916 275.839 359.055 275.978 359.227 275.978Z" fill="#496075"/>
<path d="M353.903 275.978H355.944C356.116 275.978 356.254 275.839 356.254 275.668V274.691C356.254 274.52 356.116 274.381 355.944 274.381H353.903C353.732 274.381 353.593 274.52 353.593 274.691V275.668C353.593 275.839 353.732 275.978 353.903 275.978Z" fill="#496075"/>
<path d="M348.58 275.978H350.621C350.792 275.978 350.931 275.839 350.931 275.668V274.691C350.931 274.52 350.792 274.381 350.621 274.381H348.58C348.408 274.381 348.27 274.52 348.27 274.691V275.668C348.27 275.839 348.408 275.978 348.58 275.978Z" fill="#496075"/>
<path d="M343.256 275.978H345.298C345.469 275.978 345.608 275.839 345.608 275.668V274.691C345.608 274.52 345.469 274.381 345.298 274.381H343.256C343.085 274.381 342.946 274.52 342.946 274.691V275.668C342.946 275.839 343.085 275.978 343.256 275.978Z" fill="#496075"/>
<path d="M337.933 275.978H339.974C340.146 275.978 340.285 275.839 340.285 275.668V274.691C340.285 274.52 340.146 274.381 339.974 274.381H337.933C337.762 274.381 337.623 274.52 337.623 274.691V275.668C337.623 275.839 337.762 275.978 337.933 275.978Z" fill="#496075"/>
<path d="M332.61 275.978H334.651C334.823 275.978 334.961 275.839 334.961 275.668V274.691C334.961 274.52 334.823 274.381 334.651 274.381H332.61C332.439 274.381 332.3 274.52 332.3 274.691V275.668C332.3 275.839 332.439 275.978 332.61 275.978Z" fill="#496075"/>
<path d="M327.287 275.978H329.328C329.499 275.978 329.638 275.839 329.638 275.668V274.691C329.638 274.52 329.499 274.381 329.328 274.381H327.287C327.115 274.381 326.976 274.52 326.976 274.691V275.668C326.976 275.839 327.115 275.978 327.287 275.978Z" fill="#496075"/>
<path d="M321.963 275.978H324.004C324.176 275.978 324.314 275.839 324.314 275.668V274.691C324.314 274.52 324.176 274.381 324.004 274.381H321.963C321.792 274.381 321.653 274.52 321.653 274.691V275.668C321.653 275.839 321.792 275.978 321.963 275.978Z" fill="#496075"/>
<path d="M316.64 275.978H318.681C318.852 275.978 318.991 275.839 318.991 275.668V274.691C318.991 274.52 318.852 274.381 318.681 274.381H316.64C316.468 274.381 316.33 274.52 316.33 274.691V275.668C316.33 275.839 316.468 275.978 316.64 275.978Z" fill="#496075"/>
<path d="M396.552 278.64H398.594C398.765 278.64 398.904 278.501 398.904 278.33V277.353C398.904 277.182 398.765 277.043 398.594 277.043H396.552C396.381 277.043 396.242 277.182 396.242 277.353V278.33C396.242 278.501 396.381 278.64 396.552 278.64Z" fill="#496075"/>
<path d="M391.229 278.64H393.27C393.442 278.64 393.581 278.501 393.581 278.33V277.353C393.581 277.182 393.442 277.043 393.27 277.043H391.229C391.058 277.043 390.919 277.182 390.919 277.353V278.33C390.919 278.501 391.058 278.64 391.229 278.64Z" fill="#496075"/>
<path d="M385.906 278.64H387.947C388.118 278.64 388.257 278.501 388.257 278.33V277.353C388.257 277.182 388.118 277.043 387.947 277.043H385.906C385.735 277.043 385.596 277.182 385.596 277.353V278.33C385.596 278.501 385.735 278.64 385.906 278.64Z" fill="#496075"/>
<path d="M380.583 278.64H382.624C382.795 278.64 382.934 278.501 382.934 278.33V277.353C382.934 277.182 382.795 277.043 382.624 277.043H380.583C380.411 277.043 380.272 277.182 380.272 277.353V278.33C380.272 278.501 380.411 278.64 380.583 278.64Z" fill="#496075"/>
<path d="M375.259 278.64H377.301C377.472 278.64 377.611 278.501 377.611 278.33V277.353C377.611 277.182 377.472 277.043 377.301 277.043H375.259C375.088 277.043 374.949 277.182 374.949 277.353V278.33C374.949 278.501 375.088 278.64 375.259 278.64Z" fill="#496075"/>
<path d="M369.936 278.64H371.977C372.149 278.64 372.288 278.501 372.288 278.33V277.353C372.288 277.182 372.149 277.043 371.977 277.043H369.936C369.765 277.043 369.626 277.182 369.626 277.353V278.33C369.626 278.501 369.765 278.64 369.936 278.64Z" fill="#496075"/>
<path d="M364.612 278.64H366.654C366.825 278.64 366.964 278.501 366.964 278.33V277.353C366.964 277.182 366.825 277.043 366.654 277.043H364.612C364.441 277.043 364.302 277.182 364.302 277.353V278.33C364.302 278.501 364.441 278.64 364.612 278.64Z" fill="#496075"/>
<path d="M359.289 278.64H361.33C361.502 278.64 361.641 278.501 361.641 278.33V277.353C361.641 277.182 361.502 277.043 361.33 277.043H359.289C359.118 277.043 358.979 277.182 358.979 277.353V278.33C358.979 278.501 359.118 278.64 359.289 278.64Z" fill="#496075"/>
<path d="M353.966 278.64H356.007C356.179 278.64 356.317 278.501 356.317 278.33V277.353C356.317 277.182 356.179 277.043 356.007 277.043H353.966C353.795 277.043 353.656 277.182 353.656 277.353V278.33C353.656 278.501 353.795 278.64 353.966 278.64Z" fill="#496075"/>
<path d="M348.643 278.64H350.684C350.855 278.64 350.994 278.501 350.994 278.33V277.353C350.994 277.182 350.855 277.043 350.684 277.043H348.643C348.471 277.043 348.332 277.182 348.332 277.353V278.33C348.332 278.501 348.471 278.64 348.643 278.64Z" fill="#496075"/>
<path d="M343.32 278.64H345.361C345.532 278.64 345.671 278.501 345.671 278.33V277.353C345.671 277.182 345.532 277.043 345.361 277.043H343.32C343.148 277.043 343.009 277.182 343.009 277.353V278.33C343.009 278.501 343.148 278.64 343.32 278.64Z" fill="#496075"/>
<path d="M337.996 278.64H340.037C340.209 278.64 340.348 278.501 340.348 278.33V277.353C340.348 277.182 340.209 277.043 340.037 277.043H337.996C337.825 277.043 337.686 277.182 337.686 277.353V278.33C337.686 278.501 337.825 278.64 337.996 278.64Z" fill="#496075"/>
<path d="M332.673 278.64H334.714C334.886 278.64 335.024 278.501 335.024 278.33V277.353C335.024 277.182 334.886 277.043 334.714 277.043H332.673C332.502 277.043 332.363 277.182 332.363 277.353V278.33C332.363 278.501 332.502 278.64 332.673 278.64Z" fill="#496075"/>
<path d="M327.35 278.64H329.391C329.562 278.64 329.701 278.501 329.701 278.33V277.353C329.701 277.182 329.562 277.043 329.391 277.043H327.35C327.178 277.043 327.04 277.182 327.04 277.353V278.33C327.04 278.501 327.178 278.64 327.35 278.64Z" fill="#496075"/>
<path d="M322.026 278.64H324.067C324.239 278.64 324.377 278.501 324.377 278.33V277.353C324.377 277.182 324.239 277.043 324.067 277.043H322.026C321.855 277.043 321.716 277.182 321.716 277.353V278.33C321.716 278.501 321.855 278.64 322.026 278.64Z" fill="#496075"/>
<path d="M316.703 278.64H318.744C318.915 278.64 319.054 278.501 319.054 278.33V277.353C319.054 277.182 318.915 277.043 318.744 277.043H316.703C316.531 277.043 316.392 277.182 316.392 277.353V278.33C316.392 278.501 316.531 278.64 316.703 278.64Z" fill="#496075"/>
<path d="M352.369 281.835H373.042C373.213 281.835 373.352 281.696 373.352 281.524V280.548C373.352 280.376 373.213 280.238 373.042 280.238H352.369C352.198 280.238 352.059 280.376 352.059 280.548V281.524C352.059 281.696 352.198 281.835 352.369 281.835Z" fill="#496075"/>
<path d="M330.467 227.998H328.66C328.112 227.998 327.668 228.442 327.668 228.99C327.668 229.538 328.112 229.982 328.66 229.982H330.467C331.015 229.982 331.459 229.538 331.459 228.99C331.459 228.442 331.015 227.998 330.467 227.998Z" fill="#ED455D"/>
<path d="M351.134 227.998H349.327C348.779 227.998 348.335 228.442 348.335 228.99C348.335 229.538 348.779 229.982 349.327 229.982H351.134C351.682 229.982 352.126 229.538 352.126 228.99C352.126 228.442 351.682 227.998 351.134 227.998Z" fill="#ED455D"/>
<path d="M356.99 227.998H355.183C354.635 227.998 354.191 228.442 354.191 228.99C354.191 229.538 354.635 229.982 355.183 229.982H356.99C357.538 229.982 357.982 229.538 357.982 228.99C357.982 228.442 357.538 227.998 356.99 227.998Z" fill="#ED455D"/>
<path d="M345.513 227.833H334.282C333.734 227.833 333.29 228.277 333.29 228.825C333.29 229.373 333.734 229.817 334.282 229.817H345.513C346.061 229.817 346.505 229.373 346.505 228.825C346.505 228.277 346.061 227.833 345.513 227.833Z" fill="#ED455D"/>
<path d="M373.069 227.833H361.838C361.29 227.833 360.846 228.277 360.846 228.825C360.846 229.373 361.29 229.817 361.838 229.817H373.069C373.617 229.817 374.061 229.373 374.061 228.825C374.061 228.277 373.617 227.833 373.069 227.833Z" fill="#ED455D"/>
<path d="M335.978 232.477H334.171C333.623 232.477 333.179 232.921 333.179 233.469C333.179 234.017 333.623 234.461 334.171 234.461H335.978C336.526 234.461 336.97 234.017 336.97 233.469C336.97 232.921 336.526 232.477 335.978 232.477Z" fill="#ED455D"/>
<path d="M356.646 232.477H354.839C354.291 232.477 353.847 232.921 353.847 233.469C353.847 234.017 354.291 234.461 354.839 234.461H356.646C357.194 234.461 357.638 234.017 357.638 233.469C357.638 232.921 357.194 232.477 356.646 232.477Z" fill="#ED455D"/>
<path d="M362.501 232.477H360.694C360.146 232.477 359.702 232.921 359.702 233.469C359.702 234.017 360.146 234.461 360.694 234.461H362.501C363.049 234.461 363.493 234.017 363.493 233.469C363.493 232.921 363.049 232.477 362.501 232.477Z" fill="#ED455D"/>
<path d="M351.024 232.311H339.793C339.245 232.311 338.801 232.755 338.801 233.303C338.801 233.851 339.245 234.295 339.793 234.295H351.024C351.572 234.295 352.016 233.851 352.016 233.303C352.016 232.755 351.572 232.311 351.024 232.311Z" fill="#ED455D"/>
<path d="M378.58 232.311H367.349C366.801 232.311 366.357 232.755 366.357 233.303C366.357 233.851 366.801 234.295 367.349 234.295H378.58C379.128 234.295 379.572 233.851 379.572 233.303C379.572 232.755 379.128 232.311 378.58 232.311Z" fill="#ED455D"/>
<path d="M341.49 236.955H339.682C339.135 236.955 338.69 237.399 338.69 237.947C338.69 238.495 339.135 238.939 339.682 238.939H341.49C342.037 238.939 342.482 238.495 342.482 237.947C342.482 237.399 342.037 236.955 341.49 236.955Z" fill="#ED455D"/>
<path d="M362.157 236.955H360.35C359.802 236.955 359.358 237.399 359.358 237.947C359.358 238.495 359.802 238.939 360.35 238.939H362.157C362.705 238.939 363.149 238.495 363.149 237.947C363.149 237.399 362.705 236.955 362.157 236.955Z" fill="#ED455D"/>
<path d="M368.012 236.955H366.205C365.658 236.955 365.213 237.399 365.213 237.947C365.213 238.495 365.658 238.939 366.205 238.939H368.012C368.56 238.939 369.004 238.495 369.004 237.947C369.004 237.399 368.56 236.955 368.012 236.955Z" fill="#ED455D"/>
<path d="M356.535 236.79H345.304C344.756 236.79 344.312 237.234 344.312 237.782C344.312 238.33 344.756 238.774 345.304 238.774H356.535C357.083 238.774 357.527 238.33 357.527 237.782C357.527 237.234 357.083 236.79 356.535 236.79Z" fill="#ED455D"/>
<path d="M384.092 236.79H372.861C372.313 236.79 371.869 237.234 371.869 237.782C371.869 238.33 372.313 238.774 372.861 238.774H384.092C384.64 238.774 385.084 238.33 385.084 237.782C385.084 237.234 384.64 236.79 384.092 236.79Z" fill="#ED455D"/>
<path d="M347.001 241.434H345.194C344.646 241.434 344.202 241.878 344.202 242.426C344.202 242.974 344.646 243.418 345.194 243.418H347.001C347.549 243.418 347.993 242.974 347.993 242.426C347.993 241.878 347.549 241.434 347.001 241.434Z" fill="#ED455D"/>
<path d="M367.668 241.434H365.861C365.313 241.434 364.869 241.878 364.869 242.426C364.869 242.974 365.313 243.418 365.861 243.418H367.668C368.216 243.418 368.66 242.974 368.66 242.426C368.66 241.878 368.216 241.434 367.668 241.434Z" fill="#ED455D"/>
<path d="M373.524 241.434H371.717C371.169 241.434 370.725 241.878 370.725 242.426C370.725 242.974 371.169 243.418 371.717 243.418H373.524C374.072 243.418 374.516 242.974 374.516 242.426C374.516 241.878 374.072 241.434 373.524 241.434Z" fill="#ED455D"/>
<path d="M362.047 241.268H350.815C350.267 241.268 349.823 241.712 349.823 242.26C349.823 242.808 350.267 243.253 350.815 243.253H362.047C362.594 243.253 363.039 242.808 363.039 242.26C363.039 241.712 362.594 241.268 362.047 241.268Z" fill="#ED455D"/>
<path d="M351.134 259.242H349.327C348.779 259.242 348.335 259.687 348.335 260.234C348.335 260.782 348.779 261.227 349.327 261.227H351.134C351.682 261.227 352.126 260.782 352.126 260.234C352.126 259.687 351.682 259.242 351.134 259.242Z" fill="#ED455D"/>
<path d="M356.99 259.242H355.183C354.635 259.242 354.191 259.687 354.191 260.234C354.191 260.782 354.635 261.227 355.183 261.227H356.99C357.538 261.227 357.982 260.782 357.982 260.234C357.982 259.687 357.538 259.242 356.99 259.242Z" fill="#ED455D"/>
<path d="M373.069 259.408H361.838C361.29 259.408 360.846 259.852 360.846 260.4C360.846 260.948 361.29 261.392 361.838 261.392H373.069C373.617 261.392 374.061 260.948 374.061 260.4C374.061 259.852 373.617 259.408 373.069 259.408Z" fill="#ED455D"/>
<path d="M330.467 259.242H328.66C328.112 259.242 327.668 259.687 327.668 260.234C327.668 260.782 328.112 261.227 328.66 261.227H330.467C331.015 261.227 331.459 260.782 331.459 260.234C331.459 259.687 331.015 259.242 330.467 259.242Z" fill="#ED455D"/>
<path d="M345.513 259.408H334.282C333.734 259.408 333.29 259.852 333.29 260.4C333.29 260.948 333.734 261.392 334.282 261.392H345.513C346.061 261.392 346.505 260.948 346.505 260.4C346.505 259.852 346.061 259.408 345.513 259.408Z" fill="#ED455D"/>
<path d="M335.978 254.764H334.171C333.623 254.764 333.179 255.208 333.179 255.756C333.179 256.304 333.623 256.748 334.171 256.748H335.978C336.526 256.748 336.97 256.304 336.97 255.756C336.97 255.208 336.526 254.764 335.978 254.764Z" fill="#ED455D"/>
<path d="M356.646 254.764H354.839C354.291 254.764 353.847 255.208 353.847 255.756C353.847 256.304 354.291 256.748 354.839 256.748H356.646C357.194 256.748 357.638 256.304 357.638 255.756C357.638 255.208 357.194 254.764 356.646 254.764Z" fill="#ED455D"/>
<path d="M362.501 254.764H360.694C360.146 254.764 359.702 255.208 359.702 255.756C359.702 256.304 360.146 256.748 360.694 256.748H362.501C363.049 256.748 363.493 256.304 363.493 255.756C363.493 255.208 363.049 254.764 362.501 254.764Z" fill="#ED455D"/>
<path d="M351.024 254.929H339.793C339.245 254.929 338.801 255.373 338.801 255.921C338.801 256.469 339.245 256.913 339.793 256.913H351.024C351.572 256.913 352.016 256.469 352.016 255.921C352.016 255.373 351.572 254.929 351.024 254.929Z" fill="#ED455D"/>
<path d="M341.49 250.285H339.682C339.135 250.285 338.69 250.729 338.69 251.277C338.69 251.825 339.135 252.269 339.682 252.269H341.49C342.037 252.269 342.482 251.825 342.482 251.277C342.482 250.729 342.037 250.285 341.49 250.285Z" fill="#ED455D"/>
<path d="M362.157 250.285H360.35C359.802 250.285 359.358 250.729 359.358 251.277C359.358 251.825 359.802 252.269 360.35 252.269H362.157C362.705 252.269 363.149 251.825 363.149 251.277C363.149 250.729 362.705 250.285 362.157 250.285Z" fill="#ED455D"/>
<path d="M368.012 250.285H366.205C365.658 250.285 365.213 250.729 365.213 251.277C365.213 251.825 365.658 252.269 366.205 252.269H368.012C368.56 252.269 369.004 251.825 369.004 251.277C369.004 250.729 368.56 250.285 368.012 250.285Z" fill="#ED455D"/>
<path d="M356.535 250.451H345.304C344.756 250.451 344.312 250.895 344.312 251.443C344.312 251.991 344.756 252.435 345.304 252.435H356.535C357.083 252.435 357.527 251.991 357.527 251.443C357.527 250.895 357.083 250.451 356.535 250.451Z" fill="#ED455D"/>
<path d="M347.001 245.807H345.194C344.646 245.807 344.202 246.251 344.202 246.799C344.202 247.347 344.646 247.791 345.194 247.791H347.001C347.549 247.791 347.993 247.347 347.993 246.799C347.993 246.251 347.549 245.807 347.001 245.807Z" fill="#ED455D"/>
<path d="M367.668 245.807H365.861C365.313 245.807 364.869 246.251 364.869 246.799C364.869 247.347 365.313 247.791 365.861 247.791H367.668C368.216 247.791 368.66 247.347 368.66 246.799C368.66 246.251 368.216 245.807 367.668 245.807Z" fill="#ED455D"/>
<path d="M373.524 245.807H371.717C371.169 245.807 370.725 246.251 370.725 246.799C370.725 247.347 371.169 247.791 371.717 247.791H373.524C374.072 247.791 374.516 247.347 374.516 246.799C374.516 246.251 374.072 245.807 373.524 245.807Z" fill="#ED455D"/>
<path d="M362.047 245.972H350.815C350.267 245.972 349.823 246.416 349.823 246.964C349.823 247.512 350.267 247.956 350.815 247.956H362.047C362.594 247.956 363.039 247.512 363.039 246.964C363.039 246.416 362.594 245.972 362.047 245.972Z" fill="#ED455D"/>
<path d="M320.859 311.729L312.376 298.318L339.003 277.089L349.994 264.911C351.422 263.328 353.24 262.149 355.267 261.49C357.293 260.83 359.457 260.715 361.542 261.154C363.628 261.593 365.561 262.572 367.15 263.993C368.738 265.413 369.926 267.226 370.595 269.25C371.585 272.249 371.372 275.516 370.001 278.361C368.629 281.205 366.206 283.406 363.242 284.498L345.863 290.901L320.859 311.729Z" fill="#FFB6B6"/>
<path d="M121.813 214.488V279.671H167.471V214.488C167.472 214.02 167.323 213.563 167.045 213.185C166.767 212.808 166.375 212.53 165.927 212.391C165.716 212.321 165.495 212.287 165.273 212.289H124.018C123.729 212.289 123.442 212.345 123.175 212.456C122.908 212.566 122.665 212.728 122.46 212.932C122.255 213.136 122.093 213.379 121.982 213.646C121.871 213.913 121.813 214.199 121.813 214.488ZM139.632 236.885C139.643 235.6 140.162 234.372 141.075 233.468C141.988 232.563 143.221 232.056 144.506 232.056C145.79 232.056 147.023 232.563 147.936 233.468C148.849 234.372 149.368 235.6 149.38 236.885V244.449C149.373 245.737 148.857 246.971 147.943 247.88C147.03 248.788 145.794 249.299 144.506 249.299C143.217 249.299 141.981 248.788 141.068 247.88C140.155 246.971 139.638 245.737 139.632 244.449V236.885Z" fill="#B8CDE1"/>
<path d="M121.673 277.587V283.872C121.674 284.198 121.804 284.51 122.033 284.741C122.263 284.972 122.574 285.103 122.9 285.105H166.385C166.711 285.104 167.023 284.973 167.253 284.742C167.482 284.511 167.611 284.198 167.611 283.872V277.587H121.673Z" fill="#496075"/>
<path d="M49.9858 116.282V235.297C49.987 236.813 50.59 238.267 51.6623 239.34C52.7346 240.412 54.1886 241.015 55.7051 241.017H232.048C233.564 241.015 235.018 240.412 236.091 239.34C237.163 238.267 237.766 236.813 237.767 235.297V116.282C237.763 114.767 237.159 113.315 236.088 112.244C235.016 111.173 233.563 110.57 232.048 110.568H55.7051C54.1899 110.57 52.7373 111.173 51.6653 112.244C50.5934 113.315 49.9895 114.767 49.9858 116.282Z" fill="#496075"/>
<path d="M54.123 117.763V233.828C54.1244 234.639 54.4469 235.415 55.0198 235.988C55.5928 236.561 56.3694 236.884 57.1797 236.885H230.58C231.39 236.884 232.167 236.561 232.74 235.988C233.313 235.415 233.635 234.639 233.637 233.828V117.763C233.637 116.952 233.315 116.173 232.742 115.599C232.169 115.025 231.391 114.701 230.58 114.7H57.1797C56.3684 114.701 55.591 115.025 55.018 115.599C54.445 116.173 54.1231 116.952 54.123 117.763Z" fill="#25313C"/>
<path d="M86.3033 284.679C86.4798 284.901 86.7041 285.079 86.9595 285.201C87.2148 285.324 87.4945 285.386 87.7776 285.385H190.94C191.222 285.384 191.5 285.321 191.755 285.2C192.01 285.078 192.234 284.901 192.412 284.682C192.589 284.463 192.716 284.207 192.782 283.933C192.849 283.659 192.853 283.373 192.795 283.097L191.194 275.489C191.127 275.179 190.985 274.89 190.778 274.649C190.572 274.408 190.308 274.223 190.012 274.11C189.797 274.026 189.569 273.983 189.338 273.983H89.3726C89.1421 273.983 88.9136 274.026 88.699 274.11C88.4026 274.223 88.1392 274.408 87.9327 274.649C87.7263 274.89 87.5834 275.179 87.517 275.489L85.9156 283.097C85.8587 283.373 85.8639 283.658 85.9309 283.932C85.998 284.206 86.1252 284.461 86.3033 284.679Z" fill="#B8CDE1"/>
<path d="M224.953 130.688H62.7023C62.5337 130.684 62.3732 130.615 62.2553 130.494C62.1373 130.374 62.0713 130.211 62.0713 130.043C62.0713 129.874 62.1373 129.712 62.2553 129.591C62.3732 129.471 62.5337 129.401 62.7023 129.397H224.953C225.121 129.401 225.282 129.471 225.4 129.591C225.518 129.712 225.584 129.874 225.584 130.043C225.584 130.211 225.518 130.374 225.4 130.494C225.282 130.615 225.121 130.684 224.953 130.688Z" fill="#496075"/>
<path d="M73.7471 126.103C75.8355 126.103 77.5285 124.372 77.5285 122.236C77.5285 120.101 75.8355 118.37 73.7471 118.37C71.6588 118.37 69.9658 120.101 69.9658 122.236C69.9658 124.372 71.6588 126.103 73.7471 126.103Z" fill="#496075"/>
<path d="M86.8096 126.103C88.898 126.103 90.5909 124.372 90.5909 122.236C90.5909 120.101 88.898 118.37 86.8096 118.37C84.7213 118.37 83.0283 120.101 83.0283 122.236C83.0283 124.372 84.7213 126.103 86.8096 126.103Z" fill="#496075"/>
<path d="M99.8726 126.103C101.961 126.103 103.654 124.372 103.654 122.236C103.654 120.101 101.961 118.37 99.8726 118.37C97.7843 118.37 96.0913 120.101 96.0913 122.236C96.0913 124.372 97.7843 126.103 99.8726 126.103Z" fill="#496075"/>
<path d="M217.087 119.326H207.809C207.626 119.331 207.451 119.407 207.323 119.538C207.195 119.669 207.123 119.845 207.123 120.029C207.123 120.212 207.195 120.388 207.323 120.52C207.451 120.651 207.626 120.727 207.809 120.731H217.087C217.271 120.728 217.448 120.653 217.577 120.522C217.707 120.39 217.779 120.213 217.779 120.029C217.779 119.844 217.707 119.667 217.577 119.536C217.448 119.404 217.271 119.329 217.087 119.326Z" fill="#496075"/>
<path d="M217.087 121.964H207.809C207.625 121.968 207.451 122.044 207.322 122.175C207.194 122.306 207.122 122.483 207.122 122.666C207.122 122.85 207.194 123.026 207.322 123.157C207.451 123.289 207.625 123.365 207.809 123.369H217.087C217.272 123.366 217.448 123.291 217.578 123.16C217.708 123.028 217.781 122.851 217.781 122.666C217.781 122.481 217.708 122.304 217.578 122.173C217.448 122.041 217.272 121.966 217.087 121.964Z" fill="#496075"/>
<path d="M217.087 124.602H207.809C207.626 124.606 207.451 124.682 207.323 124.813C207.195 124.944 207.123 125.12 207.123 125.304C207.123 125.487 207.195 125.664 207.323 125.795C207.451 125.926 207.626 126.002 207.809 126.006H217.087C217.271 126.004 217.448 125.928 217.577 125.797C217.707 125.666 217.779 125.488 217.779 125.304C217.779 125.119 217.707 124.942 217.577 124.811C217.448 124.679 217.271 124.604 217.087 124.602Z" fill="#496075"/>
<path d="M440.759 280.345C441.039 281.16 441.57 281.866 442.276 282.361C442.982 282.855 443.826 283.113 444.688 283.098L461.523 282.664C462.391 282.648 463.23 282.35 463.915 281.817C464.6 281.283 465.094 280.542 465.323 279.705L467.706 254.227C468.551 254.61 469.471 254.799 470.399 254.78C471.205 254.76 471.999 254.581 472.736 254.254C473.473 253.927 474.138 253.458 474.694 252.874C475.249 252.289 475.684 251.601 475.974 250.849C476.264 250.096 476.402 249.294 476.382 248.488C476.362 247.682 476.183 246.888 475.856 246.151C475.529 245.414 475.06 244.748 474.476 244.193C473.891 243.637 473.203 243.202 472.451 242.912C471.699 242.622 470.897 242.483 470.091 242.504C469.72 242.502 469.35 242.541 468.987 242.618C468.593 242.192 468.114 241.852 467.58 241.622C467.047 241.392 466.471 241.276 465.89 241.282L439.994 241.951C439.78 241.958 439.566 241.985 439.356 242.03C438.788 242.136 438.249 242.362 437.776 242.694C437.303 243.025 436.906 243.454 436.613 243.952C436.319 244.45 436.136 245.004 436.075 245.579C436.014 246.153 436.077 246.734 436.259 247.283L440.759 280.345ZM468.194 252.497L469.889 246.426C470.082 245.724 470.087 244.985 469.902 244.281C469.985 244.281 470.057 244.242 470.139 244.242C471.302 244.218 472.426 244.655 473.266 245.459C474.106 246.263 474.593 247.367 474.62 248.53C474.648 249.692 474.213 250.818 473.411 251.66C472.61 252.503 471.507 252.993 470.345 253.023C469.594 253.047 468.85 252.865 468.194 252.497Z" fill="#B8CDE1"/>
<path d="M439.355 242.03C439.907 245.185 446.11 247.403 453.568 247.017C460.427 246.701 466.035 244.293 467.062 241.438C466.682 241.326 466.286 241.273 465.89 241.282L439.994 241.95C439.779 241.958 439.566 241.985 439.355 242.03Z" fill="#496075"/>
<path d="M454.935 266.345C454.969 266.336 455.002 266.322 455.031 266.303L458.687 263.909C458.731 263.881 458.768 263.841 458.793 263.795C458.818 263.748 458.831 263.696 458.831 263.644C458.831 263.591 458.818 263.539 458.793 263.493C458.768 263.446 458.731 263.407 458.687 263.378L454.887 260.889C454.852 260.866 454.813 260.85 454.772 260.842C454.731 260.834 454.689 260.834 454.648 260.842C454.607 260.851 454.568 260.867 454.534 260.891C454.499 260.914 454.469 260.944 454.447 260.979C454.424 261.014 454.408 261.054 454.4 261.095C454.392 261.136 454.393 261.178 454.401 261.219C454.41 261.26 454.427 261.299 454.45 261.333C454.474 261.368 454.504 261.397 454.539 261.42L457.933 263.643L454.683 265.771C454.62 265.812 454.574 265.874 454.553 265.946C454.531 266.018 454.536 266.096 454.566 266.165C454.597 266.234 454.65 266.289 454.718 266.322C454.785 266.355 454.862 266.363 454.935 266.345H454.935Z" fill="#ED455D"/>
<path d="M449.161 266.611C449.223 266.596 449.278 266.562 449.32 266.515C449.362 266.468 449.389 266.409 449.398 266.346C449.407 266.284 449.396 266.22 449.368 266.163C449.34 266.106 449.296 266.059 449.241 266.028L445.871 264.095L449.129 261.676C449.162 261.651 449.19 261.62 449.212 261.584C449.233 261.548 449.247 261.508 449.253 261.467C449.259 261.426 449.257 261.384 449.247 261.343C449.237 261.303 449.219 261.265 449.194 261.231C449.169 261.198 449.138 261.17 449.102 261.148C449.066 261.127 449.027 261.113 448.985 261.107C448.944 261.1 448.902 261.103 448.862 261.113C448.821 261.123 448.783 261.141 448.75 261.166L445.103 263.875C445.061 263.906 445.027 263.948 445.004 263.996C444.982 264.043 444.972 264.096 444.975 264.149C444.978 264.201 444.994 264.252 445.022 264.297C445.05 264.342 445.089 264.379 445.134 264.406L448.925 266.579C448.997 266.62 449.081 266.632 449.161 266.611Z" fill="#ED455D"/>
<path d="M454.572 268.442C454.603 268.435 454.632 268.422 454.659 268.406C454.695 268.384 454.726 268.355 454.75 268.322C454.775 268.288 454.793 268.25 454.803 268.209C454.813 268.169 454.814 268.127 454.808 268.085C454.802 268.044 454.787 268.004 454.765 267.969L449.583 259.447C449.539 259.375 449.468 259.324 449.386 259.304C449.304 259.284 449.218 259.298 449.146 259.341C449.074 259.385 449.023 259.456 449.003 259.538C448.983 259.619 448.996 259.706 449.04 259.778L454.222 268.3C454.258 268.358 454.311 268.403 454.374 268.428C454.437 268.454 454.506 268.459 454.572 268.442Z" fill="#ED455D"/>
<path d="M163.214 165.771H135.132C133.986 165.771 133.058 166.699 133.058 167.845V170.589C133.058 171.735 133.986 172.664 135.132 172.664H163.214C164.359 172.664 165.288 171.735 165.288 170.589V167.845C165.288 166.699 164.359 165.771 163.214 165.771Z" fill="#ED455D"/>
<path d="M179.582 179.557H118.763C117.617 179.557 116.688 180.486 116.688 181.631V184.375C116.688 185.521 117.617 186.45 118.763 186.45H179.582C180.728 186.45 181.656 185.521 181.656 184.375V181.631C181.656 180.486 180.728 179.557 179.582 179.557Z" fill="#B8CDE1"/>
<path d="M179.582 193.343H118.763C117.617 193.343 116.688 194.272 116.688 195.417V198.161C116.688 199.307 117.617 200.236 118.763 200.236H179.582C180.728 200.236 181.656 199.307 181.656 198.161V195.417C181.656 194.272 180.728 193.343 179.582 193.343Z" fill="#B8CDE1"/>
<path d="M184.738 239.507L184.876 239.942L184.883 239.957L189.03 252.565L193.8 267.094L202.774 294.399L202.861 298.64V298.655L203.528 332.774L201.68 337.4L203.76 344.983C203.76 344.983 202.803 333.52 197.671 340.103C194.764 343.844 191.364 347.672 188.573 351.261C192.64 352.907 196.772 354.396 200.969 355.727C201.875 356.017 202.789 356.293 203.702 356.568C203.898 356.626 204.094 356.684 204.289 356.742C218.203 360.858 232.587 363.17 247.089 363.623C247.843 363.645 248.582 363.659 249.3 363.674C249.554 363.681 249.8 363.688 250.047 363.688C250.858 363.695 251.663 363.703 252.475 363.703C254.113 363.703 255.744 363.678 257.368 363.63C269.387 363.291 281.336 361.675 293.013 358.809C292.933 353.987 292.715 348.354 292.404 342.336C292.259 339.385 289.004 336.188 288.808 333.099C288.67 330.779 291.592 328.597 291.44 326.241C290.454 311.733 289.221 317.302 288.308 307.029C288.214 306.021 288.127 305.056 288.047 304.136C287.46 297.538 287.054 293.413 287.054 293.413L290.954 268.827L297.08 230.227L296.608 229.451L296.079 229.19L263.769 213.196L262.015 208.701C261.504 207.406 260.617 206.293 259.469 205.507C258.32 204.72 256.963 204.294 255.57 204.286L234.287 204.199C233.182 204.194 232.092 204.452 231.108 204.953C230.123 205.453 229.272 206.181 228.625 207.077L222.862 215.059L184.738 239.507Z" fill="#ED455D"/>
<path d="M207.682 288.323L202.861 298.64L199.57 305.687L193.908 335.334L191.074 338.342L188.645 327.691L163.228 333.335C162.394 328.702 163.005 333.492 162.49 328.409C162.635 328.264 162.787 328.119 162.94 327.974C163.346 327.597 163.686 327.242 163.679 326.901C163.389 309.37 164.259 279.536 171.523 261.461C172.66 258.51 174.16 255.711 175.988 253.13C176.133 252.935 176.271 252.739 176.409 252.543C179.758 247.852 181.875 243.234 184.876 239.949V239.942C184.895 239.927 184.912 239.91 184.927 239.891C184.938 239.886 184.947 239.879 184.956 239.87L205.572 228.936L206.457 253.79L207.087 271.655L207.682 288.323Z" fill="#ED455D"/>
<path d="M282.022 291.253L288.044 304.139L290.146 308.627L295.806 338.27L298.631 341.272L301.065 330.623L302.209 330.388L322.835 326.116L328.847 345.212C330.202 342.954 330.736 340.297 330.358 337.691C329.981 335.085 328.715 332.689 326.775 330.908C326.364 330.537 326.022 330.175 326.032 329.833C326.374 309.213 325.113 271.563 313.724 256.066C310.108 251.149 307.937 246.25 304.78 242.828C304.77 242.819 304.77 242.809 304.76 242.809L297.077 230.226L296.607 229.454L296.08 229.19L282.022 291.253Z" fill="#ED455D"/>
<path d="M245.543 198.141C261.181 198.141 273.858 185.462 273.858 169.821C273.858 154.181 261.181 141.502 245.543 141.502C229.905 141.502 217.228 154.181 217.228 169.821C217.228 185.462 229.905 198.141 245.543 198.141Z" fill="#FFB6B6"/>
<path d="M283.815 150.04C283.595 149.806 283.331 149.618 283.037 149.488C282.743 149.358 282.426 149.289 282.105 149.284L282.531 148.102C282.67 147.73 282.707 147.327 282.64 146.935C282.572 146.544 282.401 146.177 282.145 145.873C281.889 145.569 281.557 145.339 281.183 145.206C280.808 145.072 280.405 145.041 280.015 145.115L278.464 145.413L278.61 144.378C278.666 143.992 278.621 143.598 278.479 143.235C278.336 142.872 278.102 142.552 277.799 142.307C277.496 142.062 277.134 141.901 276.749 141.838C276.364 141.775 275.97 141.814 275.604 141.95C275.272 142.081 274.915 142.135 274.558 142.11C274.202 142.085 273.856 141.98 273.545 141.804C273.234 141.632 272.963 141.395 272.752 141.109C272.542 140.822 272.396 140.493 272.325 140.145L271.785 137.539L271.728 137.399C269.097 133.014 264.039 129.823 257.849 128.654C252.34 127.605 246.691 128.139 241.245 128.641C239.084 128.844 236.644 129.073 234.61 130.319C232.882 131.387 231.42 133.522 231.719 135.677C226.349 134.031 220.592 137.316 217.739 141.46C214.358 146.392 213.805 152.57 213.716 157.4C213.475 168.827 215.832 178.176 220.706 185.193C221.062 185.701 221.151 186.763 221.856 187.119L221.71 186.884C222.498 187.278 223.299 187.913 223 188.593C222.142 190.551 227.843 194.879 231.859 196.309C239.186 198.921 248.927 198.699 255.778 197.758L256.019 196.137C258.491 195.8 260.232 195.159 260.722 194.154C261.586 193.417 262.323 192.756 262.965 192.146L262.971 192.14C262.984 192.127 263.009 192.108 263.022 192.095C266.117 189.127 266.835 187.437 267.159 184.863C267.47 182.339 266.918 179.778 266.352 177.471C278.261 179.314 261.662 164.785 272.757 161.976C272.885 161.937 273.014 161.905 273.145 161.881C273.469 161.805 273.793 161.728 274.105 161.639C275.606 161.232 277.043 160.618 278.375 159.815C281.476 157.928 282.499 155.424 284.101 152.602C284.332 152.2 284.429 151.735 284.377 151.274C284.326 150.813 284.129 150.381 283.815 150.04Z" fill="#25313C"/>
<path d="M345.69 293.27C345.684 294.382 345.671 295.939 345.62 297.865C345.614 298.132 345.608 298.405 345.601 298.684C345.519 302.225 345.436 305.193 345.303 308.491C345.296 308.72 345.29 308.942 345.277 309.171C345.099 313.773 344.82 319.13 344.337 327.615C343.441 343.288 341.878 329.77 340.308 335.267C340.232 335.54 340.149 335.865 340.073 336.246C339.835 337.63 339.434 338.98 338.878 340.269C338.046 340.765 337.188 341.241 336.343 341.718C333.934 343.059 331.488 344.349 329.022 345.576C327.637 346.262 326.245 346.936 324.847 347.584C324.625 347.686 324.409 347.788 324.192 347.883C317.033 351.195 309.655 354.011 302.11 356.311C300.636 356.755 299.168 357.188 297.681 357.588C296.13 358.02 294.58 358.427 293.01 358.808C281.333 361.675 269.385 363.292 257.367 363.632C255.746 363.683 254.113 363.702 252.473 363.702C251.66 363.702 250.859 363.696 250.046 363.689C249.798 363.689 249.55 363.683 249.302 363.677C248.584 363.658 247.841 363.645 247.091 363.626C232.589 363.173 218.205 360.86 204.292 356.743L203.701 356.571C202.786 356.291 201.877 356.018 200.969 355.726C196.774 354.397 192.642 352.91 188.571 351.264C185.463 350.012 182.392 348.669 179.356 347.235C179.329 347.227 179.303 347.214 179.28 347.197C178.645 346.904 178.003 346.599 177.367 346.288C177.285 346.243 177.196 346.199 177.107 346.154C174.736 344.998 172.391 343.786 170.072 342.519C168.121 338.038 165.376 337.18 163.673 333.24C163.177 332.069 162.819 330.845 162.605 329.592C162.605 329.579 162.599 329.566 162.599 329.547C162.777 331.911 161.843 325.352 162.593 329.522C162.586 329.445 162.58 329.363 162.574 329.267C162.554 329.039 162.529 328.759 162.491 328.41C160.311 307.125 160.451 282.783 159.504 262.725C159.441 261.428 159.375 260.187 159.307 259C159.288 258.606 159.263 258.219 159.237 257.837C159.282 257.723 159.333 257.602 159.39 257.488C159.402 257.455 159.417 257.423 159.434 257.392C159.453 257.353 159.474 257.315 159.498 257.278C159.511 257.259 159.53 257.233 159.542 257.214C159.552 257.193 159.562 257.171 159.574 257.151C159.631 257.062 159.695 256.966 159.765 256.878C159.797 256.839 159.822 256.808 159.854 256.776C159.876 256.743 159.901 256.714 159.93 256.687C159.949 256.656 159.973 256.629 160 256.604C160.025 256.579 160.051 256.547 160.082 256.515C160.096 256.495 160.113 256.478 160.133 256.464C160.184 256.407 160.239 256.353 160.299 256.306C160.525 256.097 160.767 255.906 161.023 255.734C161.112 255.676 161.207 255.619 161.296 255.556C161.937 255.172 162.611 254.849 163.311 254.59C163.552 254.501 163.794 254.418 164.054 254.329C164.149 254.304 164.238 254.272 164.334 254.24C164.474 254.195 164.613 254.151 164.76 254.119C165.484 253.903 166.266 253.719 167.111 253.547C167.212 253.528 167.32 253.509 167.428 253.484C167.581 253.452 167.74 253.426 167.899 253.401C168.115 253.363 168.337 253.325 168.56 253.287C170.447 252.988 172.589 252.765 174.952 252.619C175.175 252.607 175.397 252.594 175.62 252.581C175.88 252.568 176.141 252.556 176.408 252.543C176.63 252.53 176.859 252.524 177.088 252.518C177.31 252.505 177.539 252.499 177.774 252.492C178.416 252.473 179.077 252.454 179.75 252.441C181.669 252.403 183.69 252.416 185.813 252.46C186.798 252.486 187.802 252.511 188.831 252.556C188.901 252.556 188.965 252.562 189.028 252.562C189.924 252.594 190.826 252.632 191.754 252.683C192.402 252.715 193.057 252.746 193.711 252.785C194.328 252.823 194.951 252.861 195.58 252.905C196.069 252.931 196.558 252.969 197.054 253.001C197.473 253.032 197.893 253.064 198.312 253.09L198.884 253.128C199.196 253.153 199.507 253.172 199.825 253.204C200.524 253.261 201.223 253.318 201.934 253.376C202.64 253.439 203.358 253.503 204.076 253.566C204.794 253.63 205.519 253.7 206.243 253.77C206.319 253.776 206.389 253.782 206.459 253.789C207.12 253.859 207.781 253.922 208.448 253.992C208.601 254.005 208.759 254.018 208.912 254.037C209.548 254.101 210.197 254.175 210.839 254.244C211.036 254.265 211.232 254.285 211.429 254.307C211.932 254.362 212.428 254.409 212.934 254.469C213.602 254.545 214.282 254.615 214.942 254.704C215.457 254.761 215.972 254.818 216.487 254.882C217.294 254.977 218.113 255.079 218.933 255.187C219.245 255.225 219.556 255.263 219.867 255.308C222.206 255.6 224.57 255.924 226.972 256.261C230.613 256.776 234.312 257.335 238.035 257.939C241.766 258.543 245.517 259.18 249.29 259.852C250.243 260.024 251.196 260.195 252.156 260.373C252.588 260.456 253.02 260.538 253.452 260.621C254.189 260.754 254.926 260.894 255.663 261.034C256.4 261.174 257.138 261.314 257.875 261.46C258.752 261.631 259.635 261.803 260.512 261.975C266.288 263.119 272.033 264.339 277.638 265.616C278.559 265.826 279.481 266.042 280.396 266.252C282.226 266.678 284.039 267.11 285.835 267.549C286.331 267.663 286.82 267.784 287.31 267.904C288.53 268.209 289.75 268.515 290.951 268.826L291.161 268.883C292.044 269.099 292.908 269.322 293.772 269.551C295.812 270.084 297.818 270.625 299.79 271.171C301.099 271.533 302.394 271.9 303.673 272.271C305.586 272.824 307.46 273.383 309.284 273.949C309.735 274.088 310.187 274.228 310.631 274.362C311.966 274.775 313.281 275.194 314.559 275.614C315.575 275.944 316.567 276.281 317.545 276.618C318.524 276.955 319.484 277.292 320.424 277.628C321.028 277.845 321.625 278.073 322.222 278.289C323.08 278.607 323.925 278.925 324.752 279.243C325.006 279.338 325.254 279.44 325.501 279.535C325.66 279.605 325.813 279.662 325.965 279.726C326.264 279.847 326.569 279.961 326.861 280.082C327.16 280.196 327.452 280.317 327.745 280.444C328.031 280.558 328.323 280.679 328.603 280.8C328.888 280.914 329.168 281.035 329.448 281.162C329.683 281.257 329.912 281.359 330.134 281.461C330.585 281.658 331.036 281.855 331.475 282.058C331.691 282.16 331.907 282.255 332.123 282.357L332.619 282.586C332.689 282.624 332.758 282.656 332.828 282.687C332.987 282.764 333.152 282.846 333.311 282.923C333.68 283.094 334.042 283.279 334.398 283.45C334.875 283.692 335.339 283.933 335.783 284.168C336.235 284.41 336.673 284.651 337.092 284.886C337.162 284.925 337.226 284.963 337.296 285.001C337.391 285.052 337.486 285.109 337.582 285.16C337.906 285.344 338.217 285.535 338.529 285.719C339.139 286.094 339.717 286.463 340.257 286.831C340.378 286.914 340.492 286.997 340.613 287.073C341.013 287.359 341.395 287.638 341.75 287.924C341.75 287.931 341.75 287.931 341.757 287.931C341.878 288.02 341.992 288.115 342.106 288.204C342.202 288.293 342.303 288.369 342.399 288.458C342.729 288.744 343.034 289.018 343.314 289.297C343.407 289.384 343.496 289.475 343.581 289.571C343.618 289.601 343.652 289.635 343.682 289.672C343.809 289.799 343.924 289.926 344.032 290.054C344.048 290.071 344.063 290.09 344.076 290.111C344.229 290.289 344.369 290.467 344.502 290.645C344.566 290.734 344.635 290.823 344.693 290.912C344.769 291.02 344.845 291.134 344.909 291.242C344.966 291.331 345.017 291.426 345.068 291.515C345.202 291.744 345.317 291.985 345.411 292.234C345.482 292.402 345.539 292.577 345.582 292.755C345.63 292.924 345.667 293.096 345.69 293.27Z" fill="#B8CDE1"/>
<path opacity="0.2" d="M345.69 293.27C345.684 294.382 345.671 295.939 345.621 297.865C345.614 298.132 345.601 298.405 345.595 298.685C345.532 301.386 345.436 304.722 345.303 308.491C345.296 308.72 345.29 308.942 345.277 309.171C345.099 313.773 344.82 319.13 344.337 327.615C343.441 343.288 341.878 329.77 340.308 335.267C335.949 332.585 331.17 329.776 326.061 326.891C325.139 326.369 324.209 325.846 323.271 325.321C313.053 319.62 301.64 313.646 289.725 307.729C289.254 307.493 288.778 307.258 288.308 307.029C261.014 293.537 231.223 280.412 207.088 271.654C202.43 269.964 197.982 268.438 193.8 267.097C184.993 264.282 177.38 262.312 171.521 261.46C165.42 260.57 161.207 260.888 159.504 262.725C159.441 261.428 159.375 260.187 159.307 259C159.282 258.606 159.256 258.219 159.231 257.837C159.27 257.733 159.321 257.633 159.37 257.532C159.378 257.517 159.383 257.502 159.39 257.488C159.402 257.455 159.417 257.423 159.434 257.392C159.453 257.353 159.474 257.315 159.498 257.278C159.519 257.233 159.544 257.19 159.574 257.151C159.631 257.062 159.695 256.967 159.765 256.878C159.816 256.811 159.871 256.747 159.93 256.687C159.949 256.656 159.973 256.629 160 256.604C160.025 256.579 160.051 256.547 160.082 256.515C160.096 256.495 160.113 256.478 160.133 256.464C160.184 256.407 160.239 256.354 160.299 256.306C160.525 256.097 160.767 255.906 161.023 255.734C161.112 255.676 161.207 255.619 161.296 255.556C161.937 255.172 162.611 254.849 163.311 254.59C163.552 254.501 163.794 254.418 164.054 254.329C164.149 254.304 164.238 254.272 164.334 254.24C164.474 254.196 164.613 254.151 164.76 254.119C165.484 253.903 166.266 253.719 167.111 253.547C167.365 253.496 167.632 253.446 167.899 253.401C168.115 253.363 168.337 253.325 168.56 253.287C170.447 252.988 172.589 252.765 174.952 252.619C175.175 252.607 175.397 252.594 175.62 252.581C175.88 252.568 176.141 252.556 176.408 252.543C176.63 252.53 176.859 252.524 177.088 252.518C177.31 252.505 177.539 252.499 177.774 252.492C178.416 252.473 179.077 252.454 179.75 252.441C181.669 252.41 183.69 252.422 185.813 252.467C186.798 252.486 187.802 252.518 188.831 252.562C188.895 252.562 188.965 252.568 189.028 252.568C189.924 252.594 190.833 252.638 191.754 252.683C192.402 252.715 193.057 252.746 193.711 252.785C194.328 252.823 194.951 252.861 195.58 252.905C196.069 252.931 196.558 252.969 197.054 253.001C197.473 253.032 197.893 253.064 198.312 253.09C198.814 253.128 199.316 253.166 199.825 253.204C200.524 253.261 201.223 253.318 201.934 253.376C202.64 253.439 203.358 253.503 204.076 253.566C204.794 253.63 205.519 253.7 206.243 253.77C206.319 253.776 206.389 253.782 206.459 253.789C207.12 253.859 207.781 253.922 208.448 253.992C212.146 254.367 215.953 254.806 219.867 255.308C222.206 255.606 224.574 255.926 226.972 256.267C230.613 256.782 234.312 257.341 238.036 257.939C241.766 258.543 245.517 259.18 249.29 259.852C250.243 260.024 251.196 260.195 252.156 260.373C253.325 260.589 254.494 260.809 255.663 261.034C256.401 261.174 257.138 261.314 257.875 261.46C258.752 261.632 259.635 261.803 260.512 261.975C266.288 263.119 272.033 264.339 277.638 265.616C278.559 265.826 279.481 266.042 280.396 266.252C282.226 266.678 284.039 267.11 285.836 267.549C286.331 267.669 286.82 267.79 287.31 267.911C288.536 268.216 289.75 268.521 290.951 268.826V268.832C291.021 268.845 291.091 268.864 291.161 268.883C292.038 269.106 292.908 269.328 293.773 269.557C295.812 270.091 297.818 270.629 299.79 271.171C301.099 271.54 302.396 271.902 303.673 272.271C305.586 272.83 307.461 273.389 309.284 273.949C309.736 274.088 310.187 274.228 310.632 274.362C311.966 274.781 313.275 275.199 314.559 275.614C315.575 275.944 316.567 276.281 317.545 276.618C318.524 276.955 319.484 277.292 320.424 277.629C321.034 277.845 321.632 278.067 322.222 278.283C323.087 278.601 323.926 278.919 324.752 279.243C325.006 279.338 325.254 279.44 325.501 279.535C325.965 279.713 326.417 279.897 326.861 280.082C327.16 280.196 327.452 280.317 327.745 280.444C328.031 280.558 328.323 280.679 328.603 280.8C328.889 280.914 329.168 281.035 329.448 281.162C329.683 281.258 329.912 281.359 330.134 281.461C330.585 281.658 331.036 281.855 331.475 282.058C331.691 282.16 331.907 282.255 332.123 282.357L332.619 282.586C332.689 282.624 332.759 282.656 332.828 282.688C333.369 282.942 333.89 283.196 334.398 283.45C334.875 283.692 335.339 283.933 335.783 284.168C336.311 284.448 336.813 284.721 337.296 285.001C337.391 285.052 337.486 285.109 337.582 285.16C337.906 285.344 338.217 285.535 338.529 285.719C339.139 286.094 339.717 286.463 340.257 286.831C340.791 287.2 341.287 287.562 341.75 287.925C341.75 287.931 341.75 287.931 341.757 287.931C341.979 288.109 342.195 288.287 342.399 288.458C342.729 288.744 343.034 289.018 343.314 289.297C343.407 289.384 343.497 289.475 343.581 289.571C343.618 289.601 343.652 289.635 343.682 289.672C343.816 289.818 343.949 289.965 344.076 290.111C344.229 290.289 344.369 290.467 344.502 290.645C344.566 290.734 344.636 290.823 344.693 290.912C344.769 291.02 344.845 291.134 344.909 291.242C344.966 291.331 345.017 291.426 345.068 291.515C345.203 291.744 345.317 291.985 345.411 292.234C345.48 292.403 345.538 292.577 345.582 292.755C345.631 292.924 345.667 293.096 345.69 293.27Z" fill="#496075"/>
</g>
<defs>
<clipPath id="clip0_2647_831">
<rect width="500" height="363.703" fill="white"/>
</clipPath>
</defs>
</svg>
